<svg width="375" height="64" viewBox="0 0 375 64" fill="none" xmlns="http://www.w3.org/2000/svg">
<path d="M-6065 -4390C-6065 -4391.1 -6064.1 -4392 -6063 -4392H4265C4266.1 -4392 4267 -4391.1 4267 -4390V8841C4267 8842.1 4266.1 8843 4265 8843H-6063C-6064.1 8843 -6065 8842.1 -6065 8841V-4390Z" fill="#444444"/>
<path d="M-6063 -4392V-4391H4265V-4392V-4393H-6063V-4392ZM4267 -4390H4266V8841H4267H4268V-4390H4267ZM4265 8843V8842H-6063V8843V8844H4265V8843ZM-6065 8841H-6064V-4390H-6065H-6066V8841H-6065ZM-6063 8843V8842C-6063.55 8842 -6064 8841.55 -6064 8841H-6065H-6066C-6066 8842.66 -6064.66 8844 -6063 8844V8843ZM4267 8841H4266C4266 8841.55 4265.55 8842 4265 8842V8843V8844C4266.66 8844 4268 8842.66 4268 8841H4267ZM4265 -4392V-4391C4265.55 -4391 4266 -4390.55 4266 -4390H4267H4268C4268 -4391.66 4266.66 -4393 4265 -4393V-4392ZM-6063 -4392V-4393C-6064.66 -4393 -6066 -4391.66 -6066 -4390H-6065H-6064C-6064 -4390.55 -6063.55 -4391 -6063 -4391V-4392Z" fill="white" fill-opacity="0.1"/>
<g clip-path="url(#clip0_238_2)">
<rect width="375" height="6280" transform="translate(0 -3966)" fill="#F9F9F9"/>
<path d="M15 1.0625L360 1.06247" stroke="#3B434B" stroke-opacity="0.2" stroke-linecap="round"/>
<path d="M22.502 24.2445L26.704 36.7625C26.8213 37.0705 26.9313 37.4665 27.034 37.9505C27.1513 38.4345 27.1953 38.8452 27.166 39.1825L28.596 39.0945L28.552 40.0625H23.778L23.8 39.3365C24.3573 39.3218 24.724 39.1972 24.9 38.9625C25.076 38.7278 25.1493 38.4492 25.12 38.1265C25.0907 37.8038 25.032 37.5105 24.944 37.2465L24.306 35.1785L18.674 35.3105L17.794 37.6645C17.662 38.0165 17.5447 38.2952 17.442 38.5005C17.354 38.7058 17.244 38.9332 17.112 39.1825L18.762 39.0945L18.718 40.0625H14.692L14.714 39.3365C15.0807 39.3218 15.396 39.2045 15.66 38.9845C15.924 38.7498 16.166 38.4272 16.386 38.0165C16.606 37.6058 16.826 37.1292 17.046 36.5865L22.018 24.2445H22.502ZM21.754 27.3025C21.5927 27.7132 21.4313 28.1238 21.27 28.5345C21.1087 28.9452 20.9473 29.3558 20.786 29.7665L19.026 34.3645H24.064L22.634 29.9645C22.4873 29.5245 22.3407 29.0845 22.194 28.6445C22.062 28.2045 21.9153 27.7572 21.754 27.3025ZM33.5869 40.2825C32.6776 40.2825 31.8636 40.0405 31.1449 39.5565C30.4262 39.0725 29.8762 38.3318 29.4949 37.3345C29.1282 36.3225 28.9962 35.0392 29.0989 33.4845C29.1869 32.1938 29.3922 30.9838 29.7149 29.8545C30.0522 28.7252 30.5362 27.7498 31.1669 26.9285C31.7976 26.0925 32.5969 25.4985 33.5649 25.1465C33.9902 24.9852 34.4156 24.8752 34.8409 24.8165C35.2809 24.7578 35.6989 24.7065 36.0949 24.6625C36.5056 24.6185 36.8576 24.5598 37.1509 24.4865C37.5469 24.3838 37.9136 24.2738 38.2509 24.1565C38.6029 24.0245 38.8742 23.7605 39.0649 23.3645L39.7029 23.5845C39.5562 24.0538 39.3582 24.4718 39.1089 24.8385C38.8596 25.1905 38.5662 25.4912 38.2289 25.7405C37.8916 25.9752 37.5029 26.1658 37.0629 26.3125C36.6962 26.4298 36.3149 26.5252 35.9189 26.5985C35.5376 26.6572 35.1562 26.7085 34.7749 26.7525C34.4082 26.7965 34.0709 26.8625 33.7629 26.9505C32.5162 27.3172 31.6069 27.9478 31.0349 28.8425C30.4776 29.7372 30.0962 30.8958 29.8909 32.3185H30.0449C30.4409 31.4532 30.9982 30.7638 31.7169 30.2505C32.4356 29.7372 33.3522 29.4805 34.4669 29.4805C35.2002 29.4805 35.8969 29.6785 36.5569 30.0745C37.2169 30.4558 37.7376 31.0278 38.1189 31.7905C38.5149 32.5385 38.6836 33.4625 38.6249 34.5625C38.5662 35.7065 38.2949 36.7112 37.8109 37.5765C37.3269 38.4272 36.7109 39.0945 35.9629 39.5785C35.2296 40.0478 34.4376 40.2825 33.5869 40.2825ZM33.4989 39.4465C34.1882 39.4465 34.7602 39.2412 35.2149 38.8305C35.6696 38.4052 36.0142 37.8332 36.2489 37.1145C36.4982 36.3812 36.6449 35.5598 36.6889 34.6505C36.7329 33.9172 36.6669 33.2205 36.4909 32.5605C36.3296 31.8858 36.0509 31.3358 35.6549 30.9105C35.2736 30.4852 34.7676 30.2725 34.1369 30.2725C33.4769 30.2725 32.9196 30.4705 32.4649 30.8665C32.0102 31.2625 31.6582 31.7832 31.4089 32.4285C31.1742 33.0592 31.0349 33.7412 30.9909 34.4745C30.9469 35.4572 31.0129 36.3225 31.1889 37.0705C31.3796 37.8185 31.6656 38.4052 32.0469 38.8305C32.4429 39.2412 32.9269 39.4465 33.4989 39.4465ZM45.3236 28.8205C46.1156 28.8205 46.8269 29.0112 47.4576 29.3925C48.0882 29.7592 48.5869 30.3018 48.9536 31.0205C49.3202 31.7392 49.5036 32.6118 49.5036 33.6385C49.5036 34.8118 49.2909 35.9118 48.8656 36.9385C48.4402 37.9505 47.8242 38.7645 47.0176 39.3805C46.2256 39.9965 45.2576 40.3045 44.1136 40.3045C43.1456 40.3045 42.3462 40.0845 41.7156 39.6445C41.0996 39.2045 40.6376 38.6105 40.3296 37.8625C40.0362 37.1145 39.8896 36.2858 39.8896 35.3765C39.8896 34.1885 40.1022 33.0958 40.5276 32.0985C40.9676 31.1012 41.5909 30.3092 42.3976 29.7225C43.2189 29.1212 44.1942 28.8205 45.3236 28.8205ZM44.9936 29.6345C44.3482 29.6198 43.7909 29.8398 43.3216 30.2945C42.8522 30.7345 42.4856 31.3358 42.2216 32.0985C41.9722 32.8612 41.8402 33.7118 41.8256 34.6505C41.8109 35.1492 41.8402 35.6772 41.9136 36.2345C41.9869 36.7918 42.1116 37.3125 42.2876 37.7965C42.4782 38.2805 42.7349 38.6765 43.0576 38.9845C43.3949 39.2925 43.8129 39.4538 44.3116 39.4685C44.8982 39.4832 45.3969 39.3292 45.8076 39.0065C46.2182 38.6692 46.5482 38.2365 46.7976 37.7085C47.0469 37.1805 47.2302 36.6158 47.3476 36.0145C47.4796 35.4132 47.5529 34.8485 47.5676 34.3205C47.5822 33.8072 47.5529 33.2792 47.4796 32.7365C47.4209 32.1938 47.2962 31.6878 47.1056 31.2185C46.9149 30.7492 46.6509 30.3752 46.3136 30.0965C45.9762 29.8032 45.5362 29.6492 44.9936 29.6345ZM59.8322 40.3045C59.4362 40.3045 59.1136 40.2238 58.8642 40.0625C58.6149 39.8865 58.4316 39.6518 58.3142 39.3585C58.1969 39.0652 58.1382 38.7205 58.1382 38.3245C58.1382 37.9872 58.1676 37.5545 58.2262 37.0265C58.2996 36.4838 58.3729 35.8972 58.4462 35.2665L54.2002 35.3105C54.1416 35.8678 54.0756 36.4325 54.0022 37.0045C53.9436 37.5618 53.8776 38.1192 53.8042 38.6765C53.7749 38.9552 53.7602 39.2045 53.7602 39.4245C53.7749 39.6445 53.7969 39.8572 53.8262 40.0625H51.9782C51.9636 39.9598 51.9562 39.8718 51.9562 39.7985C51.9562 39.7105 51.9562 39.6078 51.9562 39.4905C51.9709 39.2412 51.9929 38.9552 52.0222 38.6325C52.0516 38.2952 52.1029 37.8552 52.1762 37.3125C52.2642 36.7552 52.3669 36.0145 52.4842 35.0905C52.6016 34.2252 52.6896 33.5505 52.7482 33.0665C52.8216 32.5825 52.8729 32.2158 52.9022 31.9665C52.9462 31.7025 52.9756 31.5045 52.9902 31.3725C53.0049 31.2258 53.0122 31.0718 53.0122 30.9105C53.0269 30.6465 52.9902 30.4192 52.9022 30.2285C52.8142 30.0232 52.6456 29.9205 52.3962 29.9205C52.1616 29.9205 51.8902 30.0818 51.5822 30.4045C51.2742 30.7272 50.9956 31.2772 50.7462 32.0545L50.1302 31.9225C50.1889 31.6585 50.2916 31.3578 50.4382 31.0205C50.5849 30.6685 50.7756 30.3238 51.0102 29.9865C51.2596 29.6492 51.5529 29.3705 51.8902 29.1505C52.2276 28.9305 52.6162 28.8205 53.0562 28.8205C53.6136 28.8205 54.0096 28.9818 54.2442 29.3045C54.4789 29.6125 54.6109 30.0158 54.6402 30.5145C54.6696 31.0132 54.6476 31.5412 54.5742 32.0985C54.5302 32.4798 54.4862 32.8685 54.4422 33.2645C54.3982 33.6605 54.3542 34.0492 54.3102 34.4305H58.5562C58.6442 33.7265 58.7176 33.0958 58.7762 32.5385C58.8349 31.9812 58.8716 31.4312 58.8862 30.8885C58.9156 30.3458 58.9082 29.7372 58.8642 29.0625H60.7122C60.7269 29.1652 60.7342 29.2605 60.7342 29.3485C60.7342 29.4218 60.7342 29.5172 60.7342 29.6345C60.7342 29.9718 60.7049 30.4412 60.6462 31.0425C60.5876 31.6292 60.5142 32.2745 60.4262 32.9785C60.3529 33.6825 60.2722 34.3865 60.1842 35.0905C60.0962 35.7945 60.0229 36.4252 59.9642 36.9825C59.9056 37.5252 59.8762 37.9358 59.8762 38.2145C59.8762 38.4785 59.9129 38.7058 59.9862 38.8965C60.0742 39.0872 60.2356 39.1825 60.4702 39.1825C60.7196 39.1825 60.9909 39.0285 61.2842 38.7205C61.5922 38.3978 61.8562 37.8478 62.0762 37.0705L62.6922 37.2025C62.6482 37.4665 62.5529 37.7745 62.4062 38.1265C62.2742 38.4638 62.0909 38.8012 61.8562 39.1385C61.6216 39.4758 61.3356 39.7545 60.9982 39.9745C60.6609 40.1945 60.2722 40.3045 59.8322 40.3045ZM68.4722 28.8205C69.0002 28.8205 69.4989 28.9012 69.9682 29.0625C70.4375 29.2238 70.8189 29.4878 71.1122 29.8545C71.4055 30.2212 71.5522 30.7198 71.5522 31.3505C71.5522 31.9518 71.3469 32.4725 70.9362 32.9125C70.5255 33.3525 69.9902 33.7192 69.3302 34.0125C68.6702 34.2912 67.9662 34.5185 67.2182 34.6945C66.4702 34.8705 65.7515 34.9952 65.0622 35.0685C65.0622 35.9778 65.1502 36.7405 65.3262 37.3565C65.5169 37.9725 65.7955 38.4345 66.1622 38.7425C66.5289 39.0505 66.9982 39.2045 67.5702 39.2045C67.9955 39.2045 68.4209 39.1092 68.8462 38.9185C69.2862 38.7278 69.7042 38.4418 70.1002 38.0605C70.4962 37.6645 70.8555 37.1585 71.1782 36.5425L71.9042 36.9605C71.4935 37.7232 71.0535 38.3538 70.5842 38.8525C70.1149 39.3512 69.6015 39.7178 69.0442 39.9525C68.4869 40.1872 67.8709 40.3045 67.1962 40.3045C65.8029 40.3045 64.7762 39.8718 64.1162 39.0065C63.4562 38.1265 63.1262 36.9752 63.1262 35.5525C63.1262 34.7018 63.2362 33.8732 63.4562 33.0665C63.6762 32.2598 64.0062 31.5412 64.4462 30.9105C64.8862 30.2652 65.4435 29.7592 66.1182 29.3925C66.7929 29.0112 67.5775 28.8205 68.4722 28.8205ZM68.1642 29.5685C67.4895 29.5685 66.9322 29.7958 66.4922 30.2505C66.0669 30.7052 65.7369 31.2918 65.5022 32.0105C65.2822 32.7292 65.1429 33.4845 65.0842 34.2765C65.8615 34.1738 66.6022 33.9905 67.3062 33.7265C68.0102 33.4625 68.5895 33.1252 69.0442 32.7145C69.4989 32.2892 69.7262 31.7978 69.7262 31.2405C69.7262 30.7712 69.5942 30.3752 69.3302 30.0525C69.0809 29.7298 68.6922 29.5685 68.1642 29.5685ZM73.4346 40.2825C73.0239 40.2825 72.6792 40.1652 72.4006 39.9305C72.1366 39.6958 72.0046 39.4172 72.0046 39.0945C72.0046 38.8158 72.0999 38.5738 72.2906 38.3685C72.4812 38.1485 72.7232 38.0385 73.0166 38.0385C73.2512 38.0385 73.4639 38.1192 73.6546 38.2805C73.8599 38.4418 73.9626 38.6472 73.9626 38.8965C73.9626 38.9698 73.9552 39.0358 73.9406 39.0945C73.9406 39.1385 73.9332 39.1825 73.9186 39.2265C74.1679 39.2412 74.4319 39.0798 74.7106 38.7425C74.9892 38.4052 75.2826 37.8698 75.5906 37.1365C75.9132 36.4032 76.2579 35.4425 76.6246 34.2545C77.0059 33.0518 77.4092 31.6072 77.8346 29.9205L75.8546 29.9425L75.9426 29.0625H80.2986C80.3279 29.1798 80.3426 29.3045 80.3426 29.4365C80.3572 29.5538 80.3646 29.6785 80.3646 29.8105C80.3646 31.1745 80.3426 32.5238 80.2986 33.8585C80.2692 35.1785 80.2839 36.5132 80.3426 37.8625C80.3719 38.3465 80.4012 38.6838 80.4306 38.8745C80.4599 39.0505 80.5479 39.1385 80.6946 39.1385C80.8706 39.1385 81.1419 38.8158 81.5086 38.1705C81.8899 37.5105 82.3812 36.4472 82.9826 34.9805C83.5839 33.4992 84.3026 31.5265 85.1386 29.0625H87.1626C87.1772 29.1652 87.1846 29.2605 87.1846 29.3485C87.1846 29.4218 87.1846 29.5172 87.1846 29.6345C87.1846 29.9718 87.1479 30.4412 87.0746 31.0425C87.0159 31.6292 86.9352 32.2745 86.8326 32.9785C86.7446 33.6825 86.6492 34.3865 86.5466 35.0905C86.4586 35.7945 86.3779 36.4252 86.3046 36.9825C86.2459 37.5252 86.2166 37.9358 86.2166 38.2145C86.2166 38.4785 86.2532 38.7058 86.3266 38.8965C86.3999 39.0872 86.5466 39.1825 86.7666 39.1825C87.0159 39.1825 87.2946 39.0285 87.6026 38.7205C87.9252 38.3978 88.1966 37.8478 88.4166 37.0705L89.0326 37.2025C88.9886 37.4665 88.8932 37.7745 88.7466 38.1265C88.6146 38.4638 88.4239 38.8012 88.1746 39.1385C87.9399 39.4758 87.6466 39.7545 87.2946 39.9745C86.9572 40.1945 86.5612 40.3045 86.1066 40.3045C85.7252 40.3045 85.4099 40.2238 85.1606 40.0625C84.9259 39.8865 84.7499 39.6518 84.6326 39.3585C84.5299 39.0652 84.4786 38.7205 84.4786 38.3245C84.4786 37.9432 84.5226 37.4445 84.6106 36.8285C84.6986 36.2125 84.8086 35.5452 84.9406 34.8265C85.0726 34.0932 85.2046 33.3672 85.3366 32.6485C85.4686 31.9152 85.5712 31.2478 85.6446 30.6465H85.5126C84.8526 32.4945 84.2732 34.0418 83.7746 35.2885C83.2906 36.5352 82.8506 37.5252 82.4546 38.2585C82.0586 38.9918 81.6699 39.5198 81.2886 39.8425C80.9072 40.1505 80.4892 40.3045 80.0346 40.3045C79.5066 40.3045 79.1326 40.1065 78.9126 39.7105C78.7072 39.3145 78.6046 38.6325 78.6046 37.6645C78.6046 37.1365 78.6046 36.5425 78.6046 35.8825C78.6192 35.2225 78.6339 34.5552 78.6486 33.8805C78.6632 33.1912 78.6852 32.5605 78.7146 31.9885C78.7439 31.4165 78.7879 30.9692 78.8466 30.6465H78.6706C78.1866 32.3185 77.7539 33.7632 77.3726 34.9805C77.0059 36.1978 76.6392 37.1952 76.2726 37.9725C75.9059 38.7498 75.4952 39.3292 75.0406 39.7105C74.6006 40.0918 74.0652 40.2825 73.4346 40.2825ZM94.8241 28.8205C95.3521 28.8205 95.8507 28.9012 96.3201 29.0625C96.7894 29.2238 97.1707 29.4878 97.4641 29.8545C97.7574 30.2212 97.9041 30.7198 97.9041 31.3505C97.9041 31.9518 97.6987 32.4725 97.2881 32.9125C96.8774 33.3525 96.3421 33.7192 95.6821 34.0125C95.0221 34.2912 94.3181 34.5185 93.5701 34.6945C92.8221 34.8705 92.1034 34.9952 91.4141 35.0685C91.4141 35.9778 91.5021 36.7405 91.6781 37.3565C91.8687 37.9725 92.1474 38.4345 92.5141 38.7425C92.8807 39.0505 93.3501 39.2045 93.9221 39.2045C94.3474 39.2045 94.7727 39.1092 95.1981 38.9185C95.6381 38.7278 96.0561 38.4418 96.4521 38.0605C96.8481 37.6645 97.2074 37.1585 97.5301 36.5425L98.2561 36.9605C97.8454 37.7232 97.4054 38.3538 96.9361 38.8525C96.4667 39.3512 95.9534 39.7178 95.3961 39.9525C94.8387 40.1872 94.2227 40.3045 93.5481 40.3045C92.1547 40.3045 91.1281 39.8718 90.4681 39.0065C89.8081 38.1265 89.4781 36.9752 89.4781 35.5525C89.4781 34.7018 89.5881 33.8732 89.8081 33.0665C90.0281 32.2598 90.3581 31.5412 90.7981 30.9105C91.2381 30.2652 91.7954 29.7592 92.4701 29.3925C93.1447 29.0112 93.9294 28.8205 94.8241 28.8205ZM94.5161 29.5685C93.8414 29.5685 93.2841 29.7958 92.8441 30.2505C92.4187 30.7052 92.0887 31.2918 91.8541 32.0105C91.6341 32.7292 91.4947 33.4845 91.4361 34.2765C92.2134 34.1738 92.9541 33.9905 93.6581 33.7265C94.3621 33.4625 94.9414 33.1252 95.3961 32.7145C95.8507 32.2892 96.0781 31.7978 96.0781 31.2405C96.0781 30.7712 95.9461 30.3752 95.6821 30.0525C95.4327 29.7298 95.0441 29.5685 94.5161 29.5685ZM108.432 40.3045C108.036 40.3045 107.714 40.2238 107.464 40.0625C107.215 39.8865 107.032 39.6518 106.914 39.3585C106.797 39.0652 106.738 38.7205 106.738 38.3245C106.738 37.9872 106.768 37.5545 106.826 37.0265C106.9 36.4838 106.973 35.8972 107.046 35.2665L102.8 35.3105C102.742 35.8678 102.676 36.4325 102.602 37.0045C102.544 37.5618 102.478 38.1192 102.404 38.6765C102.375 38.9552 102.36 39.2045 102.36 39.4245C102.375 39.6445 102.397 39.8572 102.426 40.0625H100.578C100.564 39.9598 100.556 39.8718 100.556 39.7985C100.556 39.7105 100.556 39.6078 100.556 39.4905C100.571 39.2412 100.593 38.9552 100.622 38.6325C100.652 38.2952 100.703 37.8552 100.776 37.3125C100.864 36.7552 100.967 36.0145 101.084 35.0905C101.202 34.2252 101.29 33.5505 101.348 33.0665C101.422 32.5825 101.473 32.2158 101.502 31.9665C101.546 31.7025 101.576 31.5045 101.59 31.3725C101.605 31.2258 101.612 31.0718 101.612 30.9105C101.627 30.6465 101.59 30.4192 101.502 30.2285C101.414 30.0232 101.246 29.9205 100.996 29.9205C100.762 29.9205 100.49 30.0818 100.182 30.4045C99.8745 30.7272 99.5958 31.2772 99.3465 32.0545L98.7305 31.9225C98.7891 31.6585 98.8918 31.3578 99.0385 31.0205C99.1851 30.6685 99.3758 30.3238 99.6105 29.9865C99.8598 29.6492 100.153 29.3705 100.49 29.1505C100.828 28.9305 101.216 28.8205 101.656 28.8205C102.214 28.8205 102.61 28.9818 102.844 29.3045C103.079 29.6125 103.211 30.0158 103.24 30.5145C103.27 31.0132 103.248 31.5412 103.174 32.0985C103.13 32.4798 103.086 32.8685 103.042 33.2645C102.998 33.6605 102.954 34.0492 102.91 34.4305H107.156C107.244 33.7265 107.318 33.0958 107.376 32.5385C107.435 31.9812 107.472 31.4312 107.486 30.8885C107.516 30.3458 107.508 29.7372 107.464 29.0625H109.312C109.327 29.1652 109.334 29.2605 109.334 29.3485C109.334 29.4218 109.334 29.5172 109.334 29.6345C109.334 29.9718 109.305 30.4412 109.246 31.0425C109.188 31.6292 109.114 32.2745 109.026 32.9785C108.953 33.6825 108.872 34.3865 108.784 35.0905C108.696 35.7945 108.623 36.4252 108.564 36.9825C108.506 37.5252 108.476 37.9358 108.476 38.2145C108.476 38.4785 108.513 38.7058 108.586 38.8965C108.674 39.0872 108.836 39.1825 109.07 39.1825C109.32 39.1825 109.591 39.0285 109.884 38.7205C110.192 38.3978 110.456 37.8478 110.676 37.0705L111.292 37.2025C111.248 37.4665 111.153 37.7745 111.006 38.1265C110.874 38.4638 110.691 38.8012 110.456 39.1385C110.222 39.4758 109.936 39.7545 109.598 39.9745C109.261 40.1945 108.872 40.3045 108.432 40.3045ZM126.994 40.3045C126.305 40.3045 125.836 40.1212 125.586 39.7545C125.352 39.3878 125.234 38.8672 125.234 38.1925C125.234 37.7818 125.271 37.2978 125.344 36.7405C125.432 36.1832 125.528 35.5892 125.63 34.9585C125.733 34.3278 125.821 33.6898 125.894 33.0445C125.982 32.3992 126.026 31.7832 126.026 31.1965C126.026 31.0205 125.997 30.8298 125.938 30.6245C125.88 30.4192 125.777 30.2432 125.63 30.0965C125.484 29.9352 125.264 29.8545 124.97 29.8545C124.56 29.8545 124.156 30.0452 123.76 30.4265C123.364 30.8078 122.998 31.3212 122.66 31.9665C122.323 32.6118 122.022 33.3305 121.758 34.1225C121.509 34.8998 121.311 35.7065 121.164 36.5425C121.018 37.3638 120.944 38.1485 120.944 38.8965C120.944 39.1165 120.944 39.3218 120.944 39.5125C120.959 39.6885 120.974 39.8718 120.988 40.0625H119.14C119.126 39.9598 119.118 39.8718 119.118 39.7985C119.118 39.7105 119.118 39.6078 119.118 39.4905C119.118 38.9332 119.155 38.2732 119.228 37.5105C119.316 36.7478 119.412 35.9632 119.514 35.1565C119.632 34.3498 119.727 33.5872 119.8 32.8685C119.888 32.1498 119.925 31.5632 119.91 31.1085C119.896 30.8592 119.822 30.5878 119.69 30.2945C119.558 30.0012 119.28 29.8545 118.854 29.8545C118.444 29.8545 118.04 30.0452 117.644 30.4265C117.263 30.8078 116.904 31.3212 116.566 31.9665C116.229 32.6118 115.928 33.3305 115.664 34.1225C115.4 34.8998 115.195 35.7065 115.048 36.5425C114.902 37.3638 114.828 38.1485 114.828 38.8965C114.828 39.1165 114.828 39.3218 114.828 39.5125C114.843 39.6885 114.858 39.8718 114.872 40.0625H113.024C113.01 39.9598 113.002 39.8718 113.002 39.7985C113.002 39.7105 113.002 39.6078 113.002 39.4905C113.002 39.2412 113.01 38.9552 113.024 38.6325C113.054 38.2952 113.098 37.8552 113.156 37.3125C113.23 36.7552 113.318 36.0145 113.42 35.0905C113.523 34.2252 113.604 33.5505 113.662 33.0665C113.721 32.5825 113.765 32.2158 113.794 31.9665C113.824 31.7025 113.838 31.5045 113.838 31.3725C113.853 31.2258 113.86 31.0718 113.86 30.9105C113.86 30.6465 113.824 30.4192 113.75 30.2285C113.677 30.0232 113.516 29.9205 113.266 29.9205C113.032 29.9205 112.76 30.0818 112.452 30.4045C112.144 30.7272 111.88 31.2772 111.66 32.0545L111.044 31.9225C111.088 31.6585 111.176 31.3578 111.308 31.0205C111.455 30.6685 111.646 30.3238 111.88 29.9865C112.115 29.6492 112.401 29.3705 112.738 29.1505C113.076 28.9305 113.464 28.8205 113.904 28.8205C114.388 28.8205 114.748 28.9452 114.982 29.1945C115.217 29.4292 115.371 29.7445 115.444 30.1405C115.532 30.5218 115.562 30.9398 115.532 31.3945C115.518 31.8052 115.474 32.2232 115.4 32.6485C115.327 33.0592 115.261 33.4185 115.202 33.7265H115.268C115.738 32.3918 116.2 31.3725 116.654 30.6685C117.124 29.9645 117.578 29.4805 118.018 29.2165C118.473 28.9525 118.898 28.8205 119.294 28.8205C119.881 28.8205 120.343 28.9598 120.68 29.2385C121.032 29.5025 121.282 29.8252 121.428 30.2065C121.575 30.5878 121.648 30.9618 121.648 31.3285C121.648 31.7392 121.619 32.0912 121.56 32.3845C121.502 32.6778 121.406 33.1032 121.274 33.6605H121.34C121.824 32.3258 122.301 31.3138 122.77 30.6245C123.254 29.9205 123.724 29.4438 124.178 29.1945C124.633 28.9452 125.058 28.8205 125.454 28.8205C126.041 28.8205 126.503 28.9525 126.84 29.2165C127.178 29.4805 127.412 29.8325 127.544 30.2725C127.691 30.6978 127.764 31.1672 127.764 31.6805C127.764 32.4872 127.706 33.3158 127.588 34.1665C127.471 35.0025 127.346 35.7798 127.214 36.4985C127.097 37.2025 127.038 37.7672 127.038 38.1925C127.038 38.4565 127.068 38.6912 127.126 38.8965C127.2 39.1018 127.368 39.2045 127.632 39.2045C127.882 39.2045 128.16 39.0505 128.468 38.7425C128.776 38.4198 129.04 37.8625 129.26 37.0705L129.876 37.2245C129.832 37.4738 129.737 37.7745 129.59 38.1265C129.444 38.4785 129.253 38.8232 129.018 39.1605C128.784 39.4832 128.498 39.7545 128.16 39.9745C127.823 40.1945 127.434 40.3045 126.994 40.3045ZM142.13 40.3045C141.734 40.3045 141.411 40.2238 141.162 40.0625C140.913 39.8865 140.729 39.6518 140.612 39.3585C140.495 39.0652 140.436 38.7205 140.436 38.3245C140.436 37.9432 140.473 37.4445 140.546 36.8285C140.634 36.1978 140.722 35.5085 140.81 34.7605C140.913 33.9978 141.001 33.2352 141.074 32.4725C141.162 31.7098 141.206 30.9985 141.206 30.3385C141.206 30.1185 141.199 29.9058 141.184 29.7005C141.184 29.4952 141.177 29.2825 141.162 29.0625H143.01C143.025 29.1652 143.032 29.2605 143.032 29.3485C143.032 29.4218 143.032 29.5172 143.032 29.6345C143.032 29.9718 143.003 30.4412 142.944 31.0425C142.885 31.6292 142.812 32.2745 142.724 32.9785C142.651 33.6825 142.57 34.3865 142.482 35.0905C142.394 35.7945 142.321 36.4252 142.262 36.9825C142.203 37.5252 142.174 37.9358 142.174 38.2145C142.174 38.4785 142.211 38.7058 142.284 38.8965C142.372 39.0872 142.533 39.1825 142.768 39.1825C143.003 39.1825 143.274 39.0285 143.582 38.7205C143.89 38.3978 144.154 37.8478 144.374 37.0705L144.99 37.2025C144.946 37.4665 144.851 37.7745 144.704 38.1265C144.572 38.4638 144.389 38.8012 144.154 39.1385C143.919 39.4758 143.633 39.7545 143.296 39.9745C142.959 40.1945 142.57 40.3045 142.13 40.3045ZM134.672 40.3045C133.924 40.3045 133.323 40.1578 132.868 39.8645C132.413 39.5565 132.098 39.1458 131.922 38.6325C131.746 38.1045 131.702 37.5105 131.79 36.8505C131.981 35.6625 132.135 34.7018 132.252 33.9685C132.369 33.2205 132.457 32.6412 132.516 32.2305C132.575 31.8198 132.611 31.5192 132.626 31.3285C132.655 31.1378 132.67 30.9985 132.67 30.9105C132.685 30.6465 132.655 30.4192 132.582 30.2285C132.523 30.0232 132.369 29.9205 132.12 29.9205C131.885 29.9205 131.607 30.0818 131.284 30.4045C130.961 30.7272 130.675 31.2772 130.426 32.0545L129.81 31.9225C129.869 31.6585 129.971 31.3578 130.118 31.0205C130.279 30.6685 130.477 30.3238 130.712 29.9865C130.961 29.6492 131.255 29.3705 131.592 29.1505C131.944 28.9305 132.34 28.8205 132.78 28.8205C133.337 28.8205 133.733 28.9818 133.968 29.3045C134.203 29.6125 134.327 30.0158 134.342 30.5145C134.371 31.0132 134.342 31.5412 134.254 32.0985L133.462 37.0485C133.359 37.8258 133.491 38.4272 133.858 38.8525C134.225 39.2632 134.701 39.4685 135.288 39.4685C135.992 39.4685 136.549 39.2118 136.96 38.6985C137.385 38.1705 137.605 37.4225 137.62 36.4545C137.649 35.6478 137.554 34.9952 137.334 34.4965C137.114 33.9978 136.667 33.7485 135.992 33.7485C135.596 33.7485 135.2 33.8438 134.804 34.0345C134.408 34.2105 134.005 34.4818 133.594 34.8485L133.616 33.8365C134.085 33.5578 134.525 33.3378 134.936 33.1765C135.361 33.0152 135.801 32.9345 136.256 32.9345C136.887 32.9345 137.437 33.0592 137.906 33.3085C138.39 33.5432 138.771 33.8878 139.05 34.3425C139.329 34.7972 139.461 35.3545 139.446 36.0145C139.431 36.8065 139.219 37.5325 138.808 38.1925C138.397 38.8378 137.833 39.3512 137.114 39.7325C136.41 40.1138 135.596 40.3045 134.672 40.3045Z" fill="#3B434B"/>
<path d="M357.75 40.8125L344.25 27.3125M357.75 40.8125C357.243 40.3055 356.308 39.98 355.471 39.7783C354.353 39.509 353.194 39.4602 352.052 39.5892C351.165 39.6897 350.188 39.8892 349.795 40.2822M357.75 40.8125C357.243 40.3055 356.918 39.3703 356.716 38.5333C356.447 37.4158 356.398 36.2563 356.527 35.114C356.627 34.2275 356.827 33.251 357.22 32.8572" stroke="#3B434B" stroke-width="0.75"/>
<path d="M15 63.0625L360 63.0625" stroke="#3B434B" stroke-opacity="0.2" stroke-linecap="round"/>
</g>
<defs>
<clipPath id="clip0_238_2">
<rect width="375" height="6280" fill="white" transform="translate(0 -3966)"/>
</clipPath>
</defs>
</svg>
