<svg width="134" height="68" viewBox="0 0 134 68" fill="none" xmlns="http://www.w3.org/2000/svg">
<path d="M-309 -418C-309 -419.105 -308.105 -420 -307 -420H10021C10022.1 -420 10023 -419.105 10023 -418V12813C10023 12814.1 10022.1 12815 10021 12815H-307C-308.104 12815 -309 12814.1 -309 12813V-418Z" fill="#444444"/>
<path d="M-307 -420V-419H10021V-420V-421H-307V-420ZM10023 -418H10022V12813H10023H10024V-418H10023ZM10021 12815V12814H-307V12815V12816H10021V12815ZM-309 12813H-308V-418H-309H-310V12813H-309ZM-307 12815V12814C-307.552 12814 -308 12813.6 -308 12813H-309H-310C-310 12814.7 -308.656 12816 -307 12816V12815ZM10023 12813H10022C10022 12813.6 10021.6 12814 10021 12814V12815V12816C10022.7 12816 10024 12814.7 10024 12813H10023ZM10021 -420V-419C10021.6 -419 10022 -418.552 10022 -418H10023H10024C10024 -419.657 10022.7 -421 10021 -421V-420ZM-307 -420V-421C-308.657 -421 -310 -419.657 -310 -418H-309H-308C-308 -418.552 -307.552 -419 -307 -419V-420Z" fill="white" fill-opacity="0.1"/>
<rect width="375" height="5540" fill="#FEF7ED"/>
<path d="M21.1875 41L18.1875 36.9943H17.1136V41H16.0568V32.2727H17.1136V36.0568H17.5739L21.0682 32.2727H22.3295L18.8011 36.108L22.4489 41H21.1875ZM30.5281 36.6364C30.5281 37.5568 30.3619 38.3523 30.0295 39.0227C29.6971 39.6932 29.2412 40.2102 28.6616 40.5739C28.0821 40.9375 27.4202 41.1193 26.6758 41.1193C25.9315 41.1193 25.2696 40.9375 24.69 40.5739C24.1105 40.2102 23.6545 39.6932 23.3221 39.0227C22.9898 38.3523 22.8236 37.5568 22.8236 36.6364C22.8236 35.7159 22.9898 34.9205 23.3221 34.25C23.6545 33.5795 24.1105 33.0625 24.69 32.6989C25.2696 32.3352 25.9315 32.1534 26.6758 32.1534C27.4202 32.1534 28.0821 32.3352 28.6616 32.6989C29.2412 33.0625 29.6971 33.5795 30.0295 34.25C30.3619 34.9205 30.5281 35.7159 30.5281 36.6364ZM29.5054 36.6364C29.5054 35.8807 29.379 35.2429 29.1261 34.723C28.8761 34.2031 28.5366 33.8097 28.1077 33.5426C27.6815 33.2756 27.2042 33.142 26.6758 33.142C26.1474 33.142 25.6687 33.2756 25.2398 33.5426C24.8136 33.8097 24.4741 34.2031 24.2213 34.723C23.9713 35.2429 23.8463 35.8807 23.8463 36.6364C23.8463 37.392 23.9713 38.0298 24.2213 38.5497C24.4741 39.0696 24.8136 39.4631 25.2398 39.7301C25.6687 39.9972 26.1474 40.1307 26.6758 40.1307C27.2042 40.1307 27.6815 39.9972 28.1077 39.7301C28.5366 39.4631 28.8761 39.0696 29.1261 38.5497C29.379 38.0298 29.5054 37.392 29.5054 36.6364ZM32.0651 41V32.2727H33.1219V36.1591H37.7753V32.2727H38.8321V41H37.7753V37.0966H33.1219V41H32.0651ZM40.2306 33.2102V32.2727H46.7761V33.2102H44.0318V41H42.975V33.2102H40.2306ZM47.5056 41H46.3976L49.6021 32.2727H50.6931L53.8976 41H52.7896L50.1817 33.6534H50.1135L47.5056 41ZM47.9146 37.5909H52.3806V38.5284H47.9146V37.5909ZM60.1477 41L57.1477 36.9943H56.0738V41H55.017V32.2727H56.0738V36.0568H56.534L60.0283 32.2727H61.2897L57.7613 36.108L61.409 41H60.1477ZM62.0575 33.2102V32.2727H68.603V33.2102H65.8587V41H64.8018V33.2102H62.0575ZM70.7781 35.9375H73.2667C73.8917 35.9375 74.4187 36.0398 74.8477 36.2443C75.2795 36.4489 75.6062 36.7372 75.8278 37.1094C76.0522 37.4815 76.1645 37.9205 76.1645 38.4261C76.1645 38.9318 76.0522 39.3778 75.8278 39.7642C75.6062 40.1506 75.2795 40.4531 74.8477 40.6719C74.4187 40.8906 73.8917 41 73.2667 41H69.994V32.2727H71.0508V40.0795H73.2667C73.6645 40.0795 74.0011 40 74.2767 39.8409C74.5551 39.679 74.7653 39.4716 74.9074 39.2188C75.0522 38.9631 75.1247 38.6932 75.1247 38.4091C75.1247 37.9915 74.9642 37.6321 74.6432 37.331C74.3221 37.027 73.8633 36.875 73.2667 36.875H70.7781V35.9375ZM78.0736 32.2727V41H77.0167V32.2727H78.0736Z" fill="#342222"/>
</svg>
