<svg width="375" height="62" viewBox="0 0 375 62" fill="none" xmlns="http://www.w3.org/2000/svg">
<path d="M-6065 -2463C-6065 -2464.1 -6064.1 -2465 -6063 -2465H4265C4266.1 -2465 4267 -2464.1 4267 -2463V10768C4267 10769.1 4266.1 10770 4265 10770H-6063C-6064.1 10770 -6065 10769.1 -6065 10768V-2463Z" fill="#444444"/>
<path d="M-6063 -2465V-2464H4265V-2465V-2466H-6063V-2465ZM4267 -2463H4266V10768H4267H4268V-2463H4267ZM4265 10770V10769H-6063V10770V10771H4265V10770ZM-6065 10768H-6064V-2463H-6065H-6066V10768H-6065ZM-6063 10770V10769C-6063.55 10769 -6064 10768.6 -6064 10768H-6065H-6066C-6066 10769.7 -6064.66 10771 -6063 10771V10770ZM4267 10768H4266C4266 10768.6 4265.55 10769 4265 10769V10770V10771C4266.66 10771 4268 10769.7 4268 10768H4267ZM4265 -2465V-2464C4265.55 -2464 4266 -2463.55 4266 -2463H4267H4268C4268 -2464.66 4266.66 -2466 4265 -2466V-2465ZM-6063 -2465V-2466C-6064.66 -2466 -6066 -2464.66 -6066 -2463H-6065H-6064C-6064 -2463.55 -6063.55 -2464 -6063 -2464V-2465Z" fill="white" fill-opacity="0.1"/>
<g clip-path="url(#clip0_238_2)">
<rect width="375" height="6280" transform="translate(0 -2039)" fill="#F9F9F9"/>
<path d="M23.91 38.0625L23.954 37.3365C24.4967 37.3072 24.878 37.1825 25.098 36.9625C25.318 36.7278 25.45 36.4125 25.494 36.0165C25.538 35.6058 25.5673 35.1438 25.582 34.6305L25.78 31.2205C25.2667 31.4698 24.636 31.6752 23.888 31.8365C23.14 31.9832 22.282 32.0565 21.314 32.0565C19.95 32.0565 18.9453 31.6825 18.3 30.9345C17.6693 30.1865 17.3907 29.1012 17.464 27.6785C17.508 26.9012 17.5373 26.2778 17.552 25.8085C17.5813 25.3392 17.6033 24.9725 17.618 24.7085C17.6473 24.4445 17.6693 24.2318 17.684 24.0705C17.6987 23.8945 17.7207 23.7185 17.75 23.5425L16.166 23.6305L16.21 22.6625H21.072L21.028 23.3885C20.5587 23.4032 20.2067 23.5058 19.972 23.6965C19.752 23.8872 19.6053 24.1585 19.532 24.5105C19.4587 24.8625 19.4073 25.3025 19.378 25.8305L19.246 28.1405C19.1873 29.0205 19.4147 29.7098 19.928 30.2085C20.456 30.6925 21.1893 30.9345 22.128 30.9345C23.008 30.9345 23.7413 30.8612 24.328 30.7145C24.9293 30.5678 25.428 30.3772 25.824 30.1425L26.088 25.1265C26.1173 24.8332 26.1467 24.5545 26.176 24.2905C26.2053 24.0118 26.2347 23.7625 26.264 23.5425L24.658 23.6305L24.702 22.6625H29.586L29.542 23.3885C29.058 23.4032 28.6987 23.5058 28.464 23.6965C28.244 23.8872 28.0973 24.1585 28.024 24.5105C27.9507 24.8478 27.8993 25.2805 27.87 25.8085L27.386 35.4445C27.3713 35.8405 27.3493 36.1852 27.32 36.4785C27.2907 36.7572 27.2613 36.9918 27.232 37.1825C27.496 37.1678 27.7527 37.1532 28.002 37.1385C28.266 37.1238 28.53 37.1092 28.794 37.0945L28.75 38.0625H23.91ZM34.1914 38.3045C33.6047 38.3045 33.1354 38.1725 32.7834 37.9085C32.4314 37.6445 32.1747 37.2925 32.0134 36.8525C31.8667 36.4125 31.7934 35.9432 31.7934 35.4445C31.7934 34.6232 31.8521 33.7945 31.9694 32.9585C32.0867 32.1225 32.2041 31.3525 32.3214 30.6485C32.4387 29.9298 32.4974 29.3652 32.4974 28.9545C32.4974 28.6758 32.4607 28.4338 32.3874 28.2285C32.3287 28.0232 32.1674 27.9205 31.9034 27.9205C31.6687 27.9205 31.4047 28.0818 31.1114 28.4045C30.8327 28.7272 30.5834 29.2772 30.3634 30.0545L29.7474 29.9225C29.7914 29.6585 29.8794 29.3578 30.0114 29.0205C30.1434 28.6685 30.3194 28.3238 30.5394 27.9865C30.7741 27.6492 31.0527 27.3705 31.3754 27.1505C31.7127 26.9305 32.1014 26.8205 32.5414 26.8205C33.1281 26.8205 33.5681 27.0038 33.8614 27.3705C34.1694 27.7372 34.3234 28.2652 34.3234 28.9545C34.3234 29.3652 34.2867 29.8712 34.2134 30.4725C34.1401 31.0738 34.0521 31.7045 33.9494 32.3645C33.8614 33.0098 33.7807 33.6405 33.7074 34.2565C33.6341 34.8725 33.5974 35.4152 33.5974 35.8845C33.5974 36.0458 33.6194 36.2365 33.6634 36.4565C33.7221 36.6765 33.8247 36.8672 33.9714 37.0285C34.1327 37.1898 34.3527 37.2705 34.6314 37.2705C35.0421 37.2705 35.4454 37.0798 35.8414 36.6985C36.2374 36.3172 36.6114 35.8038 36.9634 35.1585C37.3154 34.5132 37.6307 33.8018 37.9094 33.0245C38.1881 32.2325 38.4007 31.4258 38.5474 30.6045C38.7087 29.7685 38.7894 28.9765 38.7894 28.2285C38.7894 28.0085 38.7821 27.8105 38.7674 27.6345C38.7674 27.4438 38.7601 27.2532 38.7454 27.0625H40.5934C40.6081 27.1652 40.6154 27.2605 40.6154 27.3485C40.6154 27.4218 40.6154 27.5172 40.6154 27.6345C40.6154 27.8838 40.6007 28.1845 40.5714 28.5365C40.5421 28.8738 40.4981 29.3285 40.4394 29.9005C40.3807 30.4578 40.2927 31.1985 40.1754 32.1225C40.0727 32.9732 39.9921 33.6405 39.9334 34.1245C39.8894 34.6085 39.8527 34.9752 39.8234 35.2245C39.7941 35.4592 39.7721 35.6425 39.7574 35.7745C39.7574 35.9065 39.7574 36.0532 39.7574 36.2145C39.7574 36.4785 39.7941 36.7058 39.8674 36.8965C39.9554 37.0872 40.1167 37.1825 40.3514 37.1825C40.6007 37.1825 40.8721 37.0285 41.1654 36.7205C41.4734 36.3978 41.7374 35.8478 41.9574 35.0705L42.5734 35.2025C42.5294 35.4665 42.4341 35.7745 42.2874 36.1265C42.1554 36.4638 41.9721 36.8012 41.7374 37.1385C41.5027 37.4758 41.2167 37.7545 40.8794 37.9745C40.5421 38.1945 40.1534 38.3045 39.7134 38.3045C39.1267 38.3045 38.6941 38.1212 38.4154 37.7545C38.1514 37.3878 38.0194 36.9112 38.0194 36.3245C38.0194 35.8992 38.0561 35.4372 38.1294 34.9385C38.2174 34.4398 38.3127 33.9192 38.4154 33.3765H38.3494C37.8507 34.7112 37.3741 35.7378 36.9194 36.4565C36.4647 37.1605 36.0174 37.6445 35.5774 37.9085C35.1374 38.1725 34.6754 38.3045 34.1914 38.3045ZM48.1124 26.8205C48.7431 26.8205 49.3077 26.9378 49.8064 27.1725C50.3051 27.3925 50.6937 27.7005 50.9724 28.0965C51.2657 28.4778 51.4124 28.9105 51.4124 29.3945C51.4124 29.7172 51.3317 29.9812 51.1704 30.1865C51.0091 30.3772 50.7817 30.4725 50.4884 30.4725C50.1364 30.4872 49.8871 30.3845 49.7404 30.1645C49.6084 29.9445 49.5424 29.7538 49.5424 29.5925C49.5424 29.4605 49.5571 29.3212 49.5864 29.1745C49.6304 29.0278 49.7111 28.8885 49.8284 28.7565C49.7551 28.3458 49.5497 28.0525 49.2124 27.8765C48.8897 27.6858 48.5157 27.5905 48.0904 27.5905C47.4597 27.5905 46.9317 27.7592 46.5064 28.0965C46.0811 28.4338 45.7437 28.8738 45.4944 29.4165C45.2451 29.9592 45.0617 30.5458 44.9444 31.1765C44.8417 31.7925 44.7904 32.3938 44.7904 32.9805C44.7904 34.0072 44.9004 34.8358 45.1204 35.4665C45.3551 36.0825 45.6777 36.5298 46.0884 36.8085C46.4991 37.0872 46.9611 37.2265 47.4744 37.2265C47.8557 37.2265 48.2517 37.1458 48.6624 36.9845C49.0731 36.8085 49.4691 36.5225 49.8504 36.1265C50.2317 35.7158 50.5617 35.1585 50.8404 34.4545L51.6104 34.8285C51.2437 35.6792 50.8184 36.3612 50.3344 36.8745C49.8504 37.3732 49.3297 37.7398 48.7724 37.9745C48.2297 38.1945 47.6724 38.3045 47.1004 38.3045C45.8097 38.3045 44.7757 37.9158 43.9984 37.1385C43.2357 36.3465 42.8544 35.1292 42.8544 33.4865C42.8544 32.7678 42.9571 32.0198 43.1624 31.2425C43.3677 30.4652 43.6831 29.7465 44.1084 29.0865C44.5337 28.4118 45.0764 27.8692 45.7364 27.4585C46.4111 27.0332 47.2031 26.8205 48.1124 26.8205ZM67.8608 38.3045C67.1715 38.3045 66.7022 38.1212 66.4528 37.7545C66.2182 37.3878 66.1008 36.8672 66.1008 36.1925C66.1008 35.7818 66.1375 35.2978 66.2108 34.7405C66.2988 34.1832 66.3942 33.5892 66.4968 32.9585C66.5995 32.3278 66.6875 31.6898 66.7608 31.0445C66.8488 30.3992 66.8928 29.7832 66.8928 29.1965C66.8928 29.0205 66.8635 28.8298 66.8048 28.6245C66.7462 28.4192 66.6435 28.2432 66.4968 28.0965C66.3502 27.9352 66.1302 27.8545 65.8368 27.8545C65.4262 27.8545 65.0228 28.0452 64.6268 28.4265C64.2308 28.8078 63.8642 29.3212 63.5268 29.9665C63.1895 30.6118 62.8888 31.3305 62.6248 32.1225C62.3755 32.8998 62.1775 33.7065 62.0308 34.5425C61.8842 35.3638 61.8108 36.1485 61.8108 36.8965C61.8108 37.1165 61.8108 37.3218 61.8108 37.5125C61.8255 37.6885 61.8402 37.8718 61.8548 38.0625H60.0068C59.9922 37.9598 59.9848 37.8718 59.9848 37.7985C59.9848 37.7105 59.9848 37.6078 59.9848 37.4905C59.9848 36.9332 60.0215 36.2732 60.0948 35.5105C60.1828 34.7478 60.2782 33.9632 60.3808 33.1565C60.4982 32.3498 60.5935 31.5872 60.6668 30.8685C60.7548 30.1498 60.7915 29.5632 60.7768 29.1085C60.7622 28.8592 60.6888 28.5878 60.5568 28.2945C60.4248 28.0012 60.1462 27.8545 59.7208 27.8545C59.3102 27.8545 58.9068 28.0452 58.5108 28.4265C58.1295 28.8078 57.7702 29.3212 57.4328 29.9665C57.0955 30.6118 56.7948 31.3305 56.5308 32.1225C56.2668 32.8998 56.0615 33.7065 55.9148 34.5425C55.7682 35.3638 55.6948 36.1485 55.6948 36.8965C55.6948 37.1165 55.6948 37.3218 55.6948 37.5125C55.7095 37.6885 55.7242 37.8718 55.7388 38.0625H53.8908C53.8762 37.9598 53.8688 37.8718 53.8688 37.7985C53.8688 37.7105 53.8688 37.6078 53.8688 37.4905C53.8688 37.2412 53.8762 36.9552 53.8908 36.6325C53.9202 36.2952 53.9642 35.8552 54.0228 35.3125C54.0962 34.7552 54.1842 34.0145 54.2868 33.0905C54.3895 32.2252 54.4702 31.5505 54.5288 31.0665C54.5875 30.5825 54.6315 30.2158 54.6608 29.9665C54.6902 29.7025 54.7048 29.5045 54.7048 29.3725C54.7195 29.2258 54.7268 29.0718 54.7268 28.9105C54.7268 28.6465 54.6902 28.4192 54.6168 28.2285C54.5435 28.0232 54.3822 27.9205 54.1328 27.9205C53.8982 27.9205 53.6268 28.0818 53.3188 28.4045C53.0108 28.7272 52.7468 29.2772 52.5268 30.0545L51.9108 29.9225C51.9548 29.6585 52.0428 29.3578 52.1748 29.0205C52.3215 28.6685 52.5122 28.3238 52.7468 27.9865C52.9815 27.6492 53.2675 27.3705 53.6048 27.1505C53.9422 26.9305 54.3308 26.8205 54.7708 26.8205C55.2548 26.8205 55.6142 26.9452 55.8488 27.1945C56.0835 27.4292 56.2375 27.7445 56.3108 28.1405C56.3988 28.5218 56.4282 28.9398 56.3988 29.3945C56.3842 29.8052 56.3402 30.2232 56.2668 30.6485C56.1935 31.0592 56.1275 31.4185 56.0688 31.7265H56.1348C56.6042 30.3918 57.0662 29.3725 57.5208 28.6685C57.9902 27.9645 58.4448 27.4805 58.8848 27.2165C59.3395 26.9525 59.7648 26.8205 60.1608 26.8205C60.7475 26.8205 61.2095 26.9598 61.5468 27.2385C61.8988 27.5025 62.1482 27.8252 62.2948 28.2065C62.4415 28.5878 62.5148 28.9618 62.5148 29.3285C62.5148 29.7392 62.4855 30.0912 62.4268 30.3845C62.3682 30.6778 62.2728 31.1032 62.1408 31.6605H62.2068C62.6908 30.3258 63.1675 29.3138 63.6368 28.6245C64.1208 27.9205 64.5902 27.4438 65.0448 27.1945C65.4995 26.9452 65.9248 26.8205 66.3208 26.8205C66.9075 26.8205 67.3695 26.9525 67.7068 27.2165C68.0442 27.4805 68.2788 27.8325 68.4108 28.2725C68.5575 28.6978 68.6308 29.1672 68.6308 29.6805C68.6308 30.4872 68.5722 31.3158 68.4548 32.1665C68.3375 33.0025 68.2128 33.7798 68.0808 34.4985C67.9635 35.2025 67.9048 35.7672 67.9048 36.1925C67.9048 36.4565 67.9342 36.6912 67.9928 36.8965C68.0662 37.1018 68.2348 37.2045 68.4988 37.2045C68.7482 37.2045 69.0268 37.0505 69.3348 36.7425C69.6428 36.4198 69.9068 35.8625 70.1268 35.0705L70.7428 35.2245C70.6988 35.4738 70.6035 35.7745 70.4568 36.1265C70.3102 36.4785 70.1195 36.8232 69.8848 37.1605C69.6502 37.4832 69.3642 37.7545 69.0268 37.9745C68.6895 38.1945 68.3008 38.3045 67.8608 38.3045ZM79.9823 38.3045C79.4837 38.3045 79.0803 38.1138 78.7723 37.7325C78.479 37.3512 78.281 36.5812 78.1783 35.4225C78.0903 34.3812 77.9217 33.6698 77.6723 33.2885C77.423 32.8925 77.0343 32.6945 76.5063 32.6945L74.1523 32.7165L74.1743 32.0785H77.1003V32.2765C78.0537 32.2765 78.7283 32.5258 79.1243 33.0245C79.535 33.5232 79.777 34.1392 79.8503 34.8725C79.9237 35.6352 80.0117 36.1852 80.1143 36.5225C80.2317 36.8598 80.4517 37.0432 80.7743 37.0725C81.009 37.0872 81.2143 36.9992 81.3903 36.8085C81.5663 36.6178 81.7203 36.2512 81.8523 35.7085L82.4683 35.8185C82.3803 36.2292 82.2337 36.6252 82.0283 37.0065C81.823 37.3878 81.5517 37.7032 81.2143 37.9525C80.8917 38.1872 80.481 38.3045 79.9823 38.3045ZM72.5683 38.0625C72.5537 37.9745 72.5463 37.8645 72.5463 37.7325C72.561 37.6005 72.5683 37.4465 72.5683 37.2705C72.583 36.7425 72.6197 36.1705 72.6783 35.5545C72.737 34.9238 72.8103 34.2932 72.8983 33.6625C72.9863 33.0172 73.067 32.4012 73.1403 31.8145C73.2283 31.2278 73.3017 30.7072 73.3603 30.2525C73.419 29.7832 73.4557 29.4312 73.4703 29.1965C73.485 28.9032 73.4703 28.6172 73.4263 28.3385C73.3823 28.0598 73.2063 27.9205 72.8983 27.9205C72.6637 27.9205 72.385 28.0818 72.0623 28.4045C71.7543 28.7272 71.483 29.2772 71.2483 30.0545L70.6323 29.9225C70.691 29.6585 70.7937 29.3578 70.9403 29.0205C71.087 28.6685 71.2777 28.3238 71.5123 27.9865C71.7617 27.6492 72.055 27.3705 72.3923 27.1505C72.7297 26.9305 73.1183 26.8205 73.5583 26.8205C74.3797 26.8205 74.8637 27.1432 75.0103 27.7885C75.1717 28.4192 75.1643 29.3065 74.9883 30.4505C74.8563 31.3158 74.7463 32.0932 74.6583 32.7825C74.585 33.4572 74.519 34.0585 74.4603 34.5865C74.4163 35.0998 74.387 35.5472 74.3723 35.9285C74.3577 36.2952 74.3503 36.6032 74.3503 36.8525C74.3503 37.0285 74.3503 37.2192 74.3503 37.4245C74.365 37.6298 74.3797 37.8425 74.3943 38.0625H72.5683ZM75.4723 32.4745V32.0785C76.1177 32.0785 76.631 31.9025 77.0123 31.5505C77.3937 31.1985 77.7457 30.5825 78.0683 29.7025C78.4497 28.6612 78.853 27.9205 79.2783 27.4805C79.7183 27.0405 80.2757 26.8205 80.9503 26.8205C81.3317 26.8205 81.6323 26.9305 81.8523 27.1505C82.0723 27.3705 82.1823 27.6638 82.1823 28.0305C82.1823 28.3238 82.0943 28.5878 81.9183 28.8225C81.7423 29.0425 81.4857 29.1525 81.1483 29.1525C80.7817 29.1525 80.4957 29.0718 80.2903 28.9105C80.085 28.7492 79.9677 28.5218 79.9383 28.2285C79.733 28.3605 79.5497 28.5658 79.3883 28.8445C79.227 29.1085 79.0437 29.5192 78.8383 30.0765C78.589 30.7805 78.2517 31.3598 77.8263 31.8145C77.4157 32.2545 76.961 32.4745 76.4623 32.4745H75.4723ZM89.5571 26.8205C89.9971 26.8205 90.4811 26.8572 91.0091 26.9305C91.5371 26.9892 92.0358 27.0772 92.5051 27.1945C92.3878 28.0745 92.2705 28.9545 92.1531 29.8345C92.0505 30.6998 91.9478 31.5285 91.8451 32.3205C91.7571 33.0978 91.6838 33.8018 91.6251 34.4325C91.5665 35.0485 91.5371 35.5325 91.5371 35.8845C91.5371 36.1778 91.5591 36.4712 91.6031 36.7645C91.6471 37.0578 91.8305 37.2045 92.1531 37.2045C92.4025 37.2045 92.6738 37.0432 92.9671 36.7205C93.2751 36.3978 93.5391 35.8478 93.7591 35.0705L94.3751 35.2025C94.3311 35.4665 94.2358 35.7745 94.0891 36.1265C93.9571 36.4638 93.7738 36.8012 93.5391 37.1385C93.3045 37.4758 93.0185 37.7545 92.6811 37.9745C92.3438 38.1945 91.9551 38.3045 91.5151 38.3045C90.9285 38.3045 90.5105 38.1212 90.2611 37.7545C90.0118 37.3878 89.8871 36.9112 89.8871 36.3245C89.8871 35.8992 89.9238 35.4372 89.9971 34.9385C90.0851 34.4398 90.1805 33.9192 90.2831 33.3765H90.2171C89.8651 34.4618 89.4985 35.3345 89.1171 35.9945C88.7505 36.6398 88.3765 37.1312 87.9951 37.4685C87.6285 37.8058 87.2691 38.0258 86.9171 38.1285C86.5651 38.2458 86.2351 38.3045 85.9271 38.3045C85.1351 38.3045 84.4678 38.0112 83.9251 37.4245C83.3971 36.8378 83.1331 35.8552 83.1331 34.4765C83.1331 33.4498 83.2651 32.4745 83.5291 31.5505C83.7931 30.6265 84.1891 29.8125 84.7171 29.1085C85.2598 28.3898 85.9345 27.8325 86.7411 27.4365C87.5478 27.0258 88.4865 26.8205 89.5571 26.8205ZM88.8751 27.6125C88.2151 27.6125 87.6358 27.7958 87.1371 28.1625C86.6531 28.5292 86.2498 29.0278 85.9271 29.6585C85.6045 30.2745 85.3625 30.9712 85.2011 31.7485C85.0545 32.5112 84.9811 33.2958 84.9811 34.1025C84.9811 35.0412 85.0838 35.8185 85.2891 36.4345C85.4945 37.0358 85.8685 37.3365 86.4111 37.3365C86.8071 37.3365 87.2031 37.1385 87.5991 36.7425C88.0098 36.3465 88.3911 35.8185 88.7431 35.1585C89.0951 34.4838 89.4105 33.7358 89.6891 32.9145C89.9678 32.0785 90.1878 31.2278 90.3491 30.3625C90.5105 29.4972 90.5911 28.6685 90.5911 27.8765C90.3711 27.7885 90.1145 27.7225 89.8211 27.6785C89.5278 27.6345 89.2125 27.6125 88.8751 27.6125ZM100.173 38.2825C99.7625 38.2825 99.4178 38.1652 99.1392 37.9305C98.8752 37.6958 98.7432 37.4172 98.7432 37.0945C98.7432 36.8158 98.8385 36.5738 99.0292 36.3685C99.2198 36.1485 99.4618 36.0385 99.7552 36.0385C99.9898 36.0385 100.203 36.1192 100.393 36.2805C100.599 36.4418 100.701 36.6472 100.701 36.8965C100.701 36.9698 100.694 37.0358 100.679 37.0945C100.679 37.1385 100.672 37.1825 100.657 37.2265C101.039 37.2705 101.413 37.1165 101.779 36.7645C102.146 36.4125 102.491 35.9212 102.813 35.2905C103.151 34.6598 103.451 33.9412 103.715 33.1345C103.994 32.3132 104.236 31.4552 104.441 30.5605C104.661 29.6658 104.83 28.7858 104.947 27.9205L102.923 27.9425L102.989 27.0625H109.413C109.428 27.1652 109.435 27.2605 109.435 27.3485C109.435 27.4218 109.435 27.5172 109.435 27.6345C109.435 27.9718 109.406 28.4412 109.347 29.0425C109.289 29.6292 109.215 30.2745 109.127 30.9785C109.054 31.6825 108.973 32.3865 108.885 33.0905C108.797 33.7945 108.724 34.4252 108.665 34.9825C108.607 35.5252 108.577 35.9358 108.577 36.2145C108.577 36.4785 108.614 36.7058 108.687 36.8965C108.775 37.0872 108.937 37.1825 109.171 37.1825C109.421 37.1825 109.692 37.0285 109.985 36.7205C110.293 36.3978 110.557 35.8478 110.777 35.0705L111.393 35.2025C111.349 35.4665 111.254 35.7745 111.107 36.1265C110.975 36.4638 110.792 36.8012 110.557 37.1385C110.323 37.4758 110.037 37.7545 109.699 37.9745C109.362 38.1945 108.973 38.3045 108.533 38.3045C108.137 38.3045 107.815 38.2238 107.565 38.0625C107.316 37.8865 107.133 37.6518 107.015 37.3585C106.898 37.0652 106.839 36.7205 106.839 36.3245C106.839 35.9285 106.876 35.4225 106.949 34.8065C107.037 34.1905 107.125 33.5012 107.213 32.7385C107.316 31.9758 107.404 31.1838 107.477 30.3625C107.565 29.5265 107.609 28.7052 107.609 27.8985L106.685 27.9205C106.48 27.9205 106.319 27.9865 106.201 28.1185C106.099 28.2505 106.025 28.4192 105.981 28.6245C105.717 29.9445 105.409 31.1838 105.057 32.3425C104.72 33.5012 104.317 34.5278 103.847 35.4225C103.378 36.3172 102.843 37.0212 102.241 37.5345C101.64 38.0332 100.951 38.2825 100.173 38.2825ZM115.552 38.3045C114.965 38.3045 114.496 38.1725 114.144 37.9085C113.792 37.6445 113.535 37.2925 113.374 36.8525C113.227 36.4125 113.154 35.9432 113.154 35.4445C113.154 34.6232 113.213 33.7945 113.33 32.9585C113.447 32.1225 113.565 31.3525 113.682 30.6485C113.799 29.9298 113.858 29.3652 113.858 28.9545C113.858 28.6758 113.821 28.4338 113.748 28.2285C113.689 28.0232 113.528 27.9205 113.264 27.9205C113.029 27.9205 112.765 28.0818 112.472 28.4045C112.193 28.7272 111.944 29.2772 111.724 30.0545L111.108 29.9225C111.152 29.6585 111.24 29.3578 111.372 29.0205C111.504 28.6685 111.68 28.3238 111.9 27.9865C112.135 27.6492 112.413 27.3705 112.736 27.1505C113.073 26.9305 113.462 26.8205 113.902 26.8205C114.489 26.8205 114.929 27.0038 115.222 27.3705C115.53 27.7372 115.684 28.2652 115.684 28.9545C115.684 29.3652 115.647 29.8712 115.574 30.4725C115.501 31.0738 115.413 31.7045 115.31 32.3645C115.222 33.0098 115.141 33.6405 115.068 34.2565C114.995 34.8725 114.958 35.4152 114.958 35.8845C114.958 36.0458 114.98 36.2365 115.024 36.4565C115.083 36.6765 115.185 36.8672 115.332 37.0285C115.493 37.1898 115.713 37.2705 115.992 37.2705C116.403 37.2705 116.806 37.0798 117.202 36.6985C117.598 36.3172 117.972 35.8038 118.324 35.1585C118.676 34.5132 118.991 33.8018 119.27 33.0245C119.549 32.2325 119.761 31.4258 119.908 30.6045C120.069 29.7685 120.15 28.9765 120.15 28.2285C120.15 28.0085 120.143 27.8105 120.128 27.6345C120.128 27.4438 120.121 27.2532 120.106 27.0625H121.954C121.969 27.1652 121.976 27.2605 121.976 27.3485C121.976 27.4218 121.976 27.5172 121.976 27.6345C121.976 27.8838 121.961 28.1845 121.932 28.5365C121.903 28.8738 121.859 29.3285 121.8 29.9005C121.741 30.4578 121.653 31.1985 121.536 32.1225C121.433 32.9732 121.353 33.6405 121.294 34.1245C121.25 34.6085 121.213 34.9752 121.184 35.2245C121.155 35.4592 121.133 35.6425 121.118 35.7745C121.118 35.9065 121.118 36.0532 121.118 36.2145C121.118 36.4785 121.155 36.7058 121.228 36.8965C121.316 37.0872 121.477 37.1825 121.712 37.1825C121.961 37.1825 122.233 37.0285 122.526 36.7205C122.834 36.3978 123.098 35.8478 123.318 35.0705L123.934 35.2025C123.89 35.4665 123.795 35.7745 123.648 36.1265C123.516 36.4638 123.333 36.8012 123.098 37.1385C122.863 37.4758 122.577 37.7545 122.24 37.9745C121.903 38.1945 121.514 38.3045 121.074 38.3045C120.487 38.3045 120.055 38.1212 119.776 37.7545C119.512 37.3878 119.38 36.9112 119.38 36.3245C119.38 35.8992 119.417 35.4372 119.49 34.9385C119.578 34.4398 119.673 33.9192 119.776 33.3765H119.71C119.211 34.7112 118.735 35.7378 118.28 36.4565C117.825 37.1605 117.378 37.6445 116.938 37.9085C116.498 38.1725 116.036 38.3045 115.552 38.3045ZM133.983 42.7265L133.477 42.2205C133.844 41.7658 134.086 41.3845 134.203 41.0765C134.335 40.7832 134.394 40.5338 134.379 40.3285C134.379 40.1232 134.342 39.9398 134.269 39.7785C134.137 39.4705 134.108 39.1625 134.181 38.8545C134.254 38.5612 134.364 38.2898 134.511 38.0405L134.313 37.9305C134.166 38.0625 133.998 38.1578 133.807 38.2165C133.631 38.2752 133.404 38.3045 133.125 38.3045C132.7 38.3045 132.362 38.1212 132.113 37.7545C131.878 37.3878 131.761 36.9112 131.761 36.3245C131.761 35.8992 131.798 35.4372 131.871 34.9385C131.959 34.4398 132.054 33.9192 132.157 33.3765H132.091C131.592 34.7112 131.116 35.7378 130.661 36.4565C130.206 37.1605 129.759 37.6445 129.319 37.9085C128.879 38.1725 128.417 38.3045 127.933 38.3045C127.346 38.3045 126.877 38.1725 126.525 37.9085C126.173 37.6445 125.916 37.2925 125.755 36.8525C125.608 36.4125 125.535 35.9432 125.535 35.4445C125.535 34.6232 125.594 33.7945 125.711 32.9585C125.828 32.1225 125.946 31.3525 126.063 30.6485C126.18 29.9298 126.239 29.3652 126.239 28.9545C126.239 28.6758 126.202 28.4338 126.129 28.2285C126.07 28.0232 125.909 27.9205 125.645 27.9205C125.41 27.9205 125.146 28.0818 124.853 28.4045C124.574 28.7272 124.325 29.2772 124.105 30.0545L123.489 29.9225C123.533 29.6585 123.621 29.3578 123.753 29.0205C123.885 28.6685 124.061 28.3238 124.281 27.9865C124.516 27.6492 124.794 27.3705 125.117 27.1505C125.454 26.9305 125.843 26.8205 126.283 26.8205C126.87 26.8205 127.31 27.0038 127.603 27.3705C127.911 27.7372 128.065 28.2652 128.065 28.9545C128.065 29.3652 128.028 29.8712 127.955 30.4725C127.882 31.0738 127.794 31.7045 127.691 32.3645C127.603 33.0098 127.522 33.6405 127.449 34.2565C127.376 34.8725 127.339 35.4152 127.339 35.8845C127.339 36.0458 127.361 36.2365 127.405 36.4565C127.464 36.6765 127.566 36.8672 127.713 37.0285C127.874 37.1898 128.094 37.2705 128.373 37.2705C128.784 37.2705 129.187 37.0798 129.583 36.6985C129.979 36.3172 130.353 35.8038 130.705 35.1585C131.057 34.5132 131.372 33.8018 131.651 33.0245C131.93 32.2325 132.142 31.4258 132.289 30.6045C132.45 29.7685 132.531 28.9765 132.531 28.2285C132.531 28.0085 132.524 27.8105 132.509 27.6345C132.509 27.4438 132.502 27.2532 132.487 27.0625H134.335C134.35 27.1652 134.357 27.2605 134.357 27.3485C134.357 27.4218 134.357 27.5172 134.357 27.6345C134.357 27.8838 134.342 28.1845 134.313 28.5365C134.284 28.8738 134.24 29.3285 134.181 29.9005C134.122 30.4578 134.034 31.1985 133.917 32.1225C133.814 32.9732 133.734 33.6405 133.675 34.1245C133.631 34.6085 133.594 34.9752 133.565 35.2245C133.536 35.4592 133.514 35.6425 133.499 35.7745C133.499 35.9065 133.499 36.0532 133.499 36.2145C133.499 36.4785 133.536 36.7058 133.609 36.8965C133.682 37.0872 133.807 37.1825 133.983 37.1825C134.203 37.1825 134.416 36.9918 134.621 36.6105C134.826 36.2145 135.046 35.7012 135.281 35.0705L135.875 35.2465C135.802 35.4665 135.721 35.6938 135.633 35.9285C135.56 36.1485 135.486 36.3685 135.413 36.5885C135.31 36.8672 135.252 37.1605 135.237 37.4685C135.237 37.7618 135.332 38.0552 135.523 38.3485C135.904 38.9792 135.978 39.6612 135.743 40.3945C135.508 41.1425 134.922 41.9198 133.983 42.7265ZM143.47 26.8205C143.91 26.8205 144.394 26.8572 144.922 26.9305C145.45 26.9892 145.949 27.0772 146.418 27.1945C146.301 28.0745 146.183 28.9545 146.066 29.8345C145.963 30.6998 145.861 31.5285 145.758 32.3205C145.67 33.0978 145.597 33.8018 145.538 34.4325C145.479 35.0485 145.45 35.5325 145.45 35.8845C145.45 36.1778 145.472 36.4712 145.516 36.7645C145.56 37.0578 145.743 37.2045 146.066 37.2045C146.315 37.2045 146.587 37.0432 146.88 36.7205C147.188 36.3978 147.452 35.8478 147.672 35.0705L148.288 35.2025C148.244 35.4665 148.149 35.7745 148.002 36.1265C147.87 36.4638 147.687 36.8012 147.452 37.1385C147.217 37.4758 146.931 37.7545 146.594 37.9745C146.257 38.1945 145.868 38.3045 145.428 38.3045C144.841 38.3045 144.423 38.1212 144.174 37.7545C143.925 37.3878 143.8 36.9112 143.8 36.3245C143.8 35.8992 143.837 35.4372 143.91 34.9385C143.998 34.4398 144.093 33.9192 144.196 33.3765H144.13C143.778 34.4618 143.411 35.3345 143.03 35.9945C142.663 36.6398 142.289 37.1312 141.908 37.4685C141.541 37.8058 141.182 38.0258 140.83 38.1285C140.478 38.2458 140.148 38.3045 139.84 38.3045C139.048 38.3045 138.381 38.0112 137.838 37.4245C137.31 36.8378 137.046 35.8552 137.046 34.4765C137.046 33.4498 137.178 32.4745 137.442 31.5505C137.706 30.6265 138.102 29.8125 138.63 29.1085C139.173 28.3898 139.847 27.8325 140.654 27.4365C141.461 27.0258 142.399 26.8205 143.47 26.8205ZM142.788 27.6125C142.128 27.6125 141.549 27.7958 141.05 28.1625C140.566 28.5292 140.163 29.0278 139.84 29.6585C139.517 30.2745 139.275 30.9712 139.114 31.7485C138.967 32.5112 138.894 33.2958 138.894 34.1025C138.894 35.0412 138.997 35.8185 139.202 36.4345C139.407 37.0358 139.781 37.3365 140.324 37.3365C140.72 37.3365 141.116 37.1385 141.512 36.7425C141.923 36.3465 142.304 35.8185 142.656 35.1585C143.008 34.4838 143.323 33.7358 143.602 32.9145C143.881 32.0785 144.101 31.2278 144.262 30.3625C144.423 29.4972 144.504 28.6685 144.504 27.8765C144.284 27.7885 144.027 27.7225 143.734 27.6785C143.441 27.6345 143.125 27.6125 142.788 27.6125Z" fill="#3B434B"/>
<path d="M357.75 38.8125L344.25 25.3125M357.75 38.8125C357.243 38.3055 356.308 37.98 355.471 37.7783C354.353 37.509 353.194 37.4602 352.052 37.5892C351.165 37.6897 350.188 37.8892 349.795 38.2822M357.75 38.8125C357.243 38.3055 356.918 37.3703 356.716 36.5333C356.447 35.4158 356.398 34.2563 356.527 33.114C356.627 32.2275 356.827 31.251 357.22 30.8572" stroke="#3B434B" stroke-width="0.75"/>
<path d="M15 61.0625L360 61.0625" stroke="#3B434B" stroke-opacity="0.2" stroke-linecap="round"/>
<path d="M15 61.0625L360 61.0625" stroke="#3B434B" stroke-opacity="0.2" stroke-linecap="round"/>
</g>
<defs>
<clipPath id="clip0_238_2">
<rect width="375" height="6280" fill="white" transform="translate(0 -2039)"/>
</clipPath>
</defs>
</svg>
