<svg width="375" height="62" viewBox="0 0 375 62" fill="none" xmlns="http://www.w3.org/2000/svg">
<path d="M-6065 -3739C-6065 -3740.1 -6064.1 -3741 -6063 -3741H4265C4266.1 -3741 4267 -3740.1 4267 -3739V9492C4267 9493.1 4266.1 9494 4265 9494H-6063C-6064.1 9494 -6065 9493.1 -6065 9492V-3739Z" fill="#444444"/>
<path d="M-6063 -3741V-3740H4265V-3741V-3742H-6063V-3741ZM4267 -3739H4266V9492H4267H4268V-3739H4267ZM4265 9494V9493H-6063V9494V9495H4265V9494ZM-6065 9492H-6064V-3739H-6065H-6066V9492H-6065ZM-6063 9494V9493C-6063.55 9493 -6064 9492.55 -6064 9492H-6065H-6066C-6066 9493.66 -6064.66 9495 -6063 9495V9494ZM4267 9492H4266C4266 9492.55 4265.55 9493 4265 9493V9494V9495C4266.66 9495 4268 9493.66 4268 9492H4267ZM4265 -3741V-3740C4265.55 -3740 4266 -3739.55 4266 -3739H4267H4268C4268 -3740.66 4266.66 -3742 4265 -3742V-3741ZM-6063 -3741V-3742C-6064.66 -3742 -6066 -3740.66 -6066 -3739H-6065H-6064C-6064 -3739.55 -6063.55 -3740 -6063 -3740V-3741Z" fill="white" fill-opacity="0.1"/>
<g clip-path="url(#clip0_238_2)">
<rect width="375" height="6280" transform="translate(0 -3315)" fill="#F9F9F9"/>
<path d="M16.782 38.4145C16.2393 38.4145 15.8067 38.2972 15.484 38.0625C15.1613 37.8425 15.0073 37.4905 15.022 37.0065C15.0513 36.6545 15.1687 36.3758 15.374 36.1705C15.5793 35.9652 15.8507 35.8625 16.188 35.8625C16.496 35.8625 16.738 35.9432 16.914 36.1045C17.09 36.2658 17.178 36.4932 17.178 36.7865C17.178 36.9185 17.156 37.0285 17.112 37.1165C17.0827 37.2045 17.0313 37.2852 16.958 37.3585C17.002 37.3732 17.046 37.3952 17.09 37.4245C17.1487 37.4392 17.2073 37.4465 17.266 37.4465C17.662 37.4465 18.0653 37.1752 18.476 36.6325C18.9013 36.0898 19.2973 35.2538 19.664 34.1245C20.0307 32.9952 20.346 31.5578 20.61 29.8125C20.874 28.0672 21.05 25.9992 21.138 23.6085L19.378 23.6305L19.422 22.6625H29.476L29.432 23.3885C28.9187 23.4032 28.5447 23.5132 28.31 23.7185C28.09 23.9092 27.9507 24.1878 27.892 24.5545C27.8333 24.9065 27.7967 25.3465 27.782 25.8745L27.276 35.4445C27.2613 35.8405 27.2393 36.1852 27.21 36.4785C27.1807 36.7572 27.1513 36.9918 27.122 37.1825C27.386 37.1678 27.65 37.1532 27.914 37.1385C28.178 37.1238 28.442 37.1092 28.706 37.0945L28.662 38.0625H23.778L23.844 37.3365C24.4013 37.3072 24.7827 37.1825 24.988 36.9625C25.208 36.7278 25.34 36.4125 25.384 36.0165C25.4427 35.6058 25.4793 35.1438 25.494 34.6305L26 25.1265C26 24.8332 26.0147 24.5545 26.044 24.2905C26.0733 24.0118 26.11 23.7625 26.154 23.5425L23.14 23.5865C22.7 23.6012 22.4287 23.6965 22.326 23.8725C22.2233 24.0485 22.1647 24.3052 22.15 24.6425C21.9887 26.9452 21.7687 28.9618 21.49 30.6925C21.2113 32.4085 20.8593 33.8385 20.434 34.9825C20.0087 36.1265 19.4953 36.9845 18.894 37.5565C18.3073 38.1285 17.6033 38.4145 16.782 38.4145ZM34.1269 38.3045C33.5403 38.3045 33.0709 38.1725 32.7189 37.9085C32.3669 37.6445 32.1103 37.2925 31.9489 36.8525C31.8023 36.4125 31.7289 35.9432 31.7289 35.4445C31.7289 34.6232 31.7876 33.7945 31.9049 32.9585C32.0223 32.1225 32.1396 31.3525 32.2569 30.6485C32.3743 29.9298 32.4329 29.3652 32.4329 28.9545C32.4329 28.6758 32.3963 28.4338 32.3229 28.2285C32.2643 28.0232 32.1029 27.9205 31.8389 27.9205C31.6043 27.9205 31.3403 28.0818 31.0469 28.4045C30.7683 28.7272 30.5189 29.2772 30.2989 30.0545L29.6829 29.9225C29.7269 29.6585 29.8149 29.3578 29.9469 29.0205C30.0789 28.6685 30.2549 28.3238 30.4749 27.9865C30.7096 27.6492 30.9883 27.3705 31.3109 27.1505C31.6483 26.9305 32.0369 26.8205 32.4769 26.8205C33.0636 26.8205 33.5036 27.0038 33.7969 27.3705C34.1049 27.7372 34.2589 28.2652 34.2589 28.9545C34.2589 29.3652 34.2223 29.8712 34.1489 30.4725C34.0756 31.0738 33.9876 31.7045 33.8849 32.3645C33.7969 33.0098 33.7163 33.6405 33.6429 34.2565C33.5696 34.8725 33.5329 35.4152 33.5329 35.8845C33.5329 36.0458 33.5549 36.2365 33.5989 36.4565C33.6576 36.6765 33.7603 36.8672 33.9069 37.0285C34.0683 37.1898 34.2883 37.2705 34.5669 37.2705C34.9776 37.2705 35.3809 37.0798 35.7769 36.6985C36.1729 36.3172 36.5469 35.8038 36.8989 35.1585C37.2509 34.5132 37.5663 33.8018 37.8449 33.0245C38.1236 32.2325 38.3363 31.4258 38.4829 30.6045C38.6443 29.7685 38.7249 28.9765 38.7249 28.2285C38.7249 28.0085 38.7176 27.8105 38.7029 27.6345C38.7029 27.4438 38.6956 27.2532 38.6809 27.0625H40.5289C40.5436 27.1652 40.5509 27.2605 40.5509 27.3485C40.5509 27.4218 40.5509 27.5172 40.5509 27.6345C40.5509 27.8838 40.5363 28.1845 40.5069 28.5365C40.4776 28.8738 40.4336 29.3285 40.3749 29.9005C40.3163 30.4578 40.2283 31.1985 40.1109 32.1225C40.0083 32.9732 39.9276 33.6405 39.8689 34.1245C39.8249 34.6085 39.7883 34.9752 39.7589 35.2245C39.7296 35.4592 39.7076 35.6425 39.6929 35.7745C39.6929 35.9065 39.6929 36.0532 39.6929 36.2145C39.6929 36.4785 39.7296 36.7058 39.8029 36.8965C39.8909 37.0872 40.0523 37.1825 40.2869 37.1825C40.5363 37.1825 40.8076 37.0285 41.1009 36.7205C41.4089 36.3978 41.6729 35.8478 41.8929 35.0705L42.5089 35.2025C42.4649 35.4665 42.3696 35.7745 42.2229 36.1265C42.0909 36.4638 41.9076 36.8012 41.6729 37.1385C41.4383 37.4758 41.1523 37.7545 40.8149 37.9745C40.4776 38.1945 40.0889 38.3045 39.6489 38.3045C39.0623 38.3045 38.6296 38.1212 38.3509 37.7545C38.0869 37.3878 37.9549 36.9112 37.9549 36.3245C37.9549 35.8992 37.9916 35.4372 38.0649 34.9385C38.1529 34.4398 38.2483 33.9192 38.3509 33.3765H38.2849C37.7863 34.7112 37.3096 35.7378 36.8549 36.4565C36.4003 37.1605 35.9529 37.6445 35.5129 37.9085C35.0729 38.1725 34.6109 38.3045 34.1269 38.3045ZM52.558 42.7265L52.052 42.2205C52.4186 41.7658 52.6606 41.3845 52.778 41.0765C52.91 40.7832 52.9686 40.5338 52.954 40.3285C52.954 40.1232 52.9173 39.9398 52.844 39.7785C52.712 39.4705 52.6826 39.1625 52.756 38.8545C52.8293 38.5612 52.9393 38.2898 53.086 38.0405L52.888 37.9305C52.7413 38.0625 52.5726 38.1578 52.382 38.2165C52.206 38.2752 51.9786 38.3045 51.7 38.3045C51.2746 38.3045 50.9373 38.1212 50.688 37.7545C50.4533 37.3878 50.336 36.9112 50.336 36.3245C50.336 35.8992 50.3726 35.4372 50.446 34.9385C50.534 34.4398 50.6293 33.9192 50.732 33.3765H50.666C50.1673 34.7112 49.6906 35.7378 49.236 36.4565C48.7813 37.1605 48.334 37.6445 47.894 37.9085C47.454 38.1725 46.992 38.3045 46.508 38.3045C45.9213 38.3045 45.452 38.1725 45.1 37.9085C44.748 37.6445 44.4913 37.2925 44.33 36.8525C44.1833 36.4125 44.11 35.9432 44.11 35.4445C44.11 34.6232 44.1686 33.7945 44.286 32.9585C44.4033 32.1225 44.5206 31.3525 44.638 30.6485C44.7553 29.9298 44.814 29.3652 44.814 28.9545C44.814 28.6758 44.7773 28.4338 44.704 28.2285C44.6453 28.0232 44.484 27.9205 44.22 27.9205C43.9853 27.9205 43.7213 28.0818 43.428 28.4045C43.1493 28.7272 42.9 29.2772 42.68 30.0545L42.064 29.9225C42.108 29.6585 42.196 29.3578 42.328 29.0205C42.46 28.6685 42.636 28.3238 42.856 27.9865C43.0906 27.6492 43.3693 27.3705 43.692 27.1505C44.0293 26.9305 44.418 26.8205 44.858 26.8205C45.4446 26.8205 45.8846 27.0038 46.178 27.3705C46.486 27.7372 46.64 28.2652 46.64 28.9545C46.64 29.3652 46.6033 29.8712 46.53 30.4725C46.4566 31.0738 46.3686 31.7045 46.266 32.3645C46.178 33.0098 46.0973 33.6405 46.024 34.2565C45.9506 34.8725 45.914 35.4152 45.914 35.8845C45.914 36.0458 45.936 36.2365 45.98 36.4565C46.0386 36.6765 46.1413 36.8672 46.288 37.0285C46.4493 37.1898 46.6693 37.2705 46.948 37.2705C47.3586 37.2705 47.762 37.0798 48.158 36.6985C48.554 36.3172 48.928 35.8038 49.28 35.1585C49.632 34.5132 49.9473 33.8018 50.226 33.0245C50.5046 32.2325 50.7173 31.4258 50.864 30.6045C51.0253 29.7685 51.106 28.9765 51.106 28.2285C51.106 28.0085 51.0986 27.8105 51.084 27.6345C51.084 27.4438 51.0766 27.2532 51.062 27.0625H52.91C52.9246 27.1652 52.932 27.2605 52.932 27.3485C52.932 27.4218 52.932 27.5172 52.932 27.6345C52.932 27.8838 52.9173 28.1845 52.888 28.5365C52.8586 28.8738 52.8146 29.3285 52.756 29.9005C52.6973 30.4578 52.6093 31.1985 52.492 32.1225C52.3893 32.9732 52.3086 33.6405 52.25 34.1245C52.206 34.6085 52.1693 34.9752 52.14 35.2245C52.1106 35.4592 52.0886 35.6425 52.074 35.7745C52.074 35.9065 52.074 36.0532 52.074 36.2145C52.074 36.4785 52.1106 36.7058 52.184 36.8965C52.2573 37.0872 52.382 37.1825 52.558 37.1825C52.778 37.1825 52.9906 36.9918 53.196 36.6105C53.4013 36.2145 53.6213 35.7012 53.856 35.0705L54.45 35.2465C54.3766 35.4665 54.296 35.6938 54.208 35.9285C54.1346 36.1485 54.0613 36.3685 53.988 36.5885C53.8853 36.8672 53.8266 37.1605 53.812 37.4685C53.812 37.7618 53.9073 38.0552 54.098 38.3485C54.4793 38.9792 54.5526 39.6612 54.318 40.3945C54.0833 41.1425 53.4966 41.9198 52.558 42.7265ZM61.0991 26.8205C61.8911 26.8205 62.6024 27.0112 63.2331 27.3925C63.8638 27.7592 64.3624 28.3018 64.7291 29.0205C65.0958 29.7392 65.2791 30.6118 65.2791 31.6385C65.2791 32.8118 65.0664 33.9118 64.6411 34.9385C64.2158 35.9505 63.5998 36.7645 62.7931 37.3805C62.0011 37.9965 61.0331 38.3045 59.8891 38.3045C58.9211 38.3045 58.1218 38.0845 57.4911 37.6445C56.8751 37.2045 56.4131 36.6105 56.1051 35.8625C55.8118 35.1145 55.6651 34.2858 55.6651 33.3765C55.6651 32.1885 55.8778 31.0958 56.3031 30.0985C56.7431 29.1012 57.3664 28.3092 58.1731 27.7225C58.9944 27.1212 59.9698 26.8205 61.0991 26.8205ZM60.7691 27.6345C60.1238 27.6198 59.5664 27.8398 59.0971 28.2945C58.6278 28.7345 58.2611 29.3358 57.9971 30.0985C57.7478 30.8612 57.6158 31.7118 57.6011 32.6505C57.5864 33.1492 57.6158 33.6772 57.6891 34.2345C57.7624 34.7918 57.8871 35.3125 58.0631 35.7965C58.2538 36.2805 58.5104 36.6765 58.8331 36.9845C59.1704 37.2925 59.5884 37.4538 60.0871 37.4685C60.6738 37.4832 61.1724 37.3292 61.5831 37.0065C61.9938 36.6692 62.3238 36.2365 62.5731 35.7085C62.8224 35.1805 63.0058 34.6158 63.1231 34.0145C63.2551 33.4132 63.3284 32.8485 63.3431 32.3205C63.3578 31.8072 63.3284 31.2792 63.2551 30.7365C63.1964 30.1938 63.0718 29.6878 62.8811 29.2185C62.6904 28.7492 62.4264 28.3752 62.0891 28.0965C61.7518 27.8032 61.3118 27.6492 60.7691 27.6345ZM75.3151 38.3045C74.7284 38.3045 74.2591 38.1725 73.9071 37.9085C73.5551 37.6445 73.2984 37.2925 73.1371 36.8525C72.9904 36.4125 72.9171 35.9432 72.9171 35.4445C72.9171 34.6232 72.9757 33.7945 73.0931 32.9585C73.2104 32.1225 73.3277 31.3525 73.4451 30.6485C73.5624 29.9298 73.6211 29.3652 73.6211 28.9545C73.6211 28.6758 73.5844 28.4338 73.5111 28.2285C73.4524 28.0232 73.2911 27.9205 73.0271 27.9205C72.7924 27.9205 72.5284 28.0818 72.2351 28.4045C71.9564 28.7272 71.7071 29.2772 71.4871 30.0545L70.8711 29.9225C70.9151 29.6585 71.0031 29.3578 71.1351 29.0205C71.2671 28.6685 71.4431 28.3238 71.6631 27.9865C71.8977 27.6492 72.1764 27.3705 72.4991 27.1505C72.8364 26.9305 73.2251 26.8205 73.6651 26.8205C74.2517 26.8205 74.6917 27.0038 74.9851 27.3705C75.2931 27.7372 75.4471 28.2652 75.4471 28.9545C75.4471 29.3652 75.4104 29.8712 75.3371 30.4725C75.2637 31.0738 75.1757 31.7045 75.0731 32.3645C74.9851 33.0098 74.9044 33.6405 74.8311 34.2565C74.7577 34.8725 74.7211 35.4152 74.7211 35.8845C74.7211 36.0458 74.7431 36.2365 74.7871 36.4565C74.8457 36.6765 74.9484 36.8672 75.0951 37.0285C75.2564 37.1898 75.4764 37.2705 75.7551 37.2705C76.1657 37.2705 76.5691 37.0798 76.9651 36.6985C77.3611 36.3172 77.7351 35.8038 78.0871 35.1585C78.4391 34.5132 78.7544 33.8018 79.0331 33.0245C79.3117 32.2325 79.5244 31.4258 79.6711 30.6045C79.8324 29.7685 79.9131 28.9765 79.9131 28.2285C79.9131 28.0085 79.9057 27.8105 79.8911 27.6345C79.8911 27.4438 79.8837 27.2532 79.8691 27.0625H81.7171C81.7317 27.1652 81.7391 27.2605 81.7391 27.3485C81.7391 27.4218 81.7391 27.5172 81.7391 27.6345C81.7391 27.8838 81.7244 28.1845 81.6951 28.5365C81.6657 28.8738 81.6217 29.3285 81.5631 29.9005C81.5044 30.4578 81.4164 31.1985 81.2991 32.1225C81.1964 32.9732 81.1157 33.6405 81.0571 34.1245C81.0131 34.6085 80.9764 34.9752 80.9471 35.2245C80.9177 35.4592 80.8957 35.6425 80.8811 35.7745C80.8811 35.9065 80.8811 36.0532 80.8811 36.2145C80.8811 36.4785 80.9177 36.7058 80.9911 36.8965C81.0791 37.0872 81.2404 37.1825 81.4751 37.1825C81.7244 37.1825 81.9957 37.0285 82.2891 36.7205C82.5971 36.3978 82.8611 35.8478 83.0811 35.0705L83.6971 35.2025C83.6531 35.4665 83.5577 35.7745 83.4111 36.1265C83.2791 36.4638 83.0957 36.8012 82.8611 37.1385C82.6264 37.4758 82.3404 37.7545 82.0031 37.9745C81.6657 38.1945 81.2771 38.3045 80.8371 38.3045C80.2504 38.3045 79.8177 38.1212 79.5391 37.7545C79.2751 37.3878 79.1431 36.9112 79.1431 36.3245C79.1431 35.8992 79.1797 35.4372 79.2531 34.9385C79.3411 34.4398 79.4364 33.9192 79.5391 33.3765H79.4731C78.9744 34.7112 78.4977 35.7378 78.0431 36.4565C77.5884 37.1605 77.1411 37.6445 76.7011 37.9085C76.2611 38.1725 75.7991 38.3045 75.3151 38.3045ZM92.9254 38.3045C92.3387 38.3045 91.8767 38.1725 91.5394 37.9085C91.202 37.6445 90.96 37.2998 90.8134 36.8745C90.6814 36.4345 90.6154 35.9578 90.6154 35.4445C90.6154 34.6378 90.674 33.8165 90.7914 32.9805C90.9087 32.1298 91.026 31.3525 91.1434 30.6485C91.2754 29.9298 91.3414 29.3578 91.3414 28.9325C91.3414 28.6685 91.3047 28.4338 91.2314 28.2285C91.1727 28.0232 91.0114 27.9205 90.7474 27.9205C90.5127 27.9205 90.234 28.0818 89.9114 28.4045C89.6034 28.7125 89.3394 29.2625 89.1194 30.0545L88.5034 29.9005C88.5474 29.6512 88.6427 29.3505 88.7894 28.9985C88.936 28.6465 89.1267 28.3092 89.3614 27.9865C89.596 27.6492 89.882 27.3705 90.2194 27.1505C90.5567 26.9305 90.9454 26.8205 91.3854 26.8205C92.0747 26.8205 92.5367 27.0038 92.7714 27.3705C93.0207 27.7225 93.1454 28.2432 93.1454 28.9325C93.1454 29.3432 93.1014 29.8272 93.0134 30.3845C92.94 30.9418 92.852 31.5358 92.7494 32.1665C92.6467 32.7972 92.5514 33.4352 92.4634 34.0805C92.39 34.7258 92.3534 35.3418 92.3534 35.9285C92.3534 36.0898 92.3827 36.2805 92.4414 36.5005C92.5 36.7058 92.6027 36.8892 92.7494 37.0505C92.9107 37.1972 93.1307 37.2705 93.4094 37.2705C93.82 37.2705 94.2234 37.0798 94.6194 36.6985C95.0154 36.3172 95.382 35.8038 95.7194 35.1585C96.0567 34.5132 96.35 33.8018 96.5994 33.0245C96.8634 32.2325 97.0687 31.4258 97.2154 30.6045C97.362 29.7685 97.4354 28.9765 97.4354 28.2285C97.4354 28.0085 97.428 27.8105 97.4134 27.6345C97.4134 27.4438 97.406 27.2532 97.3914 27.0625H99.2394C99.254 27.1652 99.2614 27.2605 99.2614 27.3485C99.2614 27.4218 99.2614 27.5172 99.2614 27.6345C99.2614 28.1918 99.2174 28.8518 99.1294 29.6145C99.056 30.3772 98.9607 31.1618 98.8434 31.9685C98.7407 32.7752 98.6454 33.5378 98.5574 34.2565C98.484 34.9605 98.4547 35.5472 98.4694 36.0165C98.484 36.2658 98.5574 36.5372 98.6894 36.8305C98.8214 37.1238 99.1 37.2705 99.5254 37.2705C99.936 37.2705 100.332 37.0798 100.713 36.6985C101.109 36.3172 101.476 35.8038 101.813 35.1585C102.151 34.5132 102.451 33.8018 102.715 33.0245C102.979 32.2325 103.185 31.4258 103.331 30.6045C103.478 29.7685 103.551 28.9765 103.551 28.2285C103.551 28.0085 103.544 27.8105 103.529 27.6345C103.529 27.4438 103.522 27.2532 103.507 27.0625H105.355C105.37 27.1652 105.377 27.2605 105.377 27.3485C105.377 27.4218 105.377 27.5172 105.377 27.6345C105.377 27.8838 105.363 28.1772 105.333 28.5145C105.319 28.8372 105.282 29.2772 105.223 29.8345C105.165 30.3772 105.077 31.1105 104.959 32.0345C104.857 32.8852 104.776 33.5598 104.717 34.0585C104.659 34.5425 104.615 34.9165 104.585 35.1805C104.556 35.4298 104.534 35.6278 104.519 35.7745C104.519 35.9065 104.519 36.0532 104.519 36.2145C104.519 36.4785 104.556 36.7132 104.629 36.9185C104.703 37.1092 104.864 37.2045 105.113 37.2045C105.363 37.2045 105.634 37.0432 105.927 36.7205C106.235 36.3978 106.499 35.8478 106.719 35.0705L107.335 35.2025C107.291 35.4665 107.196 35.7745 107.049 36.1265C106.917 36.4638 106.734 36.8012 106.499 37.1385C106.265 37.4758 105.979 37.7545 105.641 37.9745C105.304 38.1945 104.915 38.3045 104.475 38.3045C104.006 38.3045 103.647 38.1872 103.397 37.9525C103.163 37.7032 103.009 37.3805 102.935 36.9845C102.862 36.5885 102.833 36.1705 102.847 35.7305C102.877 35.3052 102.921 34.8872 102.979 34.4765C103.053 34.0658 103.119 33.7065 103.177 33.3985H103.111C102.657 34.7332 102.195 35.7525 101.725 36.4565C101.256 37.1605 100.801 37.6445 100.361 37.9085C99.9214 38.1725 99.496 38.3045 99.0854 38.3045C98.4987 38.3045 98.0294 38.1725 97.6774 37.9085C97.34 37.6298 97.098 37.2998 96.9514 36.9185C96.8047 36.5225 96.7314 36.1485 96.7314 35.7965C96.7314 35.3712 96.7607 35.0118 96.8194 34.7185C96.878 34.4252 96.9734 34.0072 97.1054 33.4645H97.0394C96.5554 34.7992 96.0714 35.8185 95.5874 36.5225C95.118 37.2118 94.656 37.6812 94.2014 37.9305C93.7614 38.1798 93.336 38.3045 92.9254 38.3045ZM113.055 26.8205C113.583 26.8205 114.082 26.9012 114.551 27.0625C115.02 27.2238 115.402 27.4878 115.695 27.8545C115.988 28.2212 116.135 28.7198 116.135 29.3505C116.135 29.9518 115.93 30.4725 115.519 30.9125C115.108 31.3525 114.573 31.7192 113.913 32.0125C113.253 32.2912 112.549 32.5185 111.801 32.6945C111.053 32.8705 110.334 32.9952 109.645 33.0685C109.645 33.9778 109.733 34.7405 109.909 35.3565C110.1 35.9725 110.378 36.4345 110.745 36.7425C111.112 37.0505 111.581 37.2045 112.153 37.2045C112.578 37.2045 113.004 37.1092 113.429 36.9185C113.869 36.7278 114.287 36.4418 114.683 36.0605C115.079 35.6645 115.438 35.1585 115.761 34.5425L116.487 34.9605C116.076 35.7232 115.636 36.3538 115.167 36.8525C114.698 37.3512 114.184 37.7178 113.627 37.9525C113.07 38.1872 112.454 38.3045 111.779 38.3045C110.386 38.3045 109.359 37.8718 108.699 37.0065C108.039 36.1265 107.709 34.9752 107.709 33.5525C107.709 32.7018 107.819 31.8732 108.039 31.0665C108.259 30.2598 108.589 29.5412 109.029 28.9105C109.469 28.2652 110.026 27.7592 110.701 27.3925C111.376 27.0112 112.16 26.8205 113.055 26.8205ZM112.747 27.5685C112.072 27.5685 111.515 27.7958 111.075 28.2505C110.65 28.7052 110.32 29.2918 110.085 30.0105C109.865 30.7292 109.726 31.4845 109.667 32.2765C110.444 32.1738 111.185 31.9905 111.889 31.7265C112.593 31.4625 113.172 31.1252 113.627 30.7145C114.082 30.2892 114.309 29.7978 114.309 29.2405C114.309 28.7712 114.177 28.3752 113.913 28.0525C113.664 27.7298 113.275 27.5685 112.747 27.5685ZM125.805 38.3045C124.984 38.3045 124.493 38.0185 124.331 37.4465C124.17 36.8598 124.17 36.0458 124.331 35.0045C124.551 33.6845 124.72 32.6285 124.837 31.8365C124.969 31.0298 125.065 30.3992 125.123 29.9445C125.197 29.4752 125.248 29.1085 125.277 28.8445C125.307 28.5805 125.329 28.3312 125.343 28.0965C124.845 27.9205 124.368 27.8325 123.913 27.8325C123.18 27.8325 122.571 28.0672 122.087 28.5365C121.603 29.0058 121.347 29.7098 121.317 30.6485C121.303 31.3232 121.449 31.8952 121.757 32.3645C122.065 32.8192 122.557 33.0465 123.231 33.0465C123.481 33.0465 123.73 33.0318 123.979 33.0025C124.243 32.9585 124.551 32.8925 124.903 32.8045L124.859 33.6405C124.405 33.7138 123.965 33.7725 123.539 33.8165C123.114 33.8458 122.703 33.8605 122.307 33.8605V33.5965C121.53 33.4792 120.863 33.1565 120.305 32.6285C119.748 32.0858 119.491 31.3452 119.535 30.4065C119.565 29.7905 119.704 29.2625 119.953 28.8225C120.217 28.3678 120.562 28.0012 120.987 27.7225C121.427 27.4438 121.911 27.2385 122.439 27.1065C122.967 26.9598 123.51 26.8865 124.067 26.8865C124.449 26.8865 124.793 26.8938 125.101 26.9085C125.409 26.9232 125.717 26.9525 126.025 26.9965C126.348 27.0258 126.693 27.0698 127.059 27.1285C126.971 27.8912 126.876 28.6538 126.773 29.4165C126.685 30.1645 126.59 30.9198 126.487 31.6825C126.385 32.4305 126.282 33.1858 126.179 33.9485C126.091 34.6965 126.003 35.4518 125.915 36.2145C125.886 36.5225 125.908 36.7645 125.981 36.9405C126.055 37.1018 126.216 37.1825 126.465 37.1825C126.715 37.1825 126.993 37.0285 127.301 36.7205C127.624 36.3978 127.91 35.8478 128.159 35.0705L128.775 35.2025C128.658 35.7012 128.475 36.1925 128.225 36.6765C127.991 37.1458 127.675 37.5345 127.279 37.8425C126.883 38.1505 126.392 38.3045 125.805 38.3045ZM118.875 38.3045C118.421 38.3045 118.047 38.1872 117.753 37.9525C117.46 37.7032 117.233 37.3878 117.071 37.0065C116.91 36.6252 116.807 36.2292 116.763 35.8185L117.379 35.6865C117.453 36.2292 117.607 36.6032 117.841 36.8085C118.091 37.0138 118.325 37.0945 118.545 37.0505C118.692 37.0212 118.817 36.9625 118.919 36.8745C119.022 36.7865 119.139 36.6105 119.271 36.3465C119.403 36.0825 119.579 35.6865 119.799 35.1585C119.961 34.7478 120.144 34.4032 120.349 34.1245C120.569 33.8312 120.863 33.6258 121.229 33.5085C121.611 33.3912 122.131 33.3838 122.791 33.4865L122.703 33.8605C122.483 33.8605 122.293 33.9265 122.131 34.0585C121.97 34.1758 121.823 34.3812 121.691 34.6745C121.559 34.9678 121.413 35.3712 121.251 35.8845C121.031 36.5592 120.804 37.0725 120.569 37.4245C120.349 37.7618 120.107 37.9892 119.843 38.1065C119.579 38.2385 119.257 38.3045 118.875 38.3045Z" fill="#3B434B"/>
<path d="M357.75 38.8125L344.25 25.3125M357.75 38.8125C357.243 38.3055 356.308 37.98 355.471 37.7783C354.353 37.509 353.194 37.4602 352.052 37.5892C351.165 37.6897 350.188 37.8892 349.795 38.2822M357.75 38.8125C357.243 38.3055 356.918 37.3703 356.716 36.5333C356.447 35.4158 356.398 34.2563 356.527 33.114C356.627 32.2275 356.827 31.251 357.22 30.8572" stroke="#3B434B" stroke-width="0.75"/>
<path d="M15 61.0625L360 61.0625" stroke="#3B434B" stroke-opacity="0.2" stroke-linecap="round"/>
<path d="M15 61.0625L360 61.0625" stroke="#3B434B" stroke-opacity="0.2" stroke-linecap="round"/>
</g>
<defs>
<clipPath id="clip0_238_2">
<rect width="375" height="6280" fill="white" transform="translate(0 -3315)"/>
</clipPath>
</defs>
</svg>
