<svg width="375" height="62" viewBox="0 0 375 62" fill="none" xmlns="http://www.w3.org/2000/svg">
<path d="M-6065 -2587C-6065 -2588.1 -6064.1 -2589 -6063 -2589H4265C4266.1 -2589 4267 -2588.1 4267 -2587V10644C4267 10645.1 4266.1 10646 4265 10646H-6063C-6064.1 10646 -6065 10645.1 -6065 10644V-2587Z" fill="#444444"/>
<path d="M-6063 -2589V-2588H4265V-2589V-2590H-6063V-2589ZM4267 -2587H4266V10644H4267H4268V-2587H4267ZM4265 10646V10645H-6063V10646V10647H4265V10646ZM-6065 10644H-6064V-2587H-6065H-6066V10644H-6065ZM-6063 10646V10645C-6063.55 10645 -6064 10644.6 -6064 10644H-6065H-6066C-6066 10645.7 -6064.66 10647 -6063 10647V10646ZM4267 10644H4266C4266 10644.6 4265.55 10645 4265 10645V10646V10647C4266.66 10647 4268 10645.7 4268 10644H4267ZM4265 -2589V-2588C4265.55 -2588 4266 -2587.55 4266 -2587H4267H4268C4268 -2588.66 4266.66 -2590 4265 -2590V-2589ZM-6063 -2589V-2590C-6064.66 -2590 -6066 -2588.66 -6066 -2587H-6065H-6064C-6064 -2587.55 -6063.55 -2588 -6063 -2588V-2589Z" fill="white" fill-opacity="0.1"/>
<g clip-path="url(#clip0_238_2)">
<rect width="375" height="6280" transform="translate(0 -2163)" fill="#F9F9F9"/>
<path d="M24.13 38.2825L20.324 27.8985C20.192 27.5172 20.0747 27.2018 19.972 26.9525C19.884 26.6885 19.7887 26.4172 19.686 26.1385C19.598 25.8452 19.488 25.4712 19.356 25.0165H19.312C19.2827 25.8378 19.2387 26.6078 19.18 27.3265C19.136 28.0452 19.0847 28.7272 19.026 29.3725L18.454 35.3125C18.4247 35.6352 18.388 35.9578 18.344 36.2805C18.3147 36.6032 18.278 36.9038 18.234 37.1825C18.5127 37.1678 18.7913 37.1532 19.07 37.1385C19.3487 37.1238 19.6273 37.1092 19.906 37.0945L19.84 38.0625H15.66L15.704 37.3365C16.1587 37.3218 16.4887 37.2265 16.694 37.0505C16.914 36.8598 17.0607 36.6105 17.134 36.3025C17.222 35.9945 17.2807 35.6645 17.31 35.3125L18.3 25.4125C18.3293 25.1045 18.3587 24.7965 18.388 24.4885C18.432 24.1658 18.4687 23.8505 18.498 23.5425C18.234 23.5572 17.97 23.5718 17.706 23.5865C17.442 23.5865 17.178 23.5938 16.914 23.6085L16.958 22.6625H20.236L23.624 31.6825C23.844 32.2838 24.0713 32.8925 24.306 33.5085C24.5407 34.1245 24.7753 34.7478 25.01 35.3785H25.054C25.2447 34.9825 25.4573 34.5132 25.692 33.9705C25.9413 33.4132 26.154 32.9365 26.33 32.5405C26.7993 31.4845 27.3053 30.3992 27.848 29.2845C28.3907 28.1552 28.9333 27.0332 29.476 25.9185C30.0187 24.7892 30.5173 23.7038 30.972 22.6625H34.14L34.096 23.3885C33.7293 23.3738 33.4213 23.4472 33.172 23.6085C32.9373 23.7552 32.7613 24.0045 32.644 24.3565C32.5267 24.7085 32.468 25.1852 32.468 25.7865L32.534 35.7965C32.534 36.0605 32.5267 36.3098 32.512 36.5445C32.512 36.7645 32.5047 36.9772 32.49 37.1825C32.7687 37.1678 33.04 37.1532 33.304 37.1385C33.568 37.1238 33.8393 37.1092 34.118 37.0945L34.052 38.0625H29.212L29.256 37.3365C29.6667 37.3072 29.982 37.2192 30.202 37.0725C30.422 36.9112 30.576 36.6472 30.664 36.2805C30.752 35.9138 30.796 35.3932 30.796 34.7185V27.1945C30.796 26.9745 30.796 26.7618 30.796 26.5565C30.796 26.3512 30.796 26.1458 30.796 25.9405C30.8107 25.7205 30.818 25.5078 30.818 25.3025H30.774L30.004 26.9965L24.768 38.2825H24.13ZM41.7518 26.8205C42.1918 26.8205 42.6758 26.8572 43.2038 26.9305C43.7318 26.9892 44.2305 27.0772 44.6998 27.1945C44.5825 28.0745 44.4652 28.9545 44.3478 29.8345C44.2452 30.6998 44.1425 31.5285 44.0398 32.3205C43.9518 33.0978 43.8785 33.8018 43.8198 34.4325C43.7612 35.0485 43.7318 35.5325 43.7318 35.8845C43.7318 36.1778 43.7538 36.4712 43.7978 36.7645C43.8418 37.0578 44.0252 37.2045 44.3478 37.2045C44.5972 37.2045 44.8685 37.0432 45.1618 36.7205C45.4698 36.3978 45.7338 35.8478 45.9538 35.0705L46.5698 35.2025C46.5258 35.4665 46.4305 35.7745 46.2838 36.1265C46.1518 36.4638 45.9685 36.8012 45.7338 37.1385C45.4992 37.4758 45.2132 37.7545 44.8758 37.9745C44.5385 38.1945 44.1498 38.3045 43.7098 38.3045C43.1232 38.3045 42.7052 38.1212 42.4558 37.7545C42.2065 37.3878 42.0818 36.9112 42.0818 36.3245C42.0818 35.8992 42.1185 35.4372 42.1918 34.9385C42.2798 34.4398 42.3752 33.9192 42.4778 33.3765H42.4118C42.0598 34.4618 41.6932 35.3345 41.3118 35.9945C40.9452 36.6398 40.5712 37.1312 40.1898 37.4685C39.8232 37.8058 39.4638 38.0258 39.1118 38.1285C38.7598 38.2458 38.4298 38.3045 38.1218 38.3045C37.3298 38.3045 36.6625 38.0112 36.1198 37.4245C35.5918 36.8378 35.3278 35.8552 35.3278 34.4765C35.3278 33.4498 35.4598 32.4745 35.7238 31.5505C35.9878 30.6265 36.3838 29.8125 36.9118 29.1085C37.4545 28.3898 38.1292 27.8325 38.9358 27.4365C39.7425 27.0258 40.6812 26.8205 41.7518 26.8205ZM41.0698 27.6125C40.4098 27.6125 39.8305 27.7958 39.3318 28.1625C38.8478 28.5292 38.4445 29.0278 38.1218 29.6585C37.7992 30.2745 37.5572 30.9712 37.3958 31.7485C37.2492 32.5112 37.1758 33.2958 37.1758 34.1025C37.1758 35.0412 37.2785 35.8185 37.4838 36.4345C37.6892 37.0358 38.0632 37.3365 38.6058 37.3365C39.0018 37.3365 39.3978 37.1385 39.7938 36.7425C40.2045 36.3465 40.5858 35.8185 40.9378 35.1585C41.2898 34.4838 41.6052 33.7358 41.8838 32.9145C42.1625 32.0785 42.3825 31.2278 42.5438 30.3625C42.7052 29.4972 42.7858 28.6685 42.7858 27.8765C42.5658 27.7885 42.3092 27.7225 42.0158 27.6785C41.7225 27.6345 41.4072 27.6125 41.0698 27.6125ZM52.0226 26.8205C52.6532 26.8205 53.2179 26.9378 53.7166 27.1725C54.2152 27.3925 54.6039 27.7005 54.8826 28.0965C55.1759 28.4778 55.3226 28.9105 55.3226 29.3945C55.3226 29.7172 55.2419 29.9812 55.0806 30.1865C54.9192 30.3772 54.6919 30.4725 54.3986 30.4725C54.0466 30.4872 53.7972 30.3845 53.6506 30.1645C53.5186 29.9445 53.4526 29.7538 53.4526 29.5925C53.4526 29.4605 53.4672 29.3212 53.4966 29.1745C53.5406 29.0278 53.6212 28.8885 53.7386 28.7565C53.6652 28.3458 53.4599 28.0525 53.1226 27.8765C52.7999 27.6858 52.4259 27.5905 52.0006 27.5905C51.3699 27.5905 50.8419 27.7592 50.4166 28.0965C49.9912 28.4338 49.6539 28.8738 49.4046 29.4165C49.1552 29.9592 48.9719 30.5458 48.8546 31.1765C48.7519 31.7925 48.7006 32.3938 48.7006 32.9805C48.7006 34.0072 48.8106 34.8358 49.0306 35.4665C49.2652 36.0825 49.5879 36.5298 49.9986 36.8085C50.4092 37.0872 50.8712 37.2265 51.3846 37.2265C51.7659 37.2265 52.1619 37.1458 52.5726 36.9845C52.9832 36.8085 53.3792 36.5225 53.7606 36.1265C54.1419 35.7158 54.4719 35.1585 54.7506 34.4545L55.5206 34.8285C55.1539 35.6792 54.7286 36.3612 54.2446 36.8745C53.7606 37.3732 53.2399 37.7398 52.6826 37.9745C52.1399 38.1945 51.5826 38.3045 51.0106 38.3045C49.7199 38.3045 48.6859 37.9158 47.9086 37.1385C47.1459 36.3465 46.7646 35.1292 46.7646 33.4865C46.7646 32.7678 46.8672 32.0198 47.0726 31.2425C47.2779 30.4652 47.5932 29.7465 48.0186 29.0865C48.4439 28.4118 48.9866 27.8692 49.6466 27.4585C50.3212 27.0332 51.1132 26.8205 52.0226 26.8205ZM61.761 26.8205C62.3917 26.8205 62.9563 26.9378 63.455 27.1725C63.9537 27.3925 64.3423 27.7005 64.621 28.0965C64.9143 28.4778 65.061 28.9105 65.061 29.3945C65.061 29.7172 64.9803 29.9812 64.819 30.1865C64.6577 30.3772 64.4303 30.4725 64.137 30.4725C63.785 30.4872 63.5357 30.3845 63.389 30.1645C63.257 29.9445 63.191 29.7538 63.191 29.5925C63.191 29.4605 63.2057 29.3212 63.235 29.1745C63.279 29.0278 63.3597 28.8885 63.477 28.7565C63.4037 28.3458 63.1983 28.0525 62.861 27.8765C62.5383 27.6858 62.1643 27.5905 61.739 27.5905C61.1083 27.5905 60.5803 27.7592 60.155 28.0965C59.7297 28.4338 59.3923 28.8738 59.143 29.4165C58.8937 29.9592 58.7103 30.5458 58.593 31.1765C58.4903 31.7925 58.439 32.3938 58.439 32.9805C58.439 34.0072 58.549 34.8358 58.769 35.4665C59.0037 36.0825 59.3263 36.5298 59.737 36.8085C60.1477 37.0872 60.6097 37.2265 61.123 37.2265C61.5043 37.2265 61.9003 37.1458 62.311 36.9845C62.7217 36.8085 63.1177 36.5225 63.499 36.1265C63.8803 35.7158 64.2103 35.1585 64.489 34.4545L65.259 34.8285C64.8923 35.6792 64.467 36.3612 63.983 36.8745C63.499 37.3732 62.9783 37.7398 62.421 37.9745C61.8783 38.1945 61.321 38.3045 60.749 38.3045C59.4583 38.3045 58.4243 37.9158 57.647 37.1385C56.8843 36.3465 56.503 35.1292 56.503 33.4865C56.503 32.7678 56.6057 32.0198 56.811 31.2425C57.0163 30.4652 57.3317 29.7465 57.757 29.0865C58.1823 28.4118 58.725 27.8692 59.385 27.4585C60.0597 27.0332 60.8517 26.8205 61.761 26.8205ZM72.6214 26.8205C73.0614 26.8205 73.5454 26.8572 74.0734 26.9305C74.6014 26.9892 75.1001 27.0772 75.5694 27.1945C75.4521 28.0745 75.3348 28.9545 75.2174 29.8345C75.1148 30.6998 75.0121 31.5285 74.9094 32.3205C74.8214 33.0978 74.7481 33.8018 74.6894 34.4325C74.6308 35.0485 74.6014 35.5325 74.6014 35.8845C74.6014 36.1778 74.6234 36.4712 74.6674 36.7645C74.7114 37.0578 74.8948 37.2045 75.2174 37.2045C75.4668 37.2045 75.7381 37.0432 76.0314 36.7205C76.3394 36.3978 76.6034 35.8478 76.8234 35.0705L77.4394 35.2025C77.3954 35.4665 77.3001 35.7745 77.1534 36.1265C77.0214 36.4638 76.8381 36.8012 76.6034 37.1385C76.3688 37.4758 76.0828 37.7545 75.7454 37.9745C75.4081 38.1945 75.0194 38.3045 74.5794 38.3045C73.9928 38.3045 73.5748 38.1212 73.3254 37.7545C73.0761 37.3878 72.9514 36.9112 72.9514 36.3245C72.9514 35.8992 72.9881 35.4372 73.0614 34.9385C73.1494 34.4398 73.2448 33.9192 73.3474 33.3765H73.2814C72.9294 34.4618 72.5628 35.3345 72.1814 35.9945C71.8148 36.6398 71.4408 37.1312 71.0594 37.4685C70.6928 37.8058 70.3334 38.0258 69.9814 38.1285C69.6294 38.2458 69.2994 38.3045 68.9914 38.3045C68.1994 38.3045 67.5321 38.0112 66.9894 37.4245C66.4614 36.8378 66.1974 35.8552 66.1974 34.4765C66.1974 33.4498 66.3294 32.4745 66.5934 31.5505C66.8574 30.6265 67.2534 29.8125 67.7814 29.1085C68.3241 28.3898 68.9988 27.8325 69.8054 27.4365C70.6121 27.0258 71.5508 26.8205 72.6214 26.8205ZM71.9394 27.6125C71.2794 27.6125 70.7001 27.7958 70.2014 28.1625C69.7174 28.5292 69.3141 29.0278 68.9914 29.6585C68.6688 30.2745 68.4268 30.9712 68.2654 31.7485C68.1188 32.5112 68.0454 33.2958 68.0454 34.1025C68.0454 35.0412 68.1481 35.8185 68.3534 36.4345C68.5588 37.0358 68.9328 37.3365 69.4754 37.3365C69.8714 37.3365 70.2674 37.1385 70.6634 36.7425C71.0741 36.3465 71.4554 35.8185 71.8074 35.1585C72.1594 34.4838 72.4748 33.7358 72.7534 32.9145C73.0321 32.0785 73.2521 31.2278 73.4134 30.3625C73.5748 29.4972 73.6554 28.6685 73.6554 27.8765C73.4354 27.7885 73.1788 27.7225 72.8854 27.6785C72.5921 27.6345 72.2768 27.6125 71.9394 27.6125ZM79.6362 38.3045C79.2255 38.3045 78.8368 38.1945 78.4702 37.9745C78.1035 37.7398 77.8102 37.4318 77.5902 37.0505C77.3702 36.6545 77.2675 36.2145 77.2822 35.7305C77.3115 35.3785 77.4142 35.1072 77.5902 34.9165C77.7808 34.7112 78.0008 34.6085 78.2502 34.6085C78.5728 34.5938 78.8075 34.6745 78.9542 34.8505C79.1155 35.0265 79.1888 35.2318 79.1742 35.4665C79.1742 35.6572 79.1375 35.8258 79.0642 35.9725C79.0055 36.1192 78.9102 36.2512 78.7782 36.3685C78.8368 36.7792 78.9468 37.0652 79.1082 37.2265C79.2842 37.3878 79.5115 37.4685 79.7902 37.4685C80.1568 37.4685 80.4795 37.3072 80.7582 36.9845C81.0368 36.6472 81.2715 36.2145 81.4622 35.6865C81.6528 35.1438 81.7995 34.5645 81.9022 33.9485C82.0195 33.3325 82.0928 32.7312 82.1222 32.1445C82.1955 30.6045 82.0855 29.5118 81.7922 28.8665C81.5135 28.2212 81.1468 27.8985 80.6922 27.8985C80.2815 27.8985 79.9002 28.0598 79.5482 28.3825C79.2108 28.7052 78.8515 29.3432 78.4702 30.2965L77.8102 29.9225C78.1915 29.0718 78.5508 28.4265 78.8882 27.9865C79.2402 27.5318 79.5995 27.2238 79.9662 27.0625C80.3328 26.8865 80.7288 26.8058 81.1542 26.8205C81.6968 26.8205 82.1735 27.0112 82.5842 27.3925C83.0095 27.7592 83.3322 28.3018 83.5522 29.0205C83.7868 29.7392 83.8748 30.6118 83.8162 31.6385C83.7722 32.8412 83.5668 33.9485 83.2002 34.9605C82.8482 35.9725 82.3715 36.7865 81.7702 37.4025C81.1688 38.0038 80.4575 38.3045 79.6362 38.3045ZM91.3182 38.3045C90.6582 38.3045 90.1008 38.1212 89.6462 37.7545C89.1915 37.3732 88.8542 36.8232 88.6342 36.1045C88.4142 35.3858 88.3115 34.5132 88.3262 33.4865C88.3555 32.2692 88.5168 31.1618 88.8102 30.1645C89.1182 29.1525 89.5582 28.3458 90.1302 27.7445C90.7022 27.1285 91.3915 26.8205 92.1982 26.8205C92.9462 26.8205 93.5402 27.0698 93.9802 27.5685C94.4348 28.0525 94.6475 28.6612 94.6182 29.3945C94.6182 29.7465 94.5228 30.0252 94.3322 30.2305C94.1562 30.4212 93.9435 30.5165 93.6942 30.5165C93.3715 30.5312 93.1368 30.4505 92.9902 30.2745C92.8435 30.0985 92.7702 29.8932 92.7702 29.6585C92.7702 29.4532 92.7922 29.2845 92.8362 29.1525C92.8948 29.0058 92.9828 28.8738 93.1002 28.7565C93.1002 28.4338 93.0268 28.1698 92.8802 27.9645C92.7482 27.7445 92.5135 27.6345 92.1762 27.6345C91.8095 27.6345 91.4942 27.8032 91.2302 28.1405C90.9662 28.4632 90.7462 28.8958 90.5702 29.4385C90.3942 29.9665 90.2622 30.5458 90.1742 31.1765C90.0862 31.7925 90.0348 32.3938 90.0202 32.9805C90.0055 34.5938 90.1448 35.7452 90.4382 36.4345C90.7462 37.1238 91.1275 37.4685 91.5822 37.4685C92.0515 37.4685 92.4622 37.2338 92.8142 36.7645C93.1662 36.2805 93.5255 35.5105 93.8922 34.4545L94.6402 34.8285C94.3028 35.6792 93.9655 36.3612 93.6282 36.8745C93.2908 37.3732 92.9388 37.7398 92.5722 37.9745C92.2055 38.1945 91.7875 38.3045 91.3182 38.3045ZM84.8502 38.0625C84.8355 37.9598 84.8282 37.8718 84.8282 37.7985C84.8282 37.7105 84.8282 37.6078 84.8282 37.4905C84.8282 37.2412 84.8355 36.9478 84.8502 36.6105C84.8648 36.2585 84.8942 35.7965 84.9382 35.2245C84.9968 34.6525 85.0775 33.9045 85.1802 32.9805C85.2828 32.1152 85.3855 31.2792 85.4882 30.4725C85.5908 29.6658 85.6275 28.8445 85.5982 28.0085C85.5982 27.8325 85.5908 27.6492 85.5762 27.4585C85.5762 27.2532 85.5615 27.0405 85.5322 26.8205H87.3142C87.3288 26.9232 87.3362 27.0185 87.3362 27.1065C87.3362 27.1798 87.3362 27.2752 87.3362 27.3925C87.3362 28.0085 87.2922 28.7345 87.2042 29.5705C87.1308 30.4065 87.0428 31.2718 86.9402 32.1665C86.8522 33.0465 86.7715 33.8972 86.6982 34.7185C86.6248 35.5398 86.5955 36.2512 86.6102 36.8525C86.6102 37.0285 86.6175 37.2192 86.6322 37.4245C86.6468 37.6298 86.6615 37.8425 86.6762 38.0625H84.8502ZM83.2222 32.7165L83.2442 32.0785H88.7442V32.6945L83.2222 32.7165Z" fill="#3B434B"/>
<path d="M357.75 38.8125L344.25 25.3125M357.75 38.8125C357.243 38.3055 356.308 37.98 355.471 37.7783C354.353 37.509 353.194 37.4602 352.052 37.5892C351.165 37.6897 350.188 37.8892 349.795 38.2822M357.75 38.8125C357.243 38.3055 356.918 37.3703 356.716 36.5333C356.447 35.4158 356.398 34.2563 356.527 33.114C356.627 32.2275 356.827 31.251 357.22 30.8572" stroke="#3B434B" stroke-width="0.75"/>
<path d="M15 61.0625L360 61.0625" stroke="#3B434B" stroke-opacity="0.2" stroke-linecap="round"/>
</g>
<defs>
<clipPath id="clip0_238_2">
<rect width="375" height="6280" fill="white" transform="translate(0 -2163)"/>
</clipPath>
</defs>
</svg>
