<svg width="375" height="56" viewBox="0 0 375 56" fill="none" xmlns="http://www.w3.org/2000/svg">
<path d="M-6966 -3507C-6966 -3508.1 -6965.1 -3509 -6964 -3509H3364C3365.1 -3509 3366 -3508.1 3366 -3507V9724C3366 9725.1 3365.1 9726 3364 9726H-6964C-6965.1 9726 -6966 9725.1 -6966 9724V-3507Z" fill="#444444"/>
<path d="M-6964 -3509V-3508H3364V-3509V-3510H-6964V-3509ZM3366 -3507H3365V9724H3366H3367V-3507H3366ZM3364 9726V9725H-6964V9726V9727H3364V9726ZM-6966 9724H-6965V-3507H-6966H-6967V9724H-6966ZM-6964 9726V9725C-6964.55 9725 -6965 9724.55 -6965 9724H-6966H-6967C-6967 9725.66 -6965.66 9727 -6964 9727V9726ZM3366 9724H3365C3365 9724.55 3364.55 9725 3364 9725V9726V9727C3365.66 9727 3367 9725.66 3367 9724H3366ZM3364 -3509V-3508C3364.55 -3508 3365 -3507.55 3365 -3507H3366H3367C3367 -3508.66 3365.66 -3510 3364 -3510V-3509ZM-6964 -3509V-3510C-6965.66 -3510 -6967 -3508.66 -6967 -3507H-6966H-6965C-6965 -3507.55 -6964.55 -3508 -6964 -3508V-3509Z" fill="white" fill-opacity="0.1"/>
<g clip-path="url(#clip0_238_2)">
<rect width="375" height="8557" transform="translate(0 -3083)" fill="#F9F9F9"/>
<path d="M21.048 26.2025C20.6373 25.2692 20.222 24.3405 19.802 23.4165C19.382 22.4832 18.9713 21.5405 18.57 20.5885C18.4393 20.2898 18.3087 19.9912 18.178 19.6925C18.0567 19.3845 17.9353 19.0765 17.814 18.7685C17.702 18.4605 17.5853 18.1525 17.464 17.8445C17.464 17.9472 17.4593 18.0498 17.45 18.1525C17.45 18.2552 17.45 18.3578 17.45 18.4605C17.4407 18.7965 17.4267 19.2025 17.408 19.6785C17.3987 20.1452 17.3847 20.6492 17.366 21.1905C17.3473 21.7225 17.3333 22.2592 17.324 22.8005C17.3147 23.3325 17.3053 23.8365 17.296 24.3125C17.2867 24.5178 17.2773 24.7232 17.268 24.9285C17.268 25.1338 17.2587 25.3252 17.24 25.5025C17.4173 25.4932 17.59 25.4838 17.758 25.4745C17.9353 25.4652 18.1127 25.4558 18.29 25.4465V26.0625H15.616V25.6005C15.9053 25.5912 16.1153 25.5305 16.246 25.4185C16.386 25.2972 16.4747 25.1385 16.512 24.9425C16.5493 24.7465 16.5727 24.5365 16.582 24.3125L16.848 17.9285C16.8573 17.7418 16.862 17.5552 16.862 17.3685C16.8713 17.1818 16.8807 16.9998 16.89 16.8225C16.722 16.8318 16.554 16.8412 16.386 16.8505C16.218 16.8505 16.05 16.8552 15.882 16.8645V16.2625H18.024L20.432 21.8205C20.5533 22.1005 20.67 22.3805 20.782 22.6605C20.9033 22.9405 21.0247 23.2205 21.146 23.5005C21.2767 23.7805 21.4027 24.0652 21.524 24.3545H21.552C21.6547 24.1025 21.776 23.8038 21.916 23.4585C22.056 23.1038 22.1727 22.8005 22.266 22.5485C22.6767 21.5218 23.1013 20.4952 23.54 19.4685C23.988 18.4325 24.4267 17.3638 24.856 16.2625H26.928V16.7245C26.6947 16.7152 26.5033 16.7618 26.354 16.8645C26.2047 16.9578 26.0973 17.1165 26.032 17.3405C25.9667 17.5645 25.9433 17.8678 25.962 18.2505L26.326 24.6205C26.3447 24.7792 26.354 24.9332 26.354 25.0825C26.354 25.2318 26.354 25.3672 26.354 25.4885C26.522 25.4792 26.69 25.4745 26.858 25.4745C27.0353 25.4652 27.208 25.4558 27.376 25.4465V26.0625H24.24V25.6005C24.5293 25.5912 24.744 25.5212 24.884 25.3905C25.024 25.2598 25.108 25.0732 25.136 24.8305C25.1733 24.5878 25.1827 24.2892 25.164 23.9345L24.884 19.3145C24.8747 19.1652 24.8653 19.0158 24.856 18.8665C24.8467 18.7172 24.8373 18.5678 24.828 18.4185C24.8187 18.2692 24.8093 18.1198 24.8 17.9705C24.772 18.0358 24.7393 18.1058 24.702 18.1805C24.674 18.2552 24.646 18.3345 24.618 18.4185L21.468 26.2025H21.048ZM32.4436 26.0625C32.4156 25.9038 32.3969 25.7638 32.3876 25.6425C32.3782 25.5212 32.3642 25.3952 32.3456 25.2645C32.0282 25.5818 31.6829 25.8338 31.3096 26.0205C30.9456 26.1978 30.5582 26.2865 30.1476 26.2865C29.4382 26.2865 28.9109 26.1278 28.5656 25.8105C28.2202 25.4838 28.0476 25.0872 28.0476 24.6205C28.0476 24.1912 28.1782 23.8225 28.4396 23.5145C28.7102 23.1972 29.0556 22.9405 29.4756 22.7445C29.9049 22.5392 30.3669 22.3898 30.8616 22.2965C31.3656 22.1938 31.8509 22.1472 32.3176 22.1565V21.2885C32.3176 20.9618 32.2896 20.6538 32.2336 20.3645C32.1776 20.0752 32.0562 19.8372 31.8696 19.6505C31.6829 19.4638 31.3842 19.3658 30.9736 19.3565C30.7029 19.3472 30.4229 19.3985 30.1336 19.5105C29.8536 19.6225 29.6482 19.8138 29.5176 20.0845C29.5922 20.1592 29.6389 20.2478 29.6576 20.3505C29.6856 20.4438 29.6996 20.5325 29.6996 20.6165C29.6996 20.7285 29.6529 20.8592 29.5596 21.0085C29.4662 21.1485 29.3029 21.2138 29.0696 21.2045C28.8736 21.2045 28.7242 21.1392 28.6216 21.0085C28.5189 20.8685 28.4676 20.7052 28.4676 20.5185C28.4676 20.2012 28.5842 19.9165 28.8176 19.6645C29.0602 19.4125 29.3916 19.2118 29.8116 19.0625C30.2316 18.9132 30.7076 18.8385 31.2396 18.8385C32.0236 18.8385 32.6022 19.0485 32.9756 19.4685C33.3489 19.8792 33.5309 20.5325 33.5216 21.4285C33.5216 21.7738 33.5216 22.1238 33.5216 22.4785C33.5216 22.8238 33.5169 23.1738 33.5076 23.5285C33.5076 23.8738 33.5076 24.2238 33.5076 24.5785C33.5076 24.7278 33.5029 24.8772 33.4936 25.0265C33.4842 25.1758 33.4702 25.3438 33.4516 25.5305C33.6196 25.5212 33.7829 25.5118 33.9416 25.5025C34.1096 25.4932 34.2776 25.4838 34.4456 25.4745V26.0625H32.4436ZM32.3176 22.6325C32.0002 22.6418 31.6642 22.6838 31.3096 22.7585C30.9642 22.8238 30.6422 22.9265 30.3436 23.0665C30.0542 23.2065 29.8162 23.3932 29.6296 23.6265C29.4522 23.8505 29.3682 24.1258 29.3776 24.4525C29.3962 24.7978 29.5082 25.0592 29.7136 25.2365C29.9282 25.4045 30.1802 25.4885 30.4696 25.4885C30.8522 25.4885 31.1836 25.4185 31.4636 25.2785C31.7529 25.1292 32.0376 24.9238 32.3176 24.6625C32.3082 24.5598 32.3036 24.4478 32.3036 24.3265C32.3036 24.2052 32.3036 24.0792 32.3036 23.9485C32.3036 23.9018 32.3036 23.7525 32.3036 23.5005C32.3129 23.2485 32.3176 22.9592 32.3176 22.6325ZM38.5423 26.2865C37.917 26.2865 37.3383 26.1465 36.8063 25.8665C36.2836 25.5772 35.8636 25.1665 35.5463 24.6345C35.2383 24.0932 35.0843 23.4445 35.0843 22.6885C35.0843 22.2032 35.173 21.7318 35.3503 21.2745C35.5276 20.8172 35.775 20.4065 36.0923 20.0425C36.419 19.6692 36.8063 19.3752 37.2543 19.1605C37.7023 18.9458 38.197 18.8385 38.7383 18.8385C39.261 18.8385 39.7136 18.9178 40.0963 19.0765C40.4883 19.2352 40.7916 19.4452 41.0063 19.7065C41.221 19.9678 41.3283 20.2525 41.3283 20.5605C41.3283 20.7658 41.2723 20.9432 41.1603 21.0925C41.0483 21.2325 40.885 21.3025 40.6703 21.3025C40.437 21.3118 40.269 21.2418 40.1663 21.0925C40.073 20.9338 40.0263 20.7938 40.0263 20.6725C40.0263 20.5792 40.0403 20.4858 40.0683 20.3925C40.0963 20.2898 40.1523 20.1965 40.2363 20.1125C40.1616 19.8885 40.031 19.7252 39.8443 19.6225C39.6576 19.5105 39.4616 19.4405 39.2563 19.4125C39.0603 19.3752 38.897 19.3565 38.7663 19.3565C38.1316 19.3565 37.595 19.6132 37.1563 20.1265C36.727 20.6305 36.5123 21.3678 36.5123 22.3385C36.5123 22.9638 36.6103 23.5192 36.8063 24.0045C37.0116 24.4898 37.2963 24.8725 37.6603 25.1525C38.0243 25.4232 38.4443 25.5585 38.9203 25.5585C39.359 25.5585 39.779 25.4418 40.1803 25.2085C40.5816 24.9752 40.8943 24.6905 41.1183 24.3545L41.4823 24.6345C41.2396 25.0265 40.9456 25.3438 40.6003 25.5865C40.2643 25.8292 39.9143 26.0065 39.5503 26.1185C39.1956 26.2305 38.8596 26.2865 38.5423 26.2865ZM45.6451 26.2865C45.0198 26.2865 44.4411 26.1465 43.9091 25.8665C43.3865 25.5772 42.9665 25.1665 42.6491 24.6345C42.3411 24.0932 42.1871 23.4445 42.1871 22.6885C42.1871 22.2032 42.2758 21.7318 42.4531 21.2745C42.6305 20.8172 42.8778 20.4065 43.1951 20.0425C43.5218 19.6692 43.9091 19.3752 44.3571 19.1605C44.8051 18.9458 45.2998 18.8385 45.8411 18.8385C46.3638 18.8385 46.8165 18.9178 47.1991 19.0765C47.5911 19.2352 47.8945 19.4452 48.1091 19.7065C48.3238 19.9678 48.4311 20.2525 48.4311 20.5605C48.4311 20.7658 48.3751 20.9432 48.2631 21.0925C48.1511 21.2325 47.9878 21.3025 47.7731 21.3025C47.5398 21.3118 47.3718 21.2418 47.2691 21.0925C47.1758 20.9338 47.1291 20.7938 47.1291 20.6725C47.1291 20.5792 47.1431 20.4858 47.1711 20.3925C47.1991 20.2898 47.2551 20.1965 47.3391 20.1125C47.2645 19.8885 47.1338 19.7252 46.9471 19.6225C46.7605 19.5105 46.5645 19.4405 46.3591 19.4125C46.1631 19.3752 45.9998 19.3565 45.8691 19.3565C45.2345 19.3565 44.6978 19.6132 44.2591 20.1265C43.8298 20.6305 43.6151 21.3678 43.6151 22.3385C43.6151 22.9638 43.7131 23.5192 43.9091 24.0045C44.1145 24.4898 44.3991 24.8725 44.7631 25.1525C45.1271 25.4232 45.5471 25.5585 46.0231 25.5585C46.4618 25.5585 46.8818 25.4418 47.2831 25.2085C47.6845 24.9752 47.9971 24.6905 48.2211 24.3545L48.5851 24.6345C48.3425 25.0265 48.0485 25.3438 47.7031 25.5865C47.3671 25.8292 47.0171 26.0065 46.6531 26.1185C46.2985 26.2305 45.9625 26.2865 45.6451 26.2865ZM53.629 26.0625C53.601 25.9038 53.5823 25.7638 53.573 25.6425C53.5636 25.5212 53.5496 25.3952 53.531 25.2645C53.2136 25.5818 52.8683 25.8338 52.495 26.0205C52.131 26.1978 51.7436 26.2865 51.333 26.2865C50.6236 26.2865 50.0963 26.1278 49.751 25.8105C49.4056 25.4838 49.233 25.0872 49.233 24.6205C49.233 24.1912 49.3636 23.8225 49.625 23.5145C49.8956 23.1972 50.241 22.9405 50.661 22.7445C51.0903 22.5392 51.5523 22.3898 52.047 22.2965C52.551 22.1938 53.0363 22.1472 53.503 22.1565V21.2885C53.503 20.9618 53.475 20.6538 53.419 20.3645C53.363 20.0752 53.2416 19.8372 53.055 19.6505C52.8683 19.4638 52.5696 19.3658 52.159 19.3565C51.8883 19.3472 51.6083 19.3985 51.319 19.5105C51.039 19.6225 50.8336 19.8138 50.703 20.0845C50.7776 20.1592 50.8243 20.2478 50.843 20.3505C50.871 20.4438 50.885 20.5325 50.885 20.6165C50.885 20.7285 50.8383 20.8592 50.745 21.0085C50.6516 21.1485 50.4883 21.2138 50.255 21.2045C50.059 21.2045 49.9096 21.1392 49.807 21.0085C49.7043 20.8685 49.653 20.7052 49.653 20.5185C49.653 20.2012 49.7696 19.9165 50.003 19.6645C50.2456 19.4125 50.577 19.2118 50.997 19.0625C51.417 18.9132 51.893 18.8385 52.425 18.8385C53.209 18.8385 53.7876 19.0485 54.161 19.4685C54.5343 19.8792 54.7163 20.5325 54.707 21.4285C54.707 21.7738 54.707 22.1238 54.707 22.4785C54.707 22.8238 54.7023 23.1738 54.693 23.5285C54.693 23.8738 54.693 24.2238 54.693 24.5785C54.693 24.7278 54.6883 24.8772 54.679 25.0265C54.6696 25.1758 54.6556 25.3438 54.637 25.5305C54.805 25.5212 54.9683 25.5118 55.127 25.5025C55.295 25.4932 55.463 25.4838 55.631 25.4745V26.0625H53.629ZM53.503 22.6325C53.1856 22.6418 52.8496 22.6838 52.495 22.7585C52.1496 22.8238 51.8276 22.9265 51.529 23.0665C51.2396 23.2065 51.0016 23.3932 50.815 23.6265C50.6376 23.8505 50.5536 24.1258 50.563 24.4525C50.5816 24.7978 50.6936 25.0592 50.899 25.2365C51.1136 25.4045 51.3656 25.4885 51.655 25.4885C52.0376 25.4885 52.369 25.4185 52.649 25.2785C52.9383 25.1292 53.223 24.9238 53.503 24.6625C53.4936 24.5598 53.489 24.4478 53.489 24.3265C53.489 24.2052 53.489 24.0792 53.489 23.9485C53.489 23.9018 53.489 23.7525 53.489 23.5005C53.4983 23.2485 53.503 22.9592 53.503 22.6325ZM55.7937 26.0625V25.6425C55.9617 25.6425 56.125 25.5912 56.2837 25.4885C56.4517 25.3765 56.6244 25.2225 56.8017 25.0265C56.9884 24.8212 57.1844 24.5785 57.3897 24.2985C57.5764 24.0465 57.7724 23.7852 57.9777 23.5145C58.1924 23.2345 58.4024 22.9732 58.6077 22.7305C58.8224 22.4878 59.0184 22.3012 59.1957 22.1705L58.2017 20.9525C58.043 20.7752 57.847 20.5792 57.6137 20.3645C57.3804 20.1498 57.1237 19.9585 56.8437 19.7905C56.573 19.6132 56.279 19.5105 55.9617 19.4825V19.0625H58.5097V19.6225L57.5437 19.5805C57.6744 19.6645 57.805 19.7718 57.9357 19.9025C58.0757 20.0238 58.2204 20.1638 58.3697 20.3225L59.8817 22.1145H60.5257V20.5465C60.5257 20.3598 60.5257 20.1965 60.5257 20.0565C60.535 19.9072 60.5537 19.7532 60.5817 19.5945L59.6997 19.6365V19.0625H62.5557V19.4825C62.2757 19.4825 62.075 19.5572 61.9537 19.7065C61.8417 19.8465 61.7764 20.0472 61.7577 20.3085C61.739 20.5605 61.7297 20.8545 61.7297 21.1905L61.7157 22.1145H62.3737L63.8717 20.3225C64.0304 20.1638 64.175 20.0238 64.3057 19.9025C64.4364 19.7718 64.567 19.6645 64.6977 19.5805L63.7457 19.6225V19.0625H66.2937V19.4825C65.9764 19.5105 65.6777 19.6132 65.3977 19.7905C65.1177 19.9585 64.8657 20.1498 64.6417 20.3645C64.4177 20.5792 64.2217 20.7752 64.0537 20.9525L63.0597 22.1705C63.181 22.2638 63.307 22.3805 63.4377 22.5205C63.5777 22.6512 63.713 22.8005 63.8437 22.9685C64.021 23.1738 64.1937 23.3932 64.3617 23.6265C64.539 23.8598 64.7024 24.0838 64.8517 24.2985C65.057 24.5785 65.2484 24.8212 65.4257 25.0265C65.6124 25.2225 65.7897 25.3765 65.9577 25.4885C66.1257 25.5912 66.289 25.6425 66.4477 25.6425V26.0625H65.2157C64.9917 26.0625 64.763 25.9365 64.5297 25.6845C64.2964 25.4325 64.035 25.1152 63.7457 24.7325C63.5964 24.5272 63.433 24.3032 63.2557 24.0605C63.0877 23.8085 62.9104 23.5612 62.7237 23.3185C62.5464 23.0665 62.369 22.8378 62.1917 22.6325L61.7157 22.6465L61.7017 24.5785C61.7017 24.7652 61.697 24.9332 61.6877 25.0825C61.6877 25.2225 61.6737 25.3718 61.6457 25.5305L62.5277 25.4885V26.0625H59.6717V25.6425C59.961 25.6425 60.1617 25.5725 60.2737 25.4325C60.3857 25.2832 60.451 25.0825 60.4697 24.8305C60.4977 24.5692 60.5117 24.2705 60.5117 23.9345V22.6465L60.0497 22.6325C59.8724 22.8378 59.6904 23.0665 59.5037 23.3185C59.3264 23.5612 59.1537 23.8085 58.9857 24.0605C58.8177 24.3032 58.659 24.5272 58.5097 24.7325C58.2204 25.1152 57.9544 25.4325 57.7117 25.6845C57.4784 25.9365 57.2497 26.0625 57.0257 26.0625H55.7937ZM70.8169 26.2165C70.4809 26.2165 70.2196 26.1512 70.0329 26.0205C69.8556 25.8805 69.7669 25.6985 69.7669 25.4745C69.7669 25.2692 69.8182 25.1012 69.9209 24.9705C70.0236 24.8398 70.1776 24.7698 70.3829 24.7605C70.6069 24.7605 70.7656 24.8165 70.8589 24.9285C70.9616 25.0405 71.0129 25.1525 71.0129 25.2645C71.0129 25.2925 71.0082 25.3298 70.9989 25.3765C70.9989 25.4138 70.9942 25.4465 70.9849 25.4745C71.0409 25.4932 71.0829 25.5025 71.1109 25.5025C71.2976 25.5025 71.4936 25.3158 71.6989 24.9425C71.9042 24.5692 72.0909 23.9532 72.2589 23.0945C72.4362 22.2265 72.5576 21.0645 72.6229 19.6085L71.3069 19.6645V19.0625H77.3409V19.4825C77.0609 19.4825 76.8602 19.5572 76.7389 19.7065C76.6269 19.8465 76.5616 20.0472 76.5429 20.3085C76.5242 20.5605 76.5149 20.8545 76.5149 21.1905V24.5785C76.5056 24.7652 76.4962 24.9332 76.4869 25.0825C76.4776 25.2225 76.4589 25.3718 76.4309 25.5305L77.3129 25.4885V26.0625H74.4569V25.6425C74.7462 25.6425 74.9469 25.5725 75.0589 25.4325C75.1709 25.2832 75.2362 25.0825 75.2549 24.8305C75.2829 24.5692 75.3016 24.2705 75.3109 23.9345V20.5465C75.3109 20.3598 75.3109 20.1965 75.3109 20.0565C75.3202 19.9072 75.3389 19.7532 75.3669 19.5945H74.1349C73.8176 19.5945 73.5982 19.6972 73.4769 19.9025C73.3649 20.0985 73.3089 20.3645 73.3089 20.7005C73.2716 21.3632 73.2016 22.0212 73.0989 22.6745C73.0056 23.3278 72.8656 23.9205 72.6789 24.4525C72.4922 24.9845 72.2449 25.4138 71.9369 25.7405C71.6382 26.0578 71.2649 26.2165 70.8169 26.2165ZM81.1741 19.4825C80.8847 19.4825 80.6841 19.5572 80.5721 19.7065C80.4601 19.8465 80.3947 20.0472 80.3761 20.3085C80.3574 20.5605 80.3434 20.8545 80.3341 21.1905L80.3201 24.5785C80.3201 24.7652 80.3154 24.9332 80.3061 25.0825C80.3061 25.2225 80.2921 25.3718 80.2641 25.5305C80.4134 25.5212 80.5581 25.5165 80.6981 25.5165C80.8474 25.5072 80.9967 25.4978 81.1461 25.4885V26.0625H78.2901V25.6425C78.5794 25.6425 78.7801 25.5725 78.8921 25.4325C79.0041 25.2832 79.0694 25.0825 79.0881 24.8305C79.1161 24.5692 79.1301 24.2705 79.1301 23.9345V20.5465C79.1301 20.3598 79.1301 20.1965 79.1301 20.0565C79.1394 19.9072 79.1581 19.7532 79.1861 19.5945C79.0367 19.6038 78.8874 19.6132 78.7381 19.6225C78.5981 19.6225 78.4534 19.6272 78.3041 19.6365V19.0625H81.1741V19.4825ZM83.9181 19.7345L84.3661 20.0705L80.0681 25.4605L79.5921 25.0685L83.9181 19.7345ZM85.8361 19.4825C85.5561 19.4825 85.3554 19.5572 85.2341 19.7065C85.1221 19.8465 85.0567 20.0472 85.0381 20.3085C85.0194 20.5605 85.0101 20.8545 85.0101 21.1905L84.9821 24.5785C84.9821 24.7652 84.9774 24.9332 84.9681 25.0825C84.9681 25.2225 84.9587 25.3718 84.9401 25.5305C85.0894 25.5212 85.2341 25.5165 85.3741 25.5165C85.5234 25.5072 85.6727 25.4978 85.8221 25.4885V26.0625H82.9521V25.6425C83.2414 25.6425 83.4421 25.5725 83.5541 25.4325C83.6661 25.2832 83.7314 25.0825 83.7501 24.8305C83.7781 24.5692 83.7921 24.2705 83.7921 23.9345L83.8061 20.5465C83.8061 20.3598 83.8061 20.1965 83.8061 20.0565C83.8154 19.9072 83.8341 19.7532 83.8621 19.5945C83.7127 19.6038 83.5634 19.6132 83.4141 19.6225C83.2741 19.6225 83.1294 19.6272 82.9801 19.6365V19.0625H85.8361V19.4825ZM93.8434 28.5545C93.8434 28.0878 93.8107 27.6632 93.7454 27.2805C93.6801 26.9072 93.5634 26.6085 93.3954 26.3845C93.2274 26.1698 92.9894 26.0625 92.6814 26.0625H86.7874V25.6425C87.0767 25.6425 87.2774 25.5725 87.3894 25.4325C87.5014 25.2832 87.5667 25.0825 87.5854 24.8305C87.6041 24.5692 87.6134 24.2705 87.6134 23.9345L87.6274 20.5465C87.6274 20.3598 87.6274 20.1965 87.6274 20.0565C87.6367 19.9072 87.6554 19.7532 87.6834 19.5945L86.8014 19.6365V19.0625H89.6714V19.4825C89.3821 19.4825 89.1767 19.5572 89.0554 19.7065C88.9434 19.8465 88.8781 20.0472 88.8594 20.3085C88.8407 20.5605 88.8314 20.8545 88.8314 21.1905L88.8174 24.5785C88.8174 24.7652 88.8127 24.9332 88.8034 25.0825C88.8034 25.2225 88.7894 25.3718 88.7614 25.5305L91.1414 25.5025C91.4307 25.5025 91.6314 25.4418 91.7434 25.3205C91.8554 25.1992 91.9207 25.0218 91.9394 24.7885C91.9674 24.5552 91.9814 24.2705 91.9814 23.9345L91.9954 20.5465C91.9954 20.3598 91.9954 20.1965 91.9954 20.0565C92.0047 19.9072 92.0234 19.7532 92.0514 19.5945L91.1694 19.6365V19.0625H94.0254V19.4825C93.7454 19.4825 93.5447 19.5572 93.4234 19.7065C93.3114 19.8465 93.2461 20.0472 93.2274 20.3085C93.2087 20.5605 93.1947 20.8545 93.1854 21.1905L93.1714 24.5785C93.1714 24.7652 93.1667 24.9332 93.1574 25.0825C93.1574 25.2225 93.1481 25.3718 93.1294 25.5305L94.3754 25.4745V28.5545H93.8434ZM99.3493 26.0625C99.3213 25.9038 99.3027 25.7638 99.2933 25.6425C99.284 25.5212 99.27 25.3952 99.2513 25.2645C98.934 25.5818 98.5887 25.8338 98.2153 26.0205C97.8513 26.1978 97.464 26.2865 97.0533 26.2865C96.344 26.2865 95.8167 26.1278 95.4713 25.8105C95.126 25.4838 94.9533 25.0872 94.9533 24.6205C94.9533 24.1912 95.084 23.8225 95.3453 23.5145C95.616 23.1972 95.9613 22.9405 96.3813 22.7445C96.8107 22.5392 97.2727 22.3898 97.7673 22.2965C98.2713 22.1938 98.7567 22.1472 99.2233 22.1565V21.2885C99.2233 20.9618 99.1953 20.6538 99.1393 20.3645C99.0833 20.0752 98.962 19.8372 98.7753 19.6505C98.5887 19.4638 98.29 19.3658 97.8793 19.3565C97.6087 19.3472 97.3287 19.3985 97.0393 19.5105C96.7593 19.6225 96.554 19.8138 96.4233 20.0845C96.498 20.1592 96.5447 20.2478 96.5633 20.3505C96.5913 20.4438 96.6053 20.5325 96.6053 20.6165C96.6053 20.7285 96.5587 20.8592 96.4653 21.0085C96.372 21.1485 96.2087 21.2138 95.9753 21.2045C95.7793 21.2045 95.63 21.1392 95.5273 21.0085C95.4247 20.8685 95.3733 20.7052 95.3733 20.5185C95.3733 20.2012 95.49 19.9165 95.7233 19.6645C95.966 19.4125 96.2973 19.2118 96.7173 19.0625C97.1373 18.9132 97.6133 18.8385 98.1453 18.8385C98.9293 18.8385 99.508 19.0485 99.8813 19.4685C100.255 19.8792 100.437 20.5325 100.427 21.4285C100.427 21.7738 100.427 22.1238 100.427 22.4785C100.427 22.8238 100.423 23.1738 100.413 23.5285C100.413 23.8738 100.413 24.2238 100.413 24.5785C100.413 24.7278 100.409 24.8772 100.399 25.0265C100.39 25.1758 100.376 25.3438 100.357 25.5305C100.525 25.5212 100.689 25.5118 100.847 25.5025C101.015 25.4932 101.183 25.4838 101.351 25.4745V26.0625H99.3493ZM99.2233 22.6325C98.906 22.6418 98.57 22.6838 98.2153 22.7585C97.87 22.8238 97.548 22.9265 97.2493 23.0665C96.96 23.2065 96.722 23.3932 96.5353 23.6265C96.358 23.8505 96.274 24.1258 96.2833 24.4525C96.302 24.7978 96.414 25.0592 96.6193 25.2365C96.834 25.4045 97.086 25.4885 97.3753 25.4885C97.758 25.4885 98.0893 25.4185 98.3693 25.2785C98.6587 25.1292 98.9433 24.9238 99.2233 24.6625C99.214 24.5598 99.2093 24.4478 99.2093 24.3265C99.2093 24.2052 99.2093 24.0792 99.2093 23.9485C99.2093 23.9018 99.2093 23.7525 99.2093 23.5005C99.2187 23.2485 99.2233 22.9592 99.2233 22.6325Z" fill="#3B434B"/>
<path d="M323.271 25.7545C323.271 25.9145 323.267 26.0665 323.259 26.2105C323.259 26.3545 323.247 26.4865 323.223 26.6065C323.383 26.5985 323.539 26.5945 323.691 26.5945C323.843 26.5865 323.995 26.5785 324.147 26.5705V27.0625H321.135V26.6665H321.219C321.491 26.6425 321.695 26.5665 321.831 26.4385C321.967 26.3105 322.059 26.1385 322.107 25.9225C322.155 25.7065 322.179 25.4505 322.179 25.1545V24.7465H318.531V24.1585L322.875 18.4705H323.271V24.0265L324.483 24.0385V24.7465H323.271V25.7545ZM322.155 20.1745L319.323 23.9665L322.179 24.0025V20.1745H322.155ZM326.355 27.2545C326.171 27.2545 326.007 27.1825 325.863 27.0385C325.727 26.8865 325.659 26.7025 325.659 26.4865C325.659 26.2705 325.731 26.0865 325.875 25.9345C326.019 25.7825 326.183 25.7065 326.367 25.7065C326.567 25.7065 326.731 25.7825 326.859 25.9345C326.995 26.0865 327.063 26.2705 327.063 26.4865C327.063 26.7025 326.991 26.8865 326.847 27.0385C326.703 27.1825 326.539 27.2545 326.355 27.2545ZM331.4 27.2545C330.792 27.2545 330.288 27.1265 329.888 26.8705C329.488 26.6065 329.176 26.2625 328.952 25.8385C328.728 25.4065 328.568 24.9345 328.472 24.4225C328.384 23.9105 328.34 23.4025 328.34 22.8985C328.34 22.3945 328.396 21.8825 328.508 21.3625C328.628 20.8425 328.812 20.3665 329.06 19.9345C329.308 19.4945 329.628 19.1425 330.02 18.8785C330.412 18.6065 330.888 18.4705 331.448 18.4705C332.032 18.4705 332.516 18.6025 332.9 18.8665C333.292 19.1305 333.6 19.4785 333.824 19.9105C334.056 20.3345 334.22 20.8025 334.316 21.3145C334.412 21.8265 334.46 22.3345 334.46 22.8385C334.46 23.3345 334.404 23.8425 334.292 24.3625C334.18 24.8825 334.004 25.3625 333.764 25.8025C333.524 26.2345 333.208 26.5865 332.816 26.8585C332.432 27.1225 331.96 27.2545 331.4 27.2545ZM331.472 26.7865C331.816 26.7865 332.1 26.6785 332.324 26.4625C332.548 26.2465 332.724 25.9585 332.852 25.5985C332.988 25.2385 333.084 24.8425 333.14 24.4105C333.196 23.9705 333.224 23.5305 333.224 23.0905C333.224 22.6025 333.196 22.1145 333.14 21.6265C333.084 21.1385 332.988 20.6905 332.852 20.2825C332.716 19.8745 332.532 19.5465 332.3 19.2985C332.068 19.0505 331.776 18.9265 331.424 18.9265C331.08 18.9265 330.788 19.0345 330.548 19.2505C330.316 19.4665 330.128 19.7545 329.984 20.1145C329.84 20.4745 329.736 20.8745 329.672 21.3145C329.608 21.7545 329.576 22.1985 329.576 22.6465C329.576 22.9825 329.592 23.3385 329.624 23.7145C329.656 24.0905 329.712 24.4625 329.792 24.8305C329.88 25.1905 329.996 25.5185 330.14 25.8145C330.284 26.1105 330.464 26.3465 330.68 26.5225C330.896 26.6985 331.16 26.7865 331.472 26.7865ZM338.853 27.2545C338.245 27.2545 337.741 27.1265 337.341 26.8705C336.941 26.6065 336.629 26.2625 336.405 25.8385C336.181 25.4065 336.021 24.9345 335.925 24.4225C335.837 23.9105 335.793 23.4025 335.793 22.8985C335.793 22.3945 335.849 21.8825 335.961 21.3625C336.081 20.8425 336.265 20.3665 336.513 19.9345C336.761 19.4945 337.081 19.1425 337.473 18.8785C337.865 18.6065 338.341 18.4705 338.901 18.4705C339.485 18.4705 339.969 18.6025 340.353 18.8665C340.745 19.1305 341.053 19.4785 341.277 19.9105C341.509 20.3345 341.673 20.8025 341.769 21.3145C341.865 21.8265 341.913 22.3345 341.913 22.8385C341.913 23.3345 341.857 23.8425 341.745 24.3625C341.633 24.8825 341.457 25.3625 341.217 25.8025C340.977 26.2345 340.661 26.5865 340.269 26.8585C339.885 27.1225 339.413 27.2545 338.853 27.2545ZM338.925 26.7865C339.269 26.7865 339.553 26.6785 339.777 26.4625C340.001 26.2465 340.177 25.9585 340.305 25.5985C340.441 25.2385 340.537 24.8425 340.593 24.4105C340.649 23.9705 340.677 23.5305 340.677 23.0905C340.677 22.6025 340.649 22.1145 340.593 21.6265C340.537 21.1385 340.441 20.6905 340.305 20.2825C340.169 19.8745 339.985 19.5465 339.753 19.2985C339.521 19.0505 339.229 18.9265 338.877 18.9265C338.533 18.9265 338.241 19.0345 338.001 19.2505C337.769 19.4665 337.581 19.7545 337.437 20.1145C337.293 20.4745 337.189 20.8745 337.125 21.3145C337.061 21.7545 337.029 22.1985 337.029 22.6465C337.029 22.9825 337.045 23.3385 337.077 23.7145C337.109 24.0905 337.165 24.4625 337.245 24.8305C337.333 25.1905 337.449 25.5185 337.593 25.8145C337.737 26.1105 337.917 26.3465 338.133 26.5225C338.349 26.6985 338.613 26.7865 338.925 26.7865ZM346.306 27.2545C345.698 27.2545 345.194 27.1265 344.794 26.8705C344.394 26.6065 344.082 26.2625 343.858 25.8385C343.634 25.4065 343.474 24.9345 343.378 24.4225C343.29 23.9105 343.246 23.4025 343.246 22.8985C343.246 22.3945 343.302 21.8825 343.414 21.3625C343.534 20.8425 343.718 20.3665 343.966 19.9345C344.214 19.4945 344.534 19.1425 344.926 18.8785C345.318 18.6065 345.794 18.4705 346.354 18.4705C346.938 18.4705 347.422 18.6025 347.806 18.8665C348.198 19.1305 348.506 19.4785 348.73 19.9105C348.962 20.3345 349.126 20.8025 349.222 21.3145C349.318 21.8265 349.366 22.3345 349.366 22.8385C349.366 23.3345 349.31 23.8425 349.198 24.3625C349.086 24.8825 348.91 25.3625 348.67 25.8025C348.43 26.2345 348.114 26.5865 347.722 26.8585C347.338 27.1225 346.866 27.2545 346.306 27.2545ZM346.378 26.7865C346.722 26.7865 347.006 26.6785 347.23 26.4625C347.454 26.2465 347.63 25.9585 347.758 25.5985C347.894 25.2385 347.99 24.8425 348.046 24.4105C348.102 23.9705 348.13 23.5305 348.13 23.0905C348.13 22.6025 348.102 22.1145 348.046 21.6265C347.99 21.1385 347.894 20.6905 347.758 20.2825C347.622 19.8745 347.438 19.5465 347.206 19.2985C346.974 19.0505 346.682 18.9265 346.33 18.9265C345.986 18.9265 345.694 19.0345 345.454 19.2505C345.222 19.4665 345.034 19.7545 344.89 20.1145C344.746 20.4745 344.642 20.8745 344.578 21.3145C344.514 21.7545 344.482 22.1985 344.482 22.6465C344.482 22.9825 344.498 23.3385 344.53 23.7145C344.562 24.0905 344.618 24.4625 344.698 24.8305C344.786 25.1905 344.902 25.5185 345.046 25.8145C345.19 26.1105 345.37 26.3465 345.586 26.5225C345.802 26.6985 346.066 26.7865 346.378 26.7865ZM353.84 26.6665C354.144 26.6505 354.352 26.5825 354.464 26.4625C354.576 26.3345 354.636 26.1625 354.644 25.9465C354.66 25.7225 354.668 25.4705 354.668 25.1905V20.0065C354.668 19.8465 354.672 19.6945 354.68 19.5505C354.688 19.3985 354.696 19.2625 354.704 19.1425C354.56 19.1505 354.416 19.1585 354.272 19.1665C354.128 19.1745 353.984 19.1825 353.84 19.1905V18.6625C354.264 18.6545 354.7 18.6505 355.148 18.6505C355.596 18.6425 356.052 18.6385 356.516 18.6385C357.14 18.6385 357.688 18.7265 358.16 18.9025C358.64 19.0785 359.012 19.3385 359.276 19.6825C359.548 20.0265 359.684 20.4545 359.684 20.9665C359.684 21.2785 359.628 21.6065 359.516 21.9505C359.412 22.2865 359.228 22.6065 358.964 22.9105C358.708 23.2065 358.348 23.4465 357.884 23.6305C357.428 23.8145 356.848 23.9065 356.144 23.9065C356.112 23.9065 356.052 23.9065 355.964 23.9065C355.876 23.9065 355.792 23.9025 355.712 23.8945V25.6345C355.712 25.8505 355.708 26.0385 355.7 26.1985C355.7 26.3505 355.692 26.4785 355.676 26.5825C355.804 26.5745 355.928 26.5665 356.048 26.5585C356.168 26.5505 356.288 26.5465 356.408 26.5465C356.536 26.5385 356.66 26.5305 356.78 26.5225V27.0625H353.84V26.6665ZM355.712 23.4025C355.864 23.4185 355.992 23.4305 356.096 23.4385C356.208 23.4385 356.34 23.4385 356.492 23.4385C356.852 23.4385 357.184 23.3505 357.488 23.1745C357.8 22.9905 358.048 22.7305 358.232 22.3945C358.424 22.0585 358.52 21.6585 358.52 21.1945C358.52 20.8585 358.468 20.5625 358.364 20.3065C358.26 20.0425 358.116 19.8225 357.932 19.6465C357.748 19.4705 357.532 19.3385 357.284 19.2505C357.036 19.1545 356.772 19.1065 356.492 19.1065C356.212 19.1065 356.016 19.1665 355.904 19.2865C355.8 19.4065 355.74 19.5745 355.724 19.7905C355.716 19.9985 355.712 20.2465 355.712 20.5345V23.4025ZM353.744 23.4025H355.544V23.9065H353.744V23.4025ZM353.744 24.6985H358.064V25.1905L353.744 25.2025V24.6985Z" fill="#3B434B"/>
<path d="M14.916 52.0625V51.6005C15.196 51.6005 15.4107 51.5258 15.56 51.3765C15.7093 51.2272 15.8307 51.0218 15.924 50.7605C16.0267 50.4992 16.1433 50.1958 16.274 49.8505L19.158 41.9965H19.494L22.616 49.9625C22.6907 50.1585 22.7747 50.4105 22.868 50.7185C22.9613 51.0265 22.9987 51.2878 22.98 51.5025C23.1387 51.4932 23.2973 51.4838 23.456 51.4745C23.6147 51.4652 23.7733 51.4558 23.932 51.4465V52.0625H20.726V51.6005C21.0807 51.5912 21.314 51.5118 21.426 51.3625C21.538 51.2132 21.58 51.0358 21.552 50.8305C21.524 50.6252 21.4773 50.4385 21.412 50.2705L20.922 48.9545L17.282 49.0385L16.792 50.5365C16.7267 50.7605 16.666 50.9378 16.61 51.0685C16.5633 51.1992 16.5073 51.3438 16.442 51.5025C16.6287 51.4932 16.8107 51.4838 16.988 51.4745C17.1747 51.4652 17.3567 51.4558 17.534 51.4465V52.0625H14.916ZM17.492 48.4365H20.726L19.732 45.7625C19.6293 45.4732 19.522 45.1885 19.41 44.9085C19.3073 44.6192 19.2047 44.3298 19.102 44.0405H19.074C18.9807 44.3018 18.8827 44.5632 18.78 44.8245C18.6867 45.0858 18.5887 45.3518 18.486 45.6225L17.492 48.4365ZM24.0997 52.0625V51.6425C24.445 51.6332 24.669 51.5258 24.7717 51.3205C24.8837 51.1058 24.9397 50.8165 24.9397 50.4525V46.4065C24.9397 46.2385 24.9443 46.0892 24.9537 45.9585C24.963 45.8278 24.977 45.7065 24.9957 45.5945C24.8463 45.6038 24.697 45.6132 24.5477 45.6225C24.4077 45.6225 24.263 45.6272 24.1137 45.6365V45.0625C24.3657 45.0625 24.6877 45.0625 25.0797 45.0625C25.4717 45.0532 25.901 45.0485 26.3677 45.0485C26.8437 45.0485 27.315 45.0485 27.7817 45.0485C28.435 45.0485 28.967 45.1838 29.3777 45.4545C29.7977 45.7158 30.003 46.1172 29.9937 46.6585C29.9843 47.0318 29.8537 47.3818 29.6017 47.7085C29.359 48.0258 28.9717 48.2498 28.4397 48.3805C29.0743 48.4085 29.555 48.5812 29.8817 48.8985C30.2083 49.2065 30.3717 49.5985 30.3717 50.0745C30.3717 50.4945 30.2597 50.8538 30.0357 51.1525C29.8117 51.4512 29.5177 51.6798 29.1537 51.8385C28.7897 51.9878 28.3977 52.0625 27.9777 52.0625H24.0997ZM26.1157 51.4885C26.2183 51.4978 26.3537 51.5025 26.5217 51.5025C26.699 51.5025 26.8623 51.5025 27.0117 51.5025C27.1703 51.5025 27.2683 51.5025 27.3057 51.5025C27.8283 51.5025 28.2437 51.3952 28.5517 51.1805C28.869 50.9565 29.0277 50.6018 29.0277 50.1165C29.0277 49.6218 28.855 49.2718 28.5097 49.0665C28.1643 48.8518 27.763 48.7445 27.3057 48.7445C27.1097 48.7445 26.9043 48.7492 26.6897 48.7585C26.4843 48.7585 26.3023 48.7632 26.1437 48.7725V50.7045C26.1437 50.8818 26.139 51.0358 26.1297 51.1665C26.1297 51.2972 26.125 51.4045 26.1157 51.4885ZM26.1437 48.2405L27.1937 48.2265C27.5763 48.2172 27.8797 48.1378 28.1037 47.9885C28.3277 47.8298 28.4863 47.6385 28.5797 47.4145C28.673 47.1812 28.715 46.9525 28.7057 46.7285C28.7057 46.4018 28.6357 46.1545 28.4957 45.9865C28.3557 45.8185 28.1737 45.7065 27.9497 45.6505C27.735 45.5852 27.5017 45.5525 27.2497 45.5525C26.9137 45.5525 26.643 45.6132 26.4377 45.7345C26.2417 45.8558 26.1437 46.1172 26.1437 46.5185V48.2405ZM32.5205 52.0625V51.6425C32.8098 51.6425 33.0105 51.5725 33.1225 51.4325C33.2345 51.2832 33.2998 51.0825 33.3185 50.8305C33.3465 50.5692 33.3605 50.2705 33.3605 49.9345V46.5465C33.3605 46.3598 33.3605 46.2058 33.3605 46.0845C33.3698 45.9538 33.3885 45.8092 33.4165 45.6505H32.4225C32.0491 45.6505 31.7738 45.7578 31.5965 45.9725C31.4285 46.1872 31.3445 46.5885 31.3445 47.1765H30.8125L30.8685 45.0625H37.0565L37.1265 47.1765H36.5945C36.5851 46.5885 36.4965 46.1872 36.3285 45.9725C36.1698 45.7578 35.8711 45.6505 35.4325 45.6505H34.5645V50.5785C34.5645 50.7652 34.5598 50.9332 34.5505 51.0825C34.5505 51.2225 34.5365 51.3718 34.5085 51.5305L35.3905 51.4885V52.0625H32.5205ZM41.2441 52.2865C40.5908 52.2865 39.9981 52.1372 39.4661 51.8385C38.9341 51.5305 38.5094 51.1105 38.1921 50.5785C37.8841 50.0372 37.7301 49.4212 37.7301 48.7305C37.7301 47.9932 37.8841 47.3305 38.1921 46.7425C38.5001 46.1545 38.9201 45.6925 39.4521 45.3565C39.9841 45.0112 40.5814 44.8385 41.2441 44.8385C41.8974 44.8385 42.4901 44.9972 43.0221 45.3145C43.5541 45.6225 43.9788 46.0425 44.2961 46.5745C44.6134 47.1065 44.7721 47.7132 44.7721 48.3945C44.7721 49.1132 44.6134 49.7712 44.2961 50.3685C43.9881 50.9565 43.5681 51.4232 43.0361 51.7685C42.5041 52.1138 41.9068 52.2865 41.2441 52.2865ZM41.3561 51.7265C41.8508 51.7265 42.2428 51.5865 42.5321 51.3065C42.8214 51.0265 43.0268 50.6625 43.1481 50.2145C43.2788 49.7665 43.3441 49.2952 43.3441 48.8005C43.3441 48.3805 43.3021 47.9698 43.2181 47.5685C43.1434 47.1578 43.0221 46.7892 42.8541 46.4625C42.6861 46.1265 42.4668 45.8605 42.1961 45.6645C41.9348 45.4685 41.6174 45.3705 41.2441 45.3705C40.7588 45.3705 40.3621 45.5105 40.0541 45.7905C39.7461 46.0705 39.5174 46.4345 39.3681 46.8825C39.2281 47.3305 39.1581 47.8112 39.1581 48.3245C39.1581 48.9032 39.2374 49.4538 39.3961 49.9765C39.5548 50.4898 39.7974 50.9098 40.1241 51.2365C40.4508 51.5632 40.8614 51.7265 41.3561 51.7265ZM45.5555 55.6325V55.2125C45.8449 55.2125 46.0455 55.1378 46.1575 54.9885C46.2695 54.8485 46.3349 54.6478 46.3535 54.3865C46.3722 54.1345 46.3815 53.8405 46.3815 53.5045L46.4095 46.7425C46.4095 46.5932 46.4095 46.4438 46.4095 46.2945C46.4189 46.1452 46.4375 45.9912 46.4655 45.8325C46.2975 45.8418 46.1295 45.8512 45.9615 45.8605C45.8029 45.8698 45.6395 45.8792 45.4715 45.8885V45.3005C45.8822 45.3005 46.1902 45.2818 46.3955 45.2445C46.6102 45.2072 46.7642 45.1605 46.8575 45.1045C46.9602 45.0485 47.0442 44.9878 47.1095 44.9225H47.5295C47.5389 45.0158 47.5482 45.1278 47.5575 45.2585C47.5669 45.3798 47.5762 45.5198 47.5855 45.6785C47.8655 45.4265 48.1969 45.2258 48.5795 45.0765C48.9715 44.9178 49.3635 44.8385 49.7555 44.8385C50.2969 44.8385 50.8009 44.9785 51.2675 45.2585C51.7342 45.5385 52.1122 45.9398 52.4015 46.4625C52.6909 46.9758 52.8355 47.5918 52.8355 48.3105C52.8355 49.1038 52.6675 49.7992 52.3315 50.3965C52.0049 50.9938 51.5709 51.4605 51.0295 51.7965C50.4882 52.1232 49.9002 52.2865 49.2655 52.2865C48.9389 52.2865 48.6355 52.2445 48.3555 52.1605C48.0849 52.0858 47.8282 51.9738 47.5855 51.8245V54.1485C47.5855 54.3352 47.5809 54.4985 47.5715 54.6385C47.5715 54.7878 47.5575 54.9418 47.5295 55.1005C47.6789 55.0912 47.8235 55.0818 47.9635 55.0725C48.1129 55.0725 48.2622 55.0678 48.4115 55.0585V55.6325H45.5555ZM49.2375 51.7265C49.6855 51.7265 50.0682 51.5912 50.3855 51.3205C50.7122 51.0405 50.9595 50.6625 51.1275 50.1865C51.3049 49.7012 51.3935 49.1505 51.3935 48.5345C51.3935 48.0305 51.3189 47.5498 51.1695 47.0925C51.0295 46.6258 50.8009 46.2478 50.4835 45.9585C50.1755 45.6692 49.7649 45.5245 49.2515 45.5245C48.9342 45.5245 48.6262 45.6038 48.3275 45.7625C48.0382 45.9118 47.7955 46.0938 47.5995 46.3085C47.5995 46.3458 47.5995 46.4018 47.5995 46.4765C47.6089 46.5418 47.6135 46.6632 47.6135 46.8405C47.6135 47.0085 47.6135 47.2652 47.6135 47.6105C47.6135 47.9465 47.6089 48.4038 47.5995 48.9825C47.5995 49.5612 47.5995 50.2938 47.5995 51.1805C47.8329 51.3578 48.0849 51.4932 48.3555 51.5865C48.6355 51.6798 48.9295 51.7265 49.2375 51.7265ZM57.1711 52.2865C56.5457 52.2865 55.9671 52.1465 55.4351 51.8665C54.9124 51.5772 54.4924 51.1665 54.1751 50.6345C53.8671 50.0932 53.7131 49.4445 53.7131 48.6885C53.7131 48.2032 53.8017 47.7318 53.9791 47.2745C54.1564 46.8172 54.4037 46.4065 54.7211 46.0425C55.0477 45.6692 55.4351 45.3752 55.8831 45.1605C56.3311 44.9458 56.8257 44.8385 57.3671 44.8385C57.8897 44.8385 58.3424 44.9178 58.7251 45.0765C59.1171 45.2352 59.4204 45.4452 59.6351 45.7065C59.8497 45.9678 59.9571 46.2525 59.9571 46.5605C59.9571 46.7658 59.9011 46.9432 59.7891 47.0925C59.6771 47.2325 59.5137 47.3025 59.2991 47.3025C59.0657 47.3118 58.8977 47.2418 58.7951 47.0925C58.7017 46.9338 58.6551 46.7938 58.6551 46.6725C58.6551 46.5792 58.6691 46.4858 58.6971 46.3925C58.7251 46.2898 58.7811 46.1965 58.8651 46.1125C58.7904 45.8885 58.6597 45.7252 58.4731 45.6225C58.2864 45.5105 58.0904 45.4405 57.8851 45.4125C57.6891 45.3752 57.5257 45.3565 57.3951 45.3565C56.7604 45.3565 56.2237 45.6132 55.7851 46.1265C55.3557 46.6305 55.1411 47.3678 55.1411 48.3385C55.1411 48.9638 55.2391 49.5192 55.4351 50.0045C55.6404 50.4898 55.9251 50.8725 56.2891 51.1525C56.6531 51.4232 57.0731 51.5585 57.5491 51.5585C57.9877 51.5585 58.4077 51.4418 58.8091 51.2085C59.2104 50.9752 59.5231 50.6905 59.7471 50.3545L60.1111 50.6345C59.8684 51.0265 59.5744 51.3438 59.2291 51.5865C58.8931 51.8292 58.5431 52.0065 58.1791 52.1185C57.8244 52.2305 57.4884 52.2865 57.1711 52.2865ZM60.7862 52.0625V51.6425C61.0756 51.6425 61.2762 51.5725 61.3882 51.4325C61.5002 51.2832 61.5656 51.0825 61.5842 50.8305C61.6122 50.5692 61.6262 50.2705 61.6262 49.9345L61.6402 46.5465C61.6402 46.3598 61.6402 46.1965 61.6402 46.0565C61.6496 45.9072 61.6682 45.7532 61.6962 45.5945C61.5469 45.6038 61.3976 45.6132 61.2482 45.6225C61.1082 45.6225 60.9636 45.6272 60.8142 45.6365V45.0625H63.6702V45.4825C63.3902 45.4825 63.1896 45.5572 63.0682 45.7065C62.9562 45.8465 62.8909 46.0472 62.8722 46.3085C62.8536 46.5605 62.8442 46.8545 62.8442 47.1905L62.8302 48.1145H63.3762L65.0842 46.3225C65.2429 46.1638 65.3876 46.0238 65.5182 45.9025C65.6489 45.7718 65.7796 45.6645 65.9102 45.5805L64.9582 45.6225V45.0625H67.5062V45.4825C67.1889 45.5105 66.8902 45.6132 66.6102 45.7905C66.3396 45.9585 66.0876 46.1498 65.8542 46.3645C65.6302 46.5792 65.4342 46.7752 65.2662 46.9525L64.1742 48.1005C64.3609 48.1845 64.5196 48.2918 64.6502 48.4225C64.7809 48.5532 64.9116 48.6978 65.0422 48.8565L66.0362 50.1305C66.0829 50.1865 66.1622 50.2938 66.2742 50.4525C66.3956 50.6112 66.5356 50.7838 66.6942 50.9705C66.8622 51.1572 67.0349 51.3158 67.2122 51.4465C67.3989 51.5772 67.5716 51.6425 67.7302 51.6425V52.0625H66.4562C66.1949 52.0625 65.9476 51.9272 65.7142 51.6565C65.4809 51.3858 65.2336 51.0825 64.9722 50.7465C64.7296 50.4105 64.5102 50.1072 64.3142 49.8365C64.1276 49.5565 63.9549 49.3138 63.7962 49.1085C63.6469 48.9032 63.5116 48.7445 63.3902 48.6325L62.8302 48.6605L62.8162 50.5785C62.8162 50.7652 62.8116 50.9332 62.8022 51.0825C62.8022 51.2225 62.7882 51.3718 62.7602 51.5305C62.9096 51.5212 63.0542 51.5165 63.1942 51.5165C63.3436 51.5072 63.4929 51.4978 63.6422 51.4885V52.0625H60.7862ZM71.0498 45.4825C70.7604 45.4825 70.5598 45.5572 70.4478 45.7065C70.3358 45.8465 70.2704 46.0472 70.2518 46.3085C70.2331 46.5605 70.2191 46.8545 70.2098 47.1905L70.1958 50.5785C70.1958 50.7652 70.1911 50.9332 70.1818 51.0825C70.1818 51.2225 70.1678 51.3718 70.1398 51.5305C70.2891 51.5212 70.4338 51.5165 70.5738 51.5165C70.7231 51.5072 70.8724 51.4978 71.0218 51.4885V52.0625H68.1658V51.6425C68.4551 51.6425 68.6558 51.5725 68.7678 51.4325C68.8798 51.2832 68.9451 51.0825 68.9638 50.8305C68.9918 50.5692 69.0058 50.2705 69.0058 49.9345V46.5465C69.0058 46.3598 69.0058 46.1965 69.0058 46.0565C69.0151 45.9072 69.0338 45.7532 69.0618 45.5945C68.9124 45.6038 68.7631 45.6132 68.6138 45.6225C68.4738 45.6225 68.3291 45.6272 68.1798 45.6365V45.0625H71.0498V45.4825ZM73.7938 45.7345L74.2418 46.0705L69.9438 51.4605L69.4678 51.0685L73.7938 45.7345ZM75.7118 45.4825C75.4318 45.4825 75.2311 45.5572 75.1098 45.7065C74.9978 45.8465 74.9324 46.0472 74.9138 46.3085C74.8951 46.5605 74.8858 46.8545 74.8858 47.1905L74.8578 50.5785C74.8578 50.7652 74.8531 50.9332 74.8438 51.0825C74.8438 51.2225 74.8344 51.3718 74.8158 51.5305C74.9651 51.5212 75.1098 51.5165 75.2498 51.5165C75.3991 51.5072 75.5484 51.4978 75.6978 51.4885V52.0625H72.8278V51.6425C73.1171 51.6425 73.3178 51.5725 73.4298 51.4325C73.5418 51.2832 73.6071 51.0825 73.6258 50.8305C73.6538 50.5692 73.6678 50.2705 73.6678 49.9345L73.6818 46.5465C73.6818 46.3598 73.6818 46.1965 73.6818 46.0565C73.6911 45.9072 73.7098 45.7532 73.7378 45.5945C73.5884 45.6038 73.4391 45.6132 73.2898 45.6225C73.1498 45.6225 73.0051 45.6272 72.8558 45.6365V45.0625H75.7118V45.4825ZM79.5471 45.4825C79.2578 45.4825 79.0571 45.5572 78.9451 45.7065C78.8331 45.8465 78.7678 46.0472 78.7491 46.3085C78.7304 46.5605 78.7164 46.8545 78.7071 47.1905L78.6931 50.5785C78.6931 50.7652 78.6884 50.9332 78.6791 51.0825C78.6791 51.2225 78.6651 51.3718 78.6371 51.5305C78.7864 51.5212 78.9311 51.5165 79.0711 51.5165C79.2204 51.5072 79.3698 51.4978 79.5191 51.4885V52.0625H76.6631V51.6425C76.9524 51.6425 77.1531 51.5725 77.2651 51.4325C77.3771 51.2832 77.4424 51.0825 77.4611 50.8305C77.4891 50.5692 77.5031 50.2705 77.5031 49.9345V46.5465C77.5031 46.3598 77.5031 46.1965 77.5031 46.0565C77.5124 45.9072 77.5311 45.7532 77.5591 45.5945C77.4098 45.6038 77.2604 45.6132 77.1111 45.6225C76.9711 45.6225 76.8264 45.6272 76.6771 45.6365V45.0625H79.5471V45.4825ZM82.2911 45.7345L82.7391 46.0705L78.4411 51.4605L77.9651 51.0685L82.2911 45.7345ZM84.2091 45.4825C83.9291 45.4825 83.7284 45.5572 83.6071 45.7065C83.4951 45.8465 83.4298 46.0472 83.4111 46.3085C83.3924 46.5605 83.3831 46.8545 83.3831 47.1905L83.3551 50.5785C83.3551 50.7652 83.3504 50.9332 83.3411 51.0825C83.3411 51.2225 83.3318 51.3718 83.3131 51.5305C83.4624 51.5212 83.6071 51.5165 83.7471 51.5165C83.8964 51.5072 84.0458 51.4978 84.1951 51.4885V52.0625H81.3251V51.6425C81.6144 51.6425 81.8151 51.5725 81.9271 51.4325C82.0391 51.2832 82.1044 51.0825 82.1231 50.8305C82.1511 50.5692 82.1651 50.2705 82.1651 49.9345L82.1791 46.5465C82.1791 46.3598 82.1791 46.1965 82.1791 46.0565C82.1884 45.9072 82.2071 45.7532 82.2351 45.5945C82.0858 45.6038 81.9364 45.6132 81.7871 45.6225C81.6471 45.6225 81.5024 45.6272 81.3531 45.6365V45.0625H84.2091V45.4825ZM80.4431 43.9845C79.9018 43.9845 79.4398 43.8772 79.0571 43.6625C78.6744 43.4385 78.4831 43.1398 78.4831 42.7665C78.4831 42.5985 78.5298 42.4538 78.6231 42.3325C78.7164 42.2018 78.8518 42.1318 79.0291 42.1225C79.1878 42.1132 79.3091 42.1458 79.3931 42.2205C79.4771 42.2858 79.5331 42.3652 79.5611 42.4585C79.5984 42.5425 79.6171 42.6218 79.6171 42.6965C79.6171 42.7712 79.6078 42.8552 79.5891 42.9485C79.5704 43.0418 79.5378 43.1258 79.4911 43.2005C79.5378 43.2938 79.6591 43.3638 79.8551 43.4105C80.0604 43.4478 80.2564 43.4665 80.4431 43.4665C80.6298 43.4665 80.8211 43.4478 81.0171 43.4105C81.2131 43.3638 81.3391 43.2938 81.3951 43.2005C81.3484 43.1258 81.3158 43.0418 81.2971 42.9485C81.2784 42.8552 81.2691 42.7712 81.2691 42.6965C81.2691 42.6218 81.2831 42.5425 81.3111 42.4585C81.3484 42.3652 81.4091 42.2858 81.4931 42.2205C81.5771 42.1458 81.6984 42.1132 81.8571 42.1225C82.0251 42.1318 82.1558 42.2018 82.2491 42.3325C82.3518 42.4538 82.4031 42.5985 82.4031 42.7665C82.4031 43.1398 82.2118 43.4385 81.8291 43.6625C81.4464 43.8772 80.9844 43.9845 80.4431 43.9845ZM88.3902 52.0625V51.6425C88.6889 51.6518 88.8895 51.5725 88.9922 51.4045C89.0949 51.2272 89.1649 50.9938 89.2022 50.7045L89.7202 46.3645C89.7389 46.2338 89.7575 46.1032 89.7762 45.9725C89.7949 45.8418 89.8089 45.7158 89.8182 45.5945L88.9642 45.6365V45.0625H90.8262L92.6742 49.3885C92.7489 49.5658 92.8235 49.7432 92.8982 49.9205C92.9729 50.0978 93.0475 50.2752 93.1222 50.4525C93.1969 50.2845 93.2669 50.1212 93.3322 49.9625C93.3975 49.7945 93.4629 49.6265 93.5282 49.4585L95.3342 45.0625H96.9862V45.4825C96.7249 45.4825 96.5289 45.5572 96.3982 45.7065C96.2675 45.8558 96.2302 46.1172 96.2862 46.4905L96.9302 50.7465C96.9582 51.0172 96.9582 51.2738 96.9302 51.5165L97.8402 51.4885V52.0625H95.0122V51.6425C95.3015 51.6518 95.5115 51.5632 95.6422 51.3765C95.7822 51.1805 95.8195 50.8725 95.7542 50.4525L95.2082 46.8545L93.0662 52.0625H92.5062L90.8402 48.0025C90.7562 47.7878 90.6675 47.5732 90.5742 47.3585C90.4902 47.1438 90.4062 46.9292 90.3222 46.7145C90.2942 46.9292 90.2662 47.1438 90.2382 47.3585C90.2195 47.5732 90.1962 47.7878 90.1682 48.0025L89.8322 50.7045C89.8229 50.8258 89.7995 50.9658 89.7622 51.1245C89.7342 51.2738 89.7015 51.4045 89.6642 51.5165L90.5462 51.4885V52.0625H88.3902ZM102.87 52.0625C102.842 51.9038 102.823 51.7638 102.814 51.6425C102.805 51.5212 102.791 51.3952 102.772 51.2645C102.455 51.5818 102.109 51.8338 101.736 52.0205C101.372 52.1978 100.985 52.2865 100.574 52.2865C99.8648 52.2865 99.3375 52.1278 98.9921 51.8105C98.6468 51.4838 98.4741 51.0872 98.4741 50.6205C98.4741 50.1912 98.6048 49.8225 98.8661 49.5145C99.1368 49.1972 99.4821 48.9405 99.9021 48.7445C100.331 48.5392 100.793 48.3898 101.288 48.2965C101.792 48.1938 102.277 48.1472 102.744 48.1565V47.2885C102.744 46.9618 102.716 46.6538 102.66 46.3645C102.604 46.0752 102.483 45.8372 102.296 45.6505C102.109 45.4638 101.811 45.3658 101.4 45.3565C101.129 45.3472 100.849 45.3985 100.56 45.5105C100.28 45.6225 100.075 45.8138 99.9441 46.0845C100.019 46.1592 100.065 46.2478 100.084 46.3505C100.112 46.4438 100.126 46.5325 100.126 46.6165C100.126 46.7285 100.079 46.8592 99.9861 47.0085C99.8928 47.1485 99.7295 47.2138 99.4961 47.2045C99.3001 47.2045 99.1508 47.1392 99.0481 47.0085C98.9455 46.8685 98.8941 46.7052 98.8941 46.5185C98.8941 46.2012 99.0108 45.9165 99.2441 45.6645C99.4868 45.4125 99.8181 45.2118 100.238 45.0625C100.658 44.9132 101.134 44.8385 101.666 44.8385C102.45 44.8385 103.029 45.0485 103.402 45.4685C103.775 45.8792 103.957 46.5325 103.948 47.4285C103.948 47.7738 103.948 48.1238 103.948 48.4785C103.948 48.8238 103.943 49.1738 103.934 49.5285C103.934 49.8738 103.934 50.2238 103.934 50.5785C103.934 50.7278 103.929 50.8772 103.92 51.0265C103.911 51.1758 103.897 51.3438 103.878 51.5305C104.046 51.5212 104.209 51.5118 104.368 51.5025C104.536 51.4932 104.704 51.4838 104.872 51.4745V52.0625H102.87ZM102.744 48.6325C102.427 48.6418 102.091 48.6838 101.736 48.7585C101.391 48.8238 101.069 48.9265 100.77 49.0665C100.481 49.2065 100.243 49.3932 100.056 49.6265C99.8788 49.8505 99.7948 50.1258 99.8041 50.4525C99.8228 50.7978 99.9348 51.0592 100.14 51.2365C100.355 51.4045 100.607 51.4885 100.896 51.4885C101.279 51.4885 101.61 51.4185 101.89 51.2785C102.179 51.1292 102.464 50.9238 102.744 50.6625C102.735 50.5598 102.73 50.4478 102.73 50.3265C102.73 50.2052 102.73 50.0792 102.73 49.9485C102.73 49.9018 102.73 49.7525 102.73 49.5005C102.739 49.2485 102.744 48.9592 102.744 48.6325ZM108.969 52.2865C108.344 52.2865 107.765 52.1465 107.233 51.8665C106.71 51.5772 106.29 51.1665 105.973 50.6345C105.665 50.0932 105.511 49.4445 105.511 48.6885C105.511 48.2032 105.6 47.7318 105.777 47.2745C105.954 46.8172 106.202 46.4065 106.519 46.0425C106.846 45.6692 107.233 45.3752 107.681 45.1605C108.129 44.9458 108.624 44.8385 109.165 44.8385C109.688 44.8385 110.14 44.9178 110.523 45.0765C110.915 45.2352 111.218 45.4452 111.433 45.7065C111.648 45.9678 111.755 46.2525 111.755 46.5605C111.755 46.7658 111.699 46.9432 111.587 47.0925C111.475 47.2325 111.312 47.3025 111.097 47.3025C110.864 47.3118 110.696 47.2418 110.593 47.0925C110.5 46.9338 110.453 46.7938 110.453 46.6725C110.453 46.5792 110.467 46.4858 110.495 46.3925C110.523 46.2898 110.579 46.1965 110.663 46.1125C110.588 45.8885 110.458 45.7252 110.271 45.6225C110.084 45.5105 109.888 45.4405 109.683 45.4125C109.487 45.3752 109.324 45.3565 109.193 45.3565C108.558 45.3565 108.022 45.6132 107.583 46.1265C107.154 46.6305 106.939 47.3678 106.939 48.3385C106.939 48.9638 107.037 49.5192 107.233 50.0045C107.438 50.4898 107.723 50.8725 108.087 51.1525C108.451 51.4232 108.871 51.5585 109.347 51.5585C109.786 51.5585 110.206 51.4418 110.607 51.2085C111.008 50.9752 111.321 50.6905 111.545 50.3545L111.909 50.6345C111.666 51.0265 111.372 51.3438 111.027 51.5865C110.691 51.8292 110.341 52.0065 109.977 52.1185C109.622 52.2305 109.286 52.2865 108.969 52.2865ZM116.072 52.2865C115.446 52.2865 114.868 52.1465 114.336 51.8665C113.813 51.5772 113.393 51.1665 113.076 50.6345C112.768 50.0932 112.614 49.4445 112.614 48.6885C112.614 48.2032 112.702 47.7318 112.88 47.2745C113.057 46.8172 113.304 46.4065 113.622 46.0425C113.948 45.6692 114.336 45.3752 114.784 45.1605C115.232 44.9458 115.726 44.8385 116.268 44.8385C116.79 44.8385 117.243 44.9178 117.626 45.0765C118.018 45.2352 118.321 45.4452 118.536 45.7065C118.75 45.9678 118.858 46.2525 118.858 46.5605C118.858 46.7658 118.802 46.9432 118.69 47.0925C118.578 47.2325 118.414 47.3025 118.2 47.3025C117.966 47.3118 117.798 47.2418 117.696 47.0925C117.602 46.9338 117.556 46.7938 117.556 46.6725C117.556 46.5792 117.57 46.4858 117.598 46.3925C117.626 46.2898 117.682 46.1965 117.766 46.1125C117.691 45.8885 117.56 45.7252 117.374 45.6225C117.187 45.5105 116.991 45.4405 116.786 45.4125C116.59 45.3752 116.426 45.3565 116.296 45.3565C115.661 45.3565 115.124 45.6132 114.686 46.1265C114.256 46.6305 114.042 47.3678 114.042 48.3385C114.042 48.9638 114.14 49.5192 114.336 50.0045C114.541 50.4898 114.826 50.8725 115.19 51.1525C115.554 51.4232 115.974 51.5585 116.45 51.5585C116.888 51.5585 117.308 51.4418 117.71 51.2085C118.111 50.9752 118.424 50.6905 118.648 50.3545L119.012 50.6345C118.769 51.0265 118.475 51.3438 118.13 51.5865C117.794 51.8292 117.444 52.0065 117.08 52.1185C116.725 52.2305 116.389 52.2865 116.072 52.2865ZM124.056 52.0625C124.028 51.9038 124.009 51.7638 124 51.6425C123.99 51.5212 123.976 51.3952 123.958 51.2645C123.64 51.5818 123.295 51.8338 122.922 52.0205C122.558 52.1978 122.17 52.2865 121.76 52.2865C121.05 52.2865 120.523 52.1278 120.178 51.8105C119.832 51.4838 119.66 51.0872 119.66 50.6205C119.66 50.1912 119.79 49.8225 120.052 49.5145C120.322 49.1972 120.668 48.9405 121.088 48.7445C121.517 48.5392 121.979 48.3898 122.474 48.2965C122.978 48.1938 123.463 48.1472 123.93 48.1565V47.2885C123.93 46.9618 123.902 46.6538 123.846 46.3645C123.79 46.0752 123.668 45.8372 123.482 45.6505C123.295 45.4638 122.996 45.3658 122.586 45.3565C122.315 45.3472 122.035 45.3985 121.746 45.5105C121.466 45.6225 121.26 45.8138 121.13 46.0845C121.204 46.1592 121.251 46.2478 121.27 46.3505C121.298 46.4438 121.312 46.5325 121.312 46.6165C121.312 46.7285 121.265 46.8592 121.172 47.0085C121.078 47.1485 120.915 47.2138 120.682 47.2045C120.486 47.2045 120.336 47.1392 120.234 47.0085C120.131 46.8685 120.08 46.7052 120.08 46.5185C120.08 46.2012 120.196 45.9165 120.43 45.6645C120.672 45.4125 121.004 45.2118 121.424 45.0625C121.844 44.9132 122.32 44.8385 122.852 44.8385C123.636 44.8385 124.214 45.0485 124.588 45.4685C124.961 45.8792 125.143 46.5325 125.134 47.4285C125.134 47.7738 125.134 48.1238 125.134 48.4785C125.134 48.8238 125.129 49.1738 125.12 49.5285C125.12 49.8738 125.12 50.2238 125.12 50.5785C125.12 50.7278 125.115 50.8772 125.106 51.0265C125.096 51.1758 125.082 51.3438 125.064 51.5305C125.232 51.5212 125.395 51.5118 125.554 51.5025C125.722 51.4932 125.89 51.4838 126.058 51.4745V52.0625H124.056ZM123.93 48.6325C123.612 48.6418 123.276 48.6838 122.922 48.7585C122.576 48.8238 122.254 48.9265 121.956 49.0665C121.666 49.2065 121.428 49.3932 121.242 49.6265C121.064 49.8505 120.98 50.1258 120.99 50.4525C121.008 50.7978 121.12 51.0592 121.326 51.2365C121.54 51.4045 121.792 51.4885 122.082 51.4885C122.464 51.4885 122.796 51.4185 123.076 51.2785C123.365 51.1292 123.65 50.9238 123.93 50.6625C123.92 50.5598 123.916 50.4478 123.916 50.3265C123.916 50.2052 123.916 50.0792 123.916 49.9485C123.916 49.9018 123.916 49.7525 123.916 49.5005C123.925 49.2485 123.93 48.9592 123.93 48.6325ZM126.22 52.0625V51.6425C126.388 51.6425 126.552 51.5912 126.71 51.4885C126.878 51.3765 127.051 51.2225 127.228 51.0265C127.415 50.8212 127.611 50.5785 127.816 50.2985C128.003 50.0465 128.199 49.7852 128.404 49.5145C128.619 49.2345 128.829 48.9732 129.034 48.7305C129.249 48.4878 129.445 48.3012 129.622 48.1705L128.628 46.9525C128.47 46.7752 128.274 46.5792 128.04 46.3645C127.807 46.1498 127.55 45.9585 127.27 45.7905C127 45.6132 126.706 45.5105 126.388 45.4825V45.0625H128.936V45.6225L127.97 45.5805C128.101 45.6645 128.232 45.7718 128.362 45.9025C128.502 46.0238 128.647 46.1638 128.796 46.3225L130.308 48.1145H130.952V46.5465C130.952 46.3598 130.952 46.1965 130.952 46.0565C130.962 45.9072 130.98 45.7532 131.008 45.5945L130.126 45.6365V45.0625H132.982V45.4825C132.702 45.4825 132.502 45.5572 132.38 45.7065C132.268 45.8465 132.203 46.0472 132.184 46.3085C132.166 46.5605 132.156 46.8545 132.156 47.1905L132.142 48.1145H132.8L134.298 46.3225C134.457 46.1638 134.602 46.0238 134.732 45.9025C134.863 45.7718 134.994 45.6645 135.124 45.5805L134.172 45.6225V45.0625H136.72V45.4825C136.403 45.5105 136.104 45.6132 135.824 45.7905C135.544 45.9585 135.292 46.1498 135.068 46.3645C134.844 46.5792 134.648 46.7752 134.48 46.9525L133.486 48.1705C133.608 48.2638 133.734 48.3805 133.864 48.5205C134.004 48.6512 134.14 48.8005 134.27 48.9685C134.448 49.1738 134.62 49.3932 134.788 49.6265C134.966 49.8598 135.129 50.0838 135.278 50.2985C135.484 50.5785 135.675 50.8212 135.852 51.0265C136.039 51.2225 136.216 51.3765 136.384 51.4885C136.552 51.5912 136.716 51.6425 136.874 51.6425V52.0625H135.642C135.418 52.0625 135.19 51.9365 134.956 51.6845C134.723 51.4325 134.462 51.1152 134.172 50.7325C134.023 50.5272 133.86 50.3032 133.682 50.0605C133.514 49.8085 133.337 49.5612 133.15 49.3185C132.973 49.0665 132.796 48.8378 132.618 48.6325L132.142 48.6465L132.128 50.5785C132.128 50.7652 132.124 50.9332 132.114 51.0825C132.114 51.2225 132.1 51.3718 132.072 51.5305L132.954 51.4885V52.0625H130.098V51.6425C130.388 51.6425 130.588 51.5725 130.7 51.4325C130.812 51.2832 130.878 51.0825 130.896 50.8305C130.924 50.5692 130.938 50.2705 130.938 49.9345V48.6465L130.476 48.6325C130.299 48.8378 130.117 49.0665 129.93 49.3185C129.753 49.5612 129.58 49.8085 129.412 50.0605C129.244 50.3032 129.086 50.5272 128.936 50.7325C128.647 51.1152 128.381 51.4325 128.138 51.6845C127.905 51.9365 127.676 52.0625 127.452 52.0625H126.22ZM141.243 52.2165C140.907 52.2165 140.646 52.1512 140.459 52.0205C140.282 51.8805 140.193 51.6985 140.193 51.4745C140.193 51.2692 140.245 51.1012 140.347 50.9705C140.45 50.8398 140.604 50.7698 140.809 50.7605C141.033 50.7605 141.192 50.8165 141.285 50.9285C141.388 51.0405 141.439 51.1525 141.439 51.2645C141.439 51.2925 141.435 51.3298 141.425 51.3765C141.425 51.4138 141.421 51.4465 141.411 51.4745C141.467 51.4932 141.509 51.5025 141.537 51.5025C141.724 51.5025 141.92 51.3158 142.125 50.9425C142.331 50.5692 142.517 49.9532 142.685 49.0945C142.863 48.2265 142.984 47.0645 143.049 45.6085L141.733 45.6645V45.0625H147.767V45.4825C147.487 45.4825 147.287 45.5572 147.165 45.7065C147.053 45.8465 146.988 46.0472 146.969 46.3085C146.951 46.5605 146.941 46.8545 146.941 47.1905V50.5785C146.932 50.7652 146.923 50.9332 146.913 51.0825C146.904 51.2225 146.885 51.3718 146.857 51.5305L147.739 51.4885V52.0625H144.883V51.6425C145.173 51.6425 145.373 51.5725 145.485 51.4325C145.597 51.2832 145.663 51.0825 145.681 50.8305C145.709 50.5692 145.728 50.2705 145.737 49.9345V46.5465C145.737 46.3598 145.737 46.1965 145.737 46.0565C145.747 45.9072 145.765 45.7532 145.793 45.5945H144.561C144.244 45.5945 144.025 45.6972 143.903 45.9025C143.791 46.0985 143.735 46.3645 143.735 46.7005C143.698 47.3632 143.628 48.0212 143.525 48.6745C143.432 49.3278 143.292 49.9205 143.105 50.4525C142.919 50.9845 142.671 51.4138 142.363 51.7405C142.065 52.0578 141.691 52.2165 141.243 52.2165ZM151.601 45.4825C151.311 45.4825 151.111 45.5572 150.999 45.7065C150.887 45.8465 150.821 46.0472 150.803 46.3085C150.784 46.5605 150.77 46.8545 150.761 47.1905L150.747 50.5785C150.747 50.7652 150.742 50.9332 150.733 51.0825C150.733 51.2225 150.719 51.3718 150.691 51.5305C150.84 51.5212 150.985 51.5165 151.125 51.5165C151.274 51.5072 151.423 51.4978 151.573 51.4885V52.0625H148.717V51.6425C149.006 51.6425 149.207 51.5725 149.319 51.4325C149.431 51.2832 149.496 51.0825 149.515 50.8305C149.543 50.5692 149.557 50.2705 149.557 49.9345V46.5465C149.557 46.3598 149.557 46.1965 149.557 46.0565C149.566 45.9072 149.585 45.7532 149.613 45.5945C149.463 45.6038 149.314 45.6132 149.165 45.6225C149.025 45.6225 148.88 45.6272 148.731 45.6365V45.0625H151.601V45.4825ZM154.345 45.7345L154.793 46.0705L150.495 51.4605L150.019 51.0685L154.345 45.7345ZM156.263 45.4825C155.983 45.4825 155.782 45.5572 155.661 45.7065C155.549 45.8465 155.483 46.0472 155.465 46.3085C155.446 46.5605 155.437 46.8545 155.437 47.1905L155.409 50.5785C155.409 50.7652 155.404 50.9332 155.395 51.0825C155.395 51.2225 155.385 51.3718 155.367 51.5305C155.516 51.5212 155.661 51.5165 155.801 51.5165C155.95 51.5072 156.099 51.4978 156.249 51.4885V52.0625H153.379V51.6425C153.668 51.6425 153.869 51.5725 153.981 51.4325C154.093 51.2832 154.158 51.0825 154.177 50.8305C154.205 50.5692 154.219 50.2705 154.219 49.9345L154.233 46.5465C154.233 46.3598 154.233 46.1965 154.233 46.0565C154.242 45.9072 154.261 45.7532 154.289 45.5945C154.139 45.6038 153.99 45.6132 153.841 45.6225C153.701 45.6225 153.556 45.6272 153.407 45.6365V45.0625H156.263V45.4825ZM164.27 54.5545C164.27 54.0878 164.237 53.6632 164.172 53.2805C164.107 52.9072 163.99 52.6085 163.822 52.3845C163.654 52.1698 163.416 52.0625 163.108 52.0625H157.214V51.6425C157.503 51.6425 157.704 51.5725 157.816 51.4325C157.928 51.2832 157.993 51.0825 158.012 50.8305C158.031 50.5692 158.04 50.2705 158.04 49.9345L158.054 46.5465C158.054 46.3598 158.054 46.1965 158.054 46.0565C158.063 45.9072 158.082 45.7532 158.11 45.5945L157.228 45.6365V45.0625H160.098V45.4825C159.809 45.4825 159.603 45.5572 159.482 45.7065C159.37 45.8465 159.305 46.0472 159.286 46.3085C159.267 46.5605 159.258 46.8545 159.258 47.1905L159.244 50.5785C159.244 50.7652 159.239 50.9332 159.23 51.0825C159.23 51.2225 159.216 51.3718 159.188 51.5305L161.568 51.5025C161.857 51.5025 162.058 51.4418 162.17 51.3205C162.282 51.1992 162.347 51.0218 162.366 50.7885C162.394 50.5552 162.408 50.2705 162.408 49.9345L162.422 46.5465C162.422 46.3598 162.422 46.1965 162.422 46.0565C162.431 45.9072 162.45 45.7532 162.478 45.5945L161.596 45.6365V45.0625H164.452V45.4825C164.172 45.4825 163.971 45.5572 163.85 45.7065C163.738 45.8465 163.673 46.0472 163.654 46.3085C163.635 46.5605 163.621 46.8545 163.612 47.1905L163.598 50.5785C163.598 50.7652 163.593 50.9332 163.584 51.0825C163.584 51.2225 163.575 51.3718 163.556 51.5305L164.802 51.4745V54.5545H164.27ZM169.776 52.0625C169.748 51.9038 169.729 51.7638 169.72 51.6425C169.711 51.5212 169.697 51.3952 169.678 51.2645C169.361 51.5818 169.015 51.8338 168.642 52.0205C168.278 52.1978 167.891 52.2865 167.48 52.2865C166.771 52.2865 166.243 52.1278 165.898 51.8105C165.553 51.4838 165.38 51.0872 165.38 50.6205C165.38 50.1912 165.511 49.8225 165.772 49.5145C166.043 49.1972 166.388 48.9405 166.808 48.7445C167.237 48.5392 167.699 48.3898 168.194 48.2965C168.698 48.1938 169.183 48.1472 169.65 48.1565V47.2885C169.65 46.9618 169.622 46.6538 169.566 46.3645C169.51 46.0752 169.389 45.8372 169.202 45.6505C169.015 45.4638 168.717 45.3658 168.306 45.3565C168.035 45.3472 167.755 45.3985 167.466 45.5105C167.186 45.6225 166.981 45.8138 166.85 46.0845C166.925 46.1592 166.971 46.2478 166.99 46.3505C167.018 46.4438 167.032 46.5325 167.032 46.6165C167.032 46.7285 166.985 46.8592 166.892 47.0085C166.799 47.1485 166.635 47.2138 166.402 47.2045C166.206 47.2045 166.057 47.1392 165.954 47.0085C165.851 46.8685 165.8 46.7052 165.8 46.5185C165.8 46.2012 165.917 45.9165 166.15 45.6645C166.393 45.4125 166.724 45.2118 167.144 45.0625C167.564 44.9132 168.04 44.8385 168.572 44.8385C169.356 44.8385 169.935 45.0485 170.308 45.4685C170.681 45.8792 170.863 46.5325 170.854 47.4285C170.854 47.7738 170.854 48.1238 170.854 48.4785C170.854 48.8238 170.849 49.1738 170.84 49.5285C170.84 49.8738 170.84 50.2238 170.84 50.5785C170.84 50.7278 170.835 50.8772 170.826 51.0265C170.817 51.1758 170.803 51.3438 170.784 51.5305C170.952 51.5212 171.115 51.5118 171.274 51.5025C171.442 51.4932 171.61 51.4838 171.778 51.4745V52.0625H169.776ZM169.65 48.6325C169.333 48.6418 168.997 48.6838 168.642 48.7585C168.297 48.8238 167.975 48.9265 167.676 49.0665C167.387 49.2065 167.149 49.3932 166.962 49.6265C166.785 49.8505 166.701 50.1258 166.71 50.4525C166.729 50.7978 166.841 51.0592 167.046 51.2365C167.261 51.4045 167.513 51.4885 167.802 51.4885C168.185 51.4885 168.516 51.4185 168.796 51.2785C169.085 51.1292 169.37 50.9238 169.65 50.6625C169.641 50.5598 169.636 50.4478 169.636 50.3265C169.636 50.2052 169.636 50.0792 169.636 49.9485C169.636 49.9018 169.636 49.7525 169.636 49.5005C169.645 49.2485 169.65 48.9592 169.65 48.6325Z" fill="#3B434B"/>
<path d="M321.4 53.2545C320.888 53.2545 320.452 53.1705 320.092 53.0025C319.732 52.8265 319.456 52.6105 319.264 52.3545C319.072 52.0985 318.976 51.8545 318.976 51.6225C318.976 51.4385 319.024 51.2865 319.12 51.1665C319.216 51.0385 319.352 50.9705 319.528 50.9625C319.672 50.9545 319.784 50.9825 319.864 51.0465C319.952 51.1025 320.012 51.1745 320.044 51.2625C320.076 51.3505 320.092 51.4305 320.092 51.5025C320.092 51.5825 320.08 51.6625 320.056 51.7425C320.032 51.8225 320 51.8985 319.96 51.9705C319.992 52.1625 320.092 52.3225 320.26 52.4505C320.428 52.5705 320.62 52.6585 320.836 52.7145C321.06 52.7705 321.264 52.7945 321.448 52.7865C321.84 52.7705 322.156 52.6665 322.396 52.4745C322.636 52.2745 322.812 52.0225 322.924 51.7185C323.044 51.4145 323.104 51.0945 323.104 50.7585C323.104 50.5345 323.084 50.2865 323.044 50.0145C323.012 49.7425 322.932 49.4865 322.804 49.2465C322.684 48.9985 322.5 48.7945 322.252 48.6345C322.004 48.4745 321.668 48.3945 321.244 48.3945C321.108 48.3945 320.94 48.4105 320.74 48.4425C320.548 48.4745 320.352 48.5225 320.152 48.5865C319.96 48.6505 319.796 48.7265 319.66 48.8145L319.324 48.5025L319.3 44.6625H322.408C322.864 44.6625 323.176 44.6025 323.344 44.4825C323.52 44.3545 323.608 44.1545 323.608 43.8825H323.932L323.86 45.4665L319.852 45.5505V48.1905C320.044 48.1105 320.292 48.0345 320.596 47.9625C320.908 47.8905 321.24 47.8545 321.592 47.8545C322.088 47.8545 322.508 47.9345 322.852 48.0945C323.204 48.2465 323.488 48.4545 323.704 48.7185C323.928 48.9745 324.092 49.2625 324.196 49.5825C324.3 49.8945 324.352 50.2145 324.352 50.5425C324.352 51.1345 324.212 51.6345 323.932 52.0425C323.66 52.4425 323.3 52.7465 322.852 52.9545C322.404 53.1545 321.92 53.2545 321.4 53.2545ZM326.355 53.2545C326.171 53.2545 326.007 53.1825 325.863 53.0385C325.727 52.8865 325.659 52.7025 325.659 52.4865C325.659 52.2705 325.731 52.0865 325.875 51.9345C326.019 51.7825 326.183 51.7065 326.367 51.7065C326.567 51.7065 326.731 51.7825 326.859 51.9345C326.995 52.0865 327.063 52.2705 327.063 52.4865C327.063 52.7025 326.991 52.8865 326.847 53.0385C326.703 53.1825 326.539 53.2545 326.355 53.2545ZM331.4 53.2545C330.792 53.2545 330.288 53.1265 329.888 52.8705C329.488 52.6065 329.176 52.2625 328.952 51.8385C328.728 51.4065 328.568 50.9345 328.472 50.4225C328.384 49.9105 328.34 49.4025 328.34 48.8985C328.34 48.3945 328.396 47.8825 328.508 47.3625C328.628 46.8425 328.812 46.3665 329.06 45.9345C329.308 45.4945 329.628 45.1425 330.02 44.8785C330.412 44.6065 330.888 44.4705 331.448 44.4705C332.032 44.4705 332.516 44.6025 332.9 44.8665C333.292 45.1305 333.6 45.4785 333.824 45.9105C334.056 46.3345 334.22 46.8025 334.316 47.3145C334.412 47.8265 334.46 48.3345 334.46 48.8385C334.46 49.3345 334.404 49.8425 334.292 50.3625C334.18 50.8825 334.004 51.3625 333.764 51.8025C333.524 52.2345 333.208 52.5865 332.816 52.8585C332.432 53.1225 331.96 53.2545 331.4 53.2545ZM331.472 52.7865C331.816 52.7865 332.1 52.6785 332.324 52.4625C332.548 52.2465 332.724 51.9585 332.852 51.5985C332.988 51.2385 333.084 50.8425 333.14 50.4105C333.196 49.9705 333.224 49.5305 333.224 49.0905C333.224 48.6025 333.196 48.1145 333.14 47.6265C333.084 47.1385 332.988 46.6905 332.852 46.2825C332.716 45.8745 332.532 45.5465 332.3 45.2985C332.068 45.0505 331.776 44.9265 331.424 44.9265C331.08 44.9265 330.788 45.0345 330.548 45.2505C330.316 45.4665 330.128 45.7545 329.984 46.1145C329.84 46.4745 329.736 46.8745 329.672 47.3145C329.608 47.7545 329.576 48.1985 329.576 48.6465C329.576 48.9825 329.592 49.3385 329.624 49.7145C329.656 50.0905 329.712 50.4625 329.792 50.8305C329.88 51.1905 329.996 51.5185 330.14 51.8145C330.284 52.1105 330.464 52.3465 330.68 52.5225C330.896 52.6985 331.16 52.7865 331.472 52.7865ZM338.853 53.2545C338.245 53.2545 337.741 53.1265 337.341 52.8705C336.941 52.6065 336.629 52.2625 336.405 51.8385C336.181 51.4065 336.021 50.9345 335.925 50.4225C335.837 49.9105 335.793 49.4025 335.793 48.8985C335.793 48.3945 335.849 47.8825 335.961 47.3625C336.081 46.8425 336.265 46.3665 336.513 45.9345C336.761 45.4945 337.081 45.1425 337.473 44.8785C337.865 44.6065 338.341 44.4705 338.901 44.4705C339.485 44.4705 339.969 44.6025 340.353 44.8665C340.745 45.1305 341.053 45.4785 341.277 45.9105C341.509 46.3345 341.673 46.8025 341.769 47.3145C341.865 47.8265 341.913 48.3345 341.913 48.8385C341.913 49.3345 341.857 49.8425 341.745 50.3625C341.633 50.8825 341.457 51.3625 341.217 51.8025C340.977 52.2345 340.661 52.5865 340.269 52.8585C339.885 53.1225 339.413 53.2545 338.853 53.2545ZM338.925 52.7865C339.269 52.7865 339.553 52.6785 339.777 52.4625C340.001 52.2465 340.177 51.9585 340.305 51.5985C340.441 51.2385 340.537 50.8425 340.593 50.4105C340.649 49.9705 340.677 49.5305 340.677 49.0905C340.677 48.6025 340.649 48.1145 340.593 47.6265C340.537 47.1385 340.441 46.6905 340.305 46.2825C340.169 45.8745 339.985 45.5465 339.753 45.2985C339.521 45.0505 339.229 44.9265 338.877 44.9265C338.533 44.9265 338.241 45.0345 338.001 45.2505C337.769 45.4665 337.581 45.7545 337.437 46.1145C337.293 46.4745 337.189 46.8745 337.125 47.3145C337.061 47.7545 337.029 48.1985 337.029 48.6465C337.029 48.9825 337.045 49.3385 337.077 49.7145C337.109 50.0905 337.165 50.4625 337.245 50.8305C337.333 51.1905 337.449 51.5185 337.593 51.8145C337.737 52.1105 337.917 52.3465 338.133 52.5225C338.349 52.6985 338.613 52.7865 338.925 52.7865ZM346.306 53.2545C345.698 53.2545 345.194 53.1265 344.794 52.8705C344.394 52.6065 344.082 52.2625 343.858 51.8385C343.634 51.4065 343.474 50.9345 343.378 50.4225C343.29 49.9105 343.246 49.4025 343.246 48.8985C343.246 48.3945 343.302 47.8825 343.414 47.3625C343.534 46.8425 343.718 46.3665 343.966 45.9345C344.214 45.4945 344.534 45.1425 344.926 44.8785C345.318 44.6065 345.794 44.4705 346.354 44.4705C346.938 44.4705 347.422 44.6025 347.806 44.8665C348.198 45.1305 348.506 45.4785 348.73 45.9105C348.962 46.3345 349.126 46.8025 349.222 47.3145C349.318 47.8265 349.366 48.3345 349.366 48.8385C349.366 49.3345 349.31 49.8425 349.198 50.3625C349.086 50.8825 348.91 51.3625 348.67 51.8025C348.43 52.2345 348.114 52.5865 347.722 52.8585C347.338 53.1225 346.866 53.2545 346.306 53.2545ZM346.378 52.7865C346.722 52.7865 347.006 52.6785 347.23 52.4625C347.454 52.2465 347.63 51.9585 347.758 51.5985C347.894 51.2385 347.99 50.8425 348.046 50.4105C348.102 49.9705 348.13 49.5305 348.13 49.0905C348.13 48.6025 348.102 48.1145 348.046 47.6265C347.99 47.1385 347.894 46.6905 347.758 46.2825C347.622 45.8745 347.438 45.5465 347.206 45.2985C346.974 45.0505 346.682 44.9265 346.33 44.9265C345.986 44.9265 345.694 45.0345 345.454 45.2505C345.222 45.4665 345.034 45.7545 344.89 46.1145C344.746 46.4745 344.642 46.8745 344.578 47.3145C344.514 47.7545 344.482 48.1985 344.482 48.6465C344.482 48.9825 344.498 49.3385 344.53 49.7145C344.562 50.0905 344.618 50.4625 344.698 50.8305C344.786 51.1905 344.902 51.5185 345.046 51.8145C345.19 52.1105 345.37 52.3465 345.586 52.5225C345.802 52.6985 346.066 52.7865 346.378 52.7865ZM353.84 52.6665C354.144 52.6505 354.352 52.5825 354.464 52.4625C354.576 52.3345 354.636 52.1625 354.644 51.9465C354.66 51.7225 354.668 51.4705 354.668 51.1905V46.0065C354.668 45.8465 354.672 45.6945 354.68 45.5505C354.688 45.3985 354.696 45.2625 354.704 45.1425C354.56 45.1505 354.416 45.1585 354.272 45.1665C354.128 45.1745 353.984 45.1825 353.84 45.1905V44.6625C354.264 44.6545 354.7 44.6505 355.148 44.6505C355.596 44.6425 356.052 44.6385 356.516 44.6385C357.14 44.6385 357.688 44.7265 358.16 44.9025C358.64 45.0785 359.012 45.3385 359.276 45.6825C359.548 46.0265 359.684 46.4545 359.684 46.9665C359.684 47.2785 359.628 47.6065 359.516 47.9505C359.412 48.2865 359.228 48.6065 358.964 48.9105C358.708 49.2065 358.348 49.4465 357.884 49.6305C357.428 49.8145 356.848 49.9065 356.144 49.9065C356.112 49.9065 356.052 49.9065 355.964 49.9065C355.876 49.9065 355.792 49.9025 355.712 49.8945V51.6345C355.712 51.8505 355.708 52.0385 355.7 52.1985C355.7 52.3505 355.692 52.4785 355.676 52.5825C355.804 52.5745 355.928 52.5665 356.048 52.5585C356.168 52.5505 356.288 52.5465 356.408 52.5465C356.536 52.5385 356.66 52.5305 356.78 52.5225V53.0625H353.84V52.6665ZM355.712 49.4025C355.864 49.4185 355.992 49.4305 356.096 49.4385C356.208 49.4385 356.34 49.4385 356.492 49.4385C356.852 49.4385 357.184 49.3505 357.488 49.1745C357.8 48.9905 358.048 48.7305 358.232 48.3945C358.424 48.0585 358.52 47.6585 358.52 47.1945C358.52 46.8585 358.468 46.5625 358.364 46.3065C358.26 46.0425 358.116 45.8225 357.932 45.6465C357.748 45.4705 357.532 45.3385 357.284 45.2505C357.036 45.1545 356.772 45.1065 356.492 45.1065C356.212 45.1065 356.016 45.1665 355.904 45.2865C355.8 45.4065 355.74 45.5745 355.724 45.7905C355.716 45.9985 355.712 46.2465 355.712 46.5345V49.4025ZM353.744 49.4025H355.544V49.9065H353.744V49.4025ZM353.744 50.6985H358.064V51.1905L353.744 51.2025V50.6985Z" fill="#3B434B"/>
</g>
<defs>
<clipPath id="clip0_238_2">
<rect width="375" height="8557" fill="white" transform="translate(0 -3083)"/>
</clipPath>
</defs>
</svg>
