<svg width="375" height="70" viewBox="0 0 375 70" fill="none" xmlns="http://www.w3.org/2000/svg">
<path d="M-6065 -3545C-6065 -3546.1 -6064.1 -3547 -6063 -3547H4265C4266.1 -3547 4267 -3546.1 4267 -3545V9686C4267 9687.1 4266.1 9688 4265 9688H-6063C-6064.1 9688 -6065 9687.1 -6065 9686V-3545Z" fill="#444444"/>
<path d="M-6063 -3547V-3546H4265V-3547V-3548H-6063V-3547ZM4267 -3545H4266V9686H4267H4268V-3545H4267ZM4265 9688V9687H-6063V9688V9689H4265V9688ZM-6065 9686H-6064V-3545H-6065H-6066V9686H-6065ZM-6063 9688V9687C-6063.55 9687 -6064 9686.55 -6064 9686H-6065H-6066C-6066 9687.66 -6064.66 9689 -6063 9689V9688ZM4267 9686H4266C4266 9686.55 4265.55 9687 4265 9687V9688V9689C4266.66 9689 4268 9687.66 4268 9686H4267ZM4265 -3547V-3546C4265.55 -3546 4266 -3545.55 4266 -3545H4267H4268C4268 -3546.66 4266.66 -3548 4265 -3548V-3547ZM-6063 -3547V-3548C-6064.66 -3548 -6066 -3546.66 -6066 -3545H-6065H-6064C-6064 -3545.55 -6063.55 -3546 -6063 -3546V-3547Z" fill="white" fill-opacity="0.1"/>
<g clip-path="url(#clip0_238_2)">
<rect width="375" height="6280" transform="translate(0 -3121)" fill="#F9F9F9"/>
<path d="M15 7.0625L360 7.06247" stroke="#3B434B" stroke-opacity="0.2" stroke-linecap="round"/>
<path d="M28.904 30.6625L28.794 35.3045H27.958C27.9873 34.4392 27.936 33.7205 27.804 33.1485C27.672 32.5765 27.408 32.1512 27.012 31.8725C26.6307 31.5792 26.0587 31.4398 25.296 31.4545L23.426 31.4765L22.7 43.4445C22.6853 43.8405 22.6633 44.1852 22.634 44.4785C22.6047 44.7572 22.5753 44.9918 22.546 45.1825C22.7513 45.1678 22.9567 45.1605 23.162 45.1605C23.3673 45.1458 23.5653 45.1312 23.756 45.1165C23.9613 45.1018 24.1667 45.0945 24.372 45.0945L24.328 46.0625H19.246L19.29 45.3365C19.774 45.3072 20.1187 45.1752 20.324 44.9405C20.544 44.7058 20.6907 44.3905 20.764 43.9945C20.8373 43.5838 20.8887 43.1292 20.918 42.6305L21.6 31.4765L19.334 31.4985C18.41 31.4985 17.7427 31.8065 17.332 32.4225C16.9213 33.0385 16.6793 33.9992 16.606 35.3045H15.792L16.166 30.6625H28.904ZM33.4346 34.8205C33.9626 34.8205 34.4613 34.9012 34.9306 35.0625C35.4 35.2238 35.7813 35.4878 36.0746 35.8545C36.368 36.2212 36.5146 36.7198 36.5146 37.3505C36.5146 37.9518 36.3093 38.4725 35.8986 38.9125C35.488 39.3525 34.9526 39.7192 34.2926 40.0125C33.6326 40.2912 32.9286 40.5185 32.1806 40.6945C31.4326 40.8705 30.714 40.9952 30.0246 41.0685C30.0246 41.9778 30.1126 42.7405 30.2886 43.3565C30.4793 43.9725 30.758 44.4345 31.1246 44.7425C31.4913 45.0505 31.9606 45.2045 32.5326 45.2045C32.958 45.2045 33.3833 45.1092 33.8086 44.9185C34.2486 44.7278 34.6666 44.4418 35.0626 44.0605C35.4586 43.6645 35.818 43.1585 36.1406 42.5425L36.8666 42.9605C36.456 43.7232 36.016 44.3538 35.5466 44.8525C35.0773 45.3512 34.564 45.7178 34.0066 45.9525C33.4493 46.1872 32.8333 46.3045 32.1586 46.3045C30.7653 46.3045 29.7386 45.8718 29.0786 45.0065C28.4186 44.1265 28.0886 42.9752 28.0886 41.5525C28.0886 40.7018 28.1986 39.8732 28.4186 39.0665C28.6386 38.2598 28.9686 37.5412 29.4086 36.9105C29.8486 36.2652 30.406 35.7592 31.0806 35.3925C31.7553 35.0112 32.54 34.8205 33.4346 34.8205ZM33.1266 35.5685C32.452 35.5685 31.8946 35.7958 31.4546 36.2505C31.0293 36.7052 30.6993 37.2918 30.4646 38.0105C30.2446 38.7292 30.1053 39.4845 30.0466 40.2765C30.824 40.1738 31.5646 39.9905 32.2686 39.7265C32.9726 39.4625 33.552 39.1252 34.0066 38.7145C34.4613 38.2892 34.6886 37.7978 34.6886 37.2405C34.6886 36.7712 34.5566 36.3752 34.2926 36.0525C34.0433 35.7298 33.6546 35.5685 33.1266 35.5685ZM38.397 46.2825C37.9863 46.2825 37.6417 46.1652 37.363 45.9305C37.099 45.6958 36.967 45.4172 36.967 45.0945C36.967 44.8158 37.0623 44.5738 37.253 44.3685C37.4437 44.1485 37.6857 44.0385 37.979 44.0385C38.2137 44.0385 38.4263 44.1192 38.617 44.2805C38.8223 44.4418 38.925 44.6472 38.925 44.8965C38.925 44.9698 38.9177 45.0358 38.903 45.0945C38.903 45.1385 38.8957 45.1825 38.881 45.2265C39.2623 45.2705 39.6363 45.1165 40.003 44.7645C40.3697 44.4125 40.7143 43.9212 41.037 43.2905C41.3743 42.6598 41.675 41.9412 41.939 41.1345C42.2177 40.3132 42.4597 39.4552 42.665 38.5605C42.885 37.6658 43.0537 36.7858 43.171 35.9205L41.147 35.9425L41.213 35.0625H47.637C47.6517 35.1652 47.659 35.2605 47.659 35.3485C47.659 35.4218 47.659 35.5172 47.659 35.6345C47.659 35.9718 47.6297 36.4412 47.571 37.0425C47.5123 37.6292 47.439 38.2745 47.351 38.9785C47.2777 39.6825 47.197 40.3865 47.109 41.0905C47.021 41.7945 46.9477 42.4252 46.889 42.9825C46.8303 43.5252 46.801 43.9358 46.801 44.2145C46.801 44.4785 46.8377 44.7058 46.911 44.8965C46.999 45.0872 47.1603 45.1825 47.395 45.1825C47.6443 45.1825 47.9157 45.0285 48.209 44.7205C48.517 44.3978 48.781 43.8478 49.001 43.0705L49.617 43.2025C49.573 43.4665 49.4777 43.7745 49.331 44.1265C49.199 44.4638 49.0157 44.8012 48.781 45.1385C48.5463 45.4758 48.2603 45.7545 47.923 45.9745C47.5857 46.1945 47.197 46.3045 46.757 46.3045C46.361 46.3045 46.0383 46.2238 45.789 46.0625C45.5397 45.8865 45.3563 45.6518 45.239 45.3585C45.1217 45.0652 45.063 44.7205 45.063 44.3245C45.063 43.9285 45.0997 43.4225 45.173 42.8065C45.261 42.1905 45.349 41.5012 45.437 40.7385C45.5397 39.9758 45.6277 39.1838 45.701 38.3625C45.789 37.5265 45.833 36.7052 45.833 35.8985L44.909 35.9205C44.7037 35.9205 44.5423 35.9865 44.425 36.1185C44.3223 36.2505 44.249 36.4192 44.205 36.6245C43.941 37.9445 43.633 39.1838 43.281 40.3425C42.9437 41.5012 42.5403 42.5278 42.071 43.4225C41.6017 44.3172 41.0663 45.0212 40.465 45.5345C39.8637 46.0332 39.1743 46.2825 38.397 46.2825ZM55.4917 34.8205C56.2837 34.8205 56.995 35.0112 57.6257 35.3925C58.2564 35.7592 58.755 36.3018 59.1217 37.0205C59.4884 37.7392 59.6717 38.6118 59.6717 39.6385C59.6717 40.8118 59.459 41.9118 59.0337 42.9385C58.6084 43.9505 57.9924 44.7645 57.1857 45.3805C56.3937 45.9965 55.4257 46.3045 54.2817 46.3045C53.3137 46.3045 52.5144 46.0845 51.8837 45.6445C51.2677 45.2045 50.8057 44.6105 50.4977 43.8625C50.2044 43.1145 50.0577 42.2858 50.0577 41.3765C50.0577 40.1885 50.2704 39.0958 50.6957 38.0985C51.1357 37.1012 51.759 36.3092 52.5657 35.7225C53.387 35.1212 54.3624 34.8205 55.4917 34.8205ZM55.1617 35.6345C54.5164 35.6198 53.959 35.8398 53.4897 36.2945C53.0204 36.7345 52.6537 37.3358 52.3897 38.0985C52.1404 38.8612 52.0084 39.7118 51.9937 40.6505C51.979 41.1492 52.0084 41.6772 52.0817 42.2345C52.155 42.7918 52.2797 43.3125 52.4557 43.7965C52.6464 44.2805 52.903 44.6765 53.2257 44.9845C53.563 45.2925 53.981 45.4538 54.4797 45.4685C55.0664 45.4832 55.565 45.3292 55.9757 45.0065C56.3864 44.6692 56.7164 44.2365 56.9657 43.7085C57.215 43.1805 57.3984 42.6158 57.5157 42.0145C57.6477 41.4132 57.721 40.8485 57.7357 40.3205C57.7504 39.8072 57.721 39.2792 57.6477 38.7365C57.589 38.1938 57.4644 37.6878 57.2737 37.2185C57.083 36.7492 56.819 36.3752 56.4817 36.0965C56.1444 35.8032 55.7044 35.6492 55.1617 35.6345Z" fill="#3B434B"/>
<path d="M357.75 46.8125L344.25 33.3125M357.75 46.8125C357.243 46.3055 356.308 45.98 355.471 45.7783C354.353 45.509 353.194 45.4602 352.052 45.5892C351.165 45.6897 350.188 45.8892 349.795 46.2822M357.75 46.8125C357.243 46.3055 356.918 45.3703 356.716 44.5333C356.447 43.4158 356.398 42.2563 356.527 41.114C356.627 40.2275 356.827 39.251 357.22 38.8572" stroke="#3B434B" stroke-width="0.75"/>
<path d="M15 69.0625L360 69.0625" stroke="#3B434B" stroke-opacity="0.2" stroke-linecap="round"/>
<path d="M15 69.0625L360 69.0625" stroke="#3B434B" stroke-opacity="0.2" stroke-linecap="round"/>
</g>
<defs>
<clipPath id="clip0_238_2">
<rect width="375" height="6280" fill="white" transform="translate(0 -3121)"/>
</clipPath>
</defs>
</svg>
