<svg width="375" height="62" viewBox="0 0 375 62" fill="none" xmlns="http://www.w3.org/2000/svg">
<path d="M-6065 -3677C-6065 -3678.1 -6064.1 -3679 -6063 -3679H4265C4266.1 -3679 4267 -3678.1 4267 -3677V9554C4267 9555.1 4266.1 9556 4265 9556H-6063C-6064.1 9556 -6065 9555.1 -6065 9554V-3677Z" fill="#444444"/>
<path d="M-6063 -3679V-3678H4265V-3679V-3680H-6063V-3679ZM4267 -3677H4266V9554H4267H4268V-3677H4267ZM4265 9556V9555H-6063V9556V9557H4265V9556ZM-6065 9554H-6064V-3677H-6065H-6066V9554H-6065ZM-6063 9556V9555C-6063.55 9555 -6064 9554.55 -6064 9554H-6065H-6066C-6066 9555.66 -6064.66 9557 -6063 9557V9556ZM4267 9554H4266C4266 9554.55 4265.55 9555 4265 9555V9556V9557C4266.66 9557 4268 9555.66 4268 9554H4267ZM4265 -3679V-3678C4265.55 -3678 4266 -3677.55 4266 -3677H4267H4268C4268 -3678.66 4266.66 -3680 4265 -3680V-3679ZM-6063 -3679V-3680C-6064.66 -3680 -6066 -3678.66 -6066 -3677H-6065H-6064C-6064 -3677.55 -6063.55 -3678 -6063 -3678V-3679Z" fill="white" fill-opacity="0.1"/>
<g clip-path="url(#clip0_238_2)">
<rect width="375" height="6280" transform="translate(0 -3253)" fill="#F9F9F9"/>
<path d="M31.28 22.6625L31.236 23.3885C30.7667 23.4032 30.4147 23.5058 30.18 23.6965C29.96 23.8872 29.8133 24.1585 29.74 24.5105C29.6667 24.8478 29.6153 25.2805 29.586 25.8085L29.08 35.4445C29.0653 35.8405 29.0433 36.1852 29.014 36.4785C28.9847 36.7572 28.9553 36.9918 28.926 37.1825C29.19 37.1678 29.454 37.1532 29.718 37.1385C29.982 37.1238 30.246 37.1092 30.51 37.0945L30.466 38.0625H25.604L25.648 37.3365C26.2053 37.3072 26.594 37.1825 26.814 36.9625C27.034 36.7278 27.166 36.4125 27.21 36.0165C27.254 35.6058 27.2833 35.1438 27.298 34.6305L27.518 30.6265L19.62 30.7145L19.378 35.4445C19.3633 35.8405 19.3413 36.1852 19.312 36.4785C19.2827 36.7572 19.2533 36.9918 19.224 37.1825C19.488 37.1678 19.752 37.1532 20.016 37.1385C20.28 37.1238 20.544 37.1092 20.808 37.0945L20.764 38.0625H15.902L15.946 37.3365C16.5033 37.3072 16.8847 37.1825 17.09 36.9625C17.31 36.7278 17.442 36.4125 17.486 36.0165C17.53 35.6058 17.5667 35.1438 17.596 34.6305L18.102 25.1265C18.1313 24.8332 18.1533 24.5545 18.168 24.2905C18.1973 24.0118 18.2267 23.7625 18.256 23.5425C17.992 23.5572 17.728 23.5718 17.464 23.5865C17.2 23.6012 16.936 23.6158 16.672 23.6305L16.716 22.6625H21.578L21.534 23.3885C21.0647 23.4032 20.7127 23.5058 20.478 23.6965C20.258 23.8872 20.1113 24.1585 20.038 24.5105C19.9647 24.8625 19.9133 25.3025 19.884 25.8305L19.664 29.7465H27.562L27.804 25.1265C27.8187 24.8332 27.8407 24.5545 27.87 24.2905C27.8993 24.0118 27.9287 23.7625 27.958 23.5425C27.694 23.5572 27.43 23.5718 27.166 23.5865C26.902 23.6012 26.638 23.6158 26.374 23.6305L26.418 22.6625H31.28ZM37.6476 26.8205C38.4396 26.8205 39.151 27.0112 39.7816 27.3925C40.4123 27.7592 40.911 28.3018 41.2776 29.0205C41.6443 29.7392 41.8276 30.6118 41.8276 31.6385C41.8276 32.8118 41.615 33.9118 41.1896 34.9385C40.7643 35.9505 40.1483 36.7645 39.3416 37.3805C38.5496 37.9965 37.5816 38.3045 36.4376 38.3045C35.4696 38.3045 34.6703 38.0845 34.0396 37.6445C33.4236 37.2045 32.9616 36.6105 32.6536 35.8625C32.3603 35.1145 32.2136 34.2858 32.2136 33.3765C32.2136 32.1885 32.4263 31.0958 32.8516 30.0985C33.2916 29.1012 33.915 28.3092 34.7216 27.7225C35.543 27.1212 36.5183 26.8205 37.6476 26.8205ZM37.3176 27.6345C36.6723 27.6198 36.115 27.8398 35.6456 28.2945C35.1763 28.7345 34.8096 29.3358 34.5456 30.0985C34.2963 30.8612 34.1643 31.7118 34.1496 32.6505C34.135 33.1492 34.1643 33.6772 34.2376 34.2345C34.311 34.7918 34.4356 35.3125 34.6116 35.7965C34.8023 36.2805 35.059 36.6765 35.3816 36.9845C35.719 37.2925 36.137 37.4538 36.6356 37.4685C37.2223 37.4832 37.721 37.3292 38.1316 37.0065C38.5423 36.6692 38.8723 36.2365 39.1216 35.7085C39.371 35.1805 39.5543 34.6158 39.6716 34.0145C39.8036 33.4132 39.877 32.8485 39.8916 32.3205C39.9063 31.8072 39.877 31.2792 39.8036 30.7365C39.745 30.1938 39.6203 29.6878 39.4296 29.2185C39.239 28.7492 38.975 28.3752 38.6376 28.0965C38.3003 27.8032 37.8603 27.6492 37.3176 27.6345ZM46.8323 38.4365C46.0696 38.4365 45.3949 38.3338 44.8083 38.1285C44.2363 37.9232 43.7963 37.6225 43.4883 37.2265C43.1803 36.8158 43.0409 36.3172 43.0703 35.7305C43.1143 35.0998 43.3196 34.5645 43.6863 34.1245C44.0676 33.6698 44.5516 33.2518 45.1383 32.8705C45.7396 32.4745 46.3849 32.0638 47.0743 31.6385C47.6756 31.2572 48.1303 30.8832 48.4383 30.5165C48.7463 30.1498 48.9003 29.7098 48.9003 29.1965C48.9003 28.6685 48.7243 28.2872 48.3723 28.0525C48.0349 27.8178 47.6096 27.7005 47.0963 27.7005C46.7736 27.7005 46.4069 27.7812 45.9963 27.9425C45.5856 28.0892 45.1749 28.3165 44.7643 28.6245C44.3683 28.9325 44.0236 29.3212 43.7303 29.7905L43.0703 29.3505C43.7156 28.4558 44.4416 27.8105 45.2483 27.4145C46.0696 27.0038 46.8983 26.7985 47.7343 26.7985C48.4236 26.7985 49.0103 26.8938 49.4943 27.0845C49.9783 27.2605 50.3449 27.5245 50.5943 27.8765C50.8583 28.2138 50.9756 28.6318 50.9463 29.1305C50.9169 29.8638 50.6309 30.4872 50.0883 31.0005C49.5456 31.5138 48.7756 32.0712 47.7783 32.6725C46.9863 33.1565 46.3629 33.6332 45.9083 34.1025C45.4683 34.5718 45.2336 35.1072 45.2043 35.7085C45.1896 36.0898 45.2703 36.4125 45.4463 36.6765C45.6223 36.9405 45.8643 37.1385 46.1723 37.2705C46.4803 37.4025 46.8249 37.4685 47.2063 37.4685C48.5409 37.4685 49.6776 36.7572 50.6163 35.3345L51.1883 35.7085C50.8216 36.3098 50.4183 36.8158 49.9783 37.2265C49.5383 37.6225 49.0543 37.9232 48.5263 38.1285C48.0129 38.3338 47.4483 38.4365 46.8323 38.4365ZM55.8167 38.3045C55.23 38.3045 54.7607 38.1725 54.4087 37.9085C54.0567 37.6445 53.8 37.2925 53.6387 36.8525C53.492 36.4125 53.4187 35.9432 53.4187 35.4445C53.4187 34.6232 53.4774 33.7945 53.5947 32.9585C53.712 32.1225 53.8294 31.3525 53.9467 30.6485C54.064 29.9298 54.1227 29.3652 54.1227 28.9545C54.1227 28.6758 54.086 28.4338 54.0127 28.2285C53.954 28.0232 53.7927 27.9205 53.5287 27.9205C53.294 27.9205 53.03 28.0818 52.7367 28.4045C52.458 28.7272 52.2087 29.2772 51.9887 30.0545L51.3727 29.9225C51.4167 29.6585 51.5047 29.3578 51.6367 29.0205C51.7687 28.6685 51.9447 28.3238 52.1647 27.9865C52.3994 27.6492 52.678 27.3705 53.0007 27.1505C53.338 26.9305 53.7267 26.8205 54.1667 26.8205C54.7534 26.8205 55.1934 27.0038 55.4867 27.3705C55.7947 27.7372 55.9487 28.2652 55.9487 28.9545C55.9487 29.3652 55.912 29.8712 55.8387 30.4725C55.7654 31.0738 55.6774 31.7045 55.5747 32.3645C55.4867 33.0098 55.406 33.6405 55.3327 34.2565C55.2594 34.8725 55.2227 35.4152 55.2227 35.8845C55.2227 36.0458 55.2447 36.2365 55.2887 36.4565C55.3474 36.6765 55.45 36.8672 55.5967 37.0285C55.758 37.1898 55.978 37.2705 56.2567 37.2705C56.6674 37.2705 57.0707 37.0798 57.4667 36.6985C57.8627 36.3172 58.2367 35.8038 58.5887 35.1585C58.9407 34.5132 59.256 33.8018 59.5347 33.0245C59.8134 32.2325 60.026 31.4258 60.1727 30.6045C60.334 29.7685 60.4147 28.9765 60.4147 28.2285C60.4147 28.0085 60.4074 27.8105 60.3927 27.6345C60.3927 27.4438 60.3854 27.2532 60.3707 27.0625H62.2187C62.2334 27.1652 62.2407 27.2605 62.2407 27.3485C62.2407 27.4218 62.2407 27.5172 62.2407 27.6345C62.2407 27.8838 62.226 28.1845 62.1967 28.5365C62.1674 28.8738 62.1234 29.3285 62.0647 29.9005C62.006 30.4578 61.918 31.1985 61.8007 32.1225C61.698 32.9732 61.6174 33.6405 61.5587 34.1245C61.5147 34.6085 61.478 34.9752 61.4487 35.2245C61.4194 35.4592 61.3974 35.6425 61.3827 35.7745C61.3827 35.9065 61.3827 36.0532 61.3827 36.2145C61.3827 36.4785 61.4194 36.7058 61.4927 36.8965C61.5807 37.0872 61.742 37.1825 61.9767 37.1825C62.226 37.1825 62.4974 37.0285 62.7907 36.7205C63.0987 36.3978 63.3627 35.8478 63.5827 35.0705L64.1987 35.2025C64.1547 35.4665 64.0594 35.7745 63.9127 36.1265C63.7807 36.4638 63.5974 36.8012 63.3627 37.1385C63.128 37.4758 62.842 37.7545 62.5047 37.9745C62.1674 38.1945 61.7787 38.3045 61.3387 38.3045C60.752 38.3045 60.3194 38.1212 60.0407 37.7545C59.7767 37.3878 59.6447 36.9112 59.6447 36.3245C59.6447 35.8992 59.6814 35.4372 59.7547 34.9385C59.8427 34.4398 59.938 33.9192 60.0407 33.3765H59.9747C59.476 34.7112 58.9994 35.7378 58.5447 36.4565C58.09 37.1605 57.6427 37.6445 57.2027 37.9085C56.7627 38.1725 56.3007 38.3045 55.8167 38.3045Z" fill="#3B434B"/>
<path d="M357.75 38.8125L344.25 25.3125M357.75 38.8125C357.243 38.3055 356.308 37.98 355.471 37.7783C354.353 37.509 353.194 37.4602 352.052 37.5892C351.165 37.6897 350.188 37.8892 349.795 38.2822M357.75 38.8125C357.243 38.3055 356.918 37.3703 356.716 36.5333C356.447 35.4158 356.398 34.2563 356.527 33.114C356.627 32.2275 356.827 31.251 357.22 30.8572" stroke="#3B434B" stroke-width="0.75"/>
<path d="M15 61.0625L360 61.0625" stroke="#3B434B" stroke-opacity="0.2" stroke-linecap="round"/>
<path d="M15 61.0625L360 61.0625" stroke="#3B434B" stroke-opacity="0.2" stroke-linecap="round"/>
</g>
<defs>
<clipPath id="clip0_238_2">
<rect width="375" height="6280" fill="white" transform="translate(0 -3253)"/>
</clipPath>
</defs>
</svg>
