<svg width="375" height="62" viewBox="0 0 375 62" fill="none" xmlns="http://www.w3.org/2000/svg">
<path d="M-6065 -3101C-6065 -3102.1 -6064.1 -3103 -6063 -3103H4265C4266.1 -3103 4267 -3102.1 4267 -3101V10130C4267 10131.1 4266.1 10132 4265 10132H-6063C-6064.1 10132 -6065 10131.1 -6065 10130V-3101Z" fill="#444444"/>
<path d="M-6063 -3103V-3102H4265V-3103V-3104H-6063V-3103ZM4267 -3101H4266V10130H4267H4268V-3101H4267ZM4265 10132V10131H-6063V10132V10133H4265V10132ZM-6065 10130H-6064V-3101H-6065H-6066V10130H-6065ZM-6063 10132V10131C-6063.55 10131 -6064 10130.6 -6064 10130H-6065H-6066C-6066 10131.7 -6064.66 10133 -6063 10133V10132ZM4267 10130H4266C4266 10130.6 4265.55 10131 4265 10131V10132V10133C4266.66 10133 4268 10131.7 4268 10130H4267ZM4265 -3103V-3102C4265.55 -3102 4266 -3101.55 4266 -3101H4267H4268C4268 -3102.66 4266.66 -3104 4265 -3104V-3103ZM-6063 -3103V-3104C-6064.66 -3104 -6066 -3102.66 -6066 -3101H-6065H-6064C-6064 -3101.55 -6063.55 -3102 -6063 -3102V-3103Z" fill="white" fill-opacity="0.1"/>
<g clip-path="url(#clip0_238_2)">
<rect width="375" height="6280" transform="translate(0 -2677)" fill="#F9F9F9"/>
<path d="M22.502 22.2445L26.704 34.7625C26.8213 35.0705 26.9313 35.4665 27.034 35.9505C27.1513 36.4345 27.1953 36.8452 27.166 37.1825L28.596 37.0945L28.552 38.0625H23.778L23.8 37.3365C24.3573 37.3218 24.724 37.1972 24.9 36.9625C25.076 36.7278 25.1493 36.4492 25.12 36.1265C25.0907 35.8038 25.032 35.5105 24.944 35.2465L24.306 33.1785L18.674 33.3105L17.794 35.6645C17.662 36.0165 17.5447 36.2952 17.442 36.5005C17.354 36.7058 17.244 36.9332 17.112 37.1825L18.762 37.0945L18.718 38.0625H14.692L14.714 37.3365C15.0807 37.3218 15.396 37.2045 15.66 36.9845C15.924 36.7498 16.166 36.4272 16.386 36.0165C16.606 35.6058 16.826 35.1292 17.046 34.5865L22.018 22.2445H22.502ZM21.754 25.3025C21.5927 25.7132 21.4313 26.1238 21.27 26.5345C21.1087 26.9452 20.9473 27.3558 20.786 27.7665L19.026 32.3645H24.064L22.634 27.9645C22.4873 27.5245 22.3407 27.0845 22.194 26.6445C22.062 26.2045 21.9153 25.7572 21.754 25.3025ZM33.5869 38.2825C32.6776 38.2825 31.8636 38.0405 31.1449 37.5565C30.4262 37.0725 29.8762 36.3318 29.4949 35.3345C29.1282 34.3225 28.9962 33.0392 29.0989 31.4845C29.1869 30.1938 29.3922 28.9838 29.7149 27.8545C30.0522 26.7252 30.5362 25.7498 31.1669 24.9285C31.7976 24.0925 32.5969 23.4985 33.5649 23.1465C33.9902 22.9852 34.4156 22.8752 34.8409 22.8165C35.2809 22.7578 35.6989 22.7065 36.0949 22.6625C36.5056 22.6185 36.8576 22.5598 37.1509 22.4865C37.5469 22.3838 37.9136 22.2738 38.2509 22.1565C38.6029 22.0245 38.8742 21.7605 39.0649 21.3645L39.7029 21.5845C39.5562 22.0538 39.3582 22.4718 39.1089 22.8385C38.8596 23.1905 38.5662 23.4912 38.2289 23.7405C37.8916 23.9752 37.5029 24.1658 37.0629 24.3125C36.6962 24.4298 36.3149 24.5252 35.9189 24.5985C35.5376 24.6572 35.1562 24.7085 34.7749 24.7525C34.4082 24.7965 34.0709 24.8625 33.7629 24.9505C32.5162 25.3172 31.6069 25.9478 31.0349 26.8425C30.4776 27.7372 30.0962 28.8958 29.8909 30.3185H30.0449C30.4409 29.4532 30.9982 28.7638 31.7169 28.2505C32.4356 27.7372 33.3522 27.4805 34.4669 27.4805C35.2002 27.4805 35.8969 27.6785 36.5569 28.0745C37.2169 28.4558 37.7376 29.0278 38.1189 29.7905C38.5149 30.5385 38.6836 31.4625 38.6249 32.5625C38.5662 33.7065 38.2949 34.7112 37.8109 35.5765C37.3269 36.4272 36.7109 37.0945 35.9629 37.5785C35.2296 38.0478 34.4376 38.2825 33.5869 38.2825ZM33.4989 37.4465C34.1882 37.4465 34.7602 37.2412 35.2149 36.8305C35.6696 36.4052 36.0142 35.8332 36.2489 35.1145C36.4982 34.3812 36.6449 33.5598 36.6889 32.6505C36.7329 31.9172 36.6669 31.2205 36.4909 30.5605C36.3296 29.8858 36.0509 29.3358 35.6549 28.9105C35.2736 28.4852 34.7676 28.2725 34.1369 28.2725C33.4769 28.2725 32.9196 28.4705 32.4649 28.8665C32.0102 29.2625 31.6582 29.7832 31.4089 30.4285C31.1742 31.0592 31.0349 31.7412 30.9909 32.4745C30.9469 33.4572 31.0129 34.3225 31.1889 35.0705C31.3796 35.8185 31.6656 36.4052 32.0469 36.8305C32.4429 37.2412 32.9269 37.4465 33.4989 37.4465ZM45.3236 26.8205C46.1156 26.8205 46.8269 27.0112 47.4576 27.3925C48.0882 27.7592 48.5869 28.3018 48.9536 29.0205C49.3202 29.7392 49.5036 30.6118 49.5036 31.6385C49.5036 32.8118 49.2909 33.9118 48.8656 34.9385C48.4402 35.9505 47.8242 36.7645 47.0176 37.3805C46.2256 37.9965 45.2576 38.3045 44.1136 38.3045C43.1456 38.3045 42.3462 38.0845 41.7156 37.6445C41.0996 37.2045 40.6376 36.6105 40.3296 35.8625C40.0362 35.1145 39.8896 34.2858 39.8896 33.3765C39.8896 32.1885 40.1022 31.0958 40.5276 30.0985C40.9676 29.1012 41.5909 28.3092 42.3976 27.7225C43.2189 27.1212 44.1942 26.8205 45.3236 26.8205ZM44.9936 27.6345C44.3482 27.6198 43.7909 27.8398 43.3216 28.2945C42.8522 28.7345 42.4856 29.3358 42.2216 30.0985C41.9722 30.8612 41.8402 31.7118 41.8256 32.6505C41.8109 33.1492 41.8402 33.6772 41.9136 34.2345C41.9869 34.7918 42.1116 35.3125 42.2876 35.7965C42.4782 36.2805 42.7349 36.6765 43.0576 36.9845C43.3949 37.2925 43.8129 37.4538 44.3116 37.4685C44.8982 37.4832 45.3969 37.3292 45.8076 37.0065C46.2182 36.6692 46.5482 36.2365 46.7976 35.7085C47.0469 35.1805 47.2302 34.6158 47.3476 34.0145C47.4796 33.4132 47.5529 32.8485 47.5676 32.3205C47.5822 31.8072 47.5529 31.2792 47.4796 30.7365C47.4209 30.1938 47.2962 29.6878 47.1056 29.2185C46.9149 28.7492 46.6509 28.3752 46.3136 28.0965C45.9762 27.8032 45.5362 27.6492 44.9936 27.6345ZM59.8322 38.3045C59.4362 38.3045 59.1136 38.2238 58.8642 38.0625C58.6149 37.8865 58.4316 37.6518 58.3142 37.3585C58.1969 37.0652 58.1382 36.7205 58.1382 36.3245C58.1382 35.9872 58.1676 35.5545 58.2262 35.0265C58.2996 34.4838 58.3729 33.8972 58.4462 33.2665L54.2002 33.3105C54.1416 33.8678 54.0756 34.4325 54.0022 35.0045C53.9436 35.5618 53.8776 36.1192 53.8042 36.6765C53.7749 36.9552 53.7602 37.2045 53.7602 37.4245C53.7749 37.6445 53.7969 37.8572 53.8262 38.0625H51.9782C51.9636 37.9598 51.9562 37.8718 51.9562 37.7985C51.9562 37.7105 51.9562 37.6078 51.9562 37.4905C51.9709 37.2412 51.9929 36.9552 52.0222 36.6325C52.0516 36.2952 52.1029 35.8552 52.1762 35.3125C52.2642 34.7552 52.3669 34.0145 52.4842 33.0905C52.6016 32.2252 52.6896 31.5505 52.7482 31.0665C52.8216 30.5825 52.8729 30.2158 52.9022 29.9665C52.9462 29.7025 52.9756 29.5045 52.9902 29.3725C53.0049 29.2258 53.0122 29.0718 53.0122 28.9105C53.0269 28.6465 52.9902 28.4192 52.9022 28.2285C52.8142 28.0232 52.6456 27.9205 52.3962 27.9205C52.1616 27.9205 51.8902 28.0818 51.5822 28.4045C51.2742 28.7272 50.9956 29.2772 50.7462 30.0545L50.1302 29.9225C50.1889 29.6585 50.2916 29.3578 50.4382 29.0205C50.5849 28.6685 50.7756 28.3238 51.0102 27.9865C51.2596 27.6492 51.5529 27.3705 51.8902 27.1505C52.2276 26.9305 52.6162 26.8205 53.0562 26.8205C53.6136 26.8205 54.0096 26.9818 54.2442 27.3045C54.4789 27.6125 54.6109 28.0158 54.6402 28.5145C54.6696 29.0132 54.6476 29.5412 54.5742 30.0985C54.5302 30.4798 54.4862 30.8685 54.4422 31.2645C54.3982 31.6605 54.3542 32.0492 54.3102 32.4305H58.5562C58.6442 31.7265 58.7176 31.0958 58.7762 30.5385C58.8349 29.9812 58.8716 29.4312 58.8862 28.8885C58.9156 28.3458 58.9082 27.7372 58.8642 27.0625H60.7122C60.7269 27.1652 60.7342 27.2605 60.7342 27.3485C60.7342 27.4218 60.7342 27.5172 60.7342 27.6345C60.7342 27.9718 60.7049 28.4412 60.6462 29.0425C60.5876 29.6292 60.5142 30.2745 60.4262 30.9785C60.3529 31.6825 60.2722 32.3865 60.1842 33.0905C60.0962 33.7945 60.0229 34.4252 59.9642 34.9825C59.9056 35.5252 59.8762 35.9358 59.8762 36.2145C59.8762 36.4785 59.9129 36.7058 59.9862 36.8965C60.0742 37.0872 60.2356 37.1825 60.4702 37.1825C60.7196 37.1825 60.9909 37.0285 61.2842 36.7205C61.5922 36.3978 61.8562 35.8478 62.0762 35.0705L62.6922 35.2025C62.6482 35.4665 62.5529 35.7745 62.4062 36.1265C62.2742 36.4638 62.0909 36.8012 61.8562 37.1385C61.6216 37.4758 61.3356 37.7545 60.9982 37.9745C60.6609 38.1945 60.2722 38.3045 59.8322 38.3045ZM68.4722 26.8205C69.0002 26.8205 69.4989 26.9012 69.9682 27.0625C70.4375 27.2238 70.8189 27.4878 71.1122 27.8545C71.4055 28.2212 71.5522 28.7198 71.5522 29.3505C71.5522 29.9518 71.3469 30.4725 70.9362 30.9125C70.5255 31.3525 69.9902 31.7192 69.3302 32.0125C68.6702 32.2912 67.9662 32.5185 67.2182 32.6945C66.4702 32.8705 65.7515 32.9952 65.0622 33.0685C65.0622 33.9778 65.1502 34.7405 65.3262 35.3565C65.5169 35.9725 65.7955 36.4345 66.1622 36.7425C66.5289 37.0505 66.9982 37.2045 67.5702 37.2045C67.9955 37.2045 68.4209 37.1092 68.8462 36.9185C69.2862 36.7278 69.7042 36.4418 70.1002 36.0605C70.4962 35.6645 70.8555 35.1585 71.1782 34.5425L71.9042 34.9605C71.4935 35.7232 71.0535 36.3538 70.5842 36.8525C70.1149 37.3512 69.6015 37.7178 69.0442 37.9525C68.4869 38.1872 67.8709 38.3045 67.1962 38.3045C65.8029 38.3045 64.7762 37.8718 64.1162 37.0065C63.4562 36.1265 63.1262 34.9752 63.1262 33.5525C63.1262 32.7018 63.2362 31.8732 63.4562 31.0665C63.6762 30.2598 64.0062 29.5412 64.4462 28.9105C64.8862 28.2652 65.4435 27.7592 66.1182 27.3925C66.7929 27.0112 67.5775 26.8205 68.4722 26.8205ZM68.1642 27.5685C67.4895 27.5685 66.9322 27.7958 66.4922 28.2505C66.0669 28.7052 65.7369 29.2918 65.5022 30.0105C65.2822 30.7292 65.1429 31.4845 65.0842 32.2765C65.8615 32.1738 66.6022 31.9905 67.3062 31.7265C68.0102 31.4625 68.5895 31.1252 69.0442 30.7145C69.4989 30.2892 69.7262 29.7978 69.7262 29.2405C69.7262 28.7712 69.5942 28.3752 69.3302 28.0525C69.0809 27.7298 68.6922 27.5685 68.1642 27.5685ZM73.4346 38.2825C73.0239 38.2825 72.6792 38.1652 72.4006 37.9305C72.1366 37.6958 72.0046 37.4172 72.0046 37.0945C72.0046 36.8158 72.0999 36.5738 72.2906 36.3685C72.4812 36.1485 72.7232 36.0385 73.0166 36.0385C73.2512 36.0385 73.4639 36.1192 73.6546 36.2805C73.8599 36.4418 73.9626 36.6472 73.9626 36.8965C73.9626 36.9698 73.9552 37.0358 73.9406 37.0945C73.9406 37.1385 73.9332 37.1825 73.9186 37.2265C74.1679 37.2412 74.4319 37.0798 74.7106 36.7425C74.9892 36.4052 75.2826 35.8698 75.5906 35.1365C75.9132 34.4032 76.2579 33.4425 76.6246 32.2545C77.0059 31.0518 77.4092 29.6072 77.8346 27.9205L75.8546 27.9425L75.9426 27.0625H80.2986C80.3279 27.1798 80.3426 27.3045 80.3426 27.4365C80.3572 27.5538 80.3646 27.6785 80.3646 27.8105C80.3646 29.1745 80.3426 30.5238 80.2986 31.8585C80.2692 33.1785 80.2839 34.5132 80.3426 35.8625C80.3719 36.3465 80.4012 36.6838 80.4306 36.8745C80.4599 37.0505 80.5479 37.1385 80.6946 37.1385C80.8706 37.1385 81.1419 36.8158 81.5086 36.1705C81.8899 35.5105 82.3812 34.4472 82.9826 32.9805C83.5839 31.4992 84.3026 29.5265 85.1386 27.0625H87.1626C87.1772 27.1652 87.1846 27.2605 87.1846 27.3485C87.1846 27.4218 87.1846 27.5172 87.1846 27.6345C87.1846 27.9718 87.1479 28.4412 87.0746 29.0425C87.0159 29.6292 86.9352 30.2745 86.8326 30.9785C86.7446 31.6825 86.6492 32.3865 86.5466 33.0905C86.4586 33.7945 86.3779 34.4252 86.3046 34.9825C86.2459 35.5252 86.2166 35.9358 86.2166 36.2145C86.2166 36.4785 86.2532 36.7058 86.3266 36.8965C86.3999 37.0872 86.5466 37.1825 86.7666 37.1825C87.0159 37.1825 87.2946 37.0285 87.6026 36.7205C87.9252 36.3978 88.1966 35.8478 88.4166 35.0705L89.0326 35.2025C88.9886 35.4665 88.8932 35.7745 88.7466 36.1265C88.6146 36.4638 88.4239 36.8012 88.1746 37.1385C87.9399 37.4758 87.6466 37.7545 87.2946 37.9745C86.9572 38.1945 86.5612 38.3045 86.1066 38.3045C85.7252 38.3045 85.4099 38.2238 85.1606 38.0625C84.9259 37.8865 84.7499 37.6518 84.6326 37.3585C84.5299 37.0652 84.4786 36.7205 84.4786 36.3245C84.4786 35.9432 84.5226 35.4445 84.6106 34.8285C84.6986 34.2125 84.8086 33.5452 84.9406 32.8265C85.0726 32.0932 85.2046 31.3672 85.3366 30.6485C85.4686 29.9152 85.5712 29.2478 85.6446 28.6465H85.5126C84.8526 30.4945 84.2732 32.0418 83.7746 33.2885C83.2906 34.5352 82.8506 35.5252 82.4546 36.2585C82.0586 36.9918 81.6699 37.5198 81.2886 37.8425C80.9072 38.1505 80.4892 38.3045 80.0346 38.3045C79.5066 38.3045 79.1326 38.1065 78.9126 37.7105C78.7072 37.3145 78.6046 36.6325 78.6046 35.6645C78.6046 35.1365 78.6046 34.5425 78.6046 33.8825C78.6192 33.2225 78.6339 32.5552 78.6486 31.8805C78.6632 31.1912 78.6852 30.5605 78.7146 29.9885C78.7439 29.4165 78.7879 28.9692 78.8466 28.6465H78.6706C78.1866 30.3185 77.7539 31.7632 77.3726 32.9805C77.0059 34.1978 76.6392 35.1952 76.2726 35.9725C75.9059 36.7498 75.4952 37.3292 75.0406 37.7105C74.6006 38.0918 74.0652 38.2825 73.4346 38.2825ZM94.8241 26.8205C95.3521 26.8205 95.8507 26.9012 96.3201 27.0625C96.7894 27.2238 97.1707 27.4878 97.4641 27.8545C97.7574 28.2212 97.9041 28.7198 97.9041 29.3505C97.9041 29.9518 97.6987 30.4725 97.2881 30.9125C96.8774 31.3525 96.3421 31.7192 95.6821 32.0125C95.0221 32.2912 94.3181 32.5185 93.5701 32.6945C92.8221 32.8705 92.1034 32.9952 91.4141 33.0685C91.4141 33.9778 91.5021 34.7405 91.6781 35.3565C91.8687 35.9725 92.1474 36.4345 92.5141 36.7425C92.8807 37.0505 93.3501 37.2045 93.9221 37.2045C94.3474 37.2045 94.7727 37.1092 95.1981 36.9185C95.6381 36.7278 96.0561 36.4418 96.4521 36.0605C96.8481 35.6645 97.2074 35.1585 97.5301 34.5425L98.2561 34.9605C97.8454 35.7232 97.4054 36.3538 96.9361 36.8525C96.4667 37.3512 95.9534 37.7178 95.3961 37.9525C94.8387 38.1872 94.2227 38.3045 93.5481 38.3045C92.1547 38.3045 91.1281 37.8718 90.4681 37.0065C89.8081 36.1265 89.4781 34.9752 89.4781 33.5525C89.4781 32.7018 89.5881 31.8732 89.8081 31.0665C90.0281 30.2598 90.3581 29.5412 90.7981 28.9105C91.2381 28.2652 91.7954 27.7592 92.4701 27.3925C93.1447 27.0112 93.9294 26.8205 94.8241 26.8205ZM94.5161 27.5685C93.8414 27.5685 93.2841 27.7958 92.8441 28.2505C92.4187 28.7052 92.0887 29.2918 91.8541 30.0105C91.6341 30.7292 91.4947 31.4845 91.4361 32.2765C92.2134 32.1738 92.9541 31.9905 93.6581 31.7265C94.3621 31.4625 94.9414 31.1252 95.3961 30.7145C95.8507 30.2892 96.0781 29.7978 96.0781 29.2405C96.0781 28.7712 95.9461 28.3752 95.6821 28.0525C95.4327 27.7298 95.0441 27.5685 94.5161 27.5685ZM108.432 38.3045C108.036 38.3045 107.714 38.2238 107.464 38.0625C107.215 37.8865 107.032 37.6518 106.914 37.3585C106.797 37.0652 106.738 36.7205 106.738 36.3245C106.738 35.9872 106.768 35.5545 106.826 35.0265C106.9 34.4838 106.973 33.8972 107.046 33.2665L102.8 33.3105C102.742 33.8678 102.676 34.4325 102.602 35.0045C102.544 35.5618 102.478 36.1192 102.404 36.6765C102.375 36.9552 102.36 37.2045 102.36 37.4245C102.375 37.6445 102.397 37.8572 102.426 38.0625H100.578C100.564 37.9598 100.556 37.8718 100.556 37.7985C100.556 37.7105 100.556 37.6078 100.556 37.4905C100.571 37.2412 100.593 36.9552 100.622 36.6325C100.652 36.2952 100.703 35.8552 100.776 35.3125C100.864 34.7552 100.967 34.0145 101.084 33.0905C101.202 32.2252 101.29 31.5505 101.348 31.0665C101.422 30.5825 101.473 30.2158 101.502 29.9665C101.546 29.7025 101.576 29.5045 101.59 29.3725C101.605 29.2258 101.612 29.0718 101.612 28.9105C101.627 28.6465 101.59 28.4192 101.502 28.2285C101.414 28.0232 101.246 27.9205 100.996 27.9205C100.762 27.9205 100.49 28.0818 100.182 28.4045C99.8745 28.7272 99.5958 29.2772 99.3465 30.0545L98.7305 29.9225C98.7891 29.6585 98.8918 29.3578 99.0385 29.0205C99.1851 28.6685 99.3758 28.3238 99.6105 27.9865C99.8598 27.6492 100.153 27.3705 100.49 27.1505C100.828 26.9305 101.216 26.8205 101.656 26.8205C102.214 26.8205 102.61 26.9818 102.844 27.3045C103.079 27.6125 103.211 28.0158 103.24 28.5145C103.27 29.0132 103.248 29.5412 103.174 30.0985C103.13 30.4798 103.086 30.8685 103.042 31.2645C102.998 31.6605 102.954 32.0492 102.91 32.4305H107.156C107.244 31.7265 107.318 31.0958 107.376 30.5385C107.435 29.9812 107.472 29.4312 107.486 28.8885C107.516 28.3458 107.508 27.7372 107.464 27.0625H109.312C109.327 27.1652 109.334 27.2605 109.334 27.3485C109.334 27.4218 109.334 27.5172 109.334 27.6345C109.334 27.9718 109.305 28.4412 109.246 29.0425C109.188 29.6292 109.114 30.2745 109.026 30.9785C108.953 31.6825 108.872 32.3865 108.784 33.0905C108.696 33.7945 108.623 34.4252 108.564 34.9825C108.506 35.5252 108.476 35.9358 108.476 36.2145C108.476 36.4785 108.513 36.7058 108.586 36.8965C108.674 37.0872 108.836 37.1825 109.07 37.1825C109.32 37.1825 109.591 37.0285 109.884 36.7205C110.192 36.3978 110.456 35.8478 110.676 35.0705L111.292 35.2025C111.248 35.4665 111.153 35.7745 111.006 36.1265C110.874 36.4638 110.691 36.8012 110.456 37.1385C110.222 37.4758 109.936 37.7545 109.598 37.9745C109.261 38.1945 108.872 38.3045 108.432 38.3045ZM126.994 38.3045C126.305 38.3045 125.836 38.1212 125.586 37.7545C125.352 37.3878 125.234 36.8672 125.234 36.1925C125.234 35.7818 125.271 35.2978 125.344 34.7405C125.432 34.1832 125.528 33.5892 125.63 32.9585C125.733 32.3278 125.821 31.6898 125.894 31.0445C125.982 30.3992 126.026 29.7832 126.026 29.1965C126.026 29.0205 125.997 28.8298 125.938 28.6245C125.88 28.4192 125.777 28.2432 125.63 28.0965C125.484 27.9352 125.264 27.8545 124.97 27.8545C124.56 27.8545 124.156 28.0452 123.76 28.4265C123.364 28.8078 122.998 29.3212 122.66 29.9665C122.323 30.6118 122.022 31.3305 121.758 32.1225C121.509 32.8998 121.311 33.7065 121.164 34.5425C121.018 35.3638 120.944 36.1485 120.944 36.8965C120.944 37.1165 120.944 37.3218 120.944 37.5125C120.959 37.6885 120.974 37.8718 120.988 38.0625H119.14C119.126 37.9598 119.118 37.8718 119.118 37.7985C119.118 37.7105 119.118 37.6078 119.118 37.4905C119.118 36.9332 119.155 36.2732 119.228 35.5105C119.316 34.7478 119.412 33.9632 119.514 33.1565C119.632 32.3498 119.727 31.5872 119.8 30.8685C119.888 30.1498 119.925 29.5632 119.91 29.1085C119.896 28.8592 119.822 28.5878 119.69 28.2945C119.558 28.0012 119.28 27.8545 118.854 27.8545C118.444 27.8545 118.04 28.0452 117.644 28.4265C117.263 28.8078 116.904 29.3212 116.566 29.9665C116.229 30.6118 115.928 31.3305 115.664 32.1225C115.4 32.8998 115.195 33.7065 115.048 34.5425C114.902 35.3638 114.828 36.1485 114.828 36.8965C114.828 37.1165 114.828 37.3218 114.828 37.5125C114.843 37.6885 114.858 37.8718 114.872 38.0625H113.024C113.01 37.9598 113.002 37.8718 113.002 37.7985C113.002 37.7105 113.002 37.6078 113.002 37.4905C113.002 37.2412 113.01 36.9552 113.024 36.6325C113.054 36.2952 113.098 35.8552 113.156 35.3125C113.23 34.7552 113.318 34.0145 113.42 33.0905C113.523 32.2252 113.604 31.5505 113.662 31.0665C113.721 30.5825 113.765 30.2158 113.794 29.9665C113.824 29.7025 113.838 29.5045 113.838 29.3725C113.853 29.2258 113.86 29.0718 113.86 28.9105C113.86 28.6465 113.824 28.4192 113.75 28.2285C113.677 28.0232 113.516 27.9205 113.266 27.9205C113.032 27.9205 112.76 28.0818 112.452 28.4045C112.144 28.7272 111.88 29.2772 111.66 30.0545L111.044 29.9225C111.088 29.6585 111.176 29.3578 111.308 29.0205C111.455 28.6685 111.646 28.3238 111.88 27.9865C112.115 27.6492 112.401 27.3705 112.738 27.1505C113.076 26.9305 113.464 26.8205 113.904 26.8205C114.388 26.8205 114.748 26.9452 114.982 27.1945C115.217 27.4292 115.371 27.7445 115.444 28.1405C115.532 28.5218 115.562 28.9398 115.532 29.3945C115.518 29.8052 115.474 30.2232 115.4 30.6485C115.327 31.0592 115.261 31.4185 115.202 31.7265H115.268C115.738 30.3918 116.2 29.3725 116.654 28.6685C117.124 27.9645 117.578 27.4805 118.018 27.2165C118.473 26.9525 118.898 26.8205 119.294 26.8205C119.881 26.8205 120.343 26.9598 120.68 27.2385C121.032 27.5025 121.282 27.8252 121.428 28.2065C121.575 28.5878 121.648 28.9618 121.648 29.3285C121.648 29.7392 121.619 30.0912 121.56 30.3845C121.502 30.6778 121.406 31.1032 121.274 31.6605H121.34C121.824 30.3258 122.301 29.3138 122.77 28.6245C123.254 27.9205 123.724 27.4438 124.178 27.1945C124.633 26.9452 125.058 26.8205 125.454 26.8205C126.041 26.8205 126.503 26.9525 126.84 27.2165C127.178 27.4805 127.412 27.8325 127.544 28.2725C127.691 28.6978 127.764 29.1672 127.764 29.6805C127.764 30.4872 127.706 31.3158 127.588 32.1665C127.471 33.0025 127.346 33.7798 127.214 34.4985C127.097 35.2025 127.038 35.7672 127.038 36.1925C127.038 36.4565 127.068 36.6912 127.126 36.8965C127.2 37.1018 127.368 37.2045 127.632 37.2045C127.882 37.2045 128.16 37.0505 128.468 36.7425C128.776 36.4198 129.04 35.8625 129.26 35.0705L129.876 35.2245C129.832 35.4738 129.737 35.7745 129.59 36.1265C129.444 36.4785 129.253 36.8232 129.018 37.1605C128.784 37.4832 128.498 37.7545 128.16 37.9745C127.823 38.1945 127.434 38.3045 126.994 38.3045ZM142.13 38.3045C141.734 38.3045 141.411 38.2238 141.162 38.0625C140.913 37.8865 140.729 37.6518 140.612 37.3585C140.495 37.0652 140.436 36.7205 140.436 36.3245C140.436 35.9432 140.473 35.4445 140.546 34.8285C140.634 34.1978 140.722 33.5085 140.81 32.7605C140.913 31.9978 141.001 31.2352 141.074 30.4725C141.162 29.7098 141.206 28.9985 141.206 28.3385C141.206 28.1185 141.199 27.9058 141.184 27.7005C141.184 27.4952 141.177 27.2825 141.162 27.0625H143.01C143.025 27.1652 143.032 27.2605 143.032 27.3485C143.032 27.4218 143.032 27.5172 143.032 27.6345C143.032 27.9718 143.003 28.4412 142.944 29.0425C142.885 29.6292 142.812 30.2745 142.724 30.9785C142.651 31.6825 142.57 32.3865 142.482 33.0905C142.394 33.7945 142.321 34.4252 142.262 34.9825C142.203 35.5252 142.174 35.9358 142.174 36.2145C142.174 36.4785 142.211 36.7058 142.284 36.8965C142.372 37.0872 142.533 37.1825 142.768 37.1825C143.003 37.1825 143.274 37.0285 143.582 36.7205C143.89 36.3978 144.154 35.8478 144.374 35.0705L144.99 35.2025C144.946 35.4665 144.851 35.7745 144.704 36.1265C144.572 36.4638 144.389 36.8012 144.154 37.1385C143.919 37.4758 143.633 37.7545 143.296 37.9745C142.959 38.1945 142.57 38.3045 142.13 38.3045ZM134.672 38.3045C133.924 38.3045 133.323 38.1578 132.868 37.8645C132.413 37.5565 132.098 37.1458 131.922 36.6325C131.746 36.1045 131.702 35.5105 131.79 34.8505C131.981 33.6625 132.135 32.7018 132.252 31.9685C132.369 31.2205 132.457 30.6412 132.516 30.2305C132.575 29.8198 132.611 29.5192 132.626 29.3285C132.655 29.1378 132.67 28.9985 132.67 28.9105C132.685 28.6465 132.655 28.4192 132.582 28.2285C132.523 28.0232 132.369 27.9205 132.12 27.9205C131.885 27.9205 131.607 28.0818 131.284 28.4045C130.961 28.7272 130.675 29.2772 130.426 30.0545L129.81 29.9225C129.869 29.6585 129.971 29.3578 130.118 29.0205C130.279 28.6685 130.477 28.3238 130.712 27.9865C130.961 27.6492 131.255 27.3705 131.592 27.1505C131.944 26.9305 132.34 26.8205 132.78 26.8205C133.337 26.8205 133.733 26.9818 133.968 27.3045C134.203 27.6125 134.327 28.0158 134.342 28.5145C134.371 29.0132 134.342 29.5412 134.254 30.0985L133.462 35.0485C133.359 35.8258 133.491 36.4272 133.858 36.8525C134.225 37.2632 134.701 37.4685 135.288 37.4685C135.992 37.4685 136.549 37.2118 136.96 36.6985C137.385 36.1705 137.605 35.4225 137.62 34.4545C137.649 33.6478 137.554 32.9952 137.334 32.4965C137.114 31.9978 136.667 31.7485 135.992 31.7485C135.596 31.7485 135.2 31.8438 134.804 32.0345C134.408 32.2105 134.005 32.4818 133.594 32.8485L133.616 31.8365C134.085 31.5578 134.525 31.3378 134.936 31.1765C135.361 31.0152 135.801 30.9345 136.256 30.9345C136.887 30.9345 137.437 31.0592 137.906 31.3085C138.39 31.5432 138.771 31.8878 139.05 32.3425C139.329 32.7972 139.461 33.3545 139.446 34.0145C139.431 34.8065 139.219 35.5325 138.808 36.1925C138.397 36.8378 137.833 37.3512 137.114 37.7325C136.41 38.1138 135.596 38.3045 134.672 38.3045ZM165.967 22.6625L165.923 23.3885C165.454 23.4032 165.102 23.5058 164.867 23.6965C164.647 23.8872 164.501 24.1585 164.427 24.5105C164.354 24.8478 164.303 25.2805 164.273 25.8085L163.767 35.4445C163.753 35.8405 163.731 36.1852 163.701 36.4785C163.672 36.7572 163.643 36.9918 163.613 37.1825C163.877 37.1678 164.141 37.1532 164.405 37.1385C164.669 37.1238 164.933 37.1092 165.197 37.0945L165.153 38.0625H160.291L160.335 37.3365C160.893 37.3072 161.281 37.1825 161.501 36.9625C161.721 36.7278 161.853 36.4125 161.897 36.0165C161.941 35.6058 161.971 35.1438 161.985 34.6305L162.205 30.6265L154.307 30.7145L154.065 35.4445C154.051 35.8405 154.029 36.1852 153.999 36.4785C153.97 36.7572 153.941 36.9918 153.911 37.1825C154.175 37.1678 154.439 37.1532 154.703 37.1385C154.967 37.1238 155.231 37.1092 155.495 37.0945L155.451 38.0625H150.589L150.633 37.3365C151.191 37.3072 151.572 37.1825 151.777 36.9625C151.997 36.7278 152.129 36.4125 152.173 36.0165C152.217 35.6058 152.254 35.1438 152.283 34.6305L152.789 25.1265C152.819 24.8332 152.841 24.5545 152.855 24.2905C152.885 24.0118 152.914 23.7625 152.943 23.5425C152.679 23.5572 152.415 23.5718 152.151 23.5865C151.887 23.6012 151.623 23.6158 151.359 23.6305L151.403 22.6625H156.265L156.221 23.3885C155.752 23.4032 155.4 23.5058 155.165 23.6965C154.945 23.8872 154.799 24.1585 154.725 24.5105C154.652 24.8625 154.601 25.3025 154.571 25.8305L154.351 29.7465H162.249L162.491 25.1265C162.506 24.8332 162.528 24.5545 162.557 24.2905C162.587 24.0118 162.616 23.7625 162.645 23.5425C162.381 23.5572 162.117 23.5718 161.853 23.5865C161.589 23.6012 161.325 23.6158 161.061 23.6305L161.105 22.6625H165.967ZM171.839 26.8205C172.367 26.8205 172.865 26.9012 173.335 27.0625C173.804 27.2238 174.185 27.4878 174.479 27.8545C174.772 28.2212 174.919 28.7198 174.919 29.3505C174.919 29.9518 174.713 30.4725 174.303 30.9125C173.892 31.3525 173.357 31.7192 172.697 32.0125C172.037 32.2912 171.333 32.5185 170.585 32.6945C169.837 32.8705 169.118 32.9952 168.429 33.0685C168.429 33.9778 168.517 34.7405 168.693 35.3565C168.883 35.9725 169.162 36.4345 169.529 36.7425C169.895 37.0505 170.365 37.2045 170.937 37.2045C171.362 37.2045 171.787 37.1092 172.213 36.9185C172.653 36.7278 173.071 36.4418 173.467 36.0605C173.863 35.6645 174.222 35.1585 174.545 34.5425L175.271 34.9605C174.86 35.7232 174.42 36.3538 173.951 36.8525C173.481 37.3512 172.968 37.7178 172.411 37.9525C171.853 38.1872 171.237 38.3045 170.563 38.3045C169.169 38.3045 168.143 37.8718 167.483 37.0065C166.823 36.1265 166.493 34.9752 166.493 33.5525C166.493 32.7018 166.603 31.8732 166.823 31.0665C167.043 30.2598 167.373 29.5412 167.813 28.9105C168.253 28.2652 168.81 27.7592 169.485 27.3925C170.159 27.0112 170.944 26.8205 171.839 26.8205ZM171.531 27.5685C170.856 27.5685 170.299 27.7958 169.859 28.2505C169.433 28.7052 169.103 29.2918 168.869 30.0105C168.649 30.7292 168.509 31.4845 168.451 32.2765C169.228 32.1738 169.969 31.9905 170.673 31.7265C171.377 31.4625 171.956 31.1252 172.411 30.7145C172.865 30.2892 173.093 29.7978 173.093 29.2405C173.093 28.7712 172.961 28.3752 172.697 28.0525C172.447 27.7298 172.059 27.5685 171.531 27.5685ZM180.167 21.4525C180.123 21.8192 180.057 22.2298 179.969 22.6845C179.896 23.1392 179.822 23.5865 179.749 24.0265C179.69 24.4665 179.639 24.8552 179.595 25.1925C179.507 25.8085 179.419 26.5125 179.331 27.3045C179.243 28.0818 179.155 28.8958 179.067 29.7465C178.979 30.5825 178.898 31.4038 178.825 32.2105C178.766 33.0172 178.715 33.7578 178.671 34.4325C178.627 35.0925 178.605 35.6352 178.605 36.0605C178.605 36.3392 178.634 36.6032 178.693 36.8525C178.752 37.0872 178.92 37.2045 179.199 37.2045C179.448 37.2045 179.72 37.0505 180.013 36.7425C180.321 36.4198 180.585 35.8625 180.805 35.0705L181.421 35.2245C181.377 35.4738 181.282 35.7745 181.135 36.1265C181.003 36.4785 180.82 36.8232 180.585 37.1605C180.35 37.4832 180.064 37.7545 179.727 37.9745C179.404 38.1945 179.023 38.3045 178.583 38.3045C177.982 38.3045 177.542 38.1578 177.263 37.8645C176.984 37.5565 176.838 37.1092 176.823 36.5225C176.808 36.1558 176.823 35.6132 176.867 34.8945C176.926 34.1758 176.992 33.3618 177.065 32.4525C177.153 31.5285 177.248 30.5678 177.351 29.5705C177.454 28.5585 177.564 27.5758 177.681 26.6225C177.798 25.6692 177.908 24.8038 178.011 24.0265C178.084 23.6305 178.128 23.3738 178.143 23.2565C178.172 23.1245 178.194 22.9852 178.209 22.8385C177.945 22.8532 177.681 22.8678 177.417 22.8825C177.168 22.8972 176.911 22.9118 176.647 22.9265L176.757 22.0465C177.402 22.0465 177.901 22.0172 178.253 21.9585C178.62 21.8998 178.898 21.8265 179.089 21.7385C179.28 21.6505 179.434 21.5552 179.551 21.4525H180.167ZM187.234 26.8205C187.762 26.8205 188.26 26.9012 188.73 27.0625C189.199 27.2238 189.58 27.4878 189.874 27.8545C190.167 28.2212 190.314 28.7198 190.314 29.3505C190.314 29.9518 190.108 30.4725 189.698 30.9125C189.287 31.3525 188.752 31.7192 188.092 32.0125C187.432 32.2912 186.728 32.5185 185.98 32.6945C185.232 32.8705 184.513 32.9952 183.824 33.0685C183.824 33.9778 183.912 34.7405 184.088 35.3565C184.278 35.9725 184.557 36.4345 184.924 36.7425C185.29 37.0505 185.76 37.2045 186.332 37.2045C186.757 37.2045 187.182 37.1092 187.608 36.9185C188.048 36.7278 188.466 36.4418 188.862 36.0605C189.258 35.6645 189.617 35.1585 189.94 34.5425L190.666 34.9605C190.255 35.7232 189.815 36.3538 189.346 36.8525C188.876 37.3512 188.363 37.7178 187.806 37.9525C187.248 38.1872 186.632 38.3045 185.958 38.3045C184.564 38.3045 183.538 37.8718 182.878 37.0065C182.218 36.1265 181.888 34.9752 181.888 33.5525C181.888 32.7018 181.998 31.8732 182.218 31.0665C182.438 30.2598 182.768 29.5412 183.208 28.9105C183.648 28.2652 184.205 27.7592 184.88 27.3925C185.554 27.0112 186.339 26.8205 187.234 26.8205ZM186.926 27.5685C186.251 27.5685 185.694 27.7958 185.254 28.2505C184.828 28.7052 184.498 29.2918 184.264 30.0105C184.044 30.7292 183.904 31.4845 183.846 32.2765C184.623 32.1738 185.364 31.9905 186.068 31.7265C186.772 31.4625 187.351 31.1252 187.806 30.7145C188.26 30.2892 188.488 29.7978 188.488 29.2405C188.488 28.7712 188.356 28.3752 188.092 28.0525C187.842 27.7298 187.454 27.5685 186.926 27.5685ZM197.146 26.8205C197.938 26.8205 198.649 27.0112 199.28 27.3925C199.911 27.7592 200.409 28.3018 200.776 29.0205C201.143 29.7392 201.326 30.6118 201.326 31.6385C201.326 32.8118 201.113 33.9118 200.688 34.9385C200.263 35.9505 199.647 36.7645 198.84 37.3805C198.048 37.9965 197.08 38.3045 195.936 38.3045C194.968 38.3045 194.169 38.0845 193.538 37.6445C192.922 37.2045 192.46 36.6105 192.152 35.8625C191.859 35.1145 191.712 34.2858 191.712 33.3765C191.712 32.1885 191.925 31.0958 192.35 30.0985C192.79 29.1012 193.413 28.3092 194.22 27.7225C195.041 27.1212 196.017 26.8205 197.146 26.8205ZM196.816 27.6345C196.171 27.6198 195.613 27.8398 195.144 28.2945C194.675 28.7345 194.308 29.3358 194.044 30.0985C193.795 30.8612 193.663 31.7118 193.648 32.6505C193.633 33.1492 193.663 33.6772 193.736 34.2345C193.809 34.7918 193.934 35.3125 194.11 35.7965C194.301 36.2805 194.557 36.6765 194.88 36.9845C195.217 37.2925 195.635 37.4538 196.134 37.4685C196.721 37.4832 197.219 37.3292 197.63 37.0065C198.041 36.6692 198.371 36.2365 198.62 35.7085C198.869 35.1805 199.053 34.6158 199.17 34.0145C199.302 33.4132 199.375 32.8485 199.39 32.3205C199.405 31.8072 199.375 31.2792 199.302 30.7365C199.243 30.1938 199.119 29.6878 198.928 29.2185C198.737 28.7492 198.473 28.3752 198.136 28.0965C197.799 27.8032 197.359 27.6492 196.816 27.6345Z" fill="#3B434B"/>
<path d="M357.75 38.8125L344.25 25.3125M357.75 38.8125C357.243 38.3055 356.308 37.98 355.471 37.7783C354.353 37.509 353.194 37.4602 352.052 37.5892C351.165 37.6897 350.188 37.8892 349.795 38.2822M357.75 38.8125C357.243 38.3055 356.918 37.3703 356.716 36.5333C356.447 35.4158 356.398 34.2563 356.527 33.114C356.627 32.2275 356.827 31.251 357.22 30.8572" stroke="#3B434B" stroke-width="0.75"/>
<path d="M15 61.0625L360 61.0625" stroke="#3B434B" stroke-opacity="0.2" stroke-linecap="round"/>
</g>
<defs>
<clipPath id="clip0_238_2">
<rect width="375" height="6280" fill="white" transform="translate(0 -2677)"/>
</clipPath>
</defs>
</svg>
