<svg width="136" height="68" viewBox="0 0 136 68" fill="none" xmlns="http://www.w3.org/2000/svg">
<path d="M-548 -418C-548 -419.105 -547.105 -420 -546 -420H9782C9783.1 -420 9784 -419.105 9784 -418V12813C9784 12814.1 9783.1 12815 9782 12815H-546C-547.104 12815 -548 12814.1 -548 12813V-418Z" fill="#444444"/>
<path d="M-546 -420V-419H9782V-420V-421H-546V-420ZM9784 -418H9783V12813H9784H9785V-418H9784ZM9782 12815V12814H-546V12815V12816H9782V12815ZM-548 12813H-547V-418H-548H-549V12813H-548ZM-546 12815V12814C-546.552 12814 -547 12813.6 -547 12813H-548H-549C-549 12814.7 -547.656 12816 -546 12816V12815ZM9784 12813H9783C9783 12813.6 9782.55 12814 9782 12814V12815V12816C9783.66 12816 9785 12814.7 9785 12813H9784ZM9782 -420V-419C9782.55 -419 9783 -418.552 9783 -418H9784H9785C9785 -419.657 9783.66 -421 9782 -421V-420ZM-546 -420V-421C-547.657 -421 -549 -419.657 -549 -418H-548H-547C-547 -418.552 -546.552 -419 -546 -419V-420Z" fill="white" fill-opacity="0.1"/>
<rect width="375" height="5540" transform="translate(-239)" fill="#FEF7ED"/>
</svg>
