<svg width="375" height="80" viewBox="0 0 375 80" fill="none" xmlns="http://www.w3.org/2000/svg">
<g clip-path="url(#clip0_310_2)">
<rect width="375" height="8557" transform="translate(0 -6214)" fill="#F9F9F9"/>
<path d="M18.556 26.2865C17.9587 26.2865 17.45 26.1885 17.03 25.9925C16.61 25.7872 16.288 25.5352 16.064 25.2365C15.84 24.9378 15.728 24.6532 15.728 24.3825C15.728 24.1678 15.784 23.9905 15.896 23.8505C16.008 23.7012 16.1667 23.6218 16.372 23.6125C16.54 23.6032 16.6707 23.6358 16.764 23.7105C16.8667 23.7758 16.9367 23.8598 16.974 23.9625C17.0113 24.0652 17.03 24.1585 17.03 24.2425C17.03 24.3358 17.016 24.4292 16.988 24.5225C16.96 24.6158 16.9227 24.7045 16.876 24.7885C16.9133 25.0125 17.03 25.1992 17.226 25.3485C17.422 25.4885 17.646 25.5912 17.898 25.6565C18.1593 25.7218 18.3973 25.7498 18.612 25.7405C19.0693 25.7218 19.438 25.6005 19.718 25.3765C19.998 25.1432 20.2033 24.8492 20.334 24.4945C20.474 24.1398 20.544 23.7665 20.544 23.3745C20.544 23.1132 20.5207 22.8238 20.474 22.5065C20.4367 22.1892 20.3433 21.8905 20.194 21.6105C20.054 21.3212 19.8393 21.0832 19.55 20.8965C19.2607 20.7098 18.8687 20.6165 18.374 20.6165C18.2153 20.6165 18.0193 20.6352 17.786 20.6725C17.562 20.7098 17.3333 20.7658 17.1 20.8405C16.876 20.9152 16.6847 21.0038 16.526 21.1065L16.134 20.7425L16.106 16.2625H19.732C20.264 16.2625 20.628 16.1925 20.824 16.0525C21.0293 15.9032 21.132 15.6698 21.132 15.3525H21.51L21.426 17.2005L16.75 17.2985V20.3785C16.974 20.2852 17.2633 20.1965 17.618 20.1125C17.982 20.0285 18.3693 19.9865 18.78 19.9865C19.3587 19.9865 19.8487 20.0798 20.25 20.2665C20.6607 20.4438 20.992 20.6865 21.244 20.9945C21.5053 21.2932 21.6967 21.6292 21.818 22.0025C21.9393 22.3665 22 22.7398 22 23.1225C22 23.8132 21.8367 24.3965 21.51 24.8725C21.1927 25.3392 20.7727 25.6938 20.25 25.9365C19.7273 26.1698 19.1627 26.2865 18.556 26.2865ZM29.7786 26.2865C29.1533 26.2865 28.5746 26.1465 28.0426 25.8665C27.52 25.5772 27.1 25.1665 26.7826 24.6345C26.4746 24.0932 26.3206 23.4445 26.3206 22.6885C26.3206 22.2032 26.4093 21.7318 26.5866 21.2745C26.764 20.8172 27.0113 20.4065 27.3286 20.0425C27.6553 19.6692 28.0426 19.3752 28.4906 19.1605C28.9386 18.9458 29.4333 18.8385 29.9746 18.8385C30.4973 18.8385 30.95 18.9178 31.3326 19.0765C31.7246 19.2352 32.028 19.4452 32.2426 19.7065C32.4573 19.9678 32.5646 20.2525 32.5646 20.5605C32.5646 20.7658 32.5086 20.9432 32.3966 21.0925C32.2846 21.2325 32.1213 21.3025 31.9066 21.3025C31.6733 21.3118 31.5053 21.2418 31.4026 21.0925C31.3093 20.9338 31.2626 20.7938 31.2626 20.6725C31.2626 20.5792 31.2766 20.4858 31.3046 20.3925C31.3326 20.2898 31.3886 20.1965 31.4726 20.1125C31.398 19.8885 31.2673 19.7252 31.0806 19.6225C30.894 19.5105 30.698 19.4405 30.4926 19.4125C30.2966 19.3752 30.1333 19.3565 30.0026 19.3565C29.368 19.3565 28.8313 19.6132 28.3926 20.1265C27.9633 20.6305 27.7486 21.3678 27.7486 22.3385C27.7486 22.9638 27.8466 23.5192 28.0426 24.0045C28.248 24.4898 28.5326 24.8725 28.8966 25.1525C29.2606 25.4232 29.6806 25.5585 30.1566 25.5585C30.5953 25.5585 31.0153 25.4418 31.4166 25.2085C31.818 24.9752 32.1306 24.6905 32.3546 24.3545L32.7186 24.6345C32.476 25.0265 32.182 25.3438 31.8366 25.5865C31.5006 25.8292 31.1506 26.0065 30.7866 26.1185C30.432 26.2305 30.096 26.2865 29.7786 26.2865ZM36.8535 26.2865C36.2095 26.2865 35.6261 26.1372 35.1035 25.8385C34.5901 25.5305 34.1841 25.1012 33.8855 24.5505C33.5868 23.9905 33.4375 23.3325 33.4375 22.5765C33.4375 21.9232 33.5821 21.3118 33.8715 20.7425C34.1701 20.1732 34.5855 19.7158 35.1175 19.3705C35.6495 19.0158 36.2655 18.8385 36.9655 18.8385C37.3575 18.8385 37.7215 18.9038 38.0575 19.0345C38.4028 19.1558 38.7061 19.3472 38.9675 19.6085C39.2288 19.8605 39.4341 20.1825 39.5835 20.5745C39.7328 20.9572 39.8075 21.4098 39.8075 21.9325L34.8795 22.0165C34.8795 22.7258 34.9541 23.3512 35.1035 23.8925C35.2621 24.4245 35.5141 24.8398 35.8595 25.1385C36.2048 25.4278 36.6481 25.5725 37.1895 25.5725C37.4788 25.5725 37.7728 25.5212 38.0715 25.4185C38.3795 25.3158 38.6641 25.1758 38.9255 24.9985C39.1868 24.8212 39.3968 24.6252 39.5555 24.4105L39.8915 24.6905C39.6395 25.0825 39.3361 25.3952 38.9815 25.6285C38.6268 25.8618 38.2628 26.0298 37.8895 26.1325C37.5161 26.2352 37.1708 26.2865 36.8535 26.2865ZM34.9215 21.4285H38.4915C38.4915 21.0925 38.4401 20.7705 38.3375 20.4625C38.2441 20.1452 38.0855 19.8885 37.8615 19.6925C37.6375 19.4872 37.3435 19.3845 36.9795 19.3845C36.4381 19.3845 35.9855 19.5478 35.6215 19.8745C35.2668 20.1918 35.0335 20.7098 34.9215 21.4285ZM45.002 26.0625C44.974 25.9038 44.9553 25.7638 44.946 25.6425C44.9367 25.5212 44.9227 25.3952 44.904 25.2645C44.5867 25.5818 44.2413 25.8338 43.868 26.0205C43.504 26.1978 43.1167 26.2865 42.706 26.2865C41.9967 26.2865 41.4693 26.1278 41.124 25.8105C40.7787 25.4838 40.606 25.0872 40.606 24.6205C40.606 24.1912 40.7367 23.8225 40.998 23.5145C41.2687 23.1972 41.614 22.9405 42.034 22.7445C42.4633 22.5392 42.9253 22.3898 43.42 22.2965C43.924 22.1938 44.4093 22.1472 44.876 22.1565V21.2885C44.876 20.9618 44.848 20.6538 44.792 20.3645C44.736 20.0752 44.6147 19.8372 44.428 19.6505C44.2413 19.4638 43.9427 19.3658 43.532 19.3565C43.2613 19.3472 42.9813 19.3985 42.692 19.5105C42.412 19.6225 42.2067 19.8138 42.076 20.0845C42.1507 20.1592 42.1973 20.2478 42.216 20.3505C42.244 20.4438 42.258 20.5325 42.258 20.6165C42.258 20.7285 42.2113 20.8592 42.118 21.0085C42.0247 21.1485 41.8613 21.2138 41.628 21.2045C41.432 21.2045 41.2827 21.1392 41.18 21.0085C41.0773 20.8685 41.026 20.7052 41.026 20.5185C41.026 20.2012 41.1427 19.9165 41.376 19.6645C41.6187 19.4125 41.95 19.2118 42.37 19.0625C42.79 18.9132 43.266 18.8385 43.798 18.8385C44.582 18.8385 45.1607 19.0485 45.534 19.4685C45.9073 19.8792 46.0893 20.5325 46.08 21.4285C46.08 21.7738 46.08 22.1238 46.08 22.4785C46.08 22.8238 46.0753 23.1738 46.066 23.5285C46.066 23.8738 46.066 24.2238 46.066 24.5785C46.066 24.7278 46.0613 24.8772 46.052 25.0265C46.0427 25.1758 46.0287 25.3438 46.01 25.5305C46.178 25.5212 46.3413 25.5118 46.5 25.5025C46.668 25.4932 46.836 25.4838 47.004 25.4745V26.0625H45.002ZM44.876 22.6325C44.5587 22.6418 44.2227 22.6838 43.868 22.7585C43.5227 22.8238 43.2007 22.9265 42.902 23.0665C42.6127 23.2065 42.3747 23.3932 42.188 23.6265C42.0107 23.8505 41.9267 24.1258 41.936 24.4525C41.9547 24.7978 42.0667 25.0592 42.272 25.2365C42.4867 25.4045 42.7387 25.4885 43.028 25.4885C43.4107 25.4885 43.742 25.4185 44.022 25.2785C44.3113 25.1292 44.596 24.9238 44.876 24.6625C44.8667 24.5598 44.862 24.4478 44.862 24.3265C44.862 24.2052 44.862 24.0792 44.862 23.9485C44.862 23.9018 44.862 23.7525 44.862 23.5005C44.8713 23.2485 44.876 22.9592 44.876 22.6325ZM50.5687 19.4825C50.2794 19.4825 50.0787 19.5572 49.9667 19.7065C49.8547 19.8465 49.7894 20.0472 49.7707 20.3085C49.7521 20.5605 49.7381 20.8545 49.7287 21.1905L49.7147 24.5785C49.7147 24.7652 49.7101 24.9332 49.7007 25.0825C49.7007 25.2225 49.6867 25.3718 49.6587 25.5305L50.5407 25.4885V26.0625H47.6847V25.6425C47.9741 25.6425 48.1747 25.5725 48.2867 25.4325C48.3987 25.2832 48.4641 25.0825 48.4827 24.8305C48.5107 24.5692 48.5247 24.2705 48.5247 23.9345V20.5465C48.5247 20.3598 48.5247 20.1965 48.5247 20.0565C48.5341 19.9072 48.5527 19.7532 48.5807 19.5945L47.6987 19.6365V19.0625H50.5687V19.4825ZM55.1607 19.4825C54.8807 19.4825 54.6801 19.5572 54.5587 19.7065C54.4467 19.8465 54.3814 20.0472 54.3627 20.3085C54.3534 20.5605 54.3441 20.8545 54.3347 21.1905L54.3207 24.5785C54.3207 24.7652 54.3161 24.9332 54.3067 25.0825C54.3067 25.2225 54.2927 25.3718 54.2647 25.5305L55.1467 25.4885V26.0625H52.2907V25.6425C52.5801 25.6425 52.7807 25.5725 52.8927 25.4325C53.0047 25.2832 53.0701 25.0825 53.0887 24.8305C53.1074 24.5692 53.1167 24.2705 53.1167 23.9345L53.1307 20.5465C53.1307 20.3598 53.1307 20.1965 53.1307 20.0565C53.1401 19.9072 53.1587 19.7532 53.1867 19.5945L52.3047 19.6365V19.0625H55.1607V19.4825ZM49.2247 22.1985H53.6207V22.7445L49.2247 22.8005V22.1985ZM59.5297 26.2865C58.9044 26.2865 58.3257 26.1465 57.7937 25.8665C57.2711 25.5772 56.8511 25.1665 56.5337 24.6345C56.2257 24.0932 56.0717 23.4445 56.0717 22.6885C56.0717 22.2032 56.1604 21.7318 56.3377 21.2745C56.5151 20.8172 56.7624 20.4065 57.0797 20.0425C57.4064 19.6692 57.7937 19.3752 58.2417 19.1605C58.6897 18.9458 59.1844 18.8385 59.7257 18.8385C60.2484 18.8385 60.7011 18.9178 61.0837 19.0765C61.4757 19.2352 61.7791 19.4452 61.9937 19.7065C62.2084 19.9678 62.3157 20.2525 62.3157 20.5605C62.3157 20.7658 62.2597 20.9432 62.1477 21.0925C62.0357 21.2325 61.8724 21.3025 61.6577 21.3025C61.4244 21.3118 61.2564 21.2418 61.1537 21.0925C61.0604 20.9338 61.0137 20.7938 61.0137 20.6725C61.0137 20.5792 61.0277 20.4858 61.0557 20.3925C61.0837 20.2898 61.1397 20.1965 61.2237 20.1125C61.1491 19.8885 61.0184 19.7252 60.8317 19.6225C60.6451 19.5105 60.4491 19.4405 60.2437 19.4125C60.0477 19.3752 59.8844 19.3565 59.7537 19.3565C59.1191 19.3565 58.5824 19.6132 58.1437 20.1265C57.7144 20.6305 57.4997 21.3678 57.4997 22.3385C57.4997 22.9638 57.5977 23.5192 57.7937 24.0045C57.9991 24.4898 58.2837 24.8725 58.6477 25.1525C59.0117 25.4232 59.4317 25.5585 59.9077 25.5585C60.3464 25.5585 60.7664 25.4418 61.1677 25.2085C61.5691 24.9752 61.8817 24.6905 62.1057 24.3545L62.4697 24.6345C62.2271 25.0265 61.9331 25.3438 61.5877 25.5865C61.2517 25.8292 60.9017 26.0065 60.5377 26.1185C60.1831 26.2305 59.8471 26.2865 59.5297 26.2865ZM66.6885 26.2865C66.0352 26.2865 65.4425 26.1372 64.9105 25.8385C64.3785 25.5305 63.9539 25.1105 63.6365 24.5785C63.3285 24.0372 63.1745 23.4212 63.1745 22.7305C63.1745 21.9932 63.3285 21.3305 63.6365 20.7425C63.9445 20.1545 64.3645 19.6925 64.8965 19.3565C65.4285 19.0112 66.0259 18.8385 66.6885 18.8385C67.3419 18.8385 67.9345 18.9972 68.4665 19.3145C68.9985 19.6225 69.4232 20.0425 69.7405 20.5745C70.0579 21.1065 70.2165 21.7132 70.2165 22.3945C70.2165 23.1132 70.0579 23.7712 69.7405 24.3685C69.4325 24.9565 69.0125 25.4232 68.4805 25.7685C67.9485 26.1138 67.3512 26.2865 66.6885 26.2865ZM66.8005 25.7265C67.2952 25.7265 67.6872 25.5865 67.9765 25.3065C68.2659 25.0265 68.4712 24.6625 68.5925 24.2145C68.7232 23.7665 68.7885 23.2952 68.7885 22.8005C68.7885 22.3805 68.7465 21.9698 68.6625 21.5685C68.5879 21.1578 68.4665 20.7892 68.2985 20.4625C68.1305 20.1265 67.9112 19.8605 67.6405 19.6645C67.3792 19.4685 67.0619 19.3705 66.6885 19.3705C66.2032 19.3705 65.8065 19.5105 65.4985 19.7905C65.1905 20.0705 64.9619 20.4345 64.8125 20.8825C64.6725 21.3305 64.6025 21.8112 64.6025 22.3245C64.6025 22.9032 64.6819 23.4538 64.8405 23.9765C64.9992 24.4898 65.2419 24.9098 65.5685 25.2365C65.8952 25.5632 66.3059 25.7265 66.8005 25.7265ZM71.126 26.0625V25.6425C71.4713 25.6332 71.6953 25.5258 71.798 25.3205C71.91 25.1058 71.966 24.8165 71.966 24.4525V20.4065C71.966 20.2385 71.9707 20.0892 71.98 19.9585C71.9893 19.8278 72.0033 19.7065 72.022 19.5945C71.8727 19.6038 71.7233 19.6132 71.574 19.6225C71.434 19.6225 71.2893 19.6272 71.14 19.6365V19.0625C71.392 19.0625 71.714 19.0625 72.106 19.0625C72.498 19.0532 72.9273 19.0485 73.394 19.0485C73.87 19.0485 74.3413 19.0485 74.808 19.0485C75.4613 19.0485 75.9933 19.1838 76.404 19.4545C76.824 19.7158 77.0293 20.1172 77.02 20.6585C77.0107 21.0318 76.88 21.3818 76.628 21.7085C76.3853 22.0258 75.998 22.2498 75.466 22.3805C76.1007 22.4085 76.5813 22.5812 76.908 22.8985C77.2347 23.2065 77.398 23.5985 77.398 24.0745C77.398 24.4945 77.286 24.8538 77.062 25.1525C76.838 25.4512 76.544 25.6798 76.18 25.8385C75.816 25.9878 75.424 26.0625 75.004 26.0625H71.126ZM73.142 25.4885C73.2447 25.4978 73.38 25.5025 73.548 25.5025C73.7253 25.5025 73.8887 25.5025 74.038 25.5025C74.1967 25.5025 74.2947 25.5025 74.332 25.5025C74.8547 25.5025 75.27 25.3952 75.578 25.1805C75.8953 24.9565 76.054 24.6018 76.054 24.1165C76.054 23.6218 75.8813 23.2718 75.536 23.0665C75.1907 22.8518 74.7893 22.7445 74.332 22.7445C74.136 22.7445 73.9307 22.7492 73.716 22.7585C73.5107 22.7585 73.3287 22.7632 73.17 22.7725V24.7045C73.17 24.8818 73.1653 25.0358 73.156 25.1665C73.156 25.2972 73.1513 25.4045 73.142 25.4885ZM73.17 22.2405L74.22 22.2265C74.6027 22.2172 74.906 22.1378 75.13 21.9885C75.354 21.8298 75.5127 21.6385 75.606 21.4145C75.6993 21.1812 75.7413 20.9525 75.732 20.7285C75.732 20.4018 75.662 20.1545 75.522 19.9865C75.382 19.8185 75.2 19.7065 74.976 19.6505C74.7613 19.5852 74.528 19.5525 74.276 19.5525C73.94 19.5525 73.6693 19.6132 73.464 19.7345C73.268 19.8558 73.17 20.1172 73.17 20.5185V22.2405Z" fill="#3B434B"/>
<path d="M314.005 27.2545C313.429 27.2545 312.953 27.1705 312.577 27.0025C312.201 26.8265 311.921 26.6105 311.737 26.3545C311.561 26.0985 311.473 25.8545 311.473 25.6225C311.473 25.4385 311.521 25.2865 311.617 25.1665C311.713 25.0385 311.849 24.9705 312.025 24.9625C312.169 24.9545 312.281 24.9825 312.361 25.0465C312.449 25.1025 312.509 25.1745 312.541 25.2625C312.573 25.3505 312.589 25.4305 312.589 25.5025C312.589 25.5825 312.577 25.6625 312.553 25.7425C312.529 25.8225 312.497 25.9025 312.457 25.9825C312.537 26.2545 312.717 26.4505 312.997 26.5705C313.285 26.6905 313.593 26.7505 313.921 26.7505C314.489 26.7505 314.941 26.5945 315.277 26.2825C315.621 25.9705 315.793 25.5185 315.793 24.9265C315.793 24.5745 315.737 24.2425 315.625 23.9305C315.513 23.6105 315.305 23.3505 315.001 23.1505C314.697 22.9505 314.253 22.8585 313.669 22.8745C313.605 22.8745 313.537 22.8785 313.465 22.8865C313.393 22.8865 313.313 22.8905 313.225 22.8985V22.3585C313.313 22.3585 313.397 22.3585 313.477 22.3585C313.557 22.3585 313.637 22.3585 313.717 22.3585C314.141 22.3585 314.473 22.2625 314.713 22.0705C314.953 21.8785 315.125 21.6505 315.229 21.3865C315.333 21.1225 315.385 20.8785 315.385 20.6545C315.385 20.3265 315.341 20.0345 315.253 19.7785C315.173 19.5145 315.029 19.3105 314.821 19.1665C314.613 19.0145 314.325 18.9385 313.957 18.9385C313.597 18.9385 313.289 19.0345 313.033 19.2265C312.777 19.4105 312.617 19.6025 312.553 19.8025C312.625 19.8825 312.673 19.9625 312.697 20.0425C312.729 20.1225 312.745 20.2065 312.745 20.2945C312.745 20.3585 312.725 20.4345 312.685 20.5225C312.653 20.6025 312.597 20.6705 312.517 20.7265C312.437 20.7825 312.329 20.8105 312.193 20.8105C312.025 20.8105 311.897 20.7505 311.809 20.6305C311.721 20.5105 311.677 20.3665 311.677 20.1985C311.677 19.9745 311.765 19.7305 311.941 19.4665C312.117 19.1945 312.385 18.9625 312.745 18.7705C313.113 18.5705 313.573 18.4705 314.125 18.4705C314.557 18.4705 314.957 18.5385 315.325 18.6745C315.693 18.8105 315.989 19.0345 316.213 19.3465C316.437 19.6505 316.549 20.0545 316.549 20.5585C316.549 20.8065 316.485 21.0585 316.357 21.3145C316.237 21.5625 316.033 21.7945 315.745 22.0105C315.465 22.2265 315.077 22.4105 314.581 22.5625C315.341 22.6425 315.937 22.8865 316.369 23.2945C316.809 23.7025 317.029 24.2185 317.029 24.8425C317.029 25.3865 316.885 25.8385 316.597 26.1985C316.317 26.5505 315.945 26.8145 315.481 26.9905C315.025 27.1665 314.533 27.2545 314.005 27.2545ZM321.357 27.2545C320.749 27.2545 320.245 27.1265 319.845 26.8705C319.445 26.6065 319.133 26.2625 318.909 25.8385C318.685 25.4065 318.525 24.9345 318.429 24.4225C318.341 23.9105 318.297 23.4025 318.297 22.8985C318.297 22.3945 318.353 21.8825 318.465 21.3625C318.585 20.8425 318.769 20.3665 319.017 19.9345C319.265 19.4945 319.585 19.1425 319.977 18.8785C320.369 18.6065 320.845 18.4705 321.405 18.4705C321.989 18.4705 322.473 18.6025 322.857 18.8665C323.249 19.1305 323.557 19.4785 323.781 19.9105C324.013 20.3345 324.177 20.8025 324.273 21.3145C324.369 21.8265 324.417 22.3345 324.417 22.8385C324.417 23.3345 324.361 23.8425 324.249 24.3625C324.137 24.8825 323.961 25.3625 323.721 25.8025C323.481 26.2345 323.165 26.5865 322.773 26.8585C322.389 27.1225 321.917 27.2545 321.357 27.2545ZM321.429 26.7865C321.773 26.7865 322.057 26.6785 322.281 26.4625C322.505 26.2465 322.681 25.9585 322.809 25.5985C322.945 25.2385 323.041 24.8425 323.097 24.4105C323.153 23.9705 323.181 23.5305 323.181 23.0905C323.181 22.6025 323.153 22.1145 323.097 21.6265C323.041 21.1385 322.945 20.6905 322.809 20.2825C322.673 19.8745 322.489 19.5465 322.257 19.2985C322.025 19.0505 321.733 18.9265 321.381 18.9265C321.037 18.9265 320.745 19.0345 320.505 19.2505C320.273 19.4665 320.085 19.7545 319.941 20.1145C319.797 20.4745 319.693 20.8745 319.629 21.3145C319.565 21.7545 319.533 22.1985 319.533 22.6465C319.533 22.9825 319.549 23.3385 319.581 23.7145C319.613 24.0905 319.669 24.4625 319.749 24.8305C319.837 25.1905 319.953 25.5185 320.097 25.8145C320.241 26.1105 320.421 26.3465 320.637 26.5225C320.853 26.6985 321.117 26.7865 321.429 26.7865ZM326.355 27.2545C326.171 27.2545 326.007 27.1825 325.863 27.0385C325.727 26.8865 325.659 26.7025 325.659 26.4865C325.659 26.2705 325.731 26.0865 325.875 25.9345C326.019 25.7825 326.183 25.7065 326.367 25.7065C326.567 25.7065 326.731 25.7825 326.859 25.9345C326.995 26.0865 327.063 26.2705 327.063 26.4865C327.063 26.7025 326.991 26.8865 326.847 27.0385C326.703 27.1825 326.539 27.2545 326.355 27.2545ZM331.4 27.2545C330.792 27.2545 330.288 27.1265 329.888 26.8705C329.488 26.6065 329.176 26.2625 328.952 25.8385C328.728 25.4065 328.568 24.9345 328.472 24.4225C328.384 23.9105 328.34 23.4025 328.34 22.8985C328.34 22.3945 328.396 21.8825 328.508 21.3625C328.628 20.8425 328.812 20.3665 329.06 19.9345C329.308 19.4945 329.628 19.1425 330.02 18.8785C330.412 18.6065 330.888 18.4705 331.448 18.4705C332.032 18.4705 332.516 18.6025 332.9 18.8665C333.292 19.1305 333.6 19.4785 333.824 19.9105C334.056 20.3345 334.22 20.8025 334.316 21.3145C334.412 21.8265 334.46 22.3345 334.46 22.8385C334.46 23.3345 334.404 23.8425 334.292 24.3625C334.18 24.8825 334.004 25.3625 333.764 25.8025C333.524 26.2345 333.208 26.5865 332.816 26.8585C332.432 27.1225 331.96 27.2545 331.4 27.2545ZM331.472 26.7865C331.816 26.7865 332.1 26.6785 332.324 26.4625C332.548 26.2465 332.724 25.9585 332.852 25.5985C332.988 25.2385 333.084 24.8425 333.14 24.4105C333.196 23.9705 333.224 23.5305 333.224 23.0905C333.224 22.6025 333.196 22.1145 333.14 21.6265C333.084 21.1385 332.988 20.6905 332.852 20.2825C332.716 19.8745 332.532 19.5465 332.3 19.2985C332.068 19.0505 331.776 18.9265 331.424 18.9265C331.08 18.9265 330.788 19.0345 330.548 19.2505C330.316 19.4665 330.128 19.7545 329.984 20.1145C329.84 20.4745 329.736 20.8745 329.672 21.3145C329.608 21.7545 329.576 22.1985 329.576 22.6465C329.576 22.9825 329.592 23.3385 329.624 23.7145C329.656 24.0905 329.712 24.4625 329.792 24.8305C329.88 25.1905 329.996 25.5185 330.14 25.8145C330.284 26.1105 330.464 26.3465 330.68 26.5225C330.896 26.6985 331.16 26.7865 331.472 26.7865ZM338.853 27.2545C338.245 27.2545 337.741 27.1265 337.341 26.8705C336.941 26.6065 336.629 26.2625 336.405 25.8385C336.181 25.4065 336.021 24.9345 335.925 24.4225C335.837 23.9105 335.793 23.4025 335.793 22.8985C335.793 22.3945 335.849 21.8825 335.961 21.3625C336.081 20.8425 336.265 20.3665 336.513 19.9345C336.761 19.4945 337.081 19.1425 337.473 18.8785C337.865 18.6065 338.341 18.4705 338.901 18.4705C339.485 18.4705 339.969 18.6025 340.353 18.8665C340.745 19.1305 341.053 19.4785 341.277 19.9105C341.509 20.3345 341.673 20.8025 341.769 21.3145C341.865 21.8265 341.913 22.3345 341.913 22.8385C341.913 23.3345 341.857 23.8425 341.745 24.3625C341.633 24.8825 341.457 25.3625 341.217 25.8025C340.977 26.2345 340.661 26.5865 340.269 26.8585C339.885 27.1225 339.413 27.2545 338.853 27.2545ZM338.925 26.7865C339.269 26.7865 339.553 26.6785 339.777 26.4625C340.001 26.2465 340.177 25.9585 340.305 25.5985C340.441 25.2385 340.537 24.8425 340.593 24.4105C340.649 23.9705 340.677 23.5305 340.677 23.0905C340.677 22.6025 340.649 22.1145 340.593 21.6265C340.537 21.1385 340.441 20.6905 340.305 20.2825C340.169 19.8745 339.985 19.5465 339.753 19.2985C339.521 19.0505 339.229 18.9265 338.877 18.9265C338.533 18.9265 338.241 19.0345 338.001 19.2505C337.769 19.4665 337.581 19.7545 337.437 20.1145C337.293 20.4745 337.189 20.8745 337.125 21.3145C337.061 21.7545 337.029 22.1985 337.029 22.6465C337.029 22.9825 337.045 23.3385 337.077 23.7145C337.109 24.0905 337.165 24.4625 337.245 24.8305C337.333 25.1905 337.449 25.5185 337.593 25.8145C337.737 26.1105 337.917 26.3465 338.133 26.5225C338.349 26.6985 338.613 26.7865 338.925 26.7865ZM346.306 27.2545C345.698 27.2545 345.194 27.1265 344.794 26.8705C344.394 26.6065 344.082 26.2625 343.858 25.8385C343.634 25.4065 343.474 24.9345 343.378 24.4225C343.29 23.9105 343.246 23.4025 343.246 22.8985C343.246 22.3945 343.302 21.8825 343.414 21.3625C343.534 20.8425 343.718 20.3665 343.966 19.9345C344.214 19.4945 344.534 19.1425 344.926 18.8785C345.318 18.6065 345.794 18.4705 346.354 18.4705C346.938 18.4705 347.422 18.6025 347.806 18.8665C348.198 19.1305 348.506 19.4785 348.73 19.9105C348.962 20.3345 349.126 20.8025 349.222 21.3145C349.318 21.8265 349.366 22.3345 349.366 22.8385C349.366 23.3345 349.31 23.8425 349.198 24.3625C349.086 24.8825 348.91 25.3625 348.67 25.8025C348.43 26.2345 348.114 26.5865 347.722 26.8585C347.338 27.1225 346.866 27.2545 346.306 27.2545ZM346.378 26.7865C346.722 26.7865 347.006 26.6785 347.23 26.4625C347.454 26.2465 347.63 25.9585 347.758 25.5985C347.894 25.2385 347.99 24.8425 348.046 24.4105C348.102 23.9705 348.13 23.5305 348.13 23.0905C348.13 22.6025 348.102 22.1145 348.046 21.6265C347.99 21.1385 347.894 20.6905 347.758 20.2825C347.622 19.8745 347.438 19.5465 347.206 19.2985C346.974 19.0505 346.682 18.9265 346.33 18.9265C345.986 18.9265 345.694 19.0345 345.454 19.2505C345.222 19.4665 345.034 19.7545 344.89 20.1145C344.746 20.4745 344.642 20.8745 344.578 21.3145C344.514 21.7545 344.482 22.1985 344.482 22.6465C344.482 22.9825 344.498 23.3385 344.53 23.7145C344.562 24.0905 344.618 24.4625 344.698 24.8305C344.786 25.1905 344.902 25.5185 345.046 25.8145C345.19 26.1105 345.37 26.3465 345.586 26.5225C345.802 26.6985 346.066 26.7865 346.378 26.7865ZM353.84 26.6665C354.144 26.6505 354.352 26.5825 354.464 26.4625C354.576 26.3345 354.636 26.1625 354.644 25.9465C354.66 25.7225 354.668 25.4705 354.668 25.1905V20.0065C354.668 19.8465 354.672 19.6945 354.68 19.5505C354.688 19.3985 354.696 19.2625 354.704 19.1425C354.56 19.1505 354.416 19.1585 354.272 19.1665C354.128 19.1745 353.984 19.1825 353.84 19.1905V18.6625C354.264 18.6545 354.7 18.6505 355.148 18.6505C355.596 18.6425 356.052 18.6385 356.516 18.6385C357.14 18.6385 357.688 18.7265 358.16 18.9025C358.64 19.0785 359.012 19.3385 359.276 19.6825C359.548 20.0265 359.684 20.4545 359.684 20.9665C359.684 21.2785 359.628 21.6065 359.516 21.9505C359.412 22.2865 359.228 22.6065 358.964 22.9105C358.708 23.2065 358.348 23.4465 357.884 23.6305C357.428 23.8145 356.848 23.9065 356.144 23.9065C356.112 23.9065 356.052 23.9065 355.964 23.9065C355.876 23.9065 355.792 23.9025 355.712 23.8945V25.6345C355.712 25.8505 355.708 26.0385 355.7 26.1985C355.7 26.3505 355.692 26.4785 355.676 26.5825C355.804 26.5745 355.928 26.5665 356.048 26.5585C356.168 26.5505 356.288 26.5465 356.408 26.5465C356.536 26.5385 356.66 26.5305 356.78 26.5225V27.0625H353.84V26.6665ZM355.712 23.4025C355.864 23.4185 355.992 23.4305 356.096 23.4385C356.208 23.4385 356.34 23.4385 356.492 23.4385C356.852 23.4385 357.184 23.3505 357.488 23.1745C357.8 22.9905 358.048 22.7305 358.232 22.3945C358.424 22.0585 358.52 21.6585 358.52 21.1945C358.52 20.8585 358.468 20.5625 358.364 20.3065C358.26 20.0425 358.116 19.8225 357.932 19.6465C357.748 19.4705 357.532 19.3385 357.284 19.2505C357.036 19.1545 356.772 19.1065 356.492 19.1065C356.212 19.1065 356.016 19.1665 355.904 19.2865C355.8 19.4065 355.74 19.5745 355.724 19.7905C355.716 19.9985 355.712 20.2465 355.712 20.5345V23.4025ZM353.744 23.4025H355.544V23.9065H353.744V23.4025ZM353.744 24.6985H358.064V25.1905L353.744 25.2025V24.6985Z" fill="#3B434B"/>
<path d="M16.036 52.0625V51.6005C16.3627 51.5818 16.61 51.5072 16.778 51.3765C16.9553 51.2458 17.0767 51.0638 17.142 50.8305C17.2167 50.5972 17.254 50.3218 17.254 50.0045L17.212 43.3965L15.532 44.4745L15.252 44.0685L17.982 42.0385H18.458L18.472 50.5365C18.472 50.7138 18.4673 50.8865 18.458 51.0545C18.458 51.2225 18.4487 51.3718 18.43 51.5025C18.626 51.4932 18.822 51.4838 19.018 51.4745C19.214 51.4652 19.41 51.4558 19.606 51.4465V52.0625H16.036ZM24.1736 52.2865C23.4643 52.2865 22.8763 52.1372 22.4096 51.8385C21.9429 51.5305 21.5789 51.1292 21.3176 50.6345C21.0563 50.1305 20.8696 49.5798 20.7576 48.9825C20.6549 48.3852 20.6036 47.7925 20.6036 47.2045C20.6036 46.6165 20.6689 46.0192 20.7996 45.4125C20.9396 44.8058 21.1543 44.2505 21.4436 43.7465C21.7329 43.2332 22.1063 42.8225 22.5636 42.5145C23.0209 42.1972 23.5763 42.0385 24.2296 42.0385C24.9109 42.0385 25.4756 42.1925 25.9236 42.5005C26.3809 42.8085 26.7403 43.2145 27.0016 43.7185C27.2723 44.2132 27.4636 44.7592 27.5756 45.3565C27.6876 45.9538 27.7436 46.5465 27.7436 47.1345C27.7436 47.7132 27.6783 48.3058 27.5476 48.9125C27.4169 49.5192 27.2116 50.0792 26.9316 50.5925C26.6516 51.0965 26.2829 51.5072 25.8256 51.8245C25.3776 52.1325 24.8269 52.2865 24.1736 52.2865ZM24.2576 51.7405C24.6589 51.7405 24.9903 51.6145 25.2516 51.3625C25.5129 51.1105 25.7183 50.7745 25.8676 50.3545C26.0263 49.9345 26.1383 49.4725 26.2036 48.9685C26.2689 48.4552 26.3016 47.9418 26.3016 47.4285C26.3016 46.8592 26.2689 46.2898 26.2036 45.7205C26.1383 45.1512 26.0263 44.6285 25.8676 44.1525C25.7089 43.6765 25.4943 43.2938 25.2236 43.0045C24.9529 42.7152 24.6123 42.5705 24.2016 42.5705C23.8003 42.5705 23.4596 42.6965 23.1796 42.9485C22.9089 43.2005 22.6896 43.5365 22.5216 43.9565C22.3536 44.3765 22.2323 44.8432 22.1576 45.3565C22.0829 45.8698 22.0456 46.3878 22.0456 46.9105C22.0456 47.3025 22.0643 47.7178 22.1016 48.1565C22.1389 48.5952 22.2043 49.0292 22.2976 49.4585C22.4003 49.8785 22.5356 50.2612 22.7036 50.6065C22.8716 50.9518 23.0816 51.2272 23.3336 51.4325C23.5856 51.6378 23.8936 51.7405 24.2576 51.7405ZM35.6647 52.2865C35.0393 52.2865 34.4607 52.1465 33.9287 51.8665C33.406 51.5772 32.986 51.1665 32.6687 50.6345C32.3607 50.0932 32.2067 49.4445 32.2067 48.6885C32.2067 48.2032 32.2953 47.7318 32.4727 47.2745C32.65 46.8172 32.8973 46.4065 33.2147 46.0425C33.5413 45.6692 33.9287 45.3752 34.3767 45.1605C34.8247 44.9458 35.3193 44.8385 35.8607 44.8385C36.3833 44.8385 36.836 44.9178 37.2187 45.0765C37.6107 45.2352 37.914 45.4452 38.1287 45.7065C38.3433 45.9678 38.4507 46.2525 38.4507 46.5605C38.4507 46.7658 38.3947 46.9432 38.2827 47.0925C38.1707 47.2325 38.0073 47.3025 37.7927 47.3025C37.5593 47.3118 37.3913 47.2418 37.2887 47.0925C37.1953 46.9338 37.1487 46.7938 37.1487 46.6725C37.1487 46.5792 37.1627 46.4858 37.1907 46.3925C37.2187 46.2898 37.2747 46.1965 37.3587 46.1125C37.284 45.8885 37.1533 45.7252 36.9667 45.6225C36.78 45.5105 36.584 45.4405 36.3787 45.4125C36.1827 45.3752 36.0193 45.3565 35.8887 45.3565C35.254 45.3565 34.7173 45.6132 34.2787 46.1265C33.8493 46.6305 33.6347 47.3678 33.6347 48.3385C33.6347 48.9638 33.7327 49.5192 33.9287 50.0045C34.134 50.4898 34.4187 50.8725 34.7827 51.1525C35.1467 51.4232 35.5667 51.5585 36.0427 51.5585C36.4813 51.5585 36.9013 51.4418 37.3027 51.2085C37.704 50.9752 38.0167 50.6905 38.2407 50.3545L38.6047 50.6345C38.362 51.0265 38.068 51.3438 37.7227 51.5865C37.3867 51.8292 37.0367 52.0065 36.6727 52.1185C36.318 52.2305 35.982 52.2865 35.6647 52.2865ZM42.7395 52.2865C42.0955 52.2865 41.5121 52.1372 40.9895 51.8385C40.4761 51.5305 40.0701 51.1012 39.7715 50.5505C39.4728 49.9905 39.3235 49.3325 39.3235 48.5765C39.3235 47.9232 39.4681 47.3118 39.7575 46.7425C40.0561 46.1732 40.4715 45.7158 41.0035 45.3705C41.5355 45.0158 42.1515 44.8385 42.8515 44.8385C43.2435 44.8385 43.6075 44.9038 43.9435 45.0345C44.2888 45.1558 44.5921 45.3472 44.8535 45.6085C45.1148 45.8605 45.3201 46.1825 45.4695 46.5745C45.6188 46.9572 45.6935 47.4098 45.6935 47.9325L40.7655 48.0165C40.7655 48.7258 40.8401 49.3512 40.9895 49.8925C41.1481 50.4245 41.4001 50.8398 41.7455 51.1385C42.0908 51.4278 42.5341 51.5725 43.0755 51.5725C43.3648 51.5725 43.6588 51.5212 43.9575 51.4185C44.2655 51.3158 44.5501 51.1758 44.8115 50.9985C45.0728 50.8212 45.2828 50.6252 45.4415 50.4105L45.7775 50.6905C45.5255 51.0825 45.2221 51.3952 44.8675 51.6285C44.5128 51.8618 44.1488 52.0298 43.7755 52.1325C43.4021 52.2352 43.0568 52.2865 42.7395 52.2865ZM40.8075 47.4285H44.3775C44.3775 47.0925 44.3261 46.7705 44.2235 46.4625C44.1301 46.1452 43.9715 45.8885 43.7475 45.6925C43.5235 45.4872 43.2295 45.3845 42.8655 45.3845C42.3241 45.3845 41.8715 45.5478 41.5075 45.8745C41.1528 46.1918 40.9195 46.7098 40.8075 47.4285ZM50.888 52.0625C50.86 51.9038 50.8413 51.7638 50.832 51.6425C50.8227 51.5212 50.8087 51.3952 50.79 51.2645C50.4727 51.5818 50.1273 51.8338 49.754 52.0205C49.39 52.1978 49.0027 52.2865 48.592 52.2865C47.8827 52.2865 47.3553 52.1278 47.01 51.8105C46.6647 51.4838 46.492 51.0872 46.492 50.6205C46.492 50.1912 46.6227 49.8225 46.884 49.5145C47.1547 49.1972 47.5 48.9405 47.92 48.7445C48.3493 48.5392 48.8113 48.3898 49.306 48.2965C49.81 48.1938 50.2953 48.1472 50.762 48.1565V47.2885C50.762 46.9618 50.734 46.6538 50.678 46.3645C50.622 46.0752 50.5007 45.8372 50.314 45.6505C50.1273 45.4638 49.8287 45.3658 49.418 45.3565C49.1473 45.3472 48.8673 45.3985 48.578 45.5105C48.298 45.6225 48.0927 45.8138 47.962 46.0845C48.0367 46.1592 48.0833 46.2478 48.102 46.3505C48.13 46.4438 48.144 46.5325 48.144 46.6165C48.144 46.7285 48.0973 46.8592 48.004 47.0085C47.9107 47.1485 47.7473 47.2138 47.514 47.2045C47.318 47.2045 47.1687 47.1392 47.066 47.0085C46.9633 46.8685 46.912 46.7052 46.912 46.5185C46.912 46.2012 47.0287 45.9165 47.262 45.6645C47.5047 45.4125 47.836 45.2118 48.256 45.0625C48.676 44.9132 49.152 44.8385 49.684 44.8385C50.468 44.8385 51.0467 45.0485 51.42 45.4685C51.7933 45.8792 51.9753 46.5325 51.966 47.4285C51.966 47.7738 51.966 48.1238 51.966 48.4785C51.966 48.8238 51.9613 49.1738 51.952 49.5285C51.952 49.8738 51.952 50.2238 51.952 50.5785C51.952 50.7278 51.9473 50.8772 51.938 51.0265C51.9287 51.1758 51.9147 51.3438 51.896 51.5305C52.064 51.5212 52.2273 51.5118 52.386 51.5025C52.554 51.4932 52.722 51.4838 52.89 51.4745V52.0625H50.888ZM50.762 48.6325C50.4447 48.6418 50.1087 48.6838 49.754 48.7585C49.4087 48.8238 49.0867 48.9265 48.788 49.0665C48.4987 49.2065 48.2607 49.3932 48.074 49.6265C47.8967 49.8505 47.8127 50.1258 47.822 50.4525C47.8407 50.7978 47.9527 51.0592 48.158 51.2365C48.3727 51.4045 48.6247 51.4885 48.914 51.4885C49.2967 51.4885 49.628 51.4185 49.908 51.2785C50.1973 51.1292 50.482 50.9238 50.762 50.6625C50.7527 50.5598 50.748 50.4478 50.748 50.3265C50.748 50.2052 50.748 50.0792 50.748 49.9485C50.748 49.9018 50.748 49.7525 50.748 49.5005C50.7573 49.2485 50.762 48.9592 50.762 48.6325ZM56.4548 45.4825C56.1654 45.4825 55.9648 45.5572 55.8528 45.7065C55.7408 45.8465 55.6754 46.0472 55.6568 46.3085C55.6381 46.5605 55.6241 46.8545 55.6148 47.1905L55.6008 50.5785C55.6008 50.7652 55.5961 50.9332 55.5868 51.0825C55.5868 51.2225 55.5728 51.3718 55.5448 51.5305L56.4268 51.4885V52.0625H53.5708V51.6425C53.8601 51.6425 54.0608 51.5725 54.1728 51.4325C54.2848 51.2832 54.3501 51.0825 54.3688 50.8305C54.3968 50.5692 54.4108 50.2705 54.4108 49.9345V46.5465C54.4108 46.3598 54.4108 46.1965 54.4108 46.0565C54.4201 45.9072 54.4388 45.7532 54.4668 45.5945L53.5848 45.6365V45.0625H56.4548V45.4825ZM61.0468 45.4825C60.7668 45.4825 60.5661 45.5572 60.4448 45.7065C60.3328 45.8465 60.2674 46.0472 60.2488 46.3085C60.2394 46.5605 60.2301 46.8545 60.2208 47.1905L60.2068 50.5785C60.2068 50.7652 60.2021 50.9332 60.1928 51.0825C60.1928 51.2225 60.1788 51.3718 60.1508 51.5305L61.0328 51.4885V52.0625H58.1768V51.6425C58.4661 51.6425 58.6668 51.5725 58.7788 51.4325C58.8908 51.2832 58.9561 51.0825 58.9748 50.8305C58.9934 50.5692 59.0028 50.2705 59.0028 49.9345L59.0168 46.5465C59.0168 46.3598 59.0168 46.1965 59.0168 46.0565C59.0261 45.9072 59.0448 45.7532 59.0728 45.5945L58.1908 45.6365V45.0625H61.0468V45.4825ZM55.1108 48.1985H59.5068V48.7445L55.1108 48.8005V48.1985ZM65.4158 52.2865C64.7904 52.2865 64.2118 52.1465 63.6798 51.8665C63.1571 51.5772 62.7371 51.1665 62.4198 50.6345C62.1118 50.0932 61.9578 49.4445 61.9578 48.6885C61.9578 48.2032 62.0464 47.7318 62.2238 47.2745C62.4011 46.8172 62.6484 46.4065 62.9658 46.0425C63.2924 45.6692 63.6798 45.3752 64.1278 45.1605C64.5758 44.9458 65.0704 44.8385 65.6118 44.8385C66.1344 44.8385 66.5871 44.9178 66.9698 45.0765C67.3618 45.2352 67.6651 45.4452 67.8798 45.7065C68.0944 45.9678 68.2018 46.2525 68.2018 46.5605C68.2018 46.7658 68.1458 46.9432 68.0338 47.0925C67.9218 47.2325 67.7584 47.3025 67.5438 47.3025C67.3104 47.3118 67.1424 47.2418 67.0398 47.0925C66.9464 46.9338 66.8998 46.7938 66.8998 46.6725C66.8998 46.5792 66.9138 46.4858 66.9418 46.3925C66.9698 46.2898 67.0258 46.1965 67.1098 46.1125C67.0351 45.8885 66.9044 45.7252 66.7178 45.6225C66.5311 45.5105 66.3351 45.4405 66.1298 45.4125C65.9338 45.3752 65.7704 45.3565 65.6398 45.3565C65.0051 45.3565 64.4684 45.6132 64.0298 46.1265C63.6004 46.6305 63.3858 47.3678 63.3858 48.3385C63.3858 48.9638 63.4838 49.5192 63.6798 50.0045C63.8851 50.4898 64.1698 50.8725 64.5338 51.1525C64.8978 51.4232 65.3178 51.5585 65.7938 51.5585C66.2324 51.5585 66.6524 51.4418 67.0538 51.2085C67.4551 50.9752 67.7678 50.6905 67.9918 50.3545L68.3558 50.6345C68.1131 51.0265 67.8191 51.3438 67.4738 51.5865C67.1378 51.8292 66.7878 52.0065 66.4238 52.1185C66.0691 52.2305 65.7331 52.2865 65.4158 52.2865ZM72.5746 52.2865C71.9212 52.2865 71.3286 52.1372 70.7966 51.8385C70.2646 51.5305 69.8399 51.1105 69.5226 50.5785C69.2146 50.0372 69.0606 49.4212 69.0606 48.7305C69.0606 47.9932 69.2146 47.3305 69.5226 46.7425C69.8306 46.1545 70.2506 45.6925 70.7826 45.3565C71.3146 45.0112 71.9119 44.8385 72.5746 44.8385C73.2279 44.8385 73.8206 44.9972 74.3526 45.3145C74.8846 45.6225 75.3092 46.0425 75.6266 46.5745C75.9439 47.1065 76.1026 47.7132 76.1026 48.3945C76.1026 49.1132 75.9439 49.7712 75.6266 50.3685C75.3186 50.9565 74.8986 51.4232 74.3666 51.7685C73.8346 52.1138 73.2372 52.2865 72.5746 52.2865ZM72.6866 51.7265C73.1812 51.7265 73.5732 51.5865 73.8626 51.3065C74.1519 51.0265 74.3572 50.6625 74.4786 50.2145C74.6092 49.7665 74.6746 49.2952 74.6746 48.8005C74.6746 48.3805 74.6326 47.9698 74.5486 47.5685C74.4739 47.1578 74.3526 46.7892 74.1846 46.4625C74.0166 46.1265 73.7972 45.8605 73.5266 45.6645C73.2652 45.4685 72.9479 45.3705 72.5746 45.3705C72.0892 45.3705 71.6926 45.5105 71.3846 45.7905C71.0766 46.0705 70.8479 46.4345 70.6986 46.8825C70.5586 47.3305 70.4886 47.8112 70.4886 48.3245C70.4886 48.9032 70.5679 49.4538 70.7266 49.9765C70.8852 50.4898 71.1279 50.9098 71.4546 51.2365C71.7812 51.5632 72.1919 51.7265 72.6866 51.7265ZM77.012 52.0625V51.6425C77.3573 51.6332 77.5813 51.5258 77.684 51.3205C77.796 51.1058 77.852 50.8165 77.852 50.4525V46.4065C77.852 46.2385 77.8567 46.0892 77.866 45.9585C77.8753 45.8278 77.8893 45.7065 77.908 45.5945C77.7587 45.6038 77.6093 45.6132 77.46 45.6225C77.32 45.6225 77.1753 45.6272 77.026 45.6365V45.0625C77.278 45.0625 77.6 45.0625 77.992 45.0625C78.384 45.0532 78.8133 45.0485 79.28 45.0485C79.756 45.0485 80.2273 45.0485 80.694 45.0485C81.3473 45.0485 81.8793 45.1838 82.29 45.4545C82.71 45.7158 82.9153 46.1172 82.906 46.6585C82.8967 47.0318 82.766 47.3818 82.514 47.7085C82.2713 48.0258 81.884 48.2498 81.352 48.3805C81.9867 48.4085 82.4673 48.5812 82.794 48.8985C83.1207 49.2065 83.284 49.5985 83.284 50.0745C83.284 50.4945 83.172 50.8538 82.948 51.1525C82.724 51.4512 82.43 51.6798 82.066 51.8385C81.702 51.9878 81.31 52.0625 80.89 52.0625H77.012ZM79.028 51.4885C79.1307 51.4978 79.266 51.5025 79.434 51.5025C79.6113 51.5025 79.7747 51.5025 79.924 51.5025C80.0827 51.5025 80.1807 51.5025 80.218 51.5025C80.7407 51.5025 81.156 51.3952 81.464 51.1805C81.7813 50.9565 81.94 50.6018 81.94 50.1165C81.94 49.6218 81.7673 49.2718 81.422 49.0665C81.0767 48.8518 80.6753 48.7445 80.218 48.7445C80.022 48.7445 79.8167 48.7492 79.602 48.7585C79.3967 48.7585 79.2147 48.7632 79.056 48.7725V50.7045C79.056 50.8818 79.0513 51.0358 79.042 51.1665C79.042 51.2972 79.0373 51.4045 79.028 51.4885ZM79.056 48.2405L80.106 48.2265C80.4887 48.2172 80.792 48.1378 81.016 47.9885C81.24 47.8298 81.3987 47.6385 81.492 47.4145C81.5853 47.1812 81.6273 46.9525 81.618 46.7285C81.618 46.4018 81.548 46.1545 81.408 45.9865C81.268 45.8185 81.086 45.7065 80.862 45.6505C80.6473 45.5852 80.414 45.5525 80.162 45.5525C79.826 45.5525 79.5553 45.6132 79.35 45.7345C79.154 45.8558 79.056 46.1172 79.056 46.5185V48.2405Z" fill="#3B434B"/>
<path d="M315.4 53.2545C314.888 53.2545 314.452 53.1705 314.092 53.0025C313.732 52.8265 313.456 52.6105 313.264 52.3545C313.072 52.0985 312.976 51.8545 312.976 51.6225C312.976 51.4385 313.024 51.2865 313.12 51.1665C313.216 51.0385 313.352 50.9705 313.528 50.9625C313.672 50.9545 313.784 50.9825 313.864 51.0465C313.952 51.1025 314.012 51.1745 314.044 51.2625C314.076 51.3505 314.092 51.4305 314.092 51.5025C314.092 51.5825 314.08 51.6625 314.056 51.7425C314.032 51.8225 314 51.8985 313.96 51.9705C313.992 52.1625 314.092 52.3225 314.26 52.4505C314.428 52.5705 314.62 52.6585 314.836 52.7145C315.06 52.7705 315.264 52.7945 315.448 52.7865C315.84 52.7705 316.156 52.6665 316.396 52.4745C316.636 52.2745 316.812 52.0225 316.924 51.7185C317.044 51.4145 317.104 51.0945 317.104 50.7585C317.104 50.5345 317.084 50.2865 317.044 50.0145C317.012 49.7425 316.932 49.4865 316.804 49.2465C316.684 48.9985 316.5 48.7945 316.252 48.6345C316.004 48.4745 315.668 48.3945 315.244 48.3945C315.108 48.3945 314.94 48.4105 314.74 48.4425C314.548 48.4745 314.352 48.5225 314.152 48.5865C313.96 48.6505 313.796 48.7265 313.66 48.8145L313.324 48.5025L313.3 44.6625H316.408C316.864 44.6625 317.176 44.6025 317.344 44.4825C317.52 44.3545 317.608 44.1545 317.608 43.8825H317.932L317.86 45.4665L313.852 45.5505V48.1905C314.044 48.1105 314.292 48.0345 314.596 47.9625C314.908 47.8905 315.24 47.8545 315.592 47.8545C316.088 47.8545 316.508 47.9345 316.852 48.0945C317.204 48.2465 317.488 48.4545 317.704 48.7185C317.928 48.9745 318.092 49.2625 318.196 49.5825C318.3 49.8945 318.352 50.2145 318.352 50.5425C318.352 51.1345 318.212 51.6345 317.932 52.0425C317.66 52.4425 317.3 52.7465 316.852 52.9545C316.404 53.1545 315.92 53.2545 315.4 53.2545ZM322.203 53.2545C321.923 53.2545 321.631 53.2185 321.327 53.1465C321.023 53.0825 320.739 52.9745 320.475 52.8225C320.219 52.6705 320.007 52.4665 319.839 52.2105C319.679 51.9545 319.599 51.6385 319.599 51.2625C319.599 50.9025 319.687 50.5745 319.863 50.2785C320.039 49.9745 320.263 49.7025 320.535 49.4625C320.815 49.2145 321.111 48.9945 321.423 48.8025C320.815 48.4345 320.387 48.0705 320.139 47.7105C319.891 47.3425 319.767 46.9865 319.767 46.6425C319.767 46.2665 319.839 45.9425 319.983 45.6705C320.135 45.3905 320.335 45.1625 320.583 44.9865C320.831 44.8105 321.103 44.6825 321.399 44.6025C321.703 44.5145 322.007 44.4705 322.311 44.4705C322.719 44.4705 323.099 44.5465 323.451 44.6985C323.811 44.8425 324.099 45.0585 324.315 45.3465C324.539 45.6345 324.651 45.9865 324.651 46.4025C324.651 46.7145 324.575 47.0025 324.423 47.2665C324.279 47.5305 324.083 47.7665 323.835 47.9745C323.595 48.1745 323.327 48.3505 323.031 48.5025C323.391 48.7105 323.723 48.9505 324.027 49.2225C324.331 49.4865 324.575 49.7745 324.759 50.0865C324.943 50.3985 325.035 50.7265 325.035 51.0705C325.035 51.5745 324.903 51.9905 324.639 52.3185C324.375 52.6385 324.027 52.8745 323.595 53.0265C323.163 53.1785 322.699 53.2545 322.203 53.2545ZM322.227 52.7745C322.747 52.7825 323.147 52.6545 323.427 52.3905C323.715 52.1265 323.859 51.7625 323.859 51.2985C323.859 50.8825 323.711 50.4785 323.415 50.0865C323.127 49.6865 322.615 49.3305 321.879 49.0185C321.439 49.3385 321.119 49.6825 320.919 50.0505C320.727 50.4185 320.623 50.7505 320.607 51.0465C320.575 51.5585 320.707 51.9745 321.003 52.2945C321.307 52.6065 321.715 52.7665 322.227 52.7745ZM322.611 48.2625C322.963 48.0225 323.231 47.7505 323.415 47.4465C323.607 47.1425 323.707 46.8425 323.715 46.5465C323.731 46.0265 323.611 45.6305 323.355 45.3585C323.099 45.0865 322.759 44.9465 322.335 44.9385C322.023 44.9305 321.759 44.9985 321.543 45.1425C321.327 45.2785 321.163 45.4585 321.051 45.6825C320.939 45.8985 320.883 46.1305 320.883 46.3785C320.883 46.8185 321.047 47.2025 321.375 47.5305C321.711 47.8505 322.123 48.0945 322.611 48.2625ZM327.093 53.2545C326.909 53.2545 326.745 53.1825 326.601 53.0385C326.465 52.8865 326.397 52.7025 326.397 52.4865C326.397 52.2705 326.469 52.0865 326.613 51.9345C326.757 51.7825 326.921 51.7065 327.105 51.7065C327.305 51.7065 327.469 51.7825 327.597 51.9345C327.733 52.0865 327.801 52.2705 327.801 52.4865C327.801 52.7025 327.729 52.8865 327.585 53.0385C327.441 53.1825 327.277 53.2545 327.093 53.2545ZM331.63 53.2545C331.118 53.2545 330.682 53.1705 330.322 53.0025C329.962 52.8265 329.686 52.6105 329.494 52.3545C329.302 52.0985 329.206 51.8545 329.206 51.6225C329.206 51.4385 329.254 51.2865 329.35 51.1665C329.446 51.0385 329.582 50.9705 329.758 50.9625C329.902 50.9545 330.014 50.9825 330.094 51.0465C330.182 51.1025 330.242 51.1745 330.274 51.2625C330.306 51.3505 330.322 51.4305 330.322 51.5025C330.322 51.5825 330.31 51.6625 330.286 51.7425C330.262 51.8225 330.23 51.8985 330.19 51.9705C330.222 52.1625 330.322 52.3225 330.49 52.4505C330.658 52.5705 330.85 52.6585 331.066 52.7145C331.29 52.7705 331.494 52.7945 331.678 52.7865C332.07 52.7705 332.386 52.6665 332.626 52.4745C332.866 52.2745 333.042 52.0225 333.154 51.7185C333.274 51.4145 333.334 51.0945 333.334 50.7585C333.334 50.5345 333.314 50.2865 333.274 50.0145C333.242 49.7425 333.162 49.4865 333.034 49.2465C332.914 48.9985 332.73 48.7945 332.482 48.6345C332.234 48.4745 331.898 48.3945 331.474 48.3945C331.338 48.3945 331.17 48.4105 330.97 48.4425C330.778 48.4745 330.582 48.5225 330.382 48.5865C330.19 48.6505 330.026 48.7265 329.89 48.8145L329.554 48.5025L329.53 44.6625H332.638C333.094 44.6625 333.406 44.6025 333.574 44.4825C333.75 44.3545 333.838 44.1545 333.838 43.8825H334.162L334.09 45.4665L330.082 45.5505V48.1905C330.274 48.1105 330.522 48.0345 330.826 47.9625C331.138 47.8905 331.47 47.8545 331.822 47.8545C332.318 47.8545 332.738 47.9345 333.082 48.0945C333.434 48.2465 333.718 48.4545 333.934 48.7185C334.158 48.9745 334.322 49.2625 334.426 49.5825C334.53 49.8945 334.582 50.2145 334.582 50.5425C334.582 51.1345 334.442 51.6345 334.162 52.0425C333.89 52.4425 333.53 52.7465 333.082 52.9545C332.634 53.1545 332.15 53.2545 331.63 53.2545ZM338.853 53.2545C338.245 53.2545 337.741 53.1265 337.341 52.8705C336.941 52.6065 336.629 52.2625 336.405 51.8385C336.181 51.4065 336.021 50.9345 335.925 50.4225C335.837 49.9105 335.793 49.4025 335.793 48.8985C335.793 48.3945 335.849 47.8825 335.961 47.3625C336.081 46.8425 336.265 46.3665 336.513 45.9345C336.761 45.4945 337.081 45.1425 337.473 44.8785C337.865 44.6065 338.341 44.4705 338.901 44.4705C339.485 44.4705 339.969 44.6025 340.353 44.8665C340.745 45.1305 341.053 45.4785 341.277 45.9105C341.509 46.3345 341.673 46.8025 341.769 47.3145C341.865 47.8265 341.913 48.3345 341.913 48.8385C341.913 49.3345 341.857 49.8425 341.745 50.3625C341.633 50.8825 341.457 51.3625 341.217 51.8025C340.977 52.2345 340.661 52.5865 340.269 52.8585C339.885 53.1225 339.413 53.2545 338.853 53.2545ZM338.925 52.7865C339.269 52.7865 339.553 52.6785 339.777 52.4625C340.001 52.2465 340.177 51.9585 340.305 51.5985C340.441 51.2385 340.537 50.8425 340.593 50.4105C340.649 49.9705 340.677 49.5305 340.677 49.0905C340.677 48.6025 340.649 48.1145 340.593 47.6265C340.537 47.1385 340.441 46.6905 340.305 46.2825C340.169 45.8745 339.985 45.5465 339.753 45.2985C339.521 45.0505 339.229 44.9265 338.877 44.9265C338.533 44.9265 338.241 45.0345 338.001 45.2505C337.769 45.4665 337.581 45.7545 337.437 46.1145C337.293 46.4745 337.189 46.8745 337.125 47.3145C337.061 47.7545 337.029 48.1985 337.029 48.6465C337.029 48.9825 337.045 49.3385 337.077 49.7145C337.109 50.0905 337.165 50.4625 337.245 50.8305C337.333 51.1905 337.449 51.5185 337.593 51.8145C337.737 52.1105 337.917 52.3465 338.133 52.5225C338.349 52.6985 338.613 52.7865 338.925 52.7865ZM346.306 53.2545C345.698 53.2545 345.194 53.1265 344.794 52.8705C344.394 52.6065 344.082 52.2625 343.858 51.8385C343.634 51.4065 343.474 50.9345 343.378 50.4225C343.29 49.9105 343.246 49.4025 343.246 48.8985C343.246 48.3945 343.302 47.8825 343.414 47.3625C343.534 46.8425 343.718 46.3665 343.966 45.9345C344.214 45.4945 344.534 45.1425 344.926 44.8785C345.318 44.6065 345.794 44.4705 346.354 44.4705C346.938 44.4705 347.422 44.6025 347.806 44.8665C348.198 45.1305 348.506 45.4785 348.73 45.9105C348.962 46.3345 349.126 46.8025 349.222 47.3145C349.318 47.8265 349.366 48.3345 349.366 48.8385C349.366 49.3345 349.31 49.8425 349.198 50.3625C349.086 50.8825 348.91 51.3625 348.67 51.8025C348.43 52.2345 348.114 52.5865 347.722 52.8585C347.338 53.1225 346.866 53.2545 346.306 53.2545ZM346.378 52.7865C346.722 52.7865 347.006 52.6785 347.23 52.4625C347.454 52.2465 347.63 51.9585 347.758 51.5985C347.894 51.2385 347.99 50.8425 348.046 50.4105C348.102 49.9705 348.13 49.5305 348.13 49.0905C348.13 48.6025 348.102 48.1145 348.046 47.6265C347.99 47.1385 347.894 46.6905 347.758 46.2825C347.622 45.8745 347.438 45.5465 347.206 45.2985C346.974 45.0505 346.682 44.9265 346.33 44.9265C345.986 44.9265 345.694 45.0345 345.454 45.2505C345.222 45.4665 345.034 45.7545 344.89 46.1145C344.746 46.4745 344.642 46.8745 344.578 47.3145C344.514 47.7545 344.482 48.1985 344.482 48.6465C344.482 48.9825 344.498 49.3385 344.53 49.7145C344.562 50.0905 344.618 50.4625 344.698 50.8305C344.786 51.1905 344.902 51.5185 345.046 51.8145C345.19 52.1105 345.37 52.3465 345.586 52.5225C345.802 52.6985 346.066 52.7865 346.378 52.7865ZM353.84 52.6665C354.144 52.6505 354.352 52.5825 354.464 52.4625C354.576 52.3345 354.636 52.1625 354.644 51.9465C354.66 51.7225 354.668 51.4705 354.668 51.1905V46.0065C354.668 45.8465 354.672 45.6945 354.68 45.5505C354.688 45.3985 354.696 45.2625 354.704 45.1425C354.56 45.1505 354.416 45.1585 354.272 45.1665C354.128 45.1745 353.984 45.1825 353.84 45.1905V44.6625C354.264 44.6545 354.7 44.6505 355.148 44.6505C355.596 44.6425 356.052 44.6385 356.516 44.6385C357.14 44.6385 357.688 44.7265 358.16 44.9025C358.64 45.0785 359.012 45.3385 359.276 45.6825C359.548 46.0265 359.684 46.4545 359.684 46.9665C359.684 47.2785 359.628 47.6065 359.516 47.9505C359.412 48.2865 359.228 48.6065 358.964 48.9105C358.708 49.2065 358.348 49.4465 357.884 49.6305C357.428 49.8145 356.848 49.9065 356.144 49.9065C356.112 49.9065 356.052 49.9065 355.964 49.9065C355.876 49.9065 355.792 49.9025 355.712 49.8945V51.6345C355.712 51.8505 355.708 52.0385 355.7 52.1985C355.7 52.3505 355.692 52.4785 355.676 52.5825C355.804 52.5745 355.928 52.5665 356.048 52.5585C356.168 52.5505 356.288 52.5465 356.408 52.5465C356.536 52.5385 356.66 52.5305 356.78 52.5225V53.0625H353.84V52.6665ZM355.712 49.4025C355.864 49.4185 355.992 49.4305 356.096 49.4385C356.208 49.4385 356.34 49.4385 356.492 49.4385C356.852 49.4385 357.184 49.3505 357.488 49.1745C357.8 48.9905 358.048 48.7305 358.232 48.3945C358.424 48.0585 358.52 47.6585 358.52 47.1945C358.52 46.8585 358.468 46.5625 358.364 46.3065C358.26 46.0425 358.116 45.8225 357.932 45.6465C357.748 45.4705 357.532 45.3385 357.284 45.2505C357.036 45.1545 356.772 45.1065 356.492 45.1065C356.212 45.1065 356.016 45.1665 355.904 45.2865C355.8 45.4065 355.74 45.5745 355.724 45.7905C355.716 45.9985 355.712 46.2465 355.712 46.5345V49.4025ZM353.744 49.4025H355.544V49.9065H353.744V49.4025ZM353.744 50.6985H358.064V51.1905L353.744 51.2025V50.6985Z" fill="#3B434B"/>
<path d="M16.036 78.0625V77.6005C16.3627 77.5818 16.61 77.5072 16.778 77.3765C16.9553 77.2458 17.0767 77.0638 17.142 76.8305C17.2167 76.5972 17.254 76.3218 17.254 76.0045L17.212 69.3965L15.532 70.4745L15.252 70.0685L17.982 68.0385H18.458L18.472 76.5365C18.472 76.7138 18.4673 76.8865 18.458 77.0545C18.458 77.2225 18.4487 77.3718 18.43 77.5025C18.626 77.4932 18.822 77.4838 19.018 77.4745C19.214 77.4652 19.41 77.4558 19.606 77.4465V78.0625H16.036ZM23.3756 78.2865C22.7783 78.2865 22.2696 78.1885 21.8496 77.9925C21.4296 77.7872 21.1076 77.5352 20.8836 77.2365C20.6596 76.9378 20.5476 76.6532 20.5476 76.3825C20.5476 76.1678 20.6036 75.9905 20.7156 75.8505C20.8276 75.7012 20.9863 75.6218 21.1916 75.6125C21.3596 75.6032 21.4903 75.6358 21.5836 75.7105C21.6863 75.7758 21.7563 75.8598 21.7936 75.9625C21.8309 76.0652 21.8496 76.1585 21.8496 76.2425C21.8496 76.3358 21.8356 76.4292 21.8076 76.5225C21.7796 76.6158 21.7423 76.7045 21.6956 76.7885C21.7329 77.0125 21.8496 77.1992 22.0456 77.3485C22.2416 77.4885 22.4656 77.5912 22.7176 77.6565C22.9789 77.7218 23.2169 77.7498 23.4316 77.7405C23.8889 77.7218 24.2576 77.6005 24.5376 77.3765C24.8176 77.1432 25.0229 76.8492 25.1536 76.4945C25.2936 76.1398 25.3636 75.7665 25.3636 75.3745C25.3636 75.1132 25.3403 74.8238 25.2936 74.5065C25.2563 74.1892 25.1629 73.8905 25.0136 73.6105C24.8736 73.3212 24.6589 73.0832 24.3696 72.8965C24.0803 72.7098 23.6883 72.6165 23.1936 72.6165C23.0349 72.6165 22.8389 72.6352 22.6056 72.6725C22.3816 72.7098 22.1529 72.7658 21.9196 72.8405C21.6956 72.9152 21.5043 73.0038 21.3456 73.1065L20.9536 72.7425L20.9256 68.2625H24.5516C25.0836 68.2625 25.4476 68.1925 25.6436 68.0525C25.8489 67.9032 25.9516 67.6698 25.9516 67.3525H26.3296L26.2456 69.2005L21.5696 69.2985V72.3785C21.7936 72.2852 22.0829 72.1965 22.4376 72.1125C22.8016 72.0285 23.1889 71.9865 23.5996 71.9865C24.1783 71.9865 24.6683 72.0798 25.0696 72.2665C25.4803 72.4438 25.8116 72.6865 26.0636 72.9945C26.3249 73.2932 26.5163 73.6292 26.6376 74.0025C26.7589 74.3665 26.8196 74.7398 26.8196 75.1225C26.8196 75.8132 26.6563 76.3965 26.3296 76.8725C26.0123 77.3392 25.5923 77.6938 25.0696 77.9365C24.5469 78.1698 23.9823 78.2865 23.3756 78.2865ZM34.5983 78.2865C33.9729 78.2865 33.3943 78.1465 32.8622 77.8665C32.3396 77.5772 31.9196 77.1665 31.6022 76.6345C31.2942 76.0932 31.1402 75.4445 31.1402 74.6885C31.1402 74.2032 31.2289 73.7318 31.4062 73.2745C31.5836 72.8172 31.8309 72.4065 32.1482 72.0425C32.4749 71.6692 32.8622 71.3752 33.3102 71.1605C33.7583 70.9458 34.2529 70.8385 34.7943 70.8385C35.3169 70.8385 35.7696 70.9178 36.1523 71.0765C36.5443 71.2352 36.8476 71.4452 37.0623 71.7065C37.2769 71.9678 37.3843 72.2525 37.3843 72.5605C37.3843 72.7658 37.3283 72.9432 37.2163 73.0925C37.1043 73.2325 36.9409 73.3025 36.7263 73.3025C36.4929 73.3118 36.3249 73.2418 36.2223 73.0925C36.1289 72.9338 36.0823 72.7938 36.0823 72.6725C36.0823 72.5792 36.0963 72.4858 36.1243 72.3925C36.1522 72.2898 36.2082 72.1965 36.2922 72.1125C36.2176 71.8885 36.0869 71.7252 35.9003 71.6225C35.7136 71.5105 35.5176 71.4405 35.3123 71.4125C35.1163 71.3752 34.9529 71.3565 34.8223 71.3565C34.1876 71.3565 33.6509 71.6132 33.2122 72.1265C32.7829 72.6305 32.5682 73.3678 32.5682 74.3385C32.5682 74.9638 32.6662 75.5192 32.8622 76.0045C33.0676 76.4898 33.3522 76.8725 33.7162 77.1525C34.0802 77.4232 34.5002 77.5585 34.9763 77.5585C35.4149 77.5585 35.8349 77.4418 36.2363 77.2085C36.6376 76.9752 36.9503 76.6905 37.1743 76.3545L37.5383 76.6345C37.2956 77.0265 37.0016 77.3438 36.6563 77.5865C36.3203 77.8292 35.9703 78.0065 35.6063 78.1185C35.2516 78.2305 34.9156 78.2865 34.5983 78.2865ZM41.6731 78.2865C41.0291 78.2865 40.4457 78.1372 39.9231 77.8385C39.4097 77.5305 39.0037 77.1012 38.7051 76.5505C38.4064 75.9905 38.2571 75.3325 38.2571 74.5765C38.2571 73.9232 38.4017 73.3118 38.6911 72.7425C38.9897 72.1732 39.4051 71.7158 39.9371 71.3705C40.4691 71.0158 41.0851 70.8385 41.7851 70.8385C42.1771 70.8385 42.5411 70.9038 42.8771 71.0345C43.2224 71.1558 43.5257 71.3472 43.7871 71.6085C44.0484 71.8605 44.2537 72.1825 44.4031 72.5745C44.5524 72.9572 44.6271 73.4098 44.6271 73.9325L39.6991 74.0165C39.6991 74.7258 39.7737 75.3512 39.9231 75.8925C40.0817 76.4245 40.3337 76.8398 40.6791 77.1385C41.0244 77.4278 41.4677 77.5725 42.0091 77.5725C42.2984 77.5725 42.5924 77.5212 42.8911 77.4185C43.1991 77.3158 43.4837 77.1758 43.7451 76.9985C44.0064 76.8212 44.2164 76.6252 44.3751 76.4105L44.7111 76.6905C44.4591 77.0825 44.1557 77.3952 43.8011 77.6285C43.4464 77.8618 43.0824 78.0298 42.7091 78.1325C42.3357 78.2352 41.9904 78.2865 41.6731 78.2865ZM39.7411 73.4285H43.3111C43.3111 73.0925 43.2597 72.7705 43.1571 72.4625C43.0637 72.1452 42.9051 71.8885 42.6811 71.6925C42.4571 71.4872 42.1631 71.3845 41.7991 71.3845C41.2577 71.3845 40.8051 71.5478 40.4411 71.8745C40.0864 72.1918 39.8531 72.7098 39.7411 73.4285ZM49.8216 78.0625C49.7936 77.9038 49.7749 77.7638 49.7656 77.6425C49.7563 77.5212 49.7423 77.3952 49.7236 77.2645C49.4063 77.5818 49.0609 77.8338 48.6876 78.0205C48.3236 78.1978 47.9363 78.2865 47.5256 78.2865C46.8163 78.2865 46.2889 78.1278 45.9436 77.8105C45.5983 77.4838 45.4256 77.0872 45.4256 76.6205C45.4256 76.1912 45.5563 75.8225 45.8176 75.5145C46.0883 75.1972 46.4336 74.9405 46.8536 74.7445C47.2829 74.5392 47.7449 74.3898 48.2396 74.2965C48.7436 74.1938 49.2289 74.1472 49.6956 74.1565V73.2885C49.6956 72.9618 49.6676 72.6538 49.6116 72.3645C49.5556 72.0752 49.4343 71.8372 49.2476 71.6505C49.0609 71.4638 48.7623 71.3658 48.3516 71.3565C48.0809 71.3472 47.8009 71.3985 47.5116 71.5105C47.2316 71.6225 47.0263 71.8138 46.8956 72.0845C46.9703 72.1592 47.0169 72.2478 47.0356 72.3505C47.0636 72.4438 47.0776 72.5325 47.0776 72.6165C47.0776 72.7285 47.0309 72.8592 46.9376 73.0085C46.8443 73.1485 46.6809 73.2138 46.4476 73.2045C46.2516 73.2045 46.1023 73.1392 45.9996 73.0085C45.8969 72.8685 45.8456 72.7052 45.8456 72.5185C45.8456 72.2012 45.9623 71.9165 46.1956 71.6645C46.4383 71.4125 46.7696 71.2118 47.1896 71.0625C47.6096 70.9132 48.0856 70.8385 48.6176 70.8385C49.4016 70.8385 49.9803 71.0485 50.3536 71.4685C50.7269 71.8792 50.9089 72.5325 50.8996 73.4285C50.8996 73.7738 50.8996 74.1238 50.8996 74.4785C50.8996 74.8238 50.8949 75.1738 50.8856 75.5285C50.8856 75.8738 50.8856 76.2238 50.8856 76.5785C50.8856 76.7278 50.8809 76.8772 50.8716 77.0265C50.8623 77.1758 50.8483 77.3438 50.8296 77.5305C50.9976 77.5212 51.1609 77.5118 51.3196 77.5025C51.4876 77.4932 51.6556 77.4838 51.8236 77.4745V78.0625H49.8216ZM49.6956 74.6325C49.3783 74.6418 49.0423 74.6838 48.6876 74.7585C48.3423 74.8238 48.0203 74.9265 47.7216 75.0665C47.4323 75.2065 47.1943 75.3932 47.0076 75.6265C46.8303 75.8505 46.7463 76.1258 46.7556 76.4525C46.7743 76.7978 46.8863 77.0592 47.0916 77.2365C47.3063 77.4045 47.5583 77.4885 47.8476 77.4885C48.2303 77.4885 48.5616 77.4185 48.8416 77.2785C49.1309 77.1292 49.4156 76.9238 49.6956 76.6625C49.6863 76.5598 49.6816 76.4478 49.6816 76.3265C49.6816 76.2052 49.6816 76.0792 49.6816 75.9485C49.6816 75.9018 49.6816 75.7525 49.6816 75.5005C49.6909 75.2485 49.6956 74.9592 49.6956 74.6325ZM55.3884 71.4825C55.099 71.4825 54.8984 71.5572 54.7864 71.7065C54.6744 71.8465 54.609 72.0472 54.5904 72.3085C54.5717 72.5605 54.5577 72.8545 54.5484 73.1905L54.5344 76.5785C54.5344 76.7652 54.5297 76.9332 54.5204 77.0825C54.5204 77.2225 54.5064 77.3718 54.4784 77.5305L55.3604 77.4885V78.0625H52.5044V77.6425C52.7937 77.6425 52.9944 77.5725 53.1064 77.4325C53.2184 77.2832 53.2837 77.0825 53.3024 76.8305C53.3304 76.5692 53.3444 76.2705 53.3444 75.9345V72.5465C53.3444 72.3598 53.3444 72.1965 53.3444 72.0565C53.3537 71.9072 53.3724 71.7532 53.4004 71.5945L52.5184 71.6365V71.0625H55.3884V71.4825ZM59.9804 71.4825C59.7004 71.4825 59.4997 71.5572 59.3784 71.7065C59.2664 71.8465 59.201 72.0472 59.1824 72.3085C59.173 72.5605 59.1637 72.8545 59.1544 73.1905L59.1404 76.5785C59.1404 76.7652 59.1357 76.9332 59.1264 77.0825C59.1264 77.2225 59.1124 77.3718 59.0844 77.5305L59.9664 77.4885V78.0625H57.1104V77.6425C57.3997 77.6425 57.6004 77.5725 57.7124 77.4325C57.8244 77.2832 57.8897 77.0825 57.9084 76.8305C57.927 76.5692 57.9364 76.2705 57.9364 75.9345L57.9504 72.5465C57.9504 72.3598 57.9504 72.1965 57.9504 72.0565C57.9597 71.9072 57.9784 71.7532 58.0064 71.5945L57.1244 71.6365V71.0625H59.9804V71.4825ZM54.0444 74.1985H58.4404V74.7445L54.0444 74.8005V74.1985ZM64.3493 78.2865C63.724 78.2865 63.1453 78.1465 62.6133 77.8665C62.0907 77.5772 61.6707 77.1665 61.3533 76.6345C61.0453 76.0932 60.8913 75.4445 60.8913 74.6885C60.8913 74.2032 60.98 73.7318 61.1573 73.2745C61.3347 72.8172 61.582 72.4065 61.8993 72.0425C62.226 71.6692 62.6133 71.3752 63.0613 71.1605C63.5093 70.9458 64.004 70.8385 64.5453 70.8385C65.068 70.8385 65.5207 70.9178 65.9033 71.0765C66.2953 71.2352 66.5987 71.4452 66.8133 71.7065C67.028 71.9678 67.1353 72.2525 67.1353 72.5605C67.1353 72.7658 67.0793 72.9432 66.9673 73.0925C66.8553 73.2325 66.692 73.3025 66.4773 73.3025C66.244 73.3118 66.076 73.2418 65.9733 73.0925C65.88 72.9338 65.8333 72.7938 65.8333 72.6725C65.8333 72.5792 65.8473 72.4858 65.8753 72.3925C65.9033 72.2898 65.9593 72.1965 66.0433 72.1125C65.9687 71.8885 65.838 71.7252 65.6513 71.6225C65.4647 71.5105 65.2687 71.4405 65.0633 71.4125C64.8673 71.3752 64.704 71.3565 64.5733 71.3565C63.9387 71.3565 63.402 71.6132 62.9633 72.1265C62.534 72.6305 62.3193 73.3678 62.3193 74.3385C62.3193 74.9638 62.4173 75.5192 62.6133 76.0045C62.8187 76.4898 63.1033 76.8725 63.4673 77.1525C63.8313 77.4232 64.2513 77.5585 64.7273 77.5585C65.166 77.5585 65.586 77.4418 65.9873 77.2085C66.3887 76.9752 66.7013 76.6905 66.9253 76.3545L67.2893 76.6345C67.0467 77.0265 66.7527 77.3438 66.4073 77.5865C66.0713 77.8292 65.7213 78.0065 65.3573 78.1185C65.0027 78.2305 64.6667 78.2865 64.3493 78.2865ZM71.5082 78.2865C70.8548 78.2865 70.2622 78.1372 69.7302 77.8385C69.1982 77.5305 68.7735 77.1105 68.4562 76.5785C68.1482 76.0372 67.9942 75.4212 67.9942 74.7305C67.9942 73.9932 68.1482 73.3305 68.4562 72.7425C68.7642 72.1545 69.1842 71.6925 69.7162 71.3565C70.2482 71.0112 70.8455 70.8385 71.5082 70.8385C72.1615 70.8385 72.7542 70.9972 73.2862 71.3145C73.8182 71.6225 74.2428 72.0425 74.5602 72.5745C74.8775 73.1065 75.0362 73.7132 75.0362 74.3945C75.0362 75.1132 74.8775 75.7712 74.5602 76.3685C74.2522 76.9565 73.8322 77.4232 73.3002 77.7685C72.7682 78.1138 72.1708 78.2865 71.5082 78.2865ZM71.6202 77.7265C72.1148 77.7265 72.5068 77.5865 72.7962 77.3065C73.0855 77.0265 73.2908 76.6625 73.4122 76.2145C73.5428 75.7665 73.6082 75.2952 73.6082 74.8005C73.6082 74.3805 73.5662 73.9698 73.4822 73.5685C73.4075 73.1578 73.2862 72.7892 73.1182 72.4625C72.9502 72.1265 72.7308 71.8605 72.4602 71.6645C72.1988 71.4685 71.8815 71.3705 71.5082 71.3705C71.0228 71.3705 70.6262 71.5105 70.3182 71.7905C70.0102 72.0705 69.7815 72.4345 69.6322 72.8825C69.4922 73.3305 69.4222 73.8112 69.4222 74.3245C69.4222 74.9032 69.5015 75.4538 69.6602 75.9765C69.8188 76.4898 70.0615 76.9098 70.3882 77.2365C70.7148 77.5632 71.1255 77.7265 71.6202 77.7265ZM75.9456 78.0625V77.6425C76.2909 77.6332 76.5149 77.5258 76.6176 77.3205C76.7296 77.1058 76.7856 76.8165 76.7856 76.4525V72.4065C76.7856 72.2385 76.7903 72.0892 76.7996 71.9585C76.8089 71.8278 76.8229 71.7065 76.8416 71.5945C76.6923 71.6038 76.5429 71.6132 76.3936 71.6225C76.2536 71.6225 76.1089 71.6272 75.9596 71.6365V71.0625C76.2116 71.0625 76.5336 71.0625 76.9256 71.0625C77.3176 71.0532 77.7469 71.0485 78.2136 71.0485C78.6896 71.0485 79.1609 71.0485 79.6276 71.0485C80.2809 71.0485 80.8129 71.1838 81.2236 71.4545C81.6436 71.7158 81.8489 72.1172 81.8396 72.6585C81.8303 73.0318 81.6996 73.3818 81.4476 73.7085C81.2049 74.0258 80.8176 74.2498 80.2856 74.3805C80.9203 74.4085 81.4009 74.5812 81.7276 74.8985C82.0543 75.2065 82.2176 75.5985 82.2176 76.0745C82.2176 76.4945 82.1056 76.8538 81.8816 77.1525C81.6576 77.4512 81.3636 77.6798 80.9996 77.8385C80.6356 77.9878 80.2436 78.0625 79.8236 78.0625H75.9456ZM77.9616 77.4885C78.0643 77.4978 78.1996 77.5025 78.3676 77.5025C78.5449 77.5025 78.7083 77.5025 78.8576 77.5025C79.0163 77.5025 79.1143 77.5025 79.1516 77.5025C79.6743 77.5025 80.0896 77.3952 80.3976 77.1805C80.7149 76.9565 80.8736 76.6018 80.8736 76.1165C80.8736 75.6218 80.7009 75.2718 80.3556 75.0665C80.0103 74.8518 79.6089 74.7445 79.1516 74.7445C78.9556 74.7445 78.7503 74.7492 78.5356 74.7585C78.3303 74.7585 78.1483 74.7632 77.9896 74.7725V76.7045C77.9896 76.8818 77.9849 77.0358 77.9756 77.1665C77.9756 77.2972 77.9709 77.4045 77.9616 77.4885ZM77.9896 74.2405L79.0396 74.2265C79.4223 74.2172 79.7256 74.1378 79.9496 73.9885C80.1736 73.8298 80.3323 73.6385 80.4256 73.4145C80.5189 73.1812 80.5609 72.9525 80.5516 72.7285C80.5516 72.4018 80.4816 72.1545 80.3416 71.9865C80.2016 71.8185 80.0196 71.7065 79.7956 71.6505C79.5809 71.5852 79.3476 71.5525 79.0956 71.5525C78.7596 71.5525 78.4889 71.6132 78.2836 71.7345C78.0876 71.8558 77.9896 72.1172 77.9896 72.5185V74.2405Z" fill="#3B434B"/>
<path d="M314.785 79.2545C314.505 79.2545 314.213 79.2185 313.909 79.1465C313.605 79.0825 313.321 78.9745 313.057 78.8225C312.801 78.6705 312.589 78.4665 312.421 78.2105C312.261 77.9545 312.181 77.6385 312.181 77.2625C312.181 76.9025 312.269 76.5745 312.445 76.2785C312.621 75.9745 312.845 75.7025 313.117 75.4625C313.397 75.2145 313.693 74.9945 314.005 74.8025C313.397 74.4345 312.969 74.0705 312.721 73.7105C312.473 73.3425 312.349 72.9865 312.349 72.6425C312.349 72.2665 312.421 71.9425 312.565 71.6705C312.717 71.3905 312.917 71.1625 313.165 70.9865C313.413 70.8105 313.685 70.6825 313.981 70.6025C314.285 70.5145 314.589 70.4705 314.893 70.4705C315.301 70.4705 315.681 70.5465 316.033 70.6985C316.393 70.8425 316.681 71.0585 316.897 71.3465C317.121 71.6345 317.233 71.9865 317.233 72.4025C317.233 72.7145 317.157 73.0025 317.005 73.2665C316.861 73.5305 316.665 73.7665 316.417 73.9745C316.177 74.1745 315.909 74.3505 315.613 74.5025C315.973 74.7105 316.305 74.9505 316.609 75.2225C316.913 75.4865 317.157 75.7745 317.341 76.0865C317.525 76.3985 317.617 76.7265 317.617 77.0705C317.617 77.5745 317.485 77.9905 317.221 78.3185C316.957 78.6385 316.609 78.8745 316.177 79.0265C315.745 79.1785 315.281 79.2545 314.785 79.2545ZM314.809 78.7745C315.329 78.7825 315.729 78.6545 316.009 78.3905C316.297 78.1265 316.441 77.7625 316.441 77.2985C316.441 76.8825 316.293 76.4785 315.997 76.0865C315.709 75.6865 315.197 75.3305 314.461 75.0185C314.021 75.3385 313.701 75.6825 313.501 76.0505C313.309 76.4185 313.205 76.7505 313.189 77.0465C313.157 77.5585 313.289 77.9745 313.585 78.2945C313.889 78.6065 314.297 78.7665 314.809 78.7745ZM315.193 74.2625C315.545 74.0225 315.813 73.7505 315.997 73.4465C316.189 73.1425 316.289 72.8425 316.297 72.5465C316.313 72.0265 316.193 71.6305 315.937 71.3585C315.681 71.0865 315.341 70.9465 314.917 70.9385C314.605 70.9305 314.341 70.9985 314.125 71.1425C313.909 71.2785 313.745 71.4585 313.633 71.6825C313.521 71.8985 313.465 72.1305 313.465 72.3785C313.465 72.8185 313.629 73.2025 313.957 73.5305C314.293 73.8505 314.705 74.0945 315.193 74.2625ZM321.271 79.2545C320.695 79.2545 320.219 79.1705 319.843 79.0025C319.467 78.8265 319.187 78.6105 319.003 78.3545C318.827 78.0985 318.739 77.8545 318.739 77.6225C318.739 77.4385 318.787 77.2865 318.883 77.1665C318.979 77.0385 319.115 76.9705 319.291 76.9625C319.435 76.9545 319.547 76.9825 319.627 77.0465C319.715 77.1025 319.775 77.1745 319.807 77.2625C319.839 77.3505 319.855 77.4305 319.855 77.5025C319.855 77.5825 319.843 77.6625 319.819 77.7425C319.795 77.8225 319.763 77.9025 319.723 77.9825C319.803 78.2545 319.983 78.4505 320.263 78.5705C320.551 78.6905 320.859 78.7505 321.187 78.7505C321.755 78.7505 322.207 78.5945 322.543 78.2825C322.887 77.9705 323.059 77.5185 323.059 76.9265C323.059 76.5745 323.003 76.2425 322.891 75.9305C322.779 75.6105 322.571 75.3505 322.267 75.1505C321.963 74.9505 321.519 74.8585 320.935 74.8745C320.871 74.8745 320.803 74.8785 320.731 74.8865C320.659 74.8865 320.579 74.8905 320.491 74.8985V74.3585C320.579 74.3585 320.663 74.3585 320.743 74.3585C320.823 74.3585 320.903 74.3585 320.983 74.3585C321.407 74.3585 321.739 74.2625 321.979 74.0705C322.219 73.8785 322.391 73.6505 322.495 73.3865C322.599 73.1225 322.651 72.8785 322.651 72.6545C322.651 72.3265 322.607 72.0345 322.519 71.7785C322.439 71.5145 322.295 71.3105 322.087 71.1665C321.879 71.0145 321.591 70.9385 321.223 70.9385C320.863 70.9385 320.555 71.0345 320.299 71.2265C320.043 71.4105 319.883 71.6025 319.819 71.8025C319.891 71.8825 319.939 71.9625 319.963 72.0425C319.995 72.1225 320.011 72.2065 320.011 72.2945C320.011 72.3585 319.991 72.4345 319.951 72.5225C319.919 72.6025 319.863 72.6705 319.783 72.7265C319.703 72.7825 319.595 72.8105 319.459 72.8105C319.291 72.8105 319.163 72.7505 319.075 72.6305C318.987 72.5105 318.943 72.3665 318.943 72.1985C318.943 71.9745 319.031 71.7305 319.207 71.4665C319.383 71.1945 319.651 70.9625 320.011 70.7705C320.379 70.5705 320.839 70.4705 321.391 70.4705C321.823 70.4705 322.223 70.5385 322.591 70.6745C322.959 70.8105 323.255 71.0345 323.479 71.3465C323.703 71.6505 323.815 72.0545 323.815 72.5585C323.815 72.8065 323.751 73.0585 323.623 73.3145C323.503 73.5625 323.299 73.7945 323.011 74.0105C322.731 74.2265 322.343 74.4105 321.847 74.5625C322.607 74.6425 323.203 74.8865 323.635 75.2945C324.075 75.7025 324.295 76.2185 324.295 76.8425C324.295 77.3865 324.151 77.8385 323.863 78.1985C323.583 78.5505 323.211 78.8145 322.747 78.9905C322.291 79.1665 321.799 79.2545 321.271 79.2545ZM326.355 79.2545C326.171 79.2545 326.007 79.1825 325.863 79.0385C325.727 78.8865 325.659 78.7025 325.659 78.4865C325.659 78.2705 325.731 78.0865 325.875 77.9345C326.019 77.7825 326.183 77.7065 326.367 77.7065C326.567 77.7065 326.731 77.7825 326.859 77.9345C326.995 78.0865 327.063 78.2705 327.063 78.4865C327.063 78.7025 326.991 78.8865 326.847 79.0385C326.703 79.1825 326.539 79.2545 326.355 79.2545ZM331.4 79.2545C330.792 79.2545 330.288 79.1265 329.888 78.8705C329.488 78.6065 329.176 78.2625 328.952 77.8385C328.728 77.4065 328.568 76.9345 328.472 76.4225C328.384 75.9105 328.34 75.4025 328.34 74.8985C328.34 74.3945 328.396 73.8825 328.508 73.3625C328.628 72.8425 328.812 72.3665 329.06 71.9345C329.308 71.4945 329.628 71.1425 330.02 70.8785C330.412 70.6065 330.888 70.4705 331.448 70.4705C332.032 70.4705 332.516 70.6025 332.9 70.8665C333.292 71.1305 333.6 71.4785 333.824 71.9105C334.056 72.3345 334.22 72.8025 334.316 73.3145C334.412 73.8265 334.46 74.3345 334.46 74.8385C334.46 75.3345 334.404 75.8425 334.292 76.3625C334.18 76.8825 334.004 77.3625 333.764 77.8025C333.524 78.2345 333.208 78.5865 332.816 78.8585C332.432 79.1225 331.96 79.2545 331.4 79.2545ZM331.472 78.7865C331.816 78.7865 332.1 78.6785 332.324 78.4625C332.548 78.2465 332.724 77.9585 332.852 77.5985C332.988 77.2385 333.084 76.8425 333.14 76.4105C333.196 75.9705 333.224 75.5305 333.224 75.0905C333.224 74.6025 333.196 74.1145 333.14 73.6265C333.084 73.1385 332.988 72.6905 332.852 72.2825C332.716 71.8745 332.532 71.5465 332.3 71.2985C332.068 71.0505 331.776 70.9265 331.424 70.9265C331.08 70.9265 330.788 71.0345 330.548 71.2505C330.316 71.4665 330.128 71.7545 329.984 72.1145C329.84 72.4745 329.736 72.8745 329.672 73.3145C329.608 73.7545 329.576 74.1985 329.576 74.6465C329.576 74.9825 329.592 75.3385 329.624 75.7145C329.656 76.0905 329.712 76.4625 329.792 76.8305C329.88 77.1905 329.996 77.5185 330.14 77.8145C330.284 78.1105 330.464 78.3465 330.68 78.5225C330.896 78.6985 331.16 78.7865 331.472 78.7865ZM338.853 79.2545C338.245 79.2545 337.741 79.1265 337.341 78.8705C336.941 78.6065 336.629 78.2625 336.405 77.8385C336.181 77.4065 336.021 76.9345 335.925 76.4225C335.837 75.9105 335.793 75.4025 335.793 74.8985C335.793 74.3945 335.849 73.8825 335.961 73.3625C336.081 72.8425 336.265 72.3665 336.513 71.9345C336.761 71.4945 337.081 71.1425 337.473 70.8785C337.865 70.6065 338.341 70.4705 338.901 70.4705C339.485 70.4705 339.969 70.6025 340.353 70.8665C340.745 71.1305 341.053 71.4785 341.277 71.9105C341.509 72.3345 341.673 72.8025 341.769 73.3145C341.865 73.8265 341.913 74.3345 341.913 74.8385C341.913 75.3345 341.857 75.8425 341.745 76.3625C341.633 76.8825 341.457 77.3625 341.217 77.8025C340.977 78.2345 340.661 78.5865 340.269 78.8585C339.885 79.1225 339.413 79.2545 338.853 79.2545ZM338.925 78.7865C339.269 78.7865 339.553 78.6785 339.777 78.4625C340.001 78.2465 340.177 77.9585 340.305 77.5985C340.441 77.2385 340.537 76.8425 340.593 76.4105C340.649 75.9705 340.677 75.5305 340.677 75.0905C340.677 74.6025 340.649 74.1145 340.593 73.6265C340.537 73.1385 340.441 72.6905 340.305 72.2825C340.169 71.8745 339.985 71.5465 339.753 71.2985C339.521 71.0505 339.229 70.9265 338.877 70.9265C338.533 70.9265 338.241 71.0345 338.001 71.2505C337.769 71.4665 337.581 71.7545 337.437 72.1145C337.293 72.4745 337.189 72.8745 337.125 73.3145C337.061 73.7545 337.029 74.1985 337.029 74.6465C337.029 74.9825 337.045 75.3385 337.077 75.7145C337.109 76.0905 337.165 76.4625 337.245 76.8305C337.333 77.1905 337.449 77.5185 337.593 77.8145C337.737 78.1105 337.917 78.3465 338.133 78.5225C338.349 78.6985 338.613 78.7865 338.925 78.7865ZM346.306 79.2545C345.698 79.2545 345.194 79.1265 344.794 78.8705C344.394 78.6065 344.082 78.2625 343.858 77.8385C343.634 77.4065 343.474 76.9345 343.378 76.4225C343.29 75.9105 343.246 75.4025 343.246 74.8985C343.246 74.3945 343.302 73.8825 343.414 73.3625C343.534 72.8425 343.718 72.3665 343.966 71.9345C344.214 71.4945 344.534 71.1425 344.926 70.8785C345.318 70.6065 345.794 70.4705 346.354 70.4705C346.938 70.4705 347.422 70.6025 347.806 70.8665C348.198 71.1305 348.506 71.4785 348.73 71.9105C348.962 72.3345 349.126 72.8025 349.222 73.3145C349.318 73.8265 349.366 74.3345 349.366 74.8385C349.366 75.3345 349.31 75.8425 349.198 76.3625C349.086 76.8825 348.91 77.3625 348.67 77.8025C348.43 78.2345 348.114 78.5865 347.722 78.8585C347.338 79.1225 346.866 79.2545 346.306 79.2545ZM346.378 78.7865C346.722 78.7865 347.006 78.6785 347.23 78.4625C347.454 78.2465 347.63 77.9585 347.758 77.5985C347.894 77.2385 347.99 76.8425 348.046 76.4105C348.102 75.9705 348.13 75.5305 348.13 75.0905C348.13 74.6025 348.102 74.1145 348.046 73.6265C347.99 73.1385 347.894 72.6905 347.758 72.2825C347.622 71.8745 347.438 71.5465 347.206 71.2985C346.974 71.0505 346.682 70.9265 346.33 70.9265C345.986 70.9265 345.694 71.0345 345.454 71.2505C345.222 71.4665 345.034 71.7545 344.89 72.1145C344.746 72.4745 344.642 72.8745 344.578 73.3145C344.514 73.7545 344.482 74.1985 344.482 74.6465C344.482 74.9825 344.498 75.3385 344.53 75.7145C344.562 76.0905 344.618 76.4625 344.698 76.8305C344.786 77.1905 344.902 77.5185 345.046 77.8145C345.19 78.1105 345.37 78.3465 345.586 78.5225C345.802 78.6985 346.066 78.7865 346.378 78.7865ZM353.84 78.6665C354.144 78.6505 354.352 78.5825 354.464 78.4625C354.576 78.3345 354.636 78.1625 354.644 77.9465C354.66 77.7225 354.668 77.4705 354.668 77.1905V72.0065C354.668 71.8465 354.672 71.6945 354.68 71.5505C354.688 71.3985 354.696 71.2625 354.704 71.1425C354.56 71.1505 354.416 71.1585 354.272 71.1665C354.128 71.1745 353.984 71.1825 353.84 71.1905V70.6625C354.264 70.6545 354.7 70.6505 355.148 70.6505C355.596 70.6425 356.052 70.6385 356.516 70.6385C357.14 70.6385 357.688 70.7265 358.16 70.9025C358.64 71.0785 359.012 71.3385 359.276 71.6825C359.548 72.0265 359.684 72.4545 359.684 72.9665C359.684 73.2785 359.628 73.6065 359.516 73.9505C359.412 74.2865 359.228 74.6065 358.964 74.9105C358.708 75.2065 358.348 75.4465 357.884 75.6305C357.428 75.8145 356.848 75.9065 356.144 75.9065C356.112 75.9065 356.052 75.9065 355.964 75.9065C355.876 75.9065 355.792 75.9025 355.712 75.8945V77.6345C355.712 77.8505 355.708 78.0385 355.7 78.1985C355.7 78.3505 355.692 78.4785 355.676 78.5825C355.804 78.5745 355.928 78.5665 356.048 78.5585C356.168 78.5505 356.288 78.5465 356.408 78.5465C356.536 78.5385 356.66 78.5305 356.78 78.5225V79.0625H353.84V78.6665ZM355.712 75.4025C355.864 75.4185 355.992 75.4305 356.096 75.4385C356.208 75.4385 356.34 75.4385 356.492 75.4385C356.852 75.4385 357.184 75.3505 357.488 75.1745C357.8 74.9905 358.048 74.7305 358.232 74.3945C358.424 74.0585 358.52 73.6585 358.52 73.1945C358.52 72.8585 358.468 72.5625 358.364 72.3065C358.26 72.0425 358.116 71.8225 357.932 71.6465C357.748 71.4705 357.532 71.3385 357.284 71.2505C357.036 71.1545 356.772 71.1065 356.492 71.1065C356.212 71.1065 356.016 71.1665 355.904 71.2865C355.8 71.4065 355.74 71.5745 355.724 71.7905C355.716 71.9985 355.712 72.2465 355.712 72.5345V75.4025ZM353.744 75.4025H355.544V75.9065H353.744V75.4025ZM353.744 76.6985H358.064V77.1905L353.744 77.2025V76.6985Z" fill="#3B434B"/>
</g>
<defs>
<clipPath id="clip0_310_2">
<rect width="375" height="8557" fill="white" transform="translate(0 -6214)"/>
</clipPath>
</defs>
</svg>
