<svg width="375" height="62" viewBox="0 0 375 62" fill="none" xmlns="http://www.w3.org/2000/svg">
<path d="M-6065 -2525C-6065 -2526.1 -6064.1 -2527 -6063 -2527H4265C4266.1 -2527 4267 -2526.1 4267 -2525V10706C4267 10707.1 4266.1 10708 4265 10708H-6063C-6064.1 10708 -6065 10707.1 -6065 10706V-2525Z" fill="#444444"/>
<path d="M-6063 -2527V-2526H4265V-2527V-2528H-6063V-2527ZM4267 -2525H4266V10706H4267H4268V-2525H4267ZM4265 10708V10707H-6063V10708V10709H4265V10708ZM-6065 10706H-6064V-2525H-6065H-6066V10706H-6065ZM-6063 10708V10707C-6063.55 10707 -6064 10706.6 -6064 10706H-6065H-6066C-6066 10707.7 -6064.66 10709 -6063 10709V10708ZM4267 10706H4266C4266 10706.6 4265.55 10707 4265 10707V10708V10709C4266.66 10709 4268 10707.7 4268 10706H4267ZM4265 -2527V-2526C4265.55 -2526 4266 -2525.55 4266 -2525H4267H4268C4268 -2526.66 4266.66 -2528 4265 -2528V-2527ZM-6063 -2527V-2528C-6064.66 -2528 -6066 -2526.66 -6066 -2525H-6065H-6064C-6064 -2525.55 -6063.55 -2526 -6063 -2526V-2527Z" fill="white" fill-opacity="0.1"/>
<g clip-path="url(#clip0_238_2)">
<rect width="375" height="6280" transform="translate(0 -2101)" fill="#F9F9F9"/>
<path d="M15.902 38.0625L15.946 37.3365C16.5033 37.3072 16.8847 37.1825 17.09 36.9625C17.31 36.7278 17.442 36.4125 17.486 36.0165C17.53 35.6058 17.5667 35.1438 17.596 34.6305L18.102 25.1265C18.1313 24.8332 18.1533 24.5545 18.168 24.2905C18.1973 24.0118 18.2267 23.7625 18.256 23.5425C17.992 23.5572 17.728 23.5718 17.464 23.5865C17.2 23.6012 16.936 23.6158 16.672 23.6305L16.716 22.6625H30.862L30.818 23.3885C30.334 23.4032 29.9747 23.5058 29.74 23.6965C29.52 23.8872 29.3733 24.1585 29.3 24.5105C29.2413 24.8478 29.1973 25.2805 29.168 25.8085L28.662 35.4445C28.6473 35.8405 28.6253 36.1852 28.596 36.4785C28.5667 36.7572 28.5373 36.9918 28.508 37.1825C28.772 37.1678 29.036 37.1532 29.3 37.1385C29.564 37.1238 29.828 37.1092 30.092 37.0945L30.048 38.0625H25.186L25.23 37.3365C25.7873 37.3072 26.176 37.1825 26.396 36.9625C26.616 36.7278 26.748 36.4125 26.792 36.0165C26.836 35.6058 26.8653 35.1438 26.88 34.6305L27.386 25.1265C27.4007 24.8332 27.4227 24.5545 27.452 24.2905C27.4813 24.0118 27.5107 23.7625 27.54 23.5425L21.358 23.6085C20.7273 23.6672 20.3313 23.9018 20.17 24.3125C20.0233 24.7085 19.928 25.2878 19.884 26.0505L19.378 35.4445C19.3633 35.8405 19.3413 36.1852 19.312 36.4785C19.2827 36.7572 19.2533 36.9918 19.224 37.1825C19.488 37.1678 19.752 37.1532 20.016 37.1385C20.28 37.1238 20.544 37.1092 20.808 37.0945L20.764 38.0625H15.902ZM35.5019 38.3045C34.9153 38.3045 34.4459 38.1725 34.0939 37.9085C33.7419 37.6445 33.4853 37.2925 33.3239 36.8525C33.1773 36.4125 33.1039 35.9432 33.1039 35.4445C33.1039 34.6232 33.1626 33.7945 33.2799 32.9585C33.3973 32.1225 33.5146 31.3525 33.6319 30.6485C33.7493 29.9298 33.8079 29.3652 33.8079 28.9545C33.8079 28.6758 33.7713 28.4338 33.6979 28.2285C33.6393 28.0232 33.4779 27.9205 33.2139 27.9205C32.9793 27.9205 32.7153 28.0818 32.4219 28.4045C32.1433 28.7272 31.8939 29.2772 31.6739 30.0545L31.0579 29.9225C31.1019 29.6585 31.1899 29.3578 31.3219 29.0205C31.4539 28.6685 31.6299 28.3238 31.8499 27.9865C32.0846 27.6492 32.3633 27.3705 32.6859 27.1505C33.0233 26.9305 33.4119 26.8205 33.8519 26.8205C34.4386 26.8205 34.8786 27.0038 35.1719 27.3705C35.4799 27.7372 35.6339 28.2652 35.6339 28.9545C35.6339 29.3652 35.5973 29.8712 35.5239 30.4725C35.4506 31.0738 35.3626 31.7045 35.2599 32.3645C35.1719 33.0098 35.0913 33.6405 35.0179 34.2565C34.9446 34.8725 34.9079 35.4152 34.9079 35.8845C34.9079 36.0458 34.9299 36.2365 34.9739 36.4565C35.0326 36.6765 35.1353 36.8672 35.2819 37.0285C35.4433 37.1898 35.6633 37.2705 35.9419 37.2705C36.3526 37.2705 36.7559 37.0798 37.1519 36.6985C37.5479 36.3172 37.9219 35.8038 38.2739 35.1585C38.6259 34.5132 38.9413 33.8018 39.2199 33.0245C39.4986 32.2325 39.7113 31.4258 39.8579 30.6045C40.0193 29.7685 40.0999 28.9765 40.0999 28.2285C40.0999 28.0085 40.0926 27.8105 40.0779 27.6345C40.0779 27.4438 40.0706 27.2532 40.0559 27.0625H41.9039C41.9186 27.1652 41.9259 27.2605 41.9259 27.3485C41.9259 27.4218 41.9259 27.5172 41.9259 27.6345C41.9259 27.8838 41.9113 28.1845 41.8819 28.5365C41.8526 28.8738 41.8086 29.3285 41.7499 29.9005C41.6913 30.4578 41.6033 31.1985 41.4859 32.1225C41.3833 32.9732 41.3026 33.6405 41.2439 34.1245C41.1999 34.6085 41.1633 34.9752 41.1339 35.2245C41.1046 35.4592 41.0826 35.6425 41.0679 35.7745C41.0679 35.9065 41.0679 36.0532 41.0679 36.2145C41.0679 36.4785 41.1046 36.7058 41.1779 36.8965C41.2659 37.0872 41.4273 37.1825 41.6619 37.1825C41.9113 37.1825 42.1826 37.0285 42.4759 36.7205C42.7839 36.3978 43.0479 35.8478 43.2679 35.0705L43.8839 35.2025C43.8399 35.4665 43.7446 35.7745 43.5979 36.1265C43.4659 36.4638 43.2826 36.8012 43.0479 37.1385C42.8133 37.4758 42.5273 37.7545 42.1899 37.9745C41.8526 38.1945 41.4639 38.3045 41.0239 38.3045C40.4373 38.3045 40.0046 38.1212 39.7259 37.7545C39.4619 37.3878 39.3299 36.9112 39.3299 36.3245C39.3299 35.8992 39.3666 35.4372 39.4399 34.9385C39.5279 34.4398 39.6233 33.9192 39.7259 33.3765H39.6599C39.1613 34.7112 38.6846 35.7378 38.2299 36.4565C37.7753 37.1605 37.3279 37.6445 36.8879 37.9085C36.4479 38.1725 35.9859 38.3045 35.5019 38.3045ZM44.649 38.2825C44.2383 38.2825 43.8936 38.1652 43.615 37.9305C43.351 37.6958 43.219 37.4172 43.219 37.0945C43.219 36.8158 43.3143 36.5738 43.505 36.3685C43.6956 36.1485 43.9376 36.0385 44.231 36.0385C44.4656 36.0385 44.6783 36.1192 44.869 36.2805C45.0743 36.4418 45.177 36.6472 45.177 36.8965C45.177 36.9698 45.1696 37.0358 45.155 37.0945C45.155 37.1385 45.1476 37.1825 45.133 37.2265C45.5143 37.2705 45.8883 37.1165 46.255 36.7645C46.6216 36.4125 46.9663 35.9212 47.289 35.2905C47.6263 34.6598 47.927 33.9412 48.191 33.1345C48.4696 32.3132 48.7116 31.4552 48.917 30.5605C49.137 29.6658 49.3056 28.7858 49.423 27.9205L47.399 27.9425L47.465 27.0625H53.889C53.9036 27.1652 53.911 27.2605 53.911 27.3485C53.911 27.4218 53.911 27.5172 53.911 27.6345C53.911 27.9718 53.8816 28.4412 53.823 29.0425C53.7643 29.6292 53.691 30.2745 53.603 30.9785C53.5296 31.6825 53.449 32.3865 53.361 33.0905C53.273 33.7945 53.1996 34.4252 53.141 34.9825C53.0823 35.5252 53.053 35.9358 53.053 36.2145C53.053 36.4785 53.0896 36.7058 53.163 36.8965C53.251 37.0872 53.4123 37.1825 53.647 37.1825C53.8963 37.1825 54.1676 37.0285 54.461 36.7205C54.769 36.3978 55.033 35.8478 55.253 35.0705L55.869 35.2025C55.825 35.4665 55.7296 35.7745 55.583 36.1265C55.451 36.4638 55.2676 36.8012 55.033 37.1385C54.7983 37.4758 54.5123 37.7545 54.175 37.9745C53.8376 38.1945 53.449 38.3045 53.009 38.3045C52.613 38.3045 52.2903 38.2238 52.041 38.0625C51.7916 37.8865 51.6083 37.6518 51.491 37.3585C51.3736 37.0652 51.315 36.7205 51.315 36.3245C51.315 35.9285 51.3516 35.4225 51.425 34.8065C51.513 34.1905 51.601 33.5012 51.689 32.7385C51.7916 31.9758 51.8796 31.1838 51.953 30.3625C52.041 29.5265 52.085 28.7052 52.085 27.8985L51.161 27.9205C50.9556 27.9205 50.7943 27.9865 50.677 28.1185C50.5743 28.2505 50.501 28.4192 50.457 28.6245C50.193 29.9445 49.885 31.1838 49.533 32.3425C49.1956 33.5012 48.7923 34.5278 48.323 35.4225C47.8536 36.3172 47.3183 37.0212 46.717 37.5345C46.1156 38.0332 45.4263 38.2825 44.649 38.2825ZM60.0276 38.3045C59.441 38.3045 58.9716 38.1725 58.6196 37.9085C58.2676 37.6445 58.011 37.2925 57.8496 36.8525C57.703 36.4125 57.6296 35.9432 57.6296 35.4445C57.6296 34.6232 57.6883 33.7945 57.8056 32.9585C57.923 32.1225 58.0403 31.3525 58.1576 30.6485C58.275 29.9298 58.3336 29.3652 58.3336 28.9545C58.3336 28.6758 58.297 28.4338 58.2236 28.2285C58.165 28.0232 58.0036 27.9205 57.7396 27.9205C57.505 27.9205 57.241 28.0818 56.9476 28.4045C56.669 28.7272 56.4196 29.2772 56.1996 30.0545L55.5836 29.9225C55.6276 29.6585 55.7156 29.3578 55.8476 29.0205C55.9796 28.6685 56.1556 28.3238 56.3756 27.9865C56.6103 27.6492 56.889 27.3705 57.2116 27.1505C57.549 26.9305 57.9376 26.8205 58.3776 26.8205C58.9643 26.8205 59.4043 27.0038 59.6976 27.3705C60.0056 27.7372 60.1596 28.2652 60.1596 28.9545C60.1596 29.3652 60.123 29.8712 60.0496 30.4725C59.9763 31.0738 59.8883 31.7045 59.7856 32.3645C59.6976 33.0098 59.617 33.6405 59.5436 34.2565C59.4703 34.8725 59.4336 35.4152 59.4336 35.8845C59.4336 36.0458 59.4556 36.2365 59.4996 36.4565C59.5583 36.6765 59.661 36.8672 59.8076 37.0285C59.969 37.1898 60.189 37.2705 60.4676 37.2705C60.8783 37.2705 61.2816 37.0798 61.6776 36.6985C62.0736 36.3172 62.4476 35.8038 62.7996 35.1585C63.1516 34.5132 63.467 33.8018 63.7456 33.0245C64.0243 32.2325 64.237 31.4258 64.3836 30.6045C64.545 29.7685 64.6256 28.9765 64.6256 28.2285C64.6256 28.0085 64.6183 27.8105 64.6036 27.6345C64.6036 27.4438 64.5963 27.2532 64.5816 27.0625H66.4296C66.4443 27.1652 66.4516 27.2605 66.4516 27.3485C66.4516 27.4218 66.4516 27.5172 66.4516 27.6345C66.4516 27.8838 66.437 28.1845 66.4076 28.5365C66.3783 28.8738 66.3343 29.3285 66.2756 29.9005C66.217 30.4578 66.129 31.1985 66.0116 32.1225C65.909 32.9732 65.8283 33.6405 65.7696 34.1245C65.7256 34.6085 65.689 34.9752 65.6596 35.2245C65.6303 35.4592 65.6083 35.6425 65.5936 35.7745C65.5936 35.9065 65.5936 36.0532 65.5936 36.2145C65.5936 36.4785 65.6303 36.7058 65.7036 36.8965C65.7916 37.0872 65.953 37.1825 66.1876 37.1825C66.437 37.1825 66.7083 37.0285 67.0016 36.7205C67.3096 36.3978 67.5736 35.8478 67.7936 35.0705L68.4096 35.2025C68.3656 35.4665 68.2703 35.7745 68.1236 36.1265C67.9916 36.4638 67.8083 36.8012 67.5736 37.1385C67.339 37.4758 67.053 37.7545 66.7156 37.9745C66.3783 38.1945 65.9896 38.3045 65.5496 38.3045C64.963 38.3045 64.5303 38.1212 64.2516 37.7545C63.9876 37.3878 63.8556 36.9112 63.8556 36.3245C63.8556 35.8992 63.8923 35.4372 63.9656 34.9385C64.0536 34.4398 64.149 33.9192 64.2516 33.3765H64.1856C63.687 34.7112 63.2103 35.7378 62.7556 36.4565C62.301 37.1605 61.8536 37.6445 61.4136 37.9085C60.9736 38.1725 60.5116 38.3045 60.0276 38.3045ZM77.8207 38.3045C77.4247 38.3045 77.102 38.2238 76.8527 38.0625C76.6033 37.8865 76.42 37.6518 76.3027 37.3585C76.1853 37.0652 76.1267 36.7205 76.1267 36.3245C76.1267 35.9872 76.156 35.5545 76.2147 35.0265C76.288 34.4838 76.3613 33.8972 76.4347 33.2665L72.1887 33.3105C72.13 33.8678 72.064 34.4325 71.9907 35.0045C71.932 35.5618 71.866 36.1192 71.7927 36.6765C71.7633 36.9552 71.7487 37.2045 71.7487 37.4245C71.7633 37.6445 71.7853 37.8572 71.8147 38.0625H69.9667C69.952 37.9598 69.9447 37.8718 69.9447 37.7985C69.9447 37.7105 69.9447 37.6078 69.9447 37.4905C69.9593 37.2412 69.9813 36.9552 70.0107 36.6325C70.04 36.2952 70.0913 35.8552 70.1647 35.3125C70.2527 34.7552 70.3553 34.0145 70.4727 33.0905C70.59 32.2252 70.678 31.5505 70.7367 31.0665C70.81 30.5825 70.8613 30.2158 70.8907 29.9665C70.9347 29.7025 70.964 29.5045 70.9787 29.3725C70.9933 29.2258 71.0007 29.0718 71.0007 28.9105C71.0153 28.6465 70.9787 28.4192 70.8907 28.2285C70.8027 28.0232 70.634 27.9205 70.3847 27.9205C70.15 27.9205 69.8787 28.0818 69.5707 28.4045C69.2627 28.7272 68.984 29.2772 68.7347 30.0545L68.1187 29.9225C68.1773 29.6585 68.28 29.3578 68.4267 29.0205C68.5733 28.6685 68.764 28.3238 68.9987 27.9865C69.248 27.6492 69.5413 27.3705 69.8787 27.1505C70.216 26.9305 70.6047 26.8205 71.0447 26.8205C71.602 26.8205 71.998 26.9818 72.2327 27.3045C72.4673 27.6125 72.5993 28.0158 72.6287 28.5145C72.658 29.0132 72.636 29.5412 72.5627 30.0985C72.5187 30.4798 72.4747 30.8685 72.4307 31.2645C72.3867 31.6605 72.3427 32.0492 72.2987 32.4305H76.5447C76.6327 31.7265 76.706 31.0958 76.7647 30.5385C76.8233 29.9812 76.86 29.4312 76.8747 28.8885C76.904 28.3458 76.8967 27.7372 76.8527 27.0625H78.7007C78.7153 27.1652 78.7227 27.2605 78.7227 27.3485C78.7227 27.4218 78.7227 27.5172 78.7227 27.6345C78.7227 27.9718 78.6933 28.4412 78.6347 29.0425C78.576 29.6292 78.5027 30.2745 78.4147 30.9785C78.3413 31.6825 78.2607 32.3865 78.1727 33.0905C78.0847 33.7945 78.0113 34.4252 77.9527 34.9825C77.894 35.5252 77.8647 35.9358 77.8647 36.2145C77.8647 36.4785 77.9013 36.7058 77.9747 36.8965C78.0627 37.0872 78.224 37.1825 78.4587 37.1825C78.708 37.1825 78.9793 37.0285 79.2727 36.7205C79.5807 36.3978 79.8447 35.8478 80.0647 35.0705L80.6807 35.2025C80.6367 35.4665 80.5413 35.7745 80.3947 36.1265C80.2627 36.4638 80.0793 36.8012 79.8447 37.1385C79.61 37.4758 79.324 37.7545 78.9867 37.9745C78.6493 38.1945 78.2607 38.3045 77.8207 38.3045ZM84.9206 38.4365C84.158 38.4365 83.4833 38.3338 82.8966 38.1285C82.3246 37.9232 81.8846 37.6225 81.5766 37.2265C81.2686 36.8158 81.1293 36.3172 81.1586 35.7305C81.2026 35.0998 81.408 34.5645 81.7746 34.1245C82.156 33.6698 82.64 33.2518 83.2266 32.8705C83.828 32.4745 84.4733 32.0638 85.1626 31.6385C85.764 31.2572 86.2186 30.8832 86.5266 30.5165C86.8346 30.1498 86.9886 29.7098 86.9886 29.1965C86.9886 28.6685 86.8126 28.2872 86.4606 28.0525C86.1233 27.8178 85.698 27.7005 85.1846 27.7005C84.862 27.7005 84.4953 27.7812 84.0846 27.9425C83.674 28.0892 83.2633 28.3165 82.8526 28.6245C82.4566 28.9325 82.112 29.3212 81.8186 29.7905L81.1586 29.3505C81.804 28.4558 82.53 27.8105 83.3366 27.4145C84.158 27.0038 84.9866 26.7985 85.8226 26.7985C86.512 26.7985 87.0986 26.8938 87.5826 27.0845C88.0666 27.2605 88.4333 27.5245 88.6826 27.8765C88.9466 28.2138 89.064 28.6318 89.0346 29.1305C89.0053 29.8638 88.7193 30.4872 88.1766 31.0005C87.634 31.5138 86.864 32.0712 85.8666 32.6725C85.0746 33.1565 84.4513 33.6332 83.9966 34.1025C83.5566 34.5718 83.322 35.1072 83.2926 35.7085C83.278 36.0898 83.3586 36.4125 83.5346 36.6765C83.7106 36.9405 83.9526 37.1385 84.2606 37.2705C84.5686 37.4025 84.9133 37.4685 85.2946 37.4685C86.6293 37.4685 87.766 36.7572 88.7046 35.3345L89.2766 35.7085C88.91 36.3098 88.5066 36.8158 88.0666 37.2265C87.6266 37.6225 87.1426 37.9232 86.6146 38.1285C86.1013 38.3338 85.5366 38.4365 84.9206 38.4365ZM93.9051 38.3045C93.3184 38.3045 92.8491 38.1725 92.4971 37.9085C92.1451 37.6445 91.8884 37.2925 91.7271 36.8525C91.5804 36.4125 91.5071 35.9432 91.5071 35.4445C91.5071 34.6232 91.5657 33.7945 91.6831 32.9585C91.8004 32.1225 91.9177 31.3525 92.0351 30.6485C92.1524 29.9298 92.2111 29.3652 92.2111 28.9545C92.2111 28.6758 92.1744 28.4338 92.1011 28.2285C92.0424 28.0232 91.8811 27.9205 91.6171 27.9205C91.3824 27.9205 91.1184 28.0818 90.8251 28.4045C90.5464 28.7272 90.2971 29.2772 90.0771 30.0545L89.4611 29.9225C89.5051 29.6585 89.5931 29.3578 89.7251 29.0205C89.8571 28.6685 90.0331 28.3238 90.2531 27.9865C90.4877 27.6492 90.7664 27.3705 91.0891 27.1505C91.4264 26.9305 91.8151 26.8205 92.2551 26.8205C92.8417 26.8205 93.2817 27.0038 93.5751 27.3705C93.8831 27.7372 94.0371 28.2652 94.0371 28.9545C94.0371 29.3652 94.0004 29.8712 93.9271 30.4725C93.8537 31.0738 93.7657 31.7045 93.6631 32.3645C93.5751 33.0098 93.4944 33.6405 93.4211 34.2565C93.3477 34.8725 93.3111 35.4152 93.3111 35.8845C93.3111 36.0458 93.3331 36.2365 93.3771 36.4565C93.4357 36.6765 93.5384 36.8672 93.6851 37.0285C93.8464 37.1898 94.0664 37.2705 94.3451 37.2705C94.7557 37.2705 95.1591 37.0798 95.5551 36.6985C95.9511 36.3172 96.3251 35.8038 96.6771 35.1585C97.0291 34.5132 97.3444 33.8018 97.6231 33.0245C97.9017 32.2325 98.1144 31.4258 98.2611 30.6045C98.4224 29.7685 98.5031 28.9765 98.5031 28.2285C98.5031 28.0085 98.4957 27.8105 98.4811 27.6345C98.4811 27.4438 98.4737 27.2532 98.4591 27.0625H100.307C100.322 27.1652 100.329 27.2605 100.329 27.3485C100.329 27.4218 100.329 27.5172 100.329 27.6345C100.329 27.8838 100.314 28.1845 100.285 28.5365C100.256 28.8738 100.212 29.3285 100.153 29.9005C100.094 30.4578 100.006 31.1985 99.8891 32.1225C99.7864 32.9732 99.7057 33.6405 99.6471 34.1245C99.6031 34.6085 99.5664 34.9752 99.5371 35.2245C99.5077 35.4592 99.4857 35.6425 99.4711 35.7745C99.4711 35.9065 99.4711 36.0532 99.4711 36.2145C99.4711 36.4785 99.5077 36.7058 99.5811 36.8965C99.6691 37.0872 99.8304 37.1825 100.065 37.1825C100.314 37.1825 100.586 37.0285 100.879 36.7205C101.187 36.3978 101.451 35.8478 101.671 35.0705L102.287 35.2025C102.243 35.4665 102.148 35.7745 102.001 36.1265C101.869 36.4638 101.686 36.8012 101.451 37.1385C101.216 37.4758 100.93 37.7545 100.593 37.9745C100.256 38.1945 99.8671 38.3045 99.4271 38.3045C98.8404 38.3045 98.4077 38.1212 98.1291 37.7545C97.8651 37.3878 97.7331 36.9112 97.7331 36.3245C97.7331 35.8992 97.7697 35.4372 97.8431 34.9385C97.9311 34.4398 98.0264 33.9192 98.1291 33.3765H98.0631C97.5644 34.7112 97.0877 35.7378 96.6331 36.4565C96.1784 37.1605 95.7311 37.6445 95.2911 37.9085C94.8511 38.1725 94.3891 38.3045 93.9051 38.3045Z" fill="#3B434B"/>
<path d="M357.75 38.8125L344.25 25.3125M357.75 38.8125C357.243 38.3055 356.308 37.98 355.471 37.7783C354.353 37.509 353.194 37.4602 352.052 37.5892C351.165 37.6897 350.188 37.8892 349.795 38.2822M357.75 38.8125C357.243 38.3055 356.918 37.3703 356.716 36.5333C356.447 35.4158 356.398 34.2563 356.527 33.114C356.627 32.2275 356.827 31.251 357.22 30.8572" stroke="#3B434B" stroke-width="0.75"/>
<path d="M15 61.0625L360 61.0625" stroke="#3B434B" stroke-opacity="0.2" stroke-linecap="round"/>
<path d="M15 61.0625L360 61.0625" stroke="#3B434B" stroke-opacity="0.2" stroke-linecap="round"/>
</g>
<defs>
<clipPath id="clip0_238_2">
<rect width="375" height="6280" fill="white" transform="translate(0 -2101)"/>
</clipPath>
</defs>
</svg>
