<svg width="375" height="62" viewBox="0 0 375 62" fill="none" xmlns="http://www.w3.org/2000/svg">
<path d="M-6065 -3615C-6065 -3616.1 -6064.1 -3617 -6063 -3617H4265C4266.1 -3617 4267 -3616.1 4267 -3615V9616C4267 9617.1 4266.1 9618 4265 9618H-6063C-6064.1 9618 -6065 9617.1 -6065 9616V-3615Z" fill="#444444"/>
<path d="M-6063 -3617V-3616H4265V-3617V-3618H-6063V-3617ZM4267 -3615H4266V9616H4267H4268V-3615H4267ZM4265 9618V9617H-6063V9618V9619H4265V9618ZM-6065 9616H-6064V-3615H-6065H-6066V9616H-6065ZM-6063 9618V9617C-6063.55 9617 -6064 9616.55 -6064 9616H-6065H-6066C-6066 9617.66 -6064.66 9619 -6063 9619V9618ZM4267 9616H4266C4266 9616.55 4265.55 9617 4265 9617V9618V9619C4266.66 9619 4268 9617.66 4268 9616H4267ZM4265 -3617V-3616C4265.55 -3616 4266 -3615.55 4266 -3615H4267H4268C4268 -3616.66 4266.66 -3618 4265 -3618V-3617ZM-6063 -3617V-3618C-6064.66 -3618 -6066 -3616.66 -6066 -3615H-6065H-6064C-6064 -3615.55 -6063.55 -3616 -6063 -3616V-3617Z" fill="white" fill-opacity="0.1"/>
<g clip-path="url(#clip0_238_2)">
<rect width="375" height="6280" transform="translate(0 -3191)" fill="#F9F9F9"/>
<path d="M15.88 38.0625L15.924 37.3365C16.4813 37.3218 16.87 37.1972 17.09 36.9625C17.31 36.7132 17.442 36.3832 17.486 35.9725C17.53 35.5472 17.5667 35.0632 17.596 34.5205L18.08 25.1265C18.0947 24.8332 18.1167 24.5545 18.146 24.2905C18.1753 24.0118 18.2047 23.7625 18.234 23.5425C17.97 23.5572 17.6987 23.5718 17.42 23.5865C17.156 23.6012 16.892 23.6158 16.628 23.6305L16.672 22.6625H27.122L27.034 26.5125H26.308C26.352 25.6472 26.242 24.9945 25.978 24.5545C25.7287 24.0998 25.3767 23.7992 24.922 23.6525C24.482 23.4912 23.9833 23.4178 23.426 23.4325L21.49 23.4765C20.9913 23.4765 20.632 23.5792 20.412 23.7845C20.2067 23.9752 20.0747 24.2538 20.016 24.6205C19.9573 24.9725 19.9133 25.4052 19.884 25.9185L19.686 29.3285L21.534 29.2845C22.634 29.2552 23.5653 29.3285 24.328 29.5045C25.0907 29.6658 25.714 29.9298 26.198 30.2965C26.682 30.6485 27.034 31.0885 27.254 31.6165C27.474 32.1298 27.584 32.7238 27.584 33.3985C27.584 34.4545 27.342 35.3272 26.858 36.0165C26.3887 36.7058 25.7507 37.2192 24.944 37.5565C24.1373 37.8938 23.2353 38.0625 22.238 38.0625H15.88ZM21.556 37.2045C22.6853 37.2045 23.6167 36.9185 24.35 36.3465C25.0833 35.7598 25.4793 34.8505 25.538 33.6185C25.582 32.7238 25.4353 32.0272 25.098 31.5285C24.7753 31.0152 24.328 30.6485 23.756 30.4285C23.1987 30.2085 22.5827 30.0985 21.908 30.0985C21.468 30.0985 21.0647 30.1058 20.698 30.1205C20.346 30.1205 19.994 30.1352 19.642 30.1645L19.378 35.4445C19.3633 35.8405 19.3413 36.1778 19.312 36.4565C19.2827 36.7352 19.2533 36.9698 19.224 37.1605C19.4587 37.1752 19.7373 37.1898 20.06 37.2045C20.3973 37.2045 20.7053 37.2045 20.984 37.2045C21.2773 37.2045 21.468 37.2045 21.556 37.2045ZM32.5371 38.3045C31.9504 38.3045 31.4811 38.1725 31.1291 37.9085C30.7771 37.6445 30.5204 37.2925 30.3591 36.8525C30.2124 36.4125 30.1391 35.9432 30.1391 35.4445C30.1391 34.6232 30.1978 33.7945 30.3151 32.9585C30.4324 32.1225 30.5498 31.3525 30.6671 30.6485C30.7844 29.9298 30.8431 29.3652 30.8431 28.9545C30.8431 28.6758 30.8064 28.4338 30.7331 28.2285C30.6744 28.0232 30.5131 27.9205 30.2491 27.9205C30.0144 27.9205 29.7504 28.0818 29.4571 28.4045C29.1784 28.7272 28.9291 29.2772 28.7091 30.0545L28.0931 29.9225C28.1371 29.6585 28.2251 29.3578 28.3571 29.0205C28.4891 28.6685 28.6651 28.3238 28.8851 27.9865C29.1198 27.6492 29.3984 27.3705 29.7211 27.1505C30.0584 26.9305 30.4471 26.8205 30.8871 26.8205C31.4738 26.8205 31.9138 27.0038 32.2071 27.3705C32.5151 27.7372 32.6691 28.2652 32.6691 28.9545C32.6691 29.3652 32.6324 29.8712 32.5591 30.4725C32.4858 31.0738 32.3978 31.7045 32.2951 32.3645C32.2071 33.0098 32.1264 33.6405 32.0531 34.2565C31.9798 34.8725 31.9431 35.4152 31.9431 35.8845C31.9431 36.0458 31.9651 36.2365 32.0091 36.4565C32.0678 36.6765 32.1704 36.8672 32.3171 37.0285C32.4784 37.1898 32.6984 37.2705 32.9771 37.2705C33.3878 37.2705 33.7911 37.0798 34.1871 36.6985C34.5831 36.3172 34.9571 35.8038 35.3091 35.1585C35.6611 34.5132 35.9764 33.8018 36.2551 33.0245C36.5338 32.2325 36.7464 31.4258 36.8931 30.6045C37.0544 29.7685 37.1351 28.9765 37.1351 28.2285C37.1351 28.0085 37.1278 27.8105 37.1131 27.6345C37.1131 27.4438 37.1058 27.2532 37.0911 27.0625H38.9391C38.9538 27.1652 38.9611 27.2605 38.9611 27.3485C38.9611 27.4218 38.9611 27.5172 38.9611 27.6345C38.9611 27.8838 38.9464 28.1845 38.9171 28.5365C38.8878 28.8738 38.8438 29.3285 38.7851 29.9005C38.7264 30.4578 38.6384 31.1985 38.5211 32.1225C38.4184 32.9732 38.3378 33.6405 38.2791 34.1245C38.2351 34.6085 38.1984 34.9752 38.1691 35.2245C38.1398 35.4592 38.1178 35.6425 38.1031 35.7745C38.1031 35.9065 38.1031 36.0532 38.1031 36.2145C38.1031 36.4785 38.1398 36.7058 38.2131 36.8965C38.3011 37.0872 38.4624 37.1825 38.6971 37.1825C38.9464 37.1825 39.2178 37.0285 39.5111 36.7205C39.8191 36.3978 40.0831 35.8478 40.3031 35.0705L40.9191 35.2025C40.8751 35.4665 40.7798 35.7745 40.6331 36.1265C40.5011 36.4638 40.3178 36.8012 40.0831 37.1385C39.8484 37.4758 39.5624 37.7545 39.2251 37.9745C38.8878 38.1945 38.4991 38.3045 38.0591 38.3045C37.4724 38.3045 37.0398 38.1212 36.7611 37.7545C36.4971 37.3878 36.3651 36.9112 36.3651 36.3245C36.3651 35.8992 36.4018 35.4372 36.4751 34.9385C36.5631 34.4398 36.6584 33.9192 36.7611 33.3765H36.6951C36.1964 34.7112 35.7198 35.7378 35.2651 36.4565C34.8104 37.1605 34.3631 37.6445 33.9231 37.9085C33.4831 38.1725 33.0211 38.3045 32.5371 38.3045ZM49.9781 38.3045C49.4794 38.3045 49.0761 38.1138 48.7681 37.7325C48.4748 37.3512 48.2768 36.5812 48.1741 35.4225C48.0861 34.3812 47.9174 33.6698 47.6681 33.2885C47.4188 32.8925 47.0301 32.6945 46.5021 32.6945L44.1481 32.7165L44.1701 32.0785H47.0961V32.2765C48.0494 32.2765 48.7241 32.5258 49.1201 33.0245C49.5308 33.5232 49.7728 34.1392 49.8461 34.8725C49.9194 35.6352 50.0074 36.1852 50.1101 36.5225C50.2274 36.8598 50.4474 37.0432 50.7701 37.0725C51.0048 37.0872 51.2101 36.9992 51.3861 36.8085C51.5621 36.6178 51.7161 36.2512 51.8481 35.7085L52.4641 35.8185C52.3761 36.2292 52.2294 36.6252 52.0241 37.0065C51.8188 37.3878 51.5474 37.7032 51.2101 37.9525C50.8874 38.1872 50.4768 38.3045 49.9781 38.3045ZM42.5641 38.0625C42.5494 37.9745 42.5421 37.8645 42.5421 37.7325C42.5568 37.6005 42.5641 37.4465 42.5641 37.2705C42.5788 36.7425 42.6154 36.1705 42.6741 35.5545C42.7328 34.9238 42.8061 34.2932 42.8941 33.6625C42.9821 33.0172 43.0628 32.4012 43.1361 31.8145C43.2241 31.2278 43.2974 30.7072 43.3561 30.2525C43.4148 29.7832 43.4514 29.4312 43.4661 29.1965C43.4808 28.9032 43.4661 28.6172 43.4221 28.3385C43.3781 28.0598 43.2021 27.9205 42.8941 27.9205C42.6594 27.9205 42.3808 28.0818 42.0581 28.4045C41.7501 28.7272 41.4788 29.2772 41.2441 30.0545L40.6281 29.9225C40.6868 29.6585 40.7894 29.3578 40.9361 29.0205C41.0828 28.6685 41.2734 28.3238 41.5081 27.9865C41.7574 27.6492 42.0508 27.3705 42.3881 27.1505C42.7254 26.9305 43.1141 26.8205 43.5541 26.8205C44.3754 26.8205 44.8594 27.1432 45.0061 27.7885C45.1674 28.4192 45.1601 29.3065 44.9841 30.4505C44.8521 31.3158 44.7421 32.0932 44.6541 32.7825C44.5808 33.4572 44.5148 34.0585 44.4561 34.5865C44.4121 35.0998 44.3828 35.5472 44.3681 35.9285C44.3534 36.2952 44.3461 36.6032 44.3461 36.8525C44.3461 37.0285 44.3461 37.2192 44.3461 37.4245C44.3608 37.6298 44.3754 37.8425 44.3901 38.0625H42.5641ZM45.4681 32.4745V32.0785C46.1134 32.0785 46.6268 31.9025 47.0081 31.5505C47.3894 31.1985 47.7414 30.5825 48.0641 29.7025C48.4454 28.6612 48.8488 27.9205 49.2741 27.4805C49.7141 27.0405 50.2714 26.8205 50.9461 26.8205C51.3274 26.8205 51.6281 26.9305 51.8481 27.1505C52.0681 27.3705 52.1781 27.6638 52.1781 28.0305C52.1781 28.3238 52.0901 28.5878 51.9141 28.8225C51.7381 29.0425 51.4814 29.1525 51.1441 29.1525C50.7774 29.1525 50.4914 29.0718 50.2861 28.9105C50.0808 28.7492 49.9634 28.5218 49.9341 28.2285C49.7288 28.3605 49.5454 28.5658 49.3841 28.8445C49.2228 29.1085 49.0394 29.5192 48.8341 30.0765C48.5848 30.7805 48.2474 31.3598 47.8221 31.8145C47.4114 32.2545 46.9568 32.4745 46.4581 32.4745H45.4681ZM56.8909 38.3045C56.3043 38.3045 55.8349 38.1725 55.4829 37.9085C55.1309 37.6445 54.8743 37.2925 54.7129 36.8525C54.5663 36.4125 54.4929 35.9432 54.4929 35.4445C54.4929 34.6232 54.5516 33.7945 54.6689 32.9585C54.7863 32.1225 54.9036 31.3525 55.0209 30.6485C55.1383 29.9298 55.1969 29.3652 55.1969 28.9545C55.1969 28.6758 55.1603 28.4338 55.0869 28.2285C55.0283 28.0232 54.8669 27.9205 54.6029 27.9205C54.3683 27.9205 54.1043 28.0818 53.8109 28.4045C53.5323 28.7272 53.2829 29.2772 53.0629 30.0545L52.4469 29.9225C52.4909 29.6585 52.5789 29.3578 52.7109 29.0205C52.8429 28.6685 53.0189 28.3238 53.2389 27.9865C53.4736 27.6492 53.7523 27.3705 54.0749 27.1505C54.4123 26.9305 54.8009 26.8205 55.2409 26.8205C55.8276 26.8205 56.2676 27.0038 56.5609 27.3705C56.8689 27.7372 57.0229 28.2652 57.0229 28.9545C57.0229 29.3652 56.9863 29.8712 56.9129 30.4725C56.8396 31.0738 56.7516 31.7045 56.6489 32.3645C56.5609 33.0098 56.4803 33.6405 56.4069 34.2565C56.3336 34.8725 56.2969 35.4152 56.2969 35.8845C56.2969 36.0458 56.3189 36.2365 56.3629 36.4565C56.4216 36.6765 56.5243 36.8672 56.6709 37.0285C56.8323 37.1898 57.0523 37.2705 57.3309 37.2705C57.7416 37.2705 58.1449 37.0798 58.5409 36.6985C58.9369 36.3172 59.3109 35.8038 59.6629 35.1585C60.0149 34.5132 60.3303 33.8018 60.6089 33.0245C60.8876 32.2325 61.1003 31.4258 61.2469 30.6045C61.4083 29.7685 61.4889 28.9765 61.4889 28.2285C61.4889 28.0085 61.4816 27.8105 61.4669 27.6345C61.4669 27.4438 61.4596 27.2532 61.4449 27.0625H63.2929C63.3076 27.1652 63.3149 27.2605 63.3149 27.3485C63.3149 27.4218 63.3149 27.5172 63.3149 27.6345C63.3149 27.8838 63.3003 28.1845 63.2709 28.5365C63.2416 28.8738 63.1976 29.3285 63.1389 29.9005C63.0803 30.4578 62.9923 31.1985 62.8749 32.1225C62.7723 32.9732 62.6916 33.6405 62.6329 34.1245C62.5889 34.6085 62.5523 34.9752 62.5229 35.2245C62.4936 35.4592 62.4716 35.6425 62.4569 35.7745C62.4569 35.9065 62.4569 36.0532 62.4569 36.2145C62.4569 36.4785 62.4936 36.7058 62.5669 36.8965C62.6549 37.0872 62.8163 37.1825 63.0509 37.1825C63.3003 37.1825 63.5716 37.0285 63.8649 36.7205C64.1729 36.3978 64.4369 35.8478 64.6569 35.0705L65.2729 35.2025C65.2289 35.4665 65.1336 35.7745 64.9869 36.1265C64.8549 36.4638 64.6716 36.8012 64.4369 37.1385C64.2023 37.4758 63.9163 37.7545 63.5789 37.9745C63.2416 38.1945 62.8529 38.3045 62.4129 38.3045C61.8263 38.3045 61.3936 38.1212 61.1149 37.7545C60.8509 37.3878 60.7189 36.9112 60.7189 36.3245C60.7189 35.8992 60.7556 35.4372 60.8289 34.9385C60.9169 34.4398 61.0123 33.9192 61.1149 33.3765H61.0489C60.5503 34.7112 60.0736 35.7378 59.6189 36.4565C59.1643 37.1605 58.7169 37.6445 58.2769 37.9085C57.8369 38.1725 57.3749 38.3045 56.8909 38.3045ZM74.6839 38.3045C74.2879 38.3045 73.9653 38.2238 73.7159 38.0625C73.4666 37.8865 73.2833 37.6518 73.1659 37.3585C73.0486 37.0652 72.9899 36.7205 72.9899 36.3245C72.9899 35.9872 73.0193 35.5545 73.0779 35.0265C73.1513 34.4838 73.2246 33.8972 73.2979 33.2665L69.0519 33.3105C68.9933 33.8678 68.9273 34.4325 68.8539 35.0045C68.7953 35.5618 68.7293 36.1192 68.6559 36.6765C68.6266 36.9552 68.6119 37.2045 68.6119 37.4245C68.6266 37.6445 68.6486 37.8572 68.6779 38.0625H66.8299C66.8153 37.9598 66.8079 37.8718 66.8079 37.7985C66.8079 37.7105 66.8079 37.6078 66.8079 37.4905C66.8226 37.2412 66.8446 36.9552 66.8739 36.6325C66.9033 36.2952 66.9546 35.8552 67.0279 35.3125C67.1159 34.7552 67.2186 34.0145 67.3359 33.0905C67.4533 32.2252 67.5413 31.5505 67.5999 31.0665C67.6733 30.5825 67.7246 30.2158 67.7539 29.9665C67.7979 29.7025 67.8273 29.5045 67.8419 29.3725C67.8566 29.2258 67.8639 29.0718 67.8639 28.9105C67.8786 28.6465 67.8419 28.4192 67.7539 28.2285C67.6659 28.0232 67.4973 27.9205 67.2479 27.9205C67.0133 27.9205 66.7419 28.0818 66.4339 28.4045C66.1259 28.7272 65.8473 29.2772 65.5979 30.0545L64.9819 29.9225C65.0406 29.6585 65.1433 29.3578 65.2899 29.0205C65.4366 28.6685 65.6273 28.3238 65.8619 27.9865C66.1113 27.6492 66.4046 27.3705 66.7419 27.1505C67.0793 26.9305 67.4679 26.8205 67.9079 26.8205C68.4653 26.8205 68.8613 26.9818 69.0959 27.3045C69.3306 27.6125 69.4626 28.0158 69.4919 28.5145C69.5213 29.0132 69.4993 29.5412 69.4259 30.0985C69.3819 30.4798 69.3379 30.8685 69.2939 31.2645C69.2499 31.6605 69.2059 32.0492 69.1619 32.4305H73.4079C73.4959 31.7265 73.5693 31.0958 73.6279 30.5385C73.6866 29.9812 73.7233 29.4312 73.7379 28.8885C73.7673 28.3458 73.7599 27.7372 73.7159 27.0625H75.5639C75.5786 27.1652 75.5859 27.2605 75.5859 27.3485C75.5859 27.4218 75.5859 27.5172 75.5859 27.6345C75.5859 27.9718 75.5566 28.4412 75.4979 29.0425C75.4393 29.6292 75.3659 30.2745 75.2779 30.9785C75.2046 31.6825 75.1239 32.3865 75.0359 33.0905C74.9479 33.7945 74.8746 34.4252 74.8159 34.9825C74.7573 35.5252 74.7279 35.9358 74.7279 36.2145C74.7279 36.4785 74.7646 36.7058 74.8379 36.8965C74.9259 37.0872 75.0873 37.1825 75.3219 37.1825C75.5713 37.1825 75.8426 37.0285 76.1359 36.7205C76.4439 36.3978 76.7079 35.8478 76.9279 35.0705L77.5439 35.2025C77.4999 35.4665 77.4046 35.7745 77.2579 36.1265C77.1259 36.4638 76.9426 36.8012 76.7079 37.1385C76.4733 37.4758 76.1873 37.7545 75.8499 37.9745C75.5126 38.1945 75.1239 38.3045 74.6839 38.3045ZM81.6959 38.3045C81.1093 38.3045 80.6399 38.1725 80.2879 37.9085C79.9359 37.6445 79.6793 37.2925 79.5179 36.8525C79.3713 36.4125 79.2979 35.9432 79.2979 35.4445C79.2979 34.6232 79.3566 33.7945 79.4739 32.9585C79.5913 32.1225 79.7086 31.3525 79.8259 30.6485C79.9433 29.9298 80.0019 29.3652 80.0019 28.9545C80.0019 28.6758 79.9653 28.4338 79.8919 28.2285C79.8333 28.0232 79.6719 27.9205 79.4079 27.9205C79.1733 27.9205 78.9093 28.0818 78.6159 28.4045C78.3373 28.7272 78.0879 29.2772 77.8679 30.0545L77.2519 29.9225C77.2959 29.6585 77.3839 29.3578 77.5159 29.0205C77.6479 28.6685 77.8239 28.3238 78.0439 27.9865C78.2786 27.6492 78.5573 27.3705 78.8799 27.1505C79.2173 26.9305 79.6059 26.8205 80.0459 26.8205C80.6326 26.8205 81.0726 27.0038 81.3659 27.3705C81.6739 27.7372 81.8279 28.2652 81.8279 28.9545C81.8279 29.3652 81.7913 29.8712 81.7179 30.4725C81.6446 31.0738 81.5566 31.7045 81.4539 32.3645C81.3659 33.0098 81.2853 33.6405 81.2119 34.2565C81.1386 34.8725 81.1019 35.4152 81.1019 35.8845C81.1019 36.0458 81.1239 36.2365 81.1679 36.4565C81.2266 36.6765 81.3293 36.8672 81.4759 37.0285C81.6373 37.1898 81.8573 37.2705 82.1359 37.2705C82.5466 37.2705 82.9499 37.0798 83.3459 36.6985C83.7419 36.3172 84.1159 35.8038 84.4679 35.1585C84.8199 34.5132 85.1353 33.8018 85.4139 33.0245C85.6926 32.2325 85.9053 31.4258 86.0519 30.6045C86.2133 29.7685 86.2939 28.9765 86.2939 28.2285C86.2939 28.0085 86.2866 27.8105 86.2719 27.6345C86.2719 27.4438 86.2646 27.2532 86.2499 27.0625H88.0979C88.1126 27.1652 88.1199 27.2605 88.1199 27.3485C88.1199 27.4218 88.1199 27.5172 88.1199 27.6345C88.1199 27.8838 88.1053 28.1845 88.0759 28.5365C88.0466 28.8738 88.0026 29.3285 87.9439 29.9005C87.8853 30.4578 87.7973 31.1985 87.6799 32.1225C87.5773 32.9732 87.4966 33.6405 87.4379 34.1245C87.3939 34.6085 87.3573 34.9752 87.3279 35.2245C87.2986 35.4592 87.2766 35.6425 87.2619 35.7745C87.2619 35.9065 87.2619 36.0532 87.2619 36.2145C87.2619 36.4785 87.2986 36.7058 87.3719 36.8965C87.4599 37.0872 87.6213 37.1825 87.8559 37.1825C88.1053 37.1825 88.3766 37.0285 88.6699 36.7205C88.9779 36.3978 89.2419 35.8478 89.4619 35.0705L90.0779 35.2025C90.0339 35.4665 89.9386 35.7745 89.7919 36.1265C89.6599 36.4638 89.4766 36.8012 89.2419 37.1385C89.0073 37.4758 88.7213 37.7545 88.3839 37.9745C88.0466 38.1945 87.6579 38.3045 87.2179 38.3045C86.6313 38.3045 86.1986 38.1212 85.9199 37.7545C85.6559 37.3878 85.5239 36.9112 85.5239 36.3245C85.5239 35.8992 85.5606 35.4372 85.6339 34.9385C85.7219 34.4398 85.8173 33.9192 85.9199 33.3765H85.8539C85.3553 34.7112 84.8786 35.7378 84.4239 36.4565C83.9693 37.1605 83.5219 37.6445 83.0819 37.9085C82.6419 38.1725 82.1799 38.3045 81.6959 38.3045Z" fill="#3B434B"/>
<path d="M357.75 38.8125L344.25 25.3125M357.75 38.8125C357.243 38.3055 356.308 37.98 355.471 37.7783C354.353 37.509 353.194 37.4602 352.052 37.5892C351.165 37.6897 350.188 37.8892 349.795 38.2822M357.75 38.8125C357.243 38.3055 356.918 37.3703 356.716 36.5333C356.447 35.4158 356.398 34.2563 356.527 33.114C356.627 32.2275 356.827 31.251 357.22 30.8572" stroke="#3B434B" stroke-width="0.75"/>
<path d="M15 61.0625L360 61.0625" stroke="#3B434B" stroke-opacity="0.2" stroke-linecap="round"/>
<path d="M15 61.0625L360 61.0625" stroke="#3B434B" stroke-opacity="0.2" stroke-linecap="round"/>
</g>
<defs>
<clipPath id="clip0_238_2">
<rect width="375" height="6280" fill="white" transform="translate(0 -3191)"/>
</clipPath>
</defs>
</svg>
