<svg width="375" height="62" viewBox="0 0 375 62" fill="none" xmlns="http://www.w3.org/2000/svg">
<path d="M-6065 -3801C-6065 -3802.1 -6064.1 -3803 -6063 -3803H4265C4266.1 -3803 4267 -3802.1 4267 -3801V9430C4267 9431.1 4266.1 9432 4265 9432H-6063C-6064.1 9432 -6065 9431.1 -6065 9430V-3801Z" fill="#444444"/>
<path d="M-6063 -3803V-3802H4265V-3803V-3804H-6063V-3803ZM4267 -3801H4266V9430H4267H4268V-3801H4267ZM4265 9432V9431H-6063V9432V9433H4265V9432ZM-6065 9430H-6064V-3801H-6065H-6066V9430H-6065ZM-6063 9432V9431C-6063.55 9431 -6064 9430.55 -6064 9430H-6065H-6066C-6066 9431.66 -6064.66 9433 -6063 9433V9432ZM4267 9430H4266C4266 9430.55 4265.55 9431 4265 9431V9432V9433C4266.66 9433 4268 9431.66 4268 9430H4267ZM4265 -3803V-3802C4265.55 -3802 4266 -3801.55 4266 -3801H4267H4268C4268 -3802.66 4266.66 -3804 4265 -3804V-3803ZM-6063 -3803V-3804C-6064.66 -3804 -6066 -3802.66 -6066 -3801H-6065H-6064C-6064 -3801.55 -6063.55 -3802 -6063 -3802V-3803Z" fill="white" fill-opacity="0.1"/>
<g clip-path="url(#clip0_238_2)">
<rect width="375" height="6280" transform="translate(0 -3377)" fill="#F9F9F9"/>
<path d="M21.534 22.6185C22.9567 22.6185 24.13 22.7872 25.054 23.1245C25.9927 23.4472 26.6967 23.9312 27.166 24.5765C27.6353 25.2072 27.87 25.9918 27.87 26.9305C27.87 27.5025 27.76 28.1038 27.54 28.7345C27.32 29.3505 26.9387 29.9298 26.396 30.4725C25.8533 31.0005 25.098 31.4332 24.13 31.7705C23.162 32.1078 21.9227 32.2765 20.412 32.2765C20.3387 32.2765 20.214 32.2765 20.038 32.2765C19.862 32.2765 19.7007 32.2692 19.554 32.2545L19.378 35.4445C19.3633 35.8405 19.3413 36.1852 19.312 36.4785C19.2827 36.7572 19.2533 36.9918 19.224 37.1825C19.4587 37.1678 19.686 37.1532 19.906 37.1385C20.126 37.1238 20.346 37.1165 20.566 37.1165C20.8007 37.1018 21.028 37.0872 21.248 37.0725L21.204 38.0625H15.902L15.946 37.3365C16.5033 37.3072 16.892 37.1825 17.112 36.9625C17.332 36.7278 17.464 36.4125 17.508 36.0165C17.552 35.6058 17.5813 35.1438 17.596 34.6305L18.102 25.1265C18.1313 24.8332 18.1533 24.5545 18.168 24.2905C18.1973 24.0118 18.2267 23.7625 18.256 23.5425C17.992 23.5572 17.7207 23.5718 17.442 23.5865C17.178 23.6012 16.914 23.6158 16.65 23.6305L16.716 22.6625C17.4933 22.6478 18.278 22.6405 19.07 22.6405C19.862 22.6258 20.6833 22.6185 21.534 22.6185ZM21.446 23.4765C20.9913 23.4765 20.654 23.5792 20.434 23.7845C20.214 23.9752 20.0747 24.2612 20.016 24.6425C19.9573 25.0092 19.9133 25.4565 19.884 25.9845L19.598 31.3305C19.8767 31.3598 20.1187 31.3818 20.324 31.3965C20.5293 31.3965 20.764 31.3965 21.028 31.3965C21.864 31.3965 22.634 31.2352 23.338 30.9125C24.0567 30.5898 24.636 30.1205 25.076 29.5045C25.516 28.8885 25.758 28.1552 25.802 27.3045C25.8313 26.6152 25.7507 26.0285 25.56 25.5445C25.3693 25.0458 25.076 24.6498 24.68 24.3565C24.2987 24.0485 23.8293 23.8285 23.272 23.6965C22.7293 23.5498 22.1207 23.4765 21.446 23.4765ZM28.875 44.0245C28.3763 43.9952 27.973 43.8485 27.665 43.5845C27.357 43.3352 27.203 43.0198 27.203 42.6385C27.203 42.3012 27.3056 42.0445 27.511 41.8685C27.7163 41.7072 27.9143 41.6265 28.105 41.6265C28.765 41.6265 29.0803 42.0078 29.051 42.7705C29.139 42.8145 29.2196 42.8512 29.293 42.8805C29.3663 42.9098 29.447 42.9245 29.535 42.9245C29.8576 42.9392 30.1876 42.8218 30.525 42.5725C30.877 42.3232 31.207 42.0078 31.515 41.6265C31.8376 41.2598 32.1163 40.8932 32.351 40.5265C32.6003 40.1745 32.7836 39.9032 32.901 39.7125C32.769 38.8618 32.615 37.9892 32.439 37.0945C32.263 36.1852 32.0576 35.2832 31.823 34.3885C31.603 33.4792 31.3536 32.6065 31.075 31.7705C30.811 30.9198 30.525 30.1205 30.217 29.3725C30.1143 29.1232 29.9823 28.8665 29.821 28.6025C29.6596 28.3385 29.4323 28.2212 29.139 28.2505C28.8603 28.2798 28.6476 28.4998 28.501 28.9105C28.369 29.3212 28.3323 29.8638 28.391 30.5385L27.687 30.6265C27.643 30.2305 27.6356 29.8125 27.665 29.3725C27.709 28.9325 27.8043 28.5218 27.951 28.1405C28.0976 27.7445 28.3103 27.4292 28.589 27.1945C28.8676 26.9452 29.2343 26.8205 29.689 26.8205C30.1876 26.8205 30.591 26.9525 30.899 27.2165C31.2216 27.4805 31.4783 27.8032 31.669 28.1845C31.8743 28.5658 32.043 28.9398 32.175 29.3065C32.4536 30.0545 32.725 30.9125 32.989 31.8805C33.253 32.8485 33.4803 33.8385 33.671 34.8505C33.8763 35.8478 34.0303 36.7792 34.133 37.6445H34.177C34.5876 36.9258 34.9836 36.1338 35.365 35.2685C35.7463 34.4032 36.0616 33.5232 36.311 32.6285C36.5603 31.7192 36.685 30.8685 36.685 30.0765C36.685 29.7098 36.6483 29.3872 36.575 29.1085C36.5163 28.8298 36.443 28.6318 36.355 28.5145C36.2963 28.5585 36.2156 28.5952 36.113 28.6245C36.025 28.6392 35.9223 28.6465 35.805 28.6465C35.541 28.6465 35.3283 28.5658 35.167 28.4045C35.0056 28.2285 34.925 28.0232 34.925 27.7885C34.925 27.4658 35.0276 27.2238 35.233 27.0625C35.453 26.9012 35.695 26.8205 35.959 26.8205C36.4136 26.8205 36.7656 26.9598 37.015 27.2385C37.2643 27.5172 37.4403 27.8692 37.543 28.2945C37.6603 28.7198 37.719 29.1672 37.719 29.6365C37.719 30.6045 37.5796 31.5945 37.301 32.6065C37.0223 33.6185 36.6556 34.6158 36.201 35.5985C35.761 36.5812 35.2916 37.5272 34.793 38.4365C34.0596 39.7565 33.3556 40.8345 32.681 41.6705C32.021 42.5065 31.3756 43.1078 30.745 43.4745C30.1143 43.8558 29.491 44.0392 28.875 44.0245ZM47.7437 38.3045C47.2451 38.3045 46.8417 38.1138 46.5337 37.7325C46.2404 37.3512 46.0424 36.5812 45.9397 35.4225C45.8517 34.3812 45.6831 33.6698 45.4337 33.2885C45.1844 32.8925 44.7957 32.6945 44.2677 32.6945L41.9137 32.7165L41.9357 32.0785H44.8617V32.2765C45.8151 32.2765 46.4897 32.5258 46.8857 33.0245C47.2964 33.5232 47.5384 34.1392 47.6117 34.8725C47.6851 35.6352 47.7731 36.1852 47.8757 36.5225C47.9931 36.8598 48.2131 37.0432 48.5357 37.0725C48.7704 37.0872 48.9757 36.9992 49.1517 36.8085C49.3277 36.6178 49.4817 36.2512 49.6137 35.7085L50.2297 35.8185C50.1417 36.2292 49.9951 36.6252 49.7897 37.0065C49.5844 37.3878 49.3131 37.7032 48.9757 37.9525C48.6531 38.1872 48.2424 38.3045 47.7437 38.3045ZM40.3297 38.0625C40.3151 37.9745 40.3077 37.8645 40.3077 37.7325C40.3224 37.6005 40.3297 37.4465 40.3297 37.2705C40.3444 36.7425 40.3811 36.1705 40.4397 35.5545C40.4984 34.9238 40.5717 34.2932 40.6597 33.6625C40.7477 33.0172 40.8284 32.4012 40.9017 31.8145C40.9897 31.2278 41.0631 30.7072 41.1217 30.2525C41.1804 29.7832 41.2171 29.4312 41.2317 29.1965C41.2464 28.9032 41.2317 28.6172 41.1877 28.3385C41.1437 28.0598 40.9677 27.9205 40.6597 27.9205C40.4251 27.9205 40.1464 28.0818 39.8237 28.4045C39.5157 28.7272 39.2444 29.2772 39.0097 30.0545L38.3937 29.9225C38.4524 29.6585 38.5551 29.3578 38.7017 29.0205C38.8484 28.6685 39.0391 28.3238 39.2737 27.9865C39.5231 27.6492 39.8164 27.3705 40.1537 27.1505C40.4911 26.9305 40.8797 26.8205 41.3197 26.8205C42.1411 26.8205 42.6251 27.1432 42.7717 27.7885C42.9331 28.4192 42.9257 29.3065 42.7497 30.4505C42.6177 31.3158 42.5077 32.0932 42.4197 32.7825C42.3464 33.4572 42.2804 34.0585 42.2217 34.5865C42.1777 35.0998 42.1484 35.5472 42.1337 35.9285C42.1191 36.2952 42.1117 36.6032 42.1117 36.8525C42.1117 37.0285 42.1117 37.2192 42.1117 37.4245C42.1264 37.6298 42.1411 37.8425 42.1557 38.0625H40.3297ZM43.2337 32.4745V32.0785C43.8791 32.0785 44.3924 31.9025 44.7737 31.5505C45.1551 31.1985 45.5071 30.5825 45.8297 29.7025C46.2111 28.6612 46.6144 27.9205 47.0397 27.4805C47.4797 27.0405 48.0371 26.8205 48.7117 26.8205C49.0931 26.8205 49.3937 26.9305 49.6137 27.1505C49.8337 27.3705 49.9437 27.6638 49.9437 28.0305C49.9437 28.3238 49.8557 28.5878 49.6797 28.8225C49.5037 29.0425 49.2471 29.1525 48.9097 29.1525C48.5431 29.1525 48.2571 29.0718 48.0517 28.9105C47.8464 28.7492 47.7291 28.5218 47.6997 28.2285C47.4944 28.3605 47.3111 28.5658 47.1497 28.8445C46.9884 29.1085 46.8051 29.5192 46.5997 30.0765C46.3504 30.7805 46.0131 31.3598 45.5877 31.8145C45.1771 32.2545 44.7224 32.4745 44.2237 32.4745H43.2337ZM54.6565 38.3045C54.0699 38.3045 53.6005 38.1725 53.2485 37.9085C52.8965 37.6445 52.6399 37.2925 52.4785 36.8525C52.3319 36.4125 52.2585 35.9432 52.2585 35.4445C52.2585 34.6232 52.3172 33.7945 52.4345 32.9585C52.5519 32.1225 52.6692 31.3525 52.7865 30.6485C52.9039 29.9298 52.9625 29.3652 52.9625 28.9545C52.9625 28.6758 52.9259 28.4338 52.8525 28.2285C52.7939 28.0232 52.6325 27.9205 52.3685 27.9205C52.1339 27.9205 51.8699 28.0818 51.5765 28.4045C51.2979 28.7272 51.0485 29.2772 50.8285 30.0545L50.2125 29.9225C50.2565 29.6585 50.3445 29.3578 50.4765 29.0205C50.6085 28.6685 50.7845 28.3238 51.0045 27.9865C51.2392 27.6492 51.5179 27.3705 51.8405 27.1505C52.1779 26.9305 52.5665 26.8205 53.0065 26.8205C53.5932 26.8205 54.0332 27.0038 54.3265 27.3705C54.6345 27.7372 54.7885 28.2652 54.7885 28.9545C54.7885 29.3652 54.7519 29.8712 54.6785 30.4725C54.6052 31.0738 54.5172 31.7045 54.4145 32.3645C54.3265 33.0098 54.2459 33.6405 54.1725 34.2565C54.0992 34.8725 54.0625 35.4152 54.0625 35.8845C54.0625 36.0458 54.0845 36.2365 54.1285 36.4565C54.1872 36.6765 54.2899 36.8672 54.4365 37.0285C54.5979 37.1898 54.8179 37.2705 55.0965 37.2705C55.5072 37.2705 55.9105 37.0798 56.3065 36.6985C56.7025 36.3172 57.0765 35.8038 57.4285 35.1585C57.7805 34.5132 58.0959 33.8018 58.3745 33.0245C58.6532 32.2325 58.8659 31.4258 59.0125 30.6045C59.1739 29.7685 59.2545 28.9765 59.2545 28.2285C59.2545 28.0085 59.2472 27.8105 59.2325 27.6345C59.2325 27.4438 59.2252 27.2532 59.2105 27.0625H61.0585C61.0732 27.1652 61.0805 27.2605 61.0805 27.3485C61.0805 27.4218 61.0805 27.5172 61.0805 27.6345C61.0805 27.8838 61.0659 28.1845 61.0365 28.5365C61.0072 28.8738 60.9632 29.3285 60.9045 29.9005C60.8459 30.4578 60.7579 31.1985 60.6405 32.1225C60.5379 32.9732 60.4572 33.6405 60.3985 34.1245C60.3545 34.6085 60.3179 34.9752 60.2885 35.2245C60.2592 35.4592 60.2372 35.6425 60.2225 35.7745C60.2225 35.9065 60.2225 36.0532 60.2225 36.2145C60.2225 36.4785 60.2592 36.7058 60.3325 36.8965C60.4205 37.0872 60.5819 37.1825 60.8165 37.1825C61.0659 37.1825 61.3372 37.0285 61.6305 36.7205C61.9385 36.3978 62.2025 35.8478 62.4225 35.0705L63.0385 35.2025C62.9945 35.4665 62.8992 35.7745 62.7525 36.1265C62.6205 36.4638 62.4372 36.8012 62.2025 37.1385C61.9679 37.4758 61.6819 37.7545 61.3445 37.9745C61.0072 38.1945 60.6185 38.3045 60.1785 38.3045C59.5919 38.3045 59.1592 38.1212 58.8805 37.7545C58.6165 37.3878 58.4845 36.9112 58.4845 36.3245C58.4845 35.8992 58.5212 35.4372 58.5945 34.9385C58.6825 34.4398 58.7779 33.9192 58.8805 33.3765H58.8145C58.3159 34.7112 57.8392 35.7378 57.3845 36.4565C56.9299 37.1605 56.4825 37.6445 56.0425 37.9085C55.6025 38.1725 55.1405 38.3045 54.6565 38.3045Z" fill="#3B434B"/>
<path d="M357.75 38.8125L344.25 25.3125M357.75 38.8125C357.243 38.3055 356.308 37.98 355.471 37.7783C354.353 37.509 353.194 37.4602 352.052 37.5892C351.165 37.6897 350.188 37.8892 349.795 38.2822M357.75 38.8125C357.243 38.3055 356.918 37.3703 356.716 36.5333C356.447 35.4158 356.398 34.2563 356.527 33.114C356.627 32.2275 356.827 31.251 357.22 30.8572" stroke="#3B434B" stroke-width="0.75"/>
<path d="M15 61.0625L360 61.0625" stroke="#3B434B" stroke-opacity="0.2" stroke-linecap="round"/>
</g>
<defs>
<clipPath id="clip0_238_2">
<rect width="375" height="6280" fill="white" transform="translate(0 -3377)"/>
</clipPath>
</defs>
</svg>
