<svg width="375" height="70" viewBox="0 0 375 70" fill="none" xmlns="http://www.w3.org/2000/svg">
<path d="M-6966 -2393C-6966 -2394.1 -6965.1 -2395 -6964 -2395H3364C3365.1 -2395 3366 -2394.1 3366 -2393V10838C3366 10839.1 3365.1 10840 3364 10840H-6964C-6965.1 10840 -6966 10839.1 -6966 10838V-2393Z" fill="#444444"/>
<path d="M-6964 -2395V-2394H3364V-2395V-2396H-6964V-2395ZM3366 -2393H3365V10838H3366H3367V-2393H3366ZM3364 10840V10839H-6964V10840V10841H3364V10840ZM-6966 10838H-6965V-2393H-6966H-6967V10838H-6966ZM-6964 10840V10839C-6964.55 10839 -6965 10838.6 -6965 10838H-6966H-6967C-6967 10839.7 -6965.66 10841 -6964 10841V10840ZM3366 10838H3365C3365 10838.6 3364.55 10839 3364 10839V10840V10841C3365.66 10841 3367 10839.7 3367 10838H3366ZM3364 -2395V-2394C3364.55 -2394 3365 -2393.55 3365 -2393H3366H3367C3367 -2394.66 3365.66 -2396 3364 -2396V-2395ZM-6964 -2395V-2396C-6965.66 -2396 -6967 -2394.66 -6967 -2393H-6966H-6965C-6965 -2393.55 -6964.55 -2394 -6964 -2394V-2395Z" fill="white" fill-opacity="0.1"/>
<g clip-path="url(#clip0_238_2)">
<rect width="375" height="8557" transform="translate(0 -1969)" fill="#F9F9F9"/>
<path d="M15 7.0625L360 7.06247" stroke="#3B434B" stroke-opacity="0.2" stroke-linecap="round"/>
<path d="M18.828 46.4365C18.3733 46.4365 17.97 46.3338 17.618 46.1285C17.2807 45.9232 17.112 45.5785 17.112 45.0945C17.112 44.7132 17.222 44.4198 17.442 44.2145C17.662 43.9945 17.9407 43.8772 18.278 43.8625C18.63 43.8478 18.8793 43.9432 19.026 44.1485C19.1873 44.3538 19.2607 44.5738 19.246 44.8085C19.2313 45.0285 19.158 45.2118 19.026 45.3585C19.07 45.3878 19.1067 45.4098 19.136 45.4245C19.18 45.4392 19.2533 45.4465 19.356 45.4465C19.6053 45.4465 19.84 45.3145 20.06 45.0505C20.28 44.7865 20.5 44.4418 20.72 44.0165C20.94 43.5765 21.16 43.1218 21.38 42.6525L17.486 34.0505C17.2367 33.4638 17.0533 32.9798 16.936 32.5985C16.8333 32.2025 16.7673 31.8652 16.738 31.5865L15.374 31.6305L15.418 30.6625H20.72L20.676 31.3885C20.06 31.3885 19.6273 31.4912 19.378 31.6965C19.1433 31.9018 19.0407 32.1878 19.07 32.5545C19.0993 32.9065 19.2093 33.3172 19.4 33.7865L21.336 38.3845C21.4973 38.7512 21.6587 39.1252 21.82 39.5065C21.9813 39.8732 22.1353 40.2472 22.282 40.6285H22.326L25.296 33.9185C25.4573 33.4785 25.6407 33.0238 25.846 32.5545C26.066 32.0852 26.2567 31.7552 26.418 31.5645L24.68 31.6305L24.724 30.6625H29.212L29.19 31.3885C28.6473 31.4178 28.2147 31.5425 27.892 31.7625C27.584 31.9678 27.3127 32.2758 27.078 32.6865C26.858 33.0825 26.6087 33.5812 26.33 34.1825L22.326 42.7845C21.9447 43.5912 21.5853 44.2658 21.248 44.8085C20.9107 45.3512 20.5513 45.7618 20.17 46.0405C19.7887 46.3045 19.3413 46.4365 18.828 46.4365ZM29.4832 46.3045C29.0726 46.3045 28.7426 46.2018 28.4932 45.9965C28.2439 45.7765 28.1192 45.5052 28.1192 45.1825C28.1192 44.8745 28.2072 44.6325 28.3832 44.4565C28.5739 44.2658 28.7866 44.1705 29.0212 44.1705C29.3586 44.1705 29.5786 44.2805 29.6812 44.5005C29.7839 44.7058 29.8426 44.8965 29.8572 45.0725C30.2679 45.1605 30.7152 44.8672 31.1992 44.1925C31.6979 43.5178 32.2479 42.2932 32.8492 40.5185C32.5559 39.7412 32.3066 39.0738 32.1012 38.5165C31.9106 37.9592 31.7346 37.5045 31.5732 37.1525C31.4266 36.8152 31.2799 36.5658 31.1332 36.4045C31.0012 36.2432 30.8326 36.1625 30.6272 36.1625C30.3632 36.1625 30.1212 36.3092 29.9012 36.6025C29.6812 36.8812 29.5492 37.4532 29.5052 38.3185L28.8672 38.3405C28.8672 38.0472 28.8966 37.7025 28.9552 37.3065C29.0139 36.9105 29.1239 36.5218 29.2852 36.1405C29.4466 35.7592 29.6812 35.4438 29.9892 35.1945C30.2972 34.9452 30.7006 34.8205 31.1992 34.8205C31.7126 34.8205 32.1012 34.9672 32.3652 35.2605C32.6439 35.5538 32.9006 35.9792 33.1352 36.5365C33.2672 36.8738 33.3992 37.2625 33.5312 37.7025C33.6779 38.1425 33.8466 38.6265 34.0372 39.1545C34.4332 38.2012 34.8146 37.4385 35.1812 36.8665C35.5626 36.2798 35.9219 35.8398 36.2592 35.5465C36.5966 35.2532 36.9046 35.0625 37.1832 34.9745C37.4766 34.8718 37.7259 34.8205 37.9312 34.8205C38.3126 34.8205 38.6059 34.9232 38.8112 35.1285C39.0166 35.3338 39.1192 35.5905 39.1192 35.8985C39.1192 36.1478 39.0312 36.3678 38.8552 36.5585C38.6792 36.7492 38.4666 36.8445 38.2172 36.8445C37.8946 36.8445 37.6599 36.7638 37.5132 36.6025C37.3812 36.4265 37.2786 36.2872 37.2052 36.1845C36.9999 36.2138 36.7579 36.3532 36.4792 36.6025C36.2152 36.8372 35.9146 37.2405 35.5772 37.8125C35.2399 38.3845 34.8586 39.1912 34.4332 40.2325C34.7852 41.1272 35.0932 41.8752 35.3572 42.4765C35.6212 43.0778 35.8559 43.5618 36.0612 43.9285C36.2812 44.2952 36.4792 44.5592 36.6552 44.7205C36.8459 44.8818 37.0292 44.9625 37.2052 44.9625C37.4692 44.9625 37.6966 44.8232 37.8872 44.5445C38.0779 44.2512 38.2246 43.8112 38.3272 43.2245L38.9432 43.3125C38.8992 43.6792 38.8259 44.0458 38.7232 44.4125C38.6206 44.7645 38.4812 45.0872 38.3052 45.3805C38.1439 45.6592 37.9312 45.8865 37.6672 46.0625C37.4179 46.2238 37.1099 46.3045 36.7432 46.3045C36.3766 46.3045 36.0612 46.2458 35.7972 46.1285C35.5332 46.0112 35.2839 45.7912 35.0492 45.4685C34.8146 45.1312 34.5579 44.6545 34.2792 44.0385C34.0152 43.4225 33.6852 42.6158 33.2892 41.6185H33.2672C32.9006 42.6892 32.5486 43.5398 32.2112 44.1705C31.8739 44.8012 31.5439 45.2705 31.2212 45.5785C30.9132 45.8865 30.6126 46.0845 30.3192 46.1725C30.0259 46.2605 29.7472 46.3045 29.4832 46.3045ZM45.4095 34.8205C46.2015 34.8205 46.9128 35.0112 47.5435 35.3925C48.1742 35.7592 48.6728 36.3018 49.0395 37.0205C49.4062 37.7392 49.5895 38.6118 49.5895 39.6385C49.5895 40.8118 49.3768 41.9118 48.9515 42.9385C48.5262 43.9505 47.9102 44.7645 47.1035 45.3805C46.3115 45.9965 45.3435 46.3045 44.1995 46.3045C43.2315 46.3045 42.4322 46.0845 41.8015 45.6445C41.1855 45.2045 40.7235 44.6105 40.4155 43.8625C40.1222 43.1145 39.9755 42.2858 39.9755 41.3765C39.9755 40.1885 40.1882 39.0958 40.6135 38.0985C41.0535 37.1012 41.6768 36.3092 42.4835 35.7225C43.3048 35.1212 44.2802 34.8205 45.4095 34.8205ZM45.0795 35.6345C44.4342 35.6198 43.8768 35.8398 43.4075 36.2945C42.9382 36.7345 42.5715 37.3358 42.3075 38.0985C42.0582 38.8612 41.9262 39.7118 41.9115 40.6505C41.8968 41.1492 41.9262 41.6772 41.9995 42.2345C42.0728 42.7918 42.1975 43.3125 42.3735 43.7965C42.5642 44.2805 42.8208 44.6765 43.1435 44.9845C43.4808 45.2925 43.8988 45.4538 44.3975 45.4685C44.9842 45.4832 45.4828 45.3292 45.8935 45.0065C46.3042 44.6692 46.6342 44.2365 46.8835 43.7085C47.1328 43.1805 47.3162 42.6158 47.4335 42.0145C47.5655 41.4132 47.6388 40.8485 47.6535 40.3205C47.6682 39.8072 47.6388 39.2792 47.5655 38.7365C47.5068 38.1938 47.3822 37.6878 47.1915 37.2185C47.0008 36.7492 46.7368 36.3752 46.3995 36.0965C46.0622 35.8032 45.6222 35.6492 45.0795 35.6345ZM54.6162 46.3045C53.8682 46.3045 53.2008 46.1212 52.6142 45.7545C52.0275 45.3878 51.5655 44.8452 51.2282 44.1265C50.9055 43.4078 50.7515 42.5205 50.7662 41.4645C50.7955 40.2325 51.0375 39.1472 51.4922 38.2085C51.9615 37.2698 52.5775 36.5438 53.3402 36.0305C54.1175 35.5025 54.9755 35.2385 55.9142 35.2385C56.3688 35.2385 56.7795 35.3118 57.1462 35.4585C57.5128 35.5905 57.8062 35.8032 58.0262 36.0965C57.8502 34.1458 57.4468 32.6792 56.8162 31.6965C56.2002 30.6992 55.4742 30.2005 54.6382 30.2005C54.2568 30.2005 53.8608 30.2812 53.4502 30.4425C53.0542 30.5892 52.6655 30.8532 52.2842 31.2345L51.8662 30.7285C52.3942 30.2738 52.8855 29.9365 53.3402 29.7165C53.8095 29.4965 54.3155 29.3865 54.8582 29.3865C55.7822 29.3865 56.5668 29.6358 57.2122 30.1345C57.8575 30.6185 58.3782 31.2932 58.7742 32.1585C59.1702 33.0092 59.4562 33.9845 59.6322 35.0845C59.8082 36.1698 59.8815 37.3138 59.8522 38.5165C59.8082 39.9685 59.6322 41.1932 59.3242 42.1905C59.0162 43.1878 58.6128 43.9872 58.1142 44.5885C57.6302 45.1898 57.0802 45.6298 56.4642 45.9085C55.8628 46.1725 55.2468 46.3045 54.6162 46.3045ZM55.0342 45.4685C55.5622 45.4685 56.0022 45.2852 56.3542 44.9185C56.7208 44.5372 57.0215 44.0458 57.2562 43.4445C57.4908 42.8432 57.6668 42.1832 57.7842 41.4645C57.9015 40.7458 57.9822 40.0492 58.0262 39.3745C58.0702 38.7145 58.0042 38.1352 57.8282 37.6365C57.6522 37.1378 57.4028 36.7492 57.0802 36.4705C56.7575 36.1918 56.3762 36.0525 55.9362 36.0525C55.4375 36.0525 54.9315 36.2578 54.4182 36.6685C53.9195 37.0792 53.5015 37.6732 53.1642 38.4505C52.8268 39.2132 52.6435 40.1372 52.6142 41.2225C52.5995 42.0292 52.6875 42.7552 52.8782 43.4005C53.0688 44.0312 53.3475 44.5372 53.7142 44.9185C54.0808 45.2852 54.5208 45.4685 55.0342 45.4685ZM72.8127 46.3045C72.4167 46.3045 72.0941 46.2238 71.8447 46.0625C71.5954 45.8865 71.4121 45.6518 71.2947 45.3585C71.1774 45.0652 71.1187 44.7205 71.1187 44.3245C71.1187 43.9432 71.1554 43.4445 71.2287 42.8285C71.3167 42.1978 71.4047 41.5085 71.4927 40.7605C71.5954 39.9978 71.6834 39.2352 71.7567 38.4725C71.8447 37.7098 71.8887 36.9985 71.8887 36.3385C71.8887 36.1185 71.8814 35.9058 71.8667 35.7005C71.8667 35.4952 71.8594 35.2825 71.8447 35.0625H73.6927C73.7074 35.1652 73.7147 35.2605 73.7147 35.3485C73.7147 35.4218 73.7147 35.5172 73.7147 35.6345C73.7147 35.9718 73.6854 36.4412 73.6267 37.0425C73.5681 37.6292 73.4947 38.2745 73.4067 38.9785C73.3334 39.6825 73.2527 40.3865 73.1647 41.0905C73.0767 41.7945 73.0034 42.4252 72.9447 42.9825C72.8861 43.5252 72.8567 43.9358 72.8567 44.2145C72.8567 44.4785 72.8934 44.7058 72.9667 44.8965C73.0547 45.0872 73.2161 45.1825 73.4507 45.1825C73.6854 45.1825 73.9567 45.0285 74.2647 44.7205C74.5727 44.3978 74.8367 43.8478 75.0567 43.0705L75.6727 43.2025C75.6287 43.4665 75.5334 43.7745 75.3867 44.1265C75.2547 44.4638 75.0714 44.8012 74.8367 45.1385C74.6021 45.4758 74.3161 45.7545 73.9787 45.9745C73.6414 46.1945 73.2527 46.3045 72.8127 46.3045ZM65.3547 46.3045C64.6067 46.3045 64.0054 46.1578 63.5507 45.8645C63.0961 45.5565 62.7807 45.1458 62.6047 44.6325C62.4287 44.1045 62.3847 43.5105 62.4727 42.8505C62.6634 41.6625 62.8174 40.7018 62.9347 39.9685C63.0521 39.2205 63.1401 38.6412 63.1987 38.2305C63.2574 37.8198 63.2941 37.5192 63.3087 37.3285C63.3381 37.1378 63.3527 36.9985 63.3527 36.9105C63.3674 36.6465 63.3381 36.4192 63.2647 36.2285C63.2061 36.0232 63.0521 35.9205 62.8027 35.9205C62.5681 35.9205 62.2894 36.0818 61.9667 36.4045C61.6441 36.7272 61.3581 37.2772 61.1087 38.0545L60.4927 37.9225C60.5514 37.6585 60.6541 37.3578 60.8007 37.0205C60.9621 36.6685 61.1601 36.3238 61.3947 35.9865C61.6441 35.6492 61.9374 35.3705 62.2747 35.1505C62.6267 34.9305 63.0227 34.8205 63.4627 34.8205C64.0201 34.8205 64.4161 34.9818 64.6507 35.3045C64.8854 35.6125 65.0101 36.0158 65.0247 36.5145C65.0541 37.0132 65.0247 37.5412 64.9367 38.0985L64.1447 43.0485C64.0421 43.8258 64.1741 44.4272 64.5407 44.8525C64.9074 45.2632 65.3841 45.4685 65.9707 45.4685C66.6747 45.4685 67.2321 45.2118 67.6427 44.6985C68.0681 44.1705 68.2881 43.4225 68.3027 42.4545C68.3321 41.6478 68.2367 40.9952 68.0167 40.4965C67.7967 39.9978 67.3494 39.7485 66.6747 39.7485C66.2787 39.7485 65.8827 39.8438 65.4867 40.0345C65.0907 40.2105 64.6874 40.4818 64.2767 40.8485L64.2987 39.8365C64.7681 39.5578 65.2081 39.3378 65.6187 39.1765C66.0441 39.0152 66.4841 38.9345 66.9387 38.9345C67.5694 38.9345 68.1194 39.0592 68.5887 39.3085C69.0727 39.5432 69.4541 39.8878 69.7327 40.3425C70.0114 40.7972 70.1434 41.3545 70.1287 42.0145C70.1141 42.8065 69.9014 43.5325 69.4907 44.1925C69.0801 44.8378 68.5154 45.3512 67.7967 45.7325C67.0927 46.1138 66.2787 46.3045 65.3547 46.3045Z" fill="#3B434B"/>
<path d="M357.75 46.8125L344.25 33.3125M357.75 46.8125C357.243 46.3055 356.308 45.98 355.471 45.7783C354.353 45.509 353.194 45.4602 352.052 45.5892C351.165 45.6897 350.188 45.8892 349.795 46.2822M357.75 46.8125C357.243 46.3055 356.918 45.3703 356.716 44.5333C356.447 43.4158 356.398 42.2563 356.527 41.114C356.627 40.2275 356.827 39.251 357.22 38.8572" stroke="#3B434B" stroke-width="0.75"/>
<path d="M15 69.0625L360 69.0625" stroke="#3B434B" stroke-opacity="0.2" stroke-linecap="round"/>
</g>
<defs>
<clipPath id="clip0_238_2">
<rect width="375" height="8557" fill="white" transform="translate(0 -1969)"/>
</clipPath>
</defs>
</svg>
