<svg width="375" height="71" viewBox="0 0 375 71" fill="none" xmlns="http://www.w3.org/2000/svg">
<path d="M-6065 -3030C-6065 -3031.1 -6064.1 -3032 -6063 -3032H4265C4266.1 -3032 4267 -3031.1 4267 -3030V10201C4267 10202.1 4266.1 10203 4265 10203H-6063C-6064.1 10203 -6065 10202.1 -6065 10201V-3030Z" fill="#444444"/>
<path d="M-6063 -3032V-3031H4265V-3032V-3033H-6063V-3032ZM4267 -3030H4266V10201H4267H4268V-3030H4267ZM4265 10203V10202H-6063V10203V10204H4265V10203ZM-6065 10201H-6064V-3030H-6065H-6066V10201H-6065ZM-6063 10203V10202C-6063.55 10202 -6064 10201.6 -6064 10201H-6065H-6066C-6066 10202.7 -6064.66 10204 -6063 10204V10203ZM4267 10201H4266C4266 10201.6 4265.55 10202 4265 10202V10203V10204C4266.66 10204 4268 10202.7 4268 10201H4267ZM4265 -3032V-3031C4265.55 -3031 4266 -3030.55 4266 -3030H4267H4268C4268 -3031.66 4266.66 -3033 4265 -3033V-3032ZM-6063 -3032V-3033C-6064.66 -3033 -6066 -3031.66 -6066 -3030H-6065H-6064C-6064 -3030.55 -6063.55 -3031 -6063 -3031V-3032Z" fill="white" fill-opacity="0.1"/>
<g clip-path="url(#clip0_238_2)">
<rect width="375" height="6280" transform="translate(0 -2606)" fill="#F9F9F9"/>
<path d="M15 8.0625L360 8.06247" stroke="#3B434B" stroke-opacity="0.2" stroke-linecap="round"/>
<path d="M22.502 31.2445L26.704 43.7625C26.8213 44.0705 26.9313 44.4665 27.034 44.9505C27.1513 45.4345 27.1953 45.8452 27.166 46.1825L28.596 46.0945L28.552 47.0625H23.778L23.8 46.3365C24.3573 46.3218 24.724 46.1972 24.9 45.9625C25.076 45.7278 25.1493 45.4492 25.12 45.1265C25.0907 44.8038 25.032 44.5105 24.944 44.2465L24.306 42.1785L18.674 42.3105L17.794 44.6645C17.662 45.0165 17.5447 45.2952 17.442 45.5005C17.354 45.7058 17.244 45.9332 17.112 46.1825L18.762 46.0945L18.718 47.0625H14.692L14.714 46.3365C15.0807 46.3218 15.396 46.2045 15.66 45.9845C15.924 45.7498 16.166 45.4272 16.386 45.0165C16.606 44.6058 16.826 44.1292 17.046 43.5865L22.018 31.2445H22.502ZM21.754 34.3025C21.5927 34.7132 21.4313 35.1238 21.27 35.5345C21.1087 35.9452 20.9473 36.3558 20.786 36.7665L19.026 41.3645H24.064L22.634 36.9645C22.4873 36.5245 22.3407 36.0845 22.194 35.6445C22.062 35.2045 21.9153 34.7572 21.754 34.3025ZM38.453 47.3045C37.7637 47.3045 37.2944 47.1212 37.045 46.7545C36.7957 46.3878 36.671 45.8672 36.671 45.1925C36.671 44.7818 36.7004 44.2978 36.759 43.7405C36.8324 43.1832 36.913 42.5892 37.001 41.9585C37.1037 41.3278 37.1844 40.6898 37.243 40.0445C37.3164 39.3992 37.353 38.7832 37.353 38.1965C37.353 38.0205 37.3237 37.8298 37.265 37.6245C37.221 37.4192 37.1257 37.2432 36.979 37.0965C36.8324 36.9352 36.6124 36.8545 36.319 36.8545C35.9084 36.8545 35.4977 37.0452 35.087 37.4265C34.6764 37.8078 34.2877 38.3212 33.921 38.9665C33.5544 39.6118 33.2244 40.3305 32.931 41.1225C32.6377 41.8998 32.403 42.7065 32.227 43.5425C32.0657 44.3638 31.985 45.1485 31.985 45.8965C31.985 46.1165 31.985 46.3218 31.985 46.5125C31.9997 46.6885 32.0144 46.8718 32.029 47.0625H30.181C30.1664 46.9598 30.159 46.8718 30.159 46.7985C30.159 46.7105 30.159 46.6078 30.159 46.4905C30.159 46.2412 30.1737 45.9552 30.203 45.6325C30.2324 45.2952 30.2764 44.8552 30.335 44.3125C30.4084 43.7552 30.4964 43.0145 30.599 42.0905C30.7017 41.2252 30.775 40.5505 30.819 40.0665C30.8777 39.5825 30.9217 39.2158 30.951 38.9665C30.9804 38.7025 30.995 38.5045 30.995 38.3725C31.0097 38.2258 31.017 38.0718 31.017 37.9105C31.017 37.6465 30.9804 37.4192 30.907 37.2285C30.8337 37.0232 30.6724 36.9205 30.423 36.9205C30.1884 36.9205 29.917 37.0818 29.609 37.4045C29.301 37.7272 29.037 38.2772 28.817 39.0545L28.201 38.9225C28.245 38.6585 28.333 38.3578 28.465 38.0205C28.6117 37.6685 28.8024 37.3238 29.037 36.9865C29.2717 36.6492 29.5577 36.3705 29.895 36.1505C30.2324 35.9305 30.621 35.8205 31.061 35.8205C31.5597 35.8205 31.9264 35.9598 32.161 36.2385C32.4104 36.5025 32.5644 36.8472 32.623 37.2725C32.6964 37.6978 32.7184 38.1525 32.689 38.6365C32.6597 39.0472 32.6084 39.4432 32.535 39.8245C32.4764 40.2058 32.4177 40.5432 32.359 40.8365H32.425C32.9237 39.5018 33.415 38.4752 33.899 37.7565C34.383 37.0232 34.8597 36.5172 35.329 36.2385C35.813 35.9598 36.2897 35.8205 36.759 35.8205C37.3457 35.8205 37.815 35.9525 38.167 36.2165C38.519 36.4805 38.7684 36.8325 38.915 37.2725C39.0764 37.6978 39.157 38.1672 39.157 38.6805C39.157 39.4872 39.0984 40.3158 38.981 41.1665C38.8784 42.0025 38.7684 42.7798 38.651 43.4985C38.5484 44.2025 38.497 44.7672 38.497 45.1925C38.497 45.4565 38.5264 45.6912 38.585 45.8965C38.6584 46.1018 38.827 46.2045 39.091 46.2045C39.3404 46.2045 39.6117 46.0505 39.905 45.7425C40.213 45.4198 40.477 44.8625 40.697 44.0705L41.313 44.2245C41.269 44.4738 41.1737 44.7745 41.027 45.1265C40.895 45.4785 40.7117 45.8232 40.477 46.1605C40.2424 46.4832 39.9564 46.7545 39.619 46.9745C39.2817 47.1945 38.893 47.3045 38.453 47.3045ZM51.3282 47.3045C50.6389 47.3045 50.1695 47.1212 49.9202 46.7545C49.6709 46.3878 49.5462 45.8672 49.5462 45.1925C49.5462 44.7818 49.5755 44.2978 49.6342 43.7405C49.7075 43.1832 49.7882 42.5892 49.8762 41.9585C49.9789 41.3278 50.0595 40.6898 50.1182 40.0445C50.1915 39.3992 50.2282 38.7832 50.2282 38.1965C50.2282 38.0205 50.1989 37.8298 50.1402 37.6245C50.0962 37.4192 50.0009 37.2432 49.8542 37.0965C49.7075 36.9352 49.4875 36.8545 49.1942 36.8545C48.7835 36.8545 48.3729 37.0452 47.9622 37.4265C47.5515 37.8078 47.1629 38.3212 46.7962 38.9665C46.4295 39.6118 46.0995 40.3305 45.8062 41.1225C45.5129 41.8998 45.2782 42.7065 45.1022 43.5425C44.9409 44.3638 44.8602 45.1485 44.8602 45.8965C44.8602 46.1165 44.8602 46.3218 44.8602 46.5125C44.8749 46.6885 44.8895 46.8718 44.9042 47.0625H43.0562C43.0415 46.9598 43.0342 46.8718 43.0342 46.7985C43.0342 46.7105 43.0342 46.6078 43.0342 46.4905C43.0342 46.2412 43.0489 45.9552 43.0782 45.6325C43.1075 45.2952 43.1515 44.8552 43.2102 44.3125C43.2835 43.7552 43.3715 43.0145 43.4742 42.0905C43.5769 41.2252 43.6502 40.5505 43.6942 40.0665C43.7529 39.5825 43.7969 39.2158 43.8262 38.9665C43.8555 38.7025 43.8702 38.5045 43.8702 38.3725C43.8849 38.2258 43.8922 38.0718 43.8922 37.9105C43.8922 37.6465 43.8555 37.4192 43.7822 37.2285C43.7089 37.0232 43.5475 36.9205 43.2982 36.9205C43.0635 36.9205 42.7922 37.0818 42.4842 37.4045C42.1762 37.7272 41.9122 38.2772 41.6922 39.0545L41.0762 38.9225C41.1202 38.6585 41.2082 38.3578 41.3402 38.0205C41.4869 37.6685 41.6775 37.3238 41.9122 36.9865C42.1469 36.6492 42.4329 36.3705 42.7702 36.1505C43.1075 35.9305 43.4962 35.8205 43.9362 35.8205C44.4349 35.8205 44.8015 35.9598 45.0362 36.2385C45.2855 36.5025 45.4395 36.8472 45.4982 37.2725C45.5715 37.6978 45.5935 38.1525 45.5642 38.6365C45.5349 39.0472 45.4835 39.4432 45.4102 39.8245C45.3515 40.2058 45.2929 40.5432 45.2342 40.8365H45.3002C45.7989 39.5018 46.2902 38.4752 46.7742 37.7565C47.2582 37.0232 47.7349 36.5172 48.2042 36.2385C48.6882 35.9598 49.1649 35.8205 49.6342 35.8205C50.2209 35.8205 50.6902 35.9525 51.0422 36.2165C51.3942 36.4805 51.6435 36.8325 51.7902 37.2725C51.9515 37.6978 52.0322 38.1672 52.0322 38.6805C52.0322 39.4872 51.9735 40.3158 51.8562 41.1665C51.7535 42.0025 51.6435 42.7798 51.5262 43.4985C51.4235 44.2025 51.3722 44.7672 51.3722 45.1925C51.3722 45.4565 51.4015 45.6912 51.4602 45.8965C51.5335 46.1018 51.7022 46.2045 51.9662 46.2045C52.2155 46.2045 52.4869 46.0505 52.7802 45.7425C53.0882 45.4198 53.3522 44.8625 53.5722 44.0705L54.1882 44.2245C54.1442 44.4738 54.0489 44.7745 53.9022 45.1265C53.7702 45.4785 53.5869 45.8232 53.3522 46.1605C53.1175 46.4832 52.8315 46.7545 52.4942 46.9745C52.1569 47.1945 51.7682 47.3045 51.3282 47.3045ZM61.0353 35.8205C61.4753 35.8205 61.9593 35.8572 62.4873 35.9305C63.0153 35.9892 63.514 36.0772 63.9833 36.1945C63.866 37.0745 63.7487 37.9545 63.6313 38.8345C63.5287 39.6998 63.426 40.5285 63.3233 41.3205C63.2353 42.0978 63.162 42.8018 63.1033 43.4325C63.0447 44.0485 63.0153 44.5325 63.0153 44.8845C63.0153 45.1778 63.0373 45.4712 63.0813 45.7645C63.1253 46.0578 63.3087 46.2045 63.6313 46.2045C63.8807 46.2045 64.152 46.0432 64.4453 45.7205C64.7533 45.3978 65.0173 44.8478 65.2373 44.0705L65.8533 44.2025C65.8093 44.4665 65.714 44.7745 65.5673 45.1265C65.4353 45.4638 65.252 45.8012 65.0173 46.1385C64.7827 46.4758 64.4967 46.7545 64.1593 46.9745C63.822 47.1945 63.4333 47.3045 62.9933 47.3045C62.4067 47.3045 61.9887 47.1212 61.7393 46.7545C61.49 46.3878 61.3653 45.9112 61.3653 45.3245C61.3653 44.8992 61.402 44.4372 61.4753 43.9385C61.5633 43.4398 61.6587 42.9192 61.7613 42.3765H61.6953C61.3433 43.4618 60.9767 44.3345 60.5953 44.9945C60.2287 45.6398 59.8547 46.1312 59.4733 46.4685C59.1067 46.8058 58.7473 47.0258 58.3953 47.1285C58.0433 47.2458 57.7133 47.3045 57.4053 47.3045C56.6133 47.3045 55.946 47.0112 55.4033 46.4245C54.8753 45.8378 54.6113 44.8552 54.6113 43.4765C54.6113 42.4498 54.7433 41.4745 55.0073 40.5505C55.2713 39.6265 55.6673 38.8125 56.1953 38.1085C56.738 37.3898 57.4127 36.8325 58.2193 36.4365C59.026 36.0258 59.9647 35.8205 61.0353 35.8205ZM60.3533 36.6125C59.6933 36.6125 59.114 36.7958 58.6153 37.1625C58.1313 37.5292 57.728 38.0278 57.4053 38.6585C57.0827 39.2745 56.8407 39.9712 56.6793 40.7485C56.5327 41.5112 56.4593 42.2958 56.4593 43.1025C56.4593 44.0412 56.562 44.8185 56.7673 45.4345C56.9727 46.0358 57.3467 46.3365 57.8893 46.3365C58.2853 46.3365 58.6813 46.1385 59.0773 45.7425C59.488 45.3465 59.8693 44.8185 60.2213 44.1585C60.5733 43.4838 60.8887 42.7358 61.1673 41.9145C61.446 41.0785 61.666 40.2278 61.8273 39.3625C61.9887 38.4972 62.0693 37.6685 62.0693 36.8765C61.8493 36.7885 61.5927 36.7225 61.2993 36.6785C61.006 36.6345 60.6907 36.6125 60.3533 36.6125ZM66.1141 52.6725V52.0125C66.5247 52.0125 66.8107 51.8732 66.9721 51.5945C67.1481 51.3158 67.2581 50.9418 67.3021 50.4725C67.3607 50.0178 67.4121 49.5045 67.4561 48.9325C67.5587 47.6712 67.6614 46.4538 67.7641 45.2805C67.8814 44.0925 67.9841 43.0145 68.0721 42.0465C68.1747 41.0638 68.2554 40.2278 68.3141 39.5385C68.3727 38.8492 68.4021 38.3652 68.4021 38.0865C68.4021 37.7932 68.3727 37.5292 68.3141 37.2945C68.2701 37.0452 68.1014 36.9205 67.8081 36.9205C67.5734 36.9205 67.3021 37.0818 66.9941 37.4045C66.7007 37.7272 66.4441 38.2772 66.2241 39.0545L65.5861 38.9225C65.6301 38.6585 65.7181 38.3578 65.8501 38.0205C65.9967 37.6685 66.1874 37.3238 66.4221 36.9865C66.6567 36.6492 66.9427 36.3705 67.2801 36.1505C67.6174 35.9305 68.0061 35.8205 68.4461 35.8205C69.1061 35.8205 69.5461 36.0552 69.7661 36.5245C70.0007 36.9792 70.1181 37.5145 70.1181 38.1305C70.1181 38.5705 70.0814 39.0178 70.0081 39.4725C69.9494 39.9125 69.8834 40.3012 69.8101 40.6385H69.8761C70.2867 39.2892 70.7047 38.2698 71.1301 37.5805C71.5701 36.8912 72.0174 36.4292 72.4721 36.1945C72.9267 35.9452 73.3667 35.8205 73.7921 35.8205C74.4667 35.8205 75.0241 36.0185 75.4641 36.4145C75.9041 36.7958 76.2267 37.3092 76.4321 37.9545C76.6521 38.5998 76.7621 39.3112 76.7621 40.0885C76.7621 41.5112 76.5127 42.7652 76.0141 43.8505C75.5301 44.9358 74.8041 45.7865 73.8361 46.4025C72.8827 47.0038 71.6947 47.3045 70.2721 47.3045C70.0814 47.3045 69.8981 47.2972 69.7221 47.2825C69.5607 47.2678 69.3994 47.2532 69.2381 47.2385C69.1647 48.3532 69.1061 49.2112 69.0621 49.8125C69.0327 50.4285 69.0034 50.8758 68.9741 51.1545C68.9594 51.4478 68.9301 51.6752 68.8861 51.8365C69.1207 51.8218 69.3481 51.8072 69.5681 51.7925C69.8027 51.7925 70.0374 51.7852 70.2721 51.7705V52.6725H66.1141ZM70.6461 46.5565C71.2621 46.5565 71.8047 46.4318 72.2741 46.1825C72.7434 45.9332 73.1394 45.6032 73.4621 45.1925C73.7994 44.7672 74.0707 44.2905 74.2761 43.7625C74.4814 43.2345 74.6281 42.6918 74.7161 42.1345C74.8187 41.5625 74.8701 41.0125 74.8701 40.4845C74.8701 39.8098 74.8261 39.2012 74.7381 38.6585C74.6501 38.1012 74.4961 37.6612 74.2761 37.3385C74.0561 37.0158 73.7407 36.8545 73.3301 36.8545C72.9341 36.8545 72.5381 37.0672 72.1421 37.4925C71.7461 37.9178 71.3794 38.4898 71.0421 39.2085C70.7047 39.9125 70.4041 40.6972 70.1401 41.5625C69.8761 42.4278 69.6781 43.3078 69.5461 44.2025C69.4874 44.5252 69.4361 44.8625 69.3921 45.2145C69.3627 45.5518 69.3334 45.9112 69.3041 46.2925C69.5387 46.3658 69.7587 46.4318 69.9641 46.4905C70.1841 46.5345 70.4114 46.5565 70.6461 46.5565ZM84.3364 35.8205C84.7764 35.8205 85.2604 35.8572 85.7884 35.9305C86.3164 35.9892 86.8151 36.0772 87.2844 36.1945C87.1671 37.0745 87.0498 37.9545 86.9324 38.8345C86.8298 39.6998 86.7271 40.5285 86.6244 41.3205C86.5364 42.0978 86.4631 42.8018 86.4044 43.4325C86.3458 44.0485 86.3164 44.5325 86.3164 44.8845C86.3164 45.1778 86.3384 45.4712 86.3824 45.7645C86.4264 46.0578 86.6098 46.2045 86.9324 46.2045C87.1818 46.2045 87.4531 46.0432 87.7464 45.7205C88.0544 45.3978 88.3184 44.8478 88.5384 44.0705L89.1544 44.2025C89.1104 44.4665 89.0151 44.7745 88.8684 45.1265C88.7364 45.4638 88.5531 45.8012 88.3184 46.1385C88.0838 46.4758 87.7978 46.7545 87.4604 46.9745C87.1231 47.1945 86.7344 47.3045 86.2944 47.3045C85.7078 47.3045 85.2898 47.1212 85.0404 46.7545C84.7911 46.3878 84.6664 45.9112 84.6664 45.3245C84.6664 44.8992 84.7031 44.4372 84.7764 43.9385C84.8644 43.4398 84.9598 42.9192 85.0624 42.3765H84.9964C84.6444 43.4618 84.2778 44.3345 83.8964 44.9945C83.5298 45.6398 83.1558 46.1312 82.7744 46.4685C82.4078 46.8058 82.0484 47.0258 81.6964 47.1285C81.3444 47.2458 81.0144 47.3045 80.7064 47.3045C79.9144 47.3045 79.2471 47.0112 78.7044 46.4245C78.1764 45.8378 77.9124 44.8552 77.9124 43.4765C77.9124 42.4498 78.0444 41.4745 78.3084 40.5505C78.5724 39.6265 78.9684 38.8125 79.4964 38.1085C80.0391 37.3898 80.7138 36.8325 81.5204 36.4365C82.3271 36.0258 83.2658 35.8205 84.3364 35.8205ZM83.6544 36.6125C82.9944 36.6125 82.4151 36.7958 81.9164 37.1625C81.4324 37.5292 81.0291 38.0278 80.7064 38.6585C80.3838 39.2745 80.1418 39.9712 79.9804 40.7485C79.8338 41.5112 79.7604 42.2958 79.7604 43.1025C79.7604 44.0412 79.8631 44.8185 80.0684 45.4345C80.2738 46.0358 80.6478 46.3365 81.1904 46.3365C81.5864 46.3365 81.9824 46.1385 82.3784 45.7425C82.7891 45.3465 83.1704 44.8185 83.5224 44.1585C83.8744 43.4838 84.1898 42.7358 84.4684 41.9145C84.7471 41.0785 84.9671 40.2278 85.1284 39.3625C85.2898 38.4972 85.3704 37.6685 85.3704 36.8765C85.1504 36.7885 84.8938 36.7225 84.6004 36.6785C84.3071 36.6345 83.9918 36.6125 83.6544 36.6125ZM104.617 47.3045C103.928 47.3045 103.459 47.1212 103.209 46.7545C102.975 46.3878 102.857 45.8672 102.857 45.1925C102.857 44.7818 102.894 44.2978 102.967 43.7405C103.055 43.1832 103.151 42.5892 103.253 41.9585C103.356 41.3278 103.444 40.6898 103.517 40.0445C103.605 39.3992 103.649 38.7832 103.649 38.1965C103.649 38.0205 103.62 37.8298 103.561 37.6245C103.503 37.4192 103.4 37.2432 103.253 37.0965C103.107 36.9352 102.887 36.8545 102.593 36.8545C102.183 36.8545 101.779 37.0452 101.383 37.4265C100.987 37.8078 100.621 38.3212 100.283 38.9665C99.9458 39.6118 99.6452 40.3305 99.3812 41.1225C99.1318 41.8998 98.9338 42.7065 98.7872 43.5425C98.6405 44.3638 98.5672 45.1485 98.5672 45.8965C98.5672 46.1165 98.5672 46.3218 98.5672 46.5125C98.5818 46.6885 98.5965 46.8718 98.6112 47.0625H96.7632C96.7485 46.9598 96.7412 46.8718 96.7412 46.7985C96.7412 46.7105 96.7412 46.6078 96.7412 46.4905C96.7412 45.9332 96.7778 45.2732 96.8512 44.5105C96.9392 43.7478 97.0345 42.9632 97.1372 42.1565C97.2545 41.3498 97.3498 40.5872 97.4232 39.8685C97.5112 39.1498 97.5478 38.5632 97.5332 38.1085C97.5185 37.8592 97.4452 37.5878 97.3132 37.2945C97.1812 37.0012 96.9025 36.8545 96.4772 36.8545C96.0665 36.8545 95.6632 37.0452 95.2672 37.4265C94.8858 37.8078 94.5265 38.3212 94.1892 38.9665C93.8518 39.6118 93.5512 40.3305 93.2872 41.1225C93.0232 41.8998 92.8178 42.7065 92.6712 43.5425C92.5245 44.3638 92.4512 45.1485 92.4512 45.8965C92.4512 46.1165 92.4512 46.3218 92.4512 46.5125C92.4658 46.6885 92.4805 46.8718 92.4952 47.0625H90.6472C90.6325 46.9598 90.6252 46.8718 90.6252 46.7985C90.6252 46.7105 90.6252 46.6078 90.6252 46.4905C90.6252 46.2412 90.6325 45.9552 90.6472 45.6325C90.6765 45.2952 90.7205 44.8552 90.7792 44.3125C90.8525 43.7552 90.9405 43.0145 91.0432 42.0905C91.1458 41.2252 91.2265 40.5505 91.2852 40.0665C91.3438 39.5825 91.3878 39.2158 91.4172 38.9665C91.4465 38.7025 91.4612 38.5045 91.4612 38.3725C91.4758 38.2258 91.4832 38.0718 91.4832 37.9105C91.4832 37.6465 91.4465 37.4192 91.3732 37.2285C91.2998 37.0232 91.1385 36.9205 90.8892 36.9205C90.6545 36.9205 90.3832 37.0818 90.0752 37.4045C89.7672 37.7272 89.5032 38.2772 89.2832 39.0545L88.6672 38.9225C88.7112 38.6585 88.7992 38.3578 88.9312 38.0205C89.0778 37.6685 89.2685 37.3238 89.5032 36.9865C89.7378 36.6492 90.0238 36.3705 90.3612 36.1505C90.6985 35.9305 91.0872 35.8205 91.5272 35.8205C92.0112 35.8205 92.3705 35.9452 92.6052 36.1945C92.8398 36.4292 92.9938 36.7445 93.0672 37.1405C93.1552 37.5218 93.1845 37.9398 93.1552 38.3945C93.1405 38.8052 93.0965 39.2232 93.0232 39.6485C92.9498 40.0592 92.8838 40.4185 92.8252 40.7265H92.8912C93.3605 39.3918 93.8225 38.3725 94.2772 37.6685C94.7465 36.9645 95.2012 36.4805 95.6412 36.2165C96.0958 35.9525 96.5212 35.8205 96.9172 35.8205C97.5038 35.8205 97.9658 35.9598 98.3032 36.2385C98.6552 36.5025 98.9045 36.8252 99.0512 37.2065C99.1978 37.5878 99.2712 37.9618 99.2712 38.3285C99.2712 38.7392 99.2418 39.0912 99.1832 39.3845C99.1245 39.6778 99.0292 40.1032 98.8972 40.6605H98.9632C99.4472 39.3258 99.9238 38.3138 100.393 37.6245C100.877 36.9205 101.347 36.4438 101.801 36.1945C102.256 35.9452 102.681 35.8205 103.077 35.8205C103.664 35.8205 104.126 35.9525 104.463 36.2165C104.801 36.4805 105.035 36.8325 105.167 37.2725C105.314 37.6978 105.387 38.1672 105.387 38.6805C105.387 39.4872 105.329 40.3158 105.211 41.1665C105.094 42.0025 104.969 42.7798 104.837 43.4985C104.72 44.2025 104.661 44.7672 104.661 45.1925C104.661 45.4565 104.691 45.6912 104.749 45.8965C104.823 46.1018 104.991 46.2045 105.255 46.2045C105.505 46.2045 105.783 46.0505 106.091 45.7425C106.399 45.4198 106.663 44.8625 106.883 44.0705L107.499 44.2245C107.455 44.4738 107.36 44.7745 107.213 45.1265C107.067 45.4785 106.876 45.8232 106.641 46.1605C106.407 46.4832 106.121 46.7545 105.783 46.9745C105.446 47.1945 105.057 47.3045 104.617 47.3045ZM128.502 31.6625L128.458 32.3885C127.989 32.4032 127.637 32.5058 127.402 32.6965C127.182 32.8872 127.035 33.1585 126.962 33.5105C126.889 33.8478 126.837 34.2805 126.808 34.8085L126.302 44.4445C126.287 44.8405 126.265 45.1852 126.236 45.4785C126.207 45.7572 126.177 45.9918 126.148 46.1825C126.412 46.1678 126.676 46.1532 126.94 46.1385C127.204 46.1238 127.468 46.1092 127.732 46.0945L127.688 47.0625H122.826L122.87 46.3365C123.427 46.3072 123.816 46.1825 124.036 45.9625C124.256 45.7278 124.388 45.4125 124.432 45.0165C124.476 44.6058 124.505 44.1438 124.52 43.6305L124.74 39.6265L116.842 39.7145L116.6 44.4445C116.585 44.8405 116.563 45.1852 116.534 45.4785C116.505 45.7572 116.475 45.9918 116.446 46.1825C116.71 46.1678 116.974 46.1532 117.238 46.1385C117.502 46.1238 117.766 46.1092 118.03 46.0945L117.986 47.0625H113.124L113.168 46.3365C113.725 46.3072 114.107 46.1825 114.312 45.9625C114.532 45.7278 114.664 45.4125 114.708 45.0165C114.752 44.6058 114.789 44.1438 114.818 43.6305L115.324 34.1265C115.353 33.8332 115.375 33.5545 115.39 33.2905C115.419 33.0118 115.449 32.7625 115.478 32.5425C115.214 32.5572 114.95 32.5718 114.686 32.5865C114.422 32.6012 114.158 32.6158 113.894 32.6305L113.938 31.6625H118.8L118.756 32.3885C118.287 32.4032 117.935 32.5058 117.7 32.6965C117.48 32.8872 117.333 33.1585 117.26 33.5105C117.187 33.8625 117.135 34.3025 117.106 34.8305L116.886 38.7465H124.784L125.026 34.1265C125.041 33.8332 125.063 33.5545 125.092 33.2905C125.121 33.0118 125.151 32.7625 125.18 32.5425C124.916 32.5572 124.652 32.5718 124.388 32.5865C124.124 32.6012 123.86 32.6158 123.596 32.6305L123.64 31.6625H128.502ZM134.373 35.8205C134.901 35.8205 135.4 35.9012 135.869 36.0625C136.339 36.2238 136.72 36.4878 137.013 36.8545C137.307 37.2212 137.453 37.7198 137.453 38.3505C137.453 38.9518 137.248 39.4725 136.837 39.9125C136.427 40.3525 135.891 40.7192 135.231 41.0125C134.571 41.2912 133.867 41.5185 133.119 41.6945C132.371 41.8705 131.653 41.9952 130.963 42.0685C130.963 42.9778 131.051 43.7405 131.227 44.3565C131.418 44.9725 131.697 45.4345 132.063 45.7425C132.43 46.0505 132.899 46.2045 133.471 46.2045C133.897 46.2045 134.322 46.1092 134.747 45.9185C135.187 45.7278 135.605 45.4418 136.001 45.0605C136.397 44.6645 136.757 44.1585 137.079 43.5425L137.805 43.9605C137.395 44.7232 136.955 45.3538 136.485 45.8525C136.016 46.3512 135.503 46.7178 134.945 46.9525C134.388 47.1872 133.772 47.3045 133.097 47.3045C131.704 47.3045 130.677 46.8718 130.017 46.0065C129.357 45.1265 129.027 43.9752 129.027 42.5525C129.027 41.7018 129.137 40.8732 129.357 40.0665C129.577 39.2598 129.907 38.5412 130.347 37.9105C130.787 37.2652 131.345 36.7592 132.019 36.3925C132.694 36.0112 133.479 35.8205 134.373 35.8205ZM134.065 36.5685C133.391 36.5685 132.833 36.7958 132.393 37.2505C131.968 37.7052 131.638 38.2918 131.403 39.0105C131.183 39.7292 131.044 40.4845 130.985 41.2765C131.763 41.1738 132.503 40.9905 133.207 40.7265C133.911 40.4625 134.491 40.1252 134.945 39.7145C135.4 39.2892 135.627 38.7978 135.627 38.2405C135.627 37.7712 135.495 37.3752 135.231 37.0525C134.982 36.7298 134.593 36.5685 134.065 36.5685ZM142.702 30.4525C142.658 30.8192 142.592 31.2298 142.504 31.6845C142.43 32.1392 142.357 32.5865 142.284 33.0265C142.225 33.4665 142.174 33.8552 142.13 34.1925C142.042 34.8085 141.954 35.5125 141.866 36.3045C141.778 37.0818 141.69 37.8958 141.602 38.7465C141.514 39.5825 141.433 40.4038 141.36 41.2105C141.301 42.0172 141.25 42.7578 141.206 43.4325C141.162 44.0925 141.14 44.6352 141.14 45.0605C141.14 45.3392 141.169 45.6032 141.228 45.8525C141.286 46.0872 141.455 46.2045 141.734 46.2045C141.983 46.2045 142.254 46.0505 142.548 45.7425C142.856 45.4198 143.12 44.8625 143.34 44.0705L143.956 44.2245C143.912 44.4738 143.816 44.7745 143.67 45.1265C143.538 45.4785 143.354 45.8232 143.12 46.1605C142.885 46.4832 142.599 46.7545 142.262 46.9745C141.939 47.1945 141.558 47.3045 141.118 47.3045C140.516 47.3045 140.076 47.1578 139.798 46.8645C139.519 46.5565 139.372 46.1092 139.358 45.5225C139.343 45.1558 139.358 44.6132 139.402 43.8945C139.46 43.1758 139.526 42.3618 139.6 41.4525C139.688 40.5285 139.783 39.5678 139.886 38.5705C139.988 37.5585 140.098 36.5758 140.216 35.6225C140.333 34.6692 140.443 33.8038 140.546 33.0265C140.619 32.6305 140.663 32.3738 140.678 32.2565C140.707 32.1245 140.729 31.9852 140.744 31.8385C140.48 31.8532 140.216 31.8678 139.952 31.8825C139.702 31.8972 139.446 31.9118 139.182 31.9265L139.292 31.0465C139.937 31.0465 140.436 31.0172 140.788 30.9585C141.154 30.8998 141.433 30.8265 141.624 30.7385C141.814 30.6505 141.968 30.5552 142.086 30.4525H142.702ZM149.768 35.8205C150.296 35.8205 150.795 35.9012 151.264 36.0625C151.734 36.2238 152.115 36.4878 152.408 36.8545C152.702 37.2212 152.848 37.7198 152.848 38.3505C152.848 38.9518 152.643 39.4725 152.232 39.9125C151.822 40.3525 151.286 40.7192 150.626 41.0125C149.966 41.2912 149.262 41.5185 148.514 41.6945C147.766 41.8705 147.048 41.9952 146.358 42.0685C146.358 42.9778 146.446 43.7405 146.622 44.3565C146.813 44.9725 147.092 45.4345 147.458 45.7425C147.825 46.0505 148.294 46.2045 148.866 46.2045C149.292 46.2045 149.717 46.1092 150.142 45.9185C150.582 45.7278 151 45.4418 151.396 45.0605C151.792 44.6645 152.152 44.1585 152.474 43.5425L153.2 43.9605C152.79 44.7232 152.35 45.3538 151.88 45.8525C151.411 46.3512 150.898 46.7178 150.34 46.9525C149.783 47.1872 149.167 47.3045 148.492 47.3045C147.099 47.3045 146.072 46.8718 145.412 46.0065C144.752 45.1265 144.422 43.9752 144.422 42.5525C144.422 41.7018 144.532 40.8732 144.752 40.0665C144.972 39.2598 145.302 38.5412 145.742 37.9105C146.182 37.2652 146.74 36.7592 147.414 36.3925C148.089 36.0112 148.874 35.8205 149.768 35.8205ZM149.46 36.5685C148.786 36.5685 148.228 36.7958 147.788 37.2505C147.363 37.7052 147.033 38.2918 146.798 39.0105C146.578 39.7292 146.439 40.4845 146.38 41.2765C147.158 41.1738 147.898 40.9905 148.602 40.7265C149.306 40.4625 149.886 40.1252 150.34 39.7145C150.795 39.2892 151.022 38.7978 151.022 38.2405C151.022 37.7712 150.89 37.3752 150.626 37.0525C150.377 36.7298 149.988 36.5685 149.46 36.5685ZM159.681 35.8205C160.473 35.8205 161.184 36.0112 161.815 36.3925C162.445 36.7592 162.944 37.3018 163.311 38.0205C163.677 38.7392 163.861 39.6118 163.861 40.6385C163.861 41.8118 163.648 42.9118 163.223 43.9385C162.797 44.9505 162.181 45.7645 161.375 46.3805C160.583 46.9965 159.615 47.3045 158.471 47.3045C157.503 47.3045 156.703 47.0845 156.073 46.6445C155.457 46.2045 154.995 45.6105 154.687 44.8625C154.393 44.1145 154.247 43.2858 154.247 42.3765C154.247 41.1885 154.459 40.0958 154.885 39.0985C155.325 38.1012 155.948 37.3092 156.755 36.7225C157.576 36.1212 158.551 35.8205 159.681 35.8205ZM159.351 36.6345C158.705 36.6198 158.148 36.8398 157.679 37.2945C157.209 37.7345 156.843 38.3358 156.579 39.0985C156.329 39.8612 156.197 40.7118 156.183 41.6505C156.168 42.1492 156.197 42.6772 156.271 43.2345C156.344 43.7918 156.469 44.3125 156.645 44.7965C156.835 45.2805 157.092 45.6765 157.415 45.9845C157.752 46.2925 158.17 46.4538 158.669 46.4685C159.255 46.4832 159.754 46.3292 160.165 46.0065C160.575 45.6692 160.905 45.2365 161.155 44.7085C161.404 44.1805 161.587 43.6158 161.705 43.0145C161.837 42.4132 161.91 41.8485 161.925 41.3205C161.939 40.8072 161.91 40.2792 161.837 39.7365C161.778 39.1938 161.653 38.6878 161.463 38.2185C161.272 37.7492 161.008 37.3752 160.671 37.0965C160.333 36.8032 159.893 36.6492 159.351 36.6345Z" fill="#3B434B"/>
<path d="M357.75 47.8125L344.25 34.3125M357.75 47.8125C357.243 47.3055 356.308 46.98 355.471 46.7783C354.353 46.509 353.194 46.4602 352.052 46.5892C351.165 46.6897 350.188 46.8892 349.795 47.2822M357.75 47.8125C357.243 47.3055 356.918 46.3703 356.716 45.5333C356.447 44.4158 356.398 43.2563 356.527 42.114C356.627 41.2275 356.827 40.251 357.22 39.8572" stroke="#3B434B" stroke-width="0.75"/>
<path d="M15 70.0625L360 70.0625" stroke="#3B434B" stroke-opacity="0.2" stroke-linecap="round"/>
<path d="M15 70.0625L360 70.0625" stroke="#3B434B" stroke-opacity="0.2" stroke-linecap="round"/>
</g>
<defs>
<clipPath id="clip0_238_2">
<rect width="375" height="6280" fill="white" transform="translate(0 -2606)"/>
</clipPath>
</defs>
</svg>
