<svg width="50" height="50" viewBox="0 0 50 50" fill="none" xmlns="http://www.w3.org/2000/svg">
<path d="M10.7183 19.7273C10.7183 20.4091 10.5968 21.0025 10.3539 21.5075C10.111 22.0103 9.77649 22.4002 9.35036 22.6772C8.92635 22.9521 8.43842 23.0895 7.88658 23.0895C7.33473 23.0895 6.84574 22.9521 6.4196 22.6772C5.9956 22.4002 5.66215 22.0103 5.41925 21.5075C5.17848 21.0025 5.0581 20.4091 5.0581 19.7273C5.0581 19.0455 5.17848 18.4531 5.41925 17.9503C5.66215 17.4453 5.99666 17.0554 6.4228 16.7805C6.84894 16.5036 7.33686 16.3651 7.88658 16.3651C8.43842 16.3651 8.92635 16.5036 9.35036 16.7805C9.77649 17.0554 10.111 17.4453 10.3539 17.9503C10.5968 18.4531 10.7183 19.0455 10.7183 19.7273ZM10.1366 19.7273C10.1366 19.1413 10.0386 18.6396 9.84254 18.2219C9.64652 17.8022 9.37912 17.4815 9.04034 17.2599C8.70156 17.0384 8.31697 16.9276 7.88658 16.9276C7.45831 16.9276 7.07479 17.0384 6.73601 17.2599C6.39723 17.4815 6.12876 17.8011 5.93061 18.2188C5.73459 18.6364 5.63658 19.1392 5.63658 19.7273C5.63658 20.3132 5.73459 20.815 5.93061 21.2326C6.12663 21.6502 6.39403 21.9709 6.73281 22.1946C7.07159 22.4162 7.45618 22.527 7.88658 22.527C8.31697 22.527 8.70156 22.4162 9.04034 22.1946C9.38125 21.973 9.64972 21.6534 9.84574 21.2358C10.0418 20.8161 10.1387 20.3132 10.1366 19.7273ZM12.5237 23V16.4545H13.1213V19.4556H16.8351V16.4545H17.4327V23H16.8351V19.9925H13.1213V23H12.5237ZM18.9114 23V22.4471H19.0839C19.3545 22.4471 19.5687 22.3576 19.7263 22.1786C19.884 21.9975 20.0001 21.7077 20.0747 21.3093C20.1493 20.9109 20.1983 20.3867 20.2217 19.7369L20.3368 16.4545H24.1784V23H23.5807V16.9915H20.9057L20.8002 19.8679C20.7746 20.5604 20.7107 21.1388 20.6084 21.6033C20.5062 22.0657 20.3357 22.4141 20.0971 22.6484C19.8606 22.8828 19.5261 23 19.0935 23H18.9114ZM26.2874 23H25.661L28.042 16.4545H28.6812L31.0623 23H30.4359L28.384 17.2312H28.3393L26.2874 23ZM26.7381 20.4911H29.9852V21.0281H26.7381V20.4911ZM32.5441 16.4545H33.1322V21.9421H33.1833L37.0601 16.4545H37.6417V23H37.0441V17.5188H36.9929L33.1226 23H32.5441V16.4545ZM35.6794 14.8182H36.2163C36.2163 15.1229 36.1151 15.37 35.9127 15.5597C35.7124 15.7493 35.4386 15.8441 35.0913 15.8441C34.7483 15.8441 34.4766 15.7493 34.2763 15.5597C34.076 15.37 33.9759 15.1229 33.9759 14.8182H34.5128C34.5128 14.9844 34.5576 15.125 34.6471 15.2401C34.7387 15.353 34.8868 15.4094 35.0913 15.4094C35.2959 15.4094 35.445 15.353 35.5388 15.2401C35.6325 15.125 35.6794 14.9844 35.6794 14.8182ZM39.742 23V16.4545H40.3396V19.4556H44.0534V16.4545H44.6511V23H44.0534V19.9925H40.3396V23H39.742Z" fill="#FEF7ED"/>
<path d="M8.86518 35.0895C8.46248 35.0895 8.1024 35.017 7.78493 34.8722C7.46745 34.7251 7.21603 34.5217 7.03066 34.2617C6.8453 34.0018 6.74728 33.7024 6.73663 33.3636H7.34068C7.35133 33.6023 7.42484 33.8111 7.5612 33.9901C7.69757 34.1669 7.87868 34.3054 8.10453 34.4055C8.33038 34.5036 8.5818 34.5526 8.85879 34.5526C9.16135 34.5526 9.42768 34.4961 9.6578 34.3832C9.89004 34.2702 10.0711 34.1158 10.2011 33.9197C10.3332 33.7216 10.3993 33.4979 10.3993 33.2486C10.3993 32.9844 10.3322 32.7511 10.1979 32.5487C10.0637 32.3462 9.87086 32.1886 9.61944 32.0756C9.37015 31.9627 9.07186 31.9062 8.72456 31.9062H8.34103V31.3693H8.72456C9.00794 31.3693 9.25829 31.3182 9.47562 31.2159C9.69508 31.1115 9.86767 30.9656 9.99338 30.7781C10.1191 30.5906 10.1819 30.37 10.1819 30.1165C10.1819 29.8757 10.1276 29.6637 10.0189 29.4805C9.91028 29.2972 9.75687 29.1534 9.55872 29.049C9.3627 28.9446 9.13365 28.8924 8.87157 28.8924C8.61802 28.8924 8.38578 28.9414 8.17484 29.0394C7.9639 29.1374 7.79345 29.2759 7.66348 29.4549C7.53564 29.6339 7.46745 29.8459 7.45893 30.0909H6.88045C6.88897 29.75 6.98272 29.4506 7.1617 29.1928C7.34281 28.9329 7.58251 28.7305 7.88081 28.5856C8.18123 28.4386 8.51362 28.3651 8.87797 28.3651C9.26362 28.3651 9.59707 28.4439 9.87832 28.6016C10.1596 28.7592 10.3769 28.9691 10.5303 29.2312C10.6858 29.4911 10.7636 29.7777 10.7636 30.0909C10.7636 30.4638 10.6624 30.7834 10.46 31.0497C10.2576 31.3139 9.98485 31.4972 9.64182 31.5994V31.641C10.0594 31.7241 10.3876 31.9094 10.6262 32.1971C10.867 32.4826 10.9873 32.8331 10.9873 33.2486C10.9873 33.598 10.8957 33.9123 10.7125 34.1914C10.5292 34.4684 10.2778 34.6879 9.95822 34.8498C9.64075 35.0096 9.2764 35.0895 8.86518 35.0895ZM12.9102 35H12.2838L14.6648 28.4545H15.304L17.6851 35H17.0586L15.0068 29.2312H14.962L12.9102 35ZM13.3608 32.4911H16.608V33.0281H13.3608V32.4911ZM23.8362 28.4545V35H23.2418V28.9915H19.7166V35H19.1189V28.4545H23.8362ZM25.8901 28.4545H26.4782V33.9421H26.5293L30.4061 28.4545H30.9878V35H30.3901V29.5188H30.339L26.4686 35H25.8901V28.4545ZM38.2145 30.5H37.6136C37.5689 30.2763 37.4879 30.0696 37.3707 29.88C37.2556 29.6882 37.1108 29.521 36.936 29.3782C36.7613 29.2354 36.5632 29.1246 36.3416 29.0458C36.12 28.967 35.8803 28.9276 35.6225 28.9276C35.2091 28.9276 34.832 29.0352 34.4911 29.2504C34.1523 29.4656 33.8806 29.782 33.6761 30.1996C33.4737 30.6151 33.3725 31.1243 33.3725 31.7273C33.3725 32.3345 33.4737 32.8459 33.6761 33.2614C33.8806 33.6768 34.1523 33.9922 34.4911 34.2074C34.832 34.4205 35.2091 34.527 35.6225 34.527C35.8803 34.527 36.12 34.4876 36.3416 34.4087C36.5632 34.3299 36.7613 34.2202 36.936 34.0795C37.1108 33.9368 37.2556 33.7695 37.3707 33.5778C37.4879 33.386 37.5689 33.1783 37.6136 32.9545H38.2145C38.1612 33.255 38.061 33.5352 37.914 33.7951C37.7691 34.0529 37.5838 34.2788 37.3579 34.4727C37.1342 34.6665 36.8764 34.8178 36.5845 34.9265C36.2926 35.0352 35.9719 35.0895 35.6225 35.0895C35.0728 35.0895 34.5848 34.9521 34.1587 34.6772C33.7326 34.4002 33.398 34.0103 33.1551 33.5075C32.9144 33.0046 32.794 32.4112 32.794 31.7273C32.794 31.0433 32.9144 30.4499 33.1551 29.9471C33.398 29.4442 33.7326 29.0554 34.1587 28.7805C34.5848 28.5036 35.0728 28.3651 35.6225 28.3651C35.9719 28.3651 36.2926 28.4194 36.5845 28.5281C36.8764 28.6346 37.1342 28.7859 37.3579 28.9819C37.5838 29.1758 37.7691 29.4016 37.914 29.6594C38.061 29.9173 38.1612 30.1974 38.2145 30.5ZM40.4098 31.331H42.4328C42.8696 31.331 43.2404 31.4045 43.5451 31.5515C43.8519 31.6985 44.0863 31.9062 44.2482 32.1747C44.4101 32.4411 44.4911 32.7564 44.4911 33.1207C44.4911 33.4957 44.4101 33.8239 44.2482 34.1051C44.0884 34.3864 43.8551 34.6058 43.5483 34.7635C43.2436 34.9212 42.8718 35 42.4328 35H39.9783V28.4545H40.576V34.4727H42.4328C42.7461 34.4727 43.0113 34.4119 43.2287 34.2905C43.4481 34.1669 43.6154 34.0028 43.7304 33.7983C43.8455 33.5916 43.903 33.3615 43.903 33.108C43.903 32.7564 43.773 32.4624 43.5131 32.2259C43.2553 31.9872 42.8952 31.8679 42.4328 31.8679H40.4098V31.331Z" fill="#FEF7ED"/>
</svg>
