<svg width="50" height="50" viewBox="0 0 50 50" fill="none" xmlns="http://www.w3.org/2000/svg">
<path d="M10.6883 19.7273C10.6883 20.4176 10.5636 21.0142 10.3144 21.517C10.0651 22.0199 9.72309 22.4077 9.28843 22.6804C8.85377 22.9531 8.35732 23.0895 7.79909 23.0895C7.24085 23.0895 6.7444 22.9531 6.30974 22.6804C5.87508 22.4077 5.53311 22.0199 5.28382 21.517C5.03453 21.0142 4.90988 20.4176 4.90988 19.7273C4.90988 19.0369 5.03453 18.4403 5.28382 17.9375C5.53311 17.4347 5.87508 17.0469 6.30974 16.7741C6.7444 16.5014 7.24085 16.3651 7.79909 16.3651C8.35732 16.3651 8.85377 16.5014 9.28843 16.7741C9.72309 17.0469 10.0651 17.4347 10.3144 17.9375C10.5636 18.4403 10.6883 19.0369 10.6883 19.7273ZM9.92125 19.7273C9.92125 19.1605 9.82643 18.6822 9.6368 18.2923C9.4493 17.9023 9.19468 17.6072 8.87295 17.407C8.55335 17.2067 8.19539 17.1065 7.79909 17.1065C7.40278 17.1065 7.04376 17.2067 6.72203 17.407C6.40242 17.6072 6.14781 17.9023 5.95818 18.2923C5.77068 18.6822 5.67693 19.1605 5.67693 19.7273C5.67693 20.294 5.77068 20.7724 5.95818 21.1623C6.14781 21.5522 6.40242 21.8473 6.72203 22.0476C7.04376 22.2479 7.40278 22.348 7.79909 22.348C8.19539 22.348 8.55335 22.2479 8.87295 22.0476C9.19468 21.8473 9.4493 21.5522 9.6368 21.1623C9.82643 20.7724 9.92125 20.294 9.92125 19.7273ZM12.381 23V16.4545H13.1736V19.3693H16.6637V16.4545H17.4563V23H16.6637V20.0724H13.1736V23H12.381ZM18.8406 23V22.2713H19.0324C19.3051 22.2713 19.5171 22.1839 19.6684 22.0092C19.8197 21.8345 19.9284 21.5522 19.9944 21.1623C20.0626 20.7724 20.1084 20.2557 20.1318 19.6122L20.2469 16.4545H24.2355V23H23.4429V17.1577H21.0012L20.8989 19.7656C20.8733 20.4517 20.8105 21.0355 20.7103 21.517C20.6102 21.9986 20.4344 22.3661 20.183 22.6197C19.9316 22.8732 19.5651 23 19.0835 23H18.8406ZM26.4476 23H25.6167L28.0201 16.4545H28.8382L31.2417 23H30.4107L28.4547 17.4901H28.4036L26.4476 23ZM26.7544 20.4432H30.1039V21.1463H26.7544V20.4432ZM32.6212 16.4545H33.401V21.6065H33.4649L37.0445 16.4545H37.8115V23H37.0189V17.8608H36.955L33.3882 23H32.6212V16.4545ZM35.8428 14.8182H36.5459C36.5459 15.1634 36.4266 15.4457 36.188 15.6651C35.9493 15.8846 35.6255 15.9943 35.2164 15.9943C34.8137 15.9943 34.493 15.8846 34.2544 15.6651C34.0179 15.4457 33.8996 15.1634 33.8996 14.8182H34.6027C34.6027 14.9844 34.6485 15.1303 34.7402 15.256C34.8339 15.3817 34.9926 15.4446 35.2164 15.4446C35.4401 15.4446 35.5999 15.3817 35.6958 15.256C35.7938 15.1303 35.8428 14.9844 35.8428 14.8182ZM39.7576 23V16.4545H40.5502V19.3693H44.0402V16.4545H44.8328V23H44.0402V20.0724H40.5502V23H39.7576Z" fill="#241515"/>
<path d="M8.23335 35.0895C7.81147 35.0895 7.43541 35.017 7.10515 34.8722C6.77702 34.7273 6.51602 34.5259 6.32212 34.2681C6.13036 34.0082 6.02596 33.7067 6.00891 33.3636H6.81431C6.83136 33.5746 6.9038 33.7567 7.03164 33.9102C7.15948 34.0614 7.32674 34.1786 7.53342 34.2617C7.74009 34.3448 7.96914 34.3864 8.22056 34.3864C8.50181 34.3864 8.7511 34.3374 8.96843 34.2393C9.18576 34.1413 9.35622 34.005 9.47979 33.8303C9.60337 33.6555 9.66516 33.4531 9.66516 33.223C9.66516 32.9822 9.6055 32.7702 9.48619 32.587C9.36687 32.4016 9.19215 32.2567 8.96204 32.1523C8.73193 32.0479 8.45068 31.9957 8.11829 31.9957H7.59414V31.2926H8.11829C8.37823 31.2926 8.60621 31.2457 8.80224 31.152C9.00039 31.0582 9.15487 30.9261 9.26566 30.7557C9.37859 30.5852 9.43505 30.3849 9.43505 30.1548C9.43505 29.9332 9.38604 29.7404 9.28803 29.5763C9.19002 29.4123 9.05153 29.2844 8.87255 29.1928C8.6957 29.1012 8.4869 29.0554 8.24613 29.0554C8.02028 29.0554 7.80721 29.0969 7.60693 29.18C7.40877 29.261 7.24684 29.3793 7.12113 29.5348C6.99542 29.6882 6.92724 29.8736 6.91658 30.0909H6.14954C6.16232 29.7479 6.26566 29.4474 6.45955 29.1896C6.65344 28.9297 6.907 28.7273 7.22021 28.5824C7.53555 28.4375 7.88178 28.3651 8.25891 28.3651C8.66374 28.3651 9.01104 28.4471 9.30082 28.6112C9.59059 28.7731 9.81325 28.9872 9.96879 29.2536C10.1243 29.5199 10.2021 29.8075 10.2021 30.1165C10.2021 30.4851 10.1051 30.7994 9.91126 31.0593C9.7195 31.3192 9.45849 31.4993 9.12823 31.5994V31.6506C9.54158 31.7187 9.86438 31.8945 10.0966 32.1779C10.3289 32.4592 10.445 32.8075 10.445 33.223C10.445 33.5788 10.348 33.8984 10.1542 34.1818C9.96239 34.4631 9.70032 34.6847 9.36793 34.8466C9.03555 35.0085 8.65735 35.0895 8.23335 35.0895ZM12.4957 35H11.6647L14.0681 28.4545H14.8863L17.2897 35H16.4588L14.5028 29.4901H14.4517L12.4957 35ZM12.8025 32.4432H16.1519V33.1463H12.8025V32.4432ZM23.5656 28.4545V35H22.7729V29.1577H19.4747V35H18.682V28.4545H23.5656ZM25.5244 28.4545H26.3042V33.6065H26.3681L29.9477 28.4545H30.7147V35H29.9221V29.8608H29.8582L26.2914 35H25.5244V28.4545ZM37.9278 30.5H37.1352C37.0883 30.272 37.0063 30.0717 36.8891 29.8991C36.774 29.7266 36.6334 29.5817 36.4672 29.4645C36.3031 29.3452 36.121 29.2557 35.9207 29.196C35.7204 29.1364 35.5116 29.1065 35.2943 29.1065C34.898 29.1065 34.5389 29.2067 34.2172 29.407C33.8976 29.6072 33.643 29.9023 33.4534 30.2923C33.2659 30.6822 33.1721 31.1605 33.1721 31.7273C33.1721 32.294 33.2659 32.7724 33.4534 33.1623C33.643 33.5522 33.8976 33.8473 34.2172 34.0476C34.5389 34.2479 34.898 34.348 35.2943 34.348C35.5116 34.348 35.7204 34.3182 35.9207 34.2585C36.121 34.1989 36.3031 34.1104 36.4672 33.9933C36.6334 33.8739 36.774 33.728 36.8891 33.5554C37.0063 33.3807 37.0883 33.1804 37.1352 32.9545H37.9278C37.8681 33.2891 37.7595 33.5884 37.6018 33.8526C37.4441 34.1168 37.2481 34.3416 37.0137 34.527C36.7793 34.7102 36.5162 34.8498 36.2243 34.9457C35.9345 35.0415 35.6245 35.0895 35.2943 35.0895C34.736 35.0895 34.2396 34.9531 33.8049 34.6804C33.3703 34.4077 33.0283 34.0199 32.779 33.517C32.5297 33.0142 32.4051 32.4176 32.4051 31.7273C32.4051 31.0369 32.5297 30.4403 32.779 29.9375C33.0283 29.4347 33.3703 29.0469 33.8049 28.7741C34.2396 28.5014 34.736 28.3651 35.2943 28.3651C35.6245 28.3651 35.9345 28.413 36.2243 28.5089C36.5162 28.6048 36.7793 28.7454 37.0137 28.9308C37.2481 29.114 37.4441 29.3377 37.6018 29.6019C37.7595 29.864 37.8681 30.1634 37.9278 30.5ZM40.1567 31.2031H42.0231C42.4919 31.2031 42.8871 31.2798 43.2089 31.4332C43.5327 31.5866 43.7778 31.8029 43.9439 32.082C44.1123 32.3612 44.1964 32.6903 44.1964 33.0696C44.1964 33.4489 44.1123 33.7834 43.9439 34.0732C43.7778 34.3629 43.5327 34.5898 43.2089 34.7539C42.8871 34.918 42.4919 35 42.0231 35H39.5686V28.4545H40.3612V34.3097H42.0231C42.3214 34.3097 42.5739 34.25 42.7806 34.1307C42.9894 34.0092 43.1471 33.8537 43.2536 33.6641C43.3623 33.4723 43.4166 33.2699 43.4166 33.0568C43.4166 32.7436 43.2962 32.4741 43.0555 32.2482C42.8147 32.0202 42.4706 31.9062 42.0231 31.9062H40.1567V31.2031Z" fill="#241515"/>
</svg>
