<svg width="50" height="50" viewBox="0 0 50 50" fill="none" xmlns="http://www.w3.org/2000/svg">
<path d="M11.245 19.7273C11.245 20.4027 11.1278 20.9929 10.8935 21.4979C10.6591 22.0007 10.3331 22.3917 9.91547 22.6708C9.49999 22.9499 9.02059 23.0895 8.47726 23.0895C7.93181 23.0895 7.45028 22.9499 7.03266 22.6708C6.61718 22.3896 6.29225 21.9975 6.05788 21.4947C5.8235 20.9897 5.70631 20.4006 5.70631 19.7273C5.70631 19.0518 5.8235 18.4627 6.05788 17.9599C6.29438 17.457 6.62038 17.0661 7.03586 16.7869C7.45134 16.5057 7.93181 16.3651 8.47726 16.3651C9.02059 16.3651 9.49999 16.5046 9.91547 16.7837C10.3331 17.0629 10.6591 17.4549 10.8935 17.9599C11.1278 18.4627 11.245 19.0518 11.245 19.7273ZM10.8551 19.7273C10.8551 19.12 10.7528 18.5938 10.5483 18.1484C10.3459 17.7031 10.0657 17.359 9.70773 17.1161C9.34978 16.8711 8.93962 16.7486 8.47726 16.7486C8.01491 16.7486 7.60475 16.87 7.2468 17.1129C6.88884 17.3537 6.60759 17.6978 6.40305 18.1452C6.20063 18.5906 6.09942 19.1179 6.09942 19.7273C6.09942 20.3303 6.19957 20.8555 6.39985 21.3029C6.60226 21.7482 6.88245 22.0934 7.2404 22.3384C7.59836 22.5835 8.01065 22.706 8.47726 22.706C8.93962 22.706 9.34978 22.5845 9.70773 22.3416C10.0657 22.0966 10.3459 21.7514 10.5483 21.3061C10.7528 20.8608 10.8551 20.3345 10.8551 19.7273ZM13.1663 23V16.4545H13.5658V19.5387H17.5097V16.4545H17.9092V23H17.5097V19.9094H13.5658V23H13.1663ZM19.4877 23V22.6197H19.6475C19.9159 22.6197 20.1311 22.527 20.2931 22.3416C20.4571 22.1562 20.5796 21.8612 20.6606 21.4563C20.7437 21.0515 20.7959 20.5188 20.8172 19.8583L20.9387 16.4545H24.6269V23H24.2274V16.8253H21.3222L21.2103 19.9702C21.1869 20.6669 21.1219 21.239 21.0154 21.6864C20.911 22.1339 20.7469 22.4652 20.5232 22.6804C20.2994 22.8935 19.9958 23 19.6123 23H19.4877ZM26.624 23H26.2022L28.564 16.4545H29.0242L31.3861 23H30.9642L28.8101 16.9691H28.7781L26.624 23ZM27.2217 20.5359H30.3666V20.9066H27.2217V20.5359ZM32.967 16.4545H33.3633V22.2809H33.4016L37.5788 16.4545H37.9688V23H37.5693V17.18H37.5309L33.3601 23H32.967V16.4545ZM36.0192 14.8182H36.3899C36.3899 15.0845 36.3079 15.2976 36.1438 15.4574C35.9798 15.6172 35.755 15.6971 35.4695 15.6971C35.1861 15.6971 34.9624 15.6172 34.7983 15.4574C34.6342 15.2976 34.5522 15.0845 34.5522 14.8182H34.9229C34.9229 14.9865 34.9677 15.1218 35.0572 15.2241C35.1467 15.3263 35.2841 15.3775 35.4695 15.3775C35.6548 15.3775 35.7923 15.3263 35.8818 15.2241C35.9734 15.1218 36.0192 14.9865 36.0192 14.8182ZM40.2176 23V16.4545H40.6171V19.5387H44.561V16.4545H44.9605V23H44.561V19.9094H40.6171V23H40.2176Z" fill="#C9C9C9"/>
<path d="M9.00021 35.0895C8.61243 35.0895 8.26619 35.016 7.96151 34.869C7.65682 34.7198 7.41499 34.5163 7.23601 34.2585C7.05916 33.9986 6.96754 33.7003 6.96115 33.3636H7.36705C7.37344 33.63 7.44908 33.8654 7.59396 34.07C7.73885 34.2724 7.93274 34.4311 8.17564 34.5462C8.42067 34.6612 8.6934 34.7188 8.99382 34.7188C9.31982 34.7188 9.60533 34.6548 9.85036 34.527C10.0975 34.3991 10.2903 34.2266 10.4288 34.0092C10.5673 33.7898 10.6366 33.5447 10.6366 33.2741C10.6366 32.9844 10.5609 32.7308 10.4097 32.5135C10.2584 32.294 10.0474 32.1236 9.77685 32.0021C9.50625 31.8786 9.19197 31.8168 8.83402 31.8168H8.59112V31.446H8.83402C9.13871 31.446 9.41144 31.3906 9.6522 31.2798C9.89297 31.1669 10.0826 31.0082 10.2211 30.8036C10.3617 30.5991 10.432 30.3572 10.432 30.0781C10.432 29.8161 10.3713 29.5838 10.2499 29.3814C10.1284 29.179 9.96009 29.0202 9.74489 28.9052C9.53182 28.7901 9.28146 28.7326 8.99382 28.7326C8.71683 28.7326 8.46541 28.7891 8.23956 28.902C8.01584 29.0149 7.83793 29.1737 7.70582 29.3782C7.57372 29.5827 7.50661 29.8203 7.50447 30.0909H7.11136C7.11563 29.7521 7.20085 29.4528 7.36705 29.1928C7.53537 28.9329 7.76016 28.7305 8.04141 28.5856C8.32479 28.4386 8.64439 28.3651 9.00021 28.3651C9.36243 28.3651 9.6799 28.4407 9.95263 28.592C10.2275 28.7433 10.4406 28.9478 10.5918 29.2056C10.7452 29.4634 10.8219 29.75 10.8219 30.0653C10.8219 30.4446 10.7165 30.7695 10.5055 31.0401C10.2967 31.3086 10.0134 31.495 9.6554 31.5994V31.6346C10.0794 31.7283 10.415 31.9212 10.6621 32.2131C10.9093 32.505 11.0329 32.8587 11.0329 33.2741C11.0329 33.6151 10.9455 33.9229 10.7708 34.1978C10.5961 34.4727 10.3553 34.69 10.0485 34.8498C9.74382 35.0096 9.39439 35.0895 9.00021 35.0895ZM12.8215 35H12.3996L14.7615 28.4545H15.2217L17.5836 35H17.1617L15.0076 28.9691H14.9756L12.8215 35ZM13.4192 32.5359H16.564V32.9066H13.4192V32.5359ZM23.6101 28.4545V35H23.2074V28.8253H19.4585V35H19.059V28.4545H23.6101ZM25.7559 28.4545H26.1522V34.2809H26.1906L30.3678 28.4545H30.7577V35H30.3582V29.18H30.3198L26.149 35H25.7559V28.4545ZM37.9923 30.5H37.5832C37.5406 30.2784 37.4607 30.0643 37.3435 29.8576C37.2263 29.6488 37.0751 29.4613 36.8897 29.2951C36.7065 29.1268 36.4934 28.9936 36.2505 28.8956C36.0076 28.7976 35.7391 28.7486 35.4451 28.7486C35.0147 28.7486 34.6184 28.8636 34.2562 29.0938C33.8961 29.3217 33.6074 29.6573 33.3901 30.1005C33.1749 30.5437 33.0673 31.0859 33.0673 31.7273C33.0673 32.3729 33.1749 32.9173 33.3901 33.3604C33.6074 33.8036 33.8961 34.1392 34.2562 34.3672C34.6184 34.593 35.0147 34.706 35.4451 34.706C35.7391 34.706 36.0076 34.658 36.2505 34.5621C36.4934 34.4641 36.7065 34.332 36.8897 34.1658C37.0751 33.9975 37.2263 33.8089 37.3435 33.6001C37.4607 33.3913 37.5406 33.1761 37.5832 32.9545H37.9923C37.9455 33.2187 37.8549 33.4776 37.7207 33.7312C37.5886 33.9847 37.4138 34.2148 37.1965 34.4215C36.9813 34.6261 36.7267 34.7891 36.4327 34.9105C36.1408 35.0298 35.8116 35.0895 35.4451 35.0895C34.8996 35.0895 34.4192 34.951 34.0037 34.674C33.5882 34.3949 33.2622 34.0028 33.0257 33.4979C32.7913 32.9929 32.6741 32.4027 32.6741 31.7273C32.6741 31.0518 32.7913 30.4616 33.0257 29.9567C33.2622 29.4517 33.5882 29.0607 34.0037 28.7837C34.4192 28.5046 34.8996 28.3651 35.4451 28.3651C35.8116 28.3651 36.1408 28.4258 36.4327 28.5472C36.7267 28.6665 36.9813 28.8285 37.1965 29.033C37.4138 29.2354 37.5886 29.4634 37.7207 29.717C37.8549 29.9705 37.9455 30.2315 37.9923 30.5ZM40.1597 31.4588H42.3426C42.7453 31.4588 43.0915 31.5291 43.3813 31.6697C43.6732 31.8104 43.8969 32.0096 44.0524 32.2674C44.208 32.5231 44.2857 32.8246 44.2857 33.1719C44.2857 33.5405 44.208 33.8622 44.0524 34.1371C43.899 34.4119 43.6774 34.625 43.3877 34.7763C43.0979 34.9254 42.7495 35 42.3426 35H39.888V28.4545H40.2875V34.6325H42.3426C42.6686 34.6325 42.9466 34.5707 43.1767 34.4471C43.409 34.3235 43.5858 34.1509 43.7073 33.9293C43.8287 33.7077 43.8894 33.451 43.8894 33.1591C43.8916 32.7692 43.7531 32.4506 43.474 32.2035C43.197 31.9542 42.8198 31.8295 42.3426 31.8295H40.1597V31.4588Z" fill="#C9C9C9"/>
</svg>
