<svg width="50" height="50" viewBox="0 0 50 50" fill="none" xmlns="http://www.w3.org/2000/svg">
<path d="M10.4933 19.7273C10.4933 20.4091 10.3718 21.0025 10.1289 21.5075C9.88601 22.0103 9.55149 22.4002 9.12536 22.6772C8.70135 22.9521 8.21342 23.0895 7.66158 23.0895C7.10973 23.0895 6.62074 22.9521 6.1946 22.6772C5.7706 22.4002 5.43714 22.0103 5.19425 21.5075C4.95348 21.0025 4.8331 20.4091 4.8331 19.7273C4.8331 19.0455 4.95348 18.4531 5.19425 17.9503C5.43714 17.4453 5.77166 17.0554 6.1978 16.7805C6.62393 16.5036 7.11186 16.3651 7.66158 16.3651C8.21342 16.3651 8.70135 16.5036 9.12536 16.7805C9.55149 17.0554 9.88601 17.4453 10.1289 17.9503C10.3718 18.4531 10.4933 19.0455 10.4933 19.7273ZM9.91158 19.7273C9.91158 19.1413 9.81357 18.6396 9.61754 18.2219C9.42152 17.8022 9.15412 17.4815 8.81534 17.2599C8.47656 17.0384 8.09197 16.9276 7.66158 16.9276C7.23331 16.9276 6.84979 17.0384 6.51101 17.2599C6.17223 17.4815 5.90376 17.8011 5.70561 18.2188C5.50959 18.6364 5.41158 19.1392 5.41158 19.7273C5.41158 20.3132 5.50959 20.815 5.70561 21.2326C5.90163 21.6502 6.16903 21.9709 6.50781 22.1946C6.84659 22.4162 7.23118 22.527 7.66158 22.527C8.09197 22.527 8.47656 22.4162 8.81534 22.1946C9.15625 21.973 9.42472 21.6534 9.62074 21.2358C9.81676 20.8161 9.91371 20.3132 9.91158 19.7273ZM12.3887 23V16.4545H12.9863V19.4556H16.7001V16.4545H17.2977V23H16.7001V19.9925H12.9863V23H12.3887ZM18.8664 23V22.4471H19.0389C19.3095 22.4471 19.5237 22.3576 19.6813 22.1786C19.839 21.9975 19.9551 21.7077 20.0297 21.3093C20.1043 20.9109 20.1533 20.3867 20.1767 19.7369L20.2918 16.4545H24.1334V23H23.5357V16.9915H20.8607L20.7552 19.8679C20.7296 20.5604 20.6657 21.1388 20.5634 21.6033C20.4612 22.0657 20.2907 22.4141 20.0521 22.6484C19.8156 22.8828 19.4811 23 19.0485 23H18.8664ZM26.3324 23H25.706L28.087 16.4545H28.7262L31.1073 23H30.4809L28.429 17.2312H28.3843L26.3324 23ZM26.7831 20.4911H30.0302V21.0281H26.7831V20.4911ZM32.6791 16.4545H33.2672V21.9421H33.3183L37.1951 16.4545H37.7767V23H37.1791V17.5188H37.1279L33.2576 23H32.6791V16.4545ZM35.8144 14.8182H36.3513C36.3513 15.1229 36.2501 15.37 36.0477 15.5597C35.8474 15.7493 35.5736 15.8441 35.2263 15.8441C34.8833 15.8441 34.6116 15.7493 34.4113 15.5597C34.211 15.37 34.1109 15.1229 34.1109 14.8182H34.6478C34.6478 14.9844 34.6926 15.125 34.7821 15.2401C34.8737 15.353 35.0218 15.4094 35.2263 15.4094C35.4309 15.4094 35.58 15.353 35.6738 15.2401C35.7675 15.125 35.8144 14.9844 35.8144 14.8182ZM39.967 23V16.4545H40.5646V19.4556H44.2784V16.4545H44.8761V23H44.2784V19.9925H40.5646V23H39.967Z" fill="#FEF7ED"/>
<path d="M8.14018 35.0895C7.73748 35.0895 7.3774 35.017 7.05993 34.8722C6.74245 34.7251 6.49103 34.5217 6.30566 34.2617C6.12029 34.0018 6.02228 33.7024 6.01163 33.3636H6.61568C6.62633 33.6023 6.69984 33.8111 6.8362 33.9901C6.97257 34.1669 7.15368 34.3054 7.37953 34.4055C7.60538 34.5036 7.8568 34.5526 8.13379 34.5526C8.43635 34.5526 8.70268 34.4961 8.93279 34.3832C9.16504 34.2702 9.34615 34.1158 9.47612 33.9197C9.60822 33.7216 9.67427 33.4979 9.67427 33.2486C9.67427 32.9844 9.60716 32.7511 9.47292 32.5487C9.33869 32.3462 9.14586 32.1886 8.89444 32.0756C8.64515 31.9627 8.34686 31.9062 7.99956 31.9062H7.61603V31.3693H7.99956C8.28294 31.3693 8.53329 31.3182 8.75062 31.2159C8.97008 31.1115 9.14267 30.9656 9.26838 30.7781C9.39409 30.5906 9.45694 30.37 9.45694 30.1165C9.45694 29.8757 9.40261 29.6637 9.29395 29.4805C9.18528 29.2972 9.03187 29.1534 8.83372 29.049C8.6377 28.9446 8.40865 28.8924 8.14657 28.8924C7.89302 28.8924 7.66078 28.9414 7.44984 29.0394C7.2389 29.1374 7.06845 29.2759 6.93848 29.4549C6.81064 29.6339 6.74245 29.8459 6.73393 30.0909H6.15545C6.16397 29.75 6.25772 29.4506 6.4367 29.1928C6.61781 28.9329 6.85751 28.7305 7.15581 28.5856C7.45623 28.4386 7.78862 28.3651 8.15297 28.3651C8.53862 28.3651 8.87207 28.4439 9.15332 28.6016C9.43457 28.7592 9.6519 28.9691 9.80531 29.2312C9.96085 29.4911 10.0386 29.7777 10.0386 30.0909C10.0386 30.4638 9.93741 30.7834 9.735 31.0497C9.53258 31.3139 9.25985 31.4972 8.91681 31.5994V31.641C9.33443 31.7241 9.66255 31.9094 9.90119 32.1971C10.142 32.4826 10.2623 32.8331 10.2623 33.2486C10.2623 33.598 10.1707 33.9123 9.98748 34.1914C9.80424 34.4684 9.55282 34.6879 9.23322 34.8498C8.91575 35.0096 8.5514 35.0895 8.14018 35.0895ZM12.2752 35H11.6488L14.0298 28.4545H14.669L17.0501 35H16.4236L14.3718 29.2312H14.327L12.2752 35ZM12.7258 32.4911H15.973V33.0281H12.7258V32.4911ZM23.2912 28.4545V35H22.6968V28.9915H19.1716V35H18.5739V28.4545H23.2912ZM25.4351 28.4545H26.0232V33.9421H26.0743L29.9511 28.4545H30.5328V35H29.9351V29.5188H29.884L26.0136 35H25.4351V28.4545ZM37.8494 30.5H37.2486C37.2039 30.2763 37.1229 30.0696 37.0057 29.88C36.8906 29.6882 36.7458 29.521 36.571 29.3782C36.3963 29.2354 36.1982 29.1246 35.9766 29.0458C35.755 28.967 35.5153 28.9276 35.2575 28.9276C34.8441 28.9276 34.467 29.0352 34.1261 29.2504C33.7873 29.4656 33.5156 29.782 33.3111 30.1996C33.1087 30.6151 33.0075 31.1243 33.0075 31.7273C33.0075 32.3345 33.1087 32.8459 33.3111 33.2614C33.5156 33.6768 33.7873 33.9922 34.1261 34.2074C34.467 34.4205 34.8441 34.527 35.2575 34.527C35.5153 34.527 35.755 34.4876 35.9766 34.4087C36.1982 34.3299 36.3963 34.2202 36.571 34.0795C36.7458 33.9368 36.8906 33.7695 37.0057 33.5778C37.1229 33.386 37.2039 33.1783 37.2486 32.9545H37.8494C37.7962 33.255 37.696 33.5352 37.549 33.7951C37.4041 34.0529 37.2188 34.2788 36.9929 34.4727C36.7692 34.6665 36.5114 34.8178 36.2195 34.9265C35.9276 35.0352 35.6069 35.0895 35.2575 35.0895C34.7078 35.0895 34.2198 34.9521 33.7937 34.6772C33.3676 34.4002 33.033 34.0103 32.7901 33.5075C32.5494 33.0046 32.429 32.4112 32.429 31.7273C32.429 31.0433 32.5494 30.4499 32.7901 29.9471C33.033 29.4442 33.3676 29.0554 33.7937 28.7805C34.2198 28.5036 34.7078 28.3651 35.2575 28.3651C35.6069 28.3651 35.9276 28.4194 36.2195 28.5281C36.5114 28.6346 36.7692 28.7859 36.9929 28.9819C37.2188 29.1758 37.4041 29.4016 37.549 29.6594C37.696 29.9173 37.7962 30.1974 37.8494 30.5ZM40.1348 31.331H42.1578C42.5946 31.331 42.9654 31.4045 43.2701 31.5515C43.5769 31.6985 43.8113 31.9062 43.9732 32.1747C44.1351 32.4411 44.2161 32.7564 44.2161 33.1207C44.2161 33.4957 44.1351 33.8239 43.9732 34.1051C43.8134 34.3864 43.5801 34.6058 43.2733 34.7635C42.9686 34.9212 42.5968 35 42.1578 35H39.7033V28.4545H40.301V34.4727H42.1578C42.4711 34.4727 42.7363 34.4119 42.9537 34.2905C43.1731 34.1669 43.3404 34.0028 43.4554 33.7983C43.5705 33.5916 43.628 33.3615 43.628 33.108C43.628 32.7564 43.498 32.4624 43.2381 32.2259C42.9803 31.9872 42.6202 31.8679 42.1578 31.8679H40.1348V31.331Z" fill="#FEF7ED"/>
</svg>
