<svg width="50" height="50" viewBox="0 0 50 50" fill="none" xmlns="http://www.w3.org/2000/svg">
<path d="M11.3481 20.3636C11.3481 21.1307 11.2096 21.7936 10.9326 22.3523C10.6556 22.911 10.2757 23.3419 9.7927 23.6449C9.30975 23.9479 8.75814 24.0994 8.13787 24.0994C7.51761 24.0994 6.966 23.9479 6.48304 23.6449C6.00009 23.3419 5.62012 22.911 5.34313 22.3523C5.06614 21.7936 4.92764 21.1307 4.92764 20.3636C4.92764 19.5966 5.06614 18.9337 5.34313 18.375C5.62012 17.8163 6.00009 17.3854 6.48304 17.0824C6.966 16.7794 7.51761 16.6278 8.13787 16.6278C8.75814 16.6278 9.30975 16.7794 9.7927 17.0824C10.2757 17.3854 10.6556 17.8163 10.9326 18.375C11.2096 18.9337 11.3481 19.5966 11.3481 20.3636ZM10.4958 20.3636C10.4958 19.7339 10.3905 19.2024 10.1798 18.7692C9.97144 18.3359 9.68853 18.008 9.33105 17.7855C8.97594 17.563 8.57821 17.4517 8.13787 17.4517C7.69753 17.4517 7.29862 17.563 6.94114 17.7855C6.58602 18.008 6.30312 18.3359 6.09242 18.7692C5.88408 19.2024 5.77992 19.7339 5.77992 20.3636C5.77992 20.9934 5.88408 21.5249 6.09242 21.9581C6.30312 22.3913 6.58602 22.7192 6.94114 22.9418C7.29862 23.1643 7.69753 23.2756 8.13787 23.2756C8.57821 23.2756 8.97594 23.1643 9.33105 22.9418C9.68853 22.7192 9.97144 22.3913 10.1798 21.9581C10.3905 21.5249 10.4958 20.9934 10.4958 20.3636ZM12.5289 24V16.7273H13.4096V19.9659H17.2874V16.7273H18.1681V24H17.2874V20.7472H13.4096V24H12.5289ZM19.0063 24V23.1903H19.2193C19.5224 23.1903 19.7579 23.0933 19.926 22.8991C20.0941 22.705 20.2148 22.3913 20.2882 21.9581C20.364 21.5249 20.4149 20.9508 20.4409 20.2358L20.5688 16.7273H25.0006V24H24.1199V17.5085H21.4068L21.2932 20.4062C21.2648 21.1686 21.195 21.8172 21.0837 22.3523C20.9724 22.8873 20.7771 23.2957 20.4977 23.5774C20.2184 23.8591 19.8112 24 19.2762 24H19.0063ZM26.7585 24H25.8352L28.5056 16.7273H29.4147L32.0852 24H31.1619L28.9886 17.8778H28.9318L26.7585 24ZM27.0994 21.1591H30.821V21.9403H27.0994V21.1591ZM32.918 16.7273H33.7845V22.4517H33.8555L37.8328 16.7273H38.685V24H37.8044V18.2898H37.7333L33.7703 24H32.918V16.7273ZM36.4975 14.9091H37.2788C37.2788 15.2926 37.1462 15.6063 36.8811 15.8501C36.6159 16.094 36.2561 16.2159 35.8015 16.2159C35.3541 16.2159 34.9978 16.094 34.7326 15.8501C34.4698 15.6063 34.3384 15.2926 34.3384 14.9091H35.1197C35.1197 15.0937 35.1706 15.2559 35.2724 15.3956C35.3766 15.5353 35.5529 15.6051 35.8015 15.6051C36.0501 15.6051 36.2276 15.5353 36.3342 15.3956C36.4431 15.2559 36.4975 15.0937 36.4975 14.9091ZM40.1473 24V16.7273H41.028V19.9659H44.9058V16.7273H45.7865V24H44.9058V20.7472H41.028V24H40.1473Z" fill="#FEF7ED"/>
<path d="M8.62038 35.0994C8.15163 35.0994 7.73378 35.0189 7.36683 34.858C7.00225 34.697 6.71224 34.4732 6.4968 34.1868C6.28373 33.898 6.16773 33.563 6.14879 33.1818H7.04368C7.06262 33.4162 7.14311 33.6186 7.28515 33.7891C7.4272 33.9571 7.61304 34.0874 7.84268 34.1797C8.07232 34.272 8.32682 34.3182 8.60618 34.3182C8.91868 34.3182 9.19567 34.2637 9.43714 34.1548C9.67862 34.0459 9.86801 33.8944 10.0053 33.7003C10.1426 33.5062 10.2113 33.2812 10.2113 33.0256C10.2113 32.758 10.145 32.5225 10.0124 32.3189C9.87985 32.1129 9.68572 31.9519 9.43004 31.8359C9.17436 31.7199 8.86186 31.6619 8.49254 31.6619H7.91015V30.8807H8.49254C8.78137 30.8807 9.03468 30.8286 9.25248 30.7244C9.47265 30.6203 9.64429 30.4735 9.7674 30.2841C9.89287 30.0947 9.95561 29.8722 9.95561 29.6165C9.95561 29.3703 9.90116 29.156 9.79226 28.9737C9.68336 28.7914 9.52947 28.6494 9.33061 28.5476C9.13411 28.4458 8.90211 28.3949 8.63459 28.3949C8.38364 28.3949 8.1469 28.4411 7.92436 28.5334C7.70419 28.6233 7.52426 28.7547 7.38459 28.9276C7.24491 29.098 7.16915 29.304 7.15731 29.5455H6.30504C6.31925 29.1643 6.43407 28.8305 6.6495 28.544C6.86494 28.2552 7.14666 28.0303 7.49467 27.8693C7.84505 27.7083 8.22976 27.6278 8.64879 27.6278C9.0986 27.6278 9.48449 27.719 9.80646 27.9013C10.1284 28.0812 10.3758 28.3191 10.5486 28.6151C10.7215 28.911 10.8079 29.2306 10.8079 29.5739C10.8079 29.9834 10.7002 30.3326 10.4847 30.6214C10.2717 30.9103 9.98165 31.1103 9.6147 31.2216V31.2784C10.074 31.3542 10.4326 31.5495 10.6907 31.8643C10.9487 32.1768 11.0778 32.5639 11.0778 33.0256C11.0778 33.4209 10.9701 33.776 10.7546 34.0909C10.5415 34.4034 10.2504 34.6496 9.88104 34.8295C9.51172 35.0095 9.0915 35.0994 8.62038 35.0994ZM12.6563 35H11.733L14.4035 27.7273H15.3126L17.983 35H17.0597L14.8864 28.8778H14.8296L12.6563 35ZM12.9972 32.1591H16.7188V32.9403H12.9972V32.1591ZM24.2562 27.7273V35H23.3755V28.5085H19.7107V35H18.83V27.7273H24.2562ZM25.7326 27.7273H26.5991V33.4517H26.6701L30.6474 27.7273H31.4997V35H30.619V29.2898H30.548L26.5849 35H25.7326V27.7273ZM38.8142 30H37.9335C37.8814 29.7467 37.7903 29.5241 37.6601 29.3324C37.5322 29.1406 37.376 28.9796 37.1913 28.8494C37.009 28.7169 36.8066 28.6174 36.5841 28.5511C36.3616 28.4848 36.1295 28.4517 35.8881 28.4517C35.4477 28.4517 35.0488 28.563 34.6913 28.7855C34.3362 29.008 34.0533 29.3359 33.8426 29.7692C33.6343 30.2024 33.5301 30.7339 33.5301 31.3636C33.5301 31.9934 33.6343 32.5249 33.8426 32.9581C34.0533 33.3913 34.3362 33.7192 34.6913 33.9418C35.0488 34.1643 35.4477 34.2756 35.8881 34.2756C36.1295 34.2756 36.3616 34.2424 36.5841 34.1761C36.8066 34.1098 37.009 34.0116 37.1913 33.8814C37.376 33.7488 37.5322 33.5866 37.6601 33.3949C37.7903 33.2008 37.8814 32.9782 37.9335 32.7273H38.8142C38.7479 33.099 38.6272 33.4316 38.452 33.7251C38.2768 34.0187 38.059 34.2685 37.7986 34.4744C37.5382 34.678 37.2458 34.8331 36.9215 34.9396C36.5995 35.0462 36.255 35.0994 35.8881 35.0994C35.2678 35.0994 34.7162 34.9479 34.2332 34.6449C33.7503 34.3419 33.3703 33.911 33.0933 33.3523C32.8163 32.7936 32.6778 32.1307 32.6778 31.3636C32.6778 30.5966 32.8163 29.9337 33.0933 29.375C33.3703 28.8163 33.7503 28.3854 34.2332 28.0824C34.7162 27.7794 35.2678 27.6278 35.8881 27.6278C36.255 27.6278 36.5995 27.6811 36.9215 27.7876C37.2458 27.8942 37.5382 28.0504 37.7986 28.2564C38.059 28.46 38.2768 28.7086 38.452 29.0021C38.6272 29.2933 38.7479 29.6259 38.8142 30ZM40.5907 30.7812H42.6646C43.1854 30.7812 43.6246 30.8665 43.9821 31.0369C44.3419 31.2074 44.6142 31.4477 44.7988 31.7578C44.9859 32.0679 45.0794 32.4337 45.0794 32.8551C45.0794 33.2765 44.9859 33.6482 44.7988 33.9702C44.6142 34.2921 44.3419 34.5443 43.9821 34.7266C43.6246 34.9089 43.1854 35 42.6646 35H39.9373V27.7273H40.818V34.233H42.6646C42.996 34.233 43.2766 34.1667 43.5062 34.0341C43.7382 33.8991 43.9134 33.7263 44.0318 33.5156C44.1525 33.3026 44.2129 33.0777 44.2129 32.8409C44.2129 32.4929 44.0791 32.1934 43.8116 31.9425C43.5441 31.6892 43.1618 31.5625 42.6646 31.5625H40.5907V30.7812Z" fill="#FEF7ED"/>
</svg>
